<?xml version="1.0" encoding="UTF-8" standalone="no"?>
<svg
   width="64"
   height="64"
   viewBox="0 0 64 64"
   fill="none"
   version="1.1"
   id="svg146"
   xmlns="http://www.w3.org/2000/svg"
   xmlns:svg="http://www.w3.org/2000/svg">
  <defs
     id="defs150" />
  <path
     d="m 37.715,31.9487 c 0,-3.0602 -2.5586,-5.5411 -5.715,-5.5411 -3.1562,0 -5.7149,2.4809 -5.7149,5.5411 0,3.0603 2.5587,5.5413 5.7149,5.5413 3.1564,0 5.715,-2.481 5.715,-5.5413 z"
     fill="#53C1DE"
     id="path142"
     style="fill:#e5e5e5;fill-opacity:1" />
  <path
     fill-rule="evenodd"
     clip-rule="evenodd"
     d="M 50.5608,21.6613 C 51.7677,16.9063 53.2848,8.08855 47.9368,5.09907 42.614,2.12261 35.6873,7.82603 32.0297,11.2495 28.3828,7.86015 21.2615,2.1811 15.9181,5.18008 10.5973,8.16651 12.2382,16.838 13.4718,21.6228 8.5084,22.9897 0,25.9337 0,31.9487 c 0,5.9978 8.49954,9.2008 13.4336,10.5663 -1.2382,4.8114 -2.7969,13.359 2.5307,16.3387 5.3632,2.9985 12.4624,-2.5454 16.1538,-6.0063 3.6811,3.4436 10.5413,9.0237 15.8652,6.0357 C 53.3241,55.8855 51.933,47.186 50.6993,42.3733 55.4822,41.0048 64,37.8717 64,31.9487 64,25.9915 55.446,23.0236 50.5608,21.6613 Z m -0.6062,18.1616 c -0.81,-2.4861 -1.9033,-5.1299 -3.2408,-7.8611 1.2766,-2.6666 2.3274,-5.2763 3.1148,-7.7465 3.5813,1.0067 11.4376,3.3075 11.4376,7.7334 0,4.4673 -7.539,6.7899 -11.3116,7.8742 z m -3.3414,16.766 c -3.972,2.2293 -9.8726,-3.1069 -12.5911,-5.6429 1.8034,-1.9125 3.6056,-4.1359 5.3645,-6.6047 3.0942,-0.2661 6.0172,-0.7014 8.6681,-1.2954 0.8682,3.4041 2.5484,11.3035 -1.4415,13.543 z M 17.3304,56.557 c -3.9727,-2.2209 -2.1569,-9.8484 -1.246,-13.3925 2.6214,0.5622 5.5232,0.9667 8.6247,1.2106 1.7705,2.4158 3.6249,4.6364 5.4937,6.581 -2.3089,2.1656 -8.8812,7.8322 -12.8724,5.6009 z M 2.73384,31.9487 c 0,-4.4842 7.80926,-6.7682 11.47216,-7.7724 0.801,2.5257 1.8515,5.1665 3.1193,7.8369 -1.2842,2.7102 -2.3498,5.393 -3.1582,7.9484 C 10.6745,38.9923 2.73384,36.4356 2.73384,31.9487 Z M 17.2879,7.47428 c 3.9889,-2.23867 10.1782,3.21342 12.826,5.66742 -1.8592,1.9358 -3.6966,4.1396 -5.4518,6.5415 -3.01,0.2705 -5.8914,0.7049 -8.5403,1.2869 C 15.128,17.1109 13.3033,9.71054 17.2879,7.47428 Z M 41.3424,22.5645 c 2.0422,0.2499 3.9985,0.5822 5.8356,0.9889 -0.5514,1.714 -1.2389,3.5061 -2.0484,5.3434 -1.1736,-2.1591 -2.4333,-4.2747 -3.7872,-6.3323 z M 32.0306,15.036 c 1.261,1.3245 2.524,2.8036 3.7662,4.4083 -2.5199,-0.1155 -5.0441,-0.116 -7.5642,-0.0017 1.2434,-1.5898 2.5172,-3.0667 3.798,-4.4066 z M 18.8939,28.8948 c -0.7962,-1.8309 -1.4774,-3.631 -2.0337,-5.3694 1.8261,-0.3963 3.7733,-0.72 5.8022,-0.9658 -1.3576,2.0531 -2.6153,4.1679 -3.7685,6.3352 z m 3.8268,12.6321 c -2.0959,-0.2268 -4.0727,-0.5341 -5.8982,-0.9194 0.5651,-1.7691 1.2613,-3.608 2.0745,-5.4782 1.1692,2.1898 2.4459,4.3251 3.8237,6.3976 z m 9.3855,7.5217 c -1.2958,-1.3558 -2.5882,-2.8553 -3.8506,-4.4681 2.5344,0.0965 5.0738,0.0967 7.6078,-0.0129 -1.2463,1.6422 -2.5047,3.1438 -3.7572,4.481 z M 45.1557,35.034 c 0.8554,1.8905 1.5765,3.7195 2.1492,5.4587 -1.8558,0.4106 -3.8591,0.7412 -5.9701,0.9867 1.3639,-2.0965 2.6436,-4.245 3.8209,-6.4454 z m -7.2949,6.7667 c -3.8765,0.2686 -7.7775,0.2657 -11.6553,0.022 -2.2036,-3.1209 -4.1651,-6.403 -5.8583,-9.8103 1.6849,-3.4003 3.6322,-6.676 5.8254,-9.792 3.8808,-0.2844 7.7854,-0.2851 11.6661,0.0017 2.1742,3.1158 4.1186,6.3829 5.8427,9.7526 -1.7036,3.3987 -3.6611,6.6809 -5.8206,9.826 z M 46.5713,7.39546 c 3.99,2.23134 2.214,10.15614 1.3423,13.60204 -2.6551,-0.594 -5.5385,-1.0361 -8.5573,-1.3107 -1.7586,-2.428 -3.5807,-4.6357 -5.4099,-6.5465 2.6819,-2.5068 8.6735,-7.95435 12.6249,-5.74484 z"
     fill="#53C1DE"
     id="path144"
     style="fill:#e5e5e5;fill-opacity:1" />
</svg>
