<?xml version="1.0" encoding="UTF-8" standalone="no"?>
<svg
   width="48"
   height="48"
   viewBox="0 0 48 48"
   fill="none"
   version="1.1"
   id="svg528"
   xmlns="http://www.w3.org/2000/svg"
   xmlns:svg="http://www.w3.org/2000/svg">
  <defs
     id="defs532" />
  <path
     fill-rule="evenodd"
     clip-rule="evenodd"
     d="m 36,17 4,-7 -4,-7 h -8 l -4,7 -4,-7 h -8 l -4,7 4,7 H 4 l -4,7 4,7 h 8 l -4,7 4,7 h 8 l 4,-7 4,7 h 8 l 4,-7 -4,-7 h 8 l 4,-7 -4,-7 z m -4,7 4,7 h -8 z m -4,-7 4,7 4,-7 z m -8,0 h 8 l -4,-7 z m -4,7 -4,-7 h 8 z m 4,7 h -8 l 4,-7 z m 0,0 4,7 4,-7 z"
     fill="black"
     id="path524"
     style="fill:#999999;fill-opacity:1" />
  <path
     d="m 36,17 4,-7 -4,-7 h -8 l -4,7 4,7 z"
     fill="#475467"
     id="path526"
     style="fill:#9aa7ba;fill-opacity:1" />
</svg>
