<?xml version="1.0" encoding="UTF-8" standalone="no"?>
<svg
   version="1.1"
   id="Layer_1"
   x="0px"
   y="0px"
   viewBox="0 0 67.495018 69.166372"
   xml:space="preserve"
   width="67.495018"
   height="69.166374"
   xmlns="http://www.w3.org/2000/svg"
   xmlns:svg="http://www.w3.org/2000/svg"
   xmlns:ns="ns_sfw;"><defs
   id="defs17" />
 <style
   type="text/css"
   id="style2">
  .st0{fill-rule:evenodd;clip-rule:evenodd;fill:#74BB11;}
	.st1{fill-rule:evenodd;clip-rule:evenodd;fill:#009CD9;}
	.st2{fill-rule:evenodd;clip-rule:evenodd;fill:#EB2084;}
 </style>
 <metadata
   id="metadata4">
  <ns:sfw>
   <ns:slices>
   </ns:slices>
   <ns:sliceSourceBounds
   bottomLeftOrigin="true"
   height="75.4"
   width="65.6"
   x="-138"
   y="92.1">
   </ns:sliceSourceBounds>
  </ns:sfw>
 </metadata>
 
<style
   type="text/css"
   id="style2-0">
  .st0{fill-rule:evenodd;clip-rule:evenodd;fill:#74BB11;}
	.st1{fill-rule:evenodd;clip-rule:evenodd;fill:#009CD9;}
	.st2{fill-rule:evenodd;clip-rule:evenodd;fill:#EB2084;}
 </style><style
   type="text/css"
   id="style2-8">
  .st0{fill-rule:evenodd;clip-rule:evenodd;fill:#74BB11;}
	.st1{fill-rule:evenodd;clip-rule:evenodd;fill:#009CD9;}
	.st2{fill-rule:evenodd;clip-rule:evenodd;fill:#EB2084;}
 </style><style
   type="text/css"
   id="style2-0-9">
  .st0{fill-rule:evenodd;clip-rule:evenodd;fill:#74BB11;}
	.st1{fill-rule:evenodd;clip-rule:evenodd;fill:#009CD9;}
	.st2{fill-rule:evenodd;clip-rule:evenodd;fill:#EB2084;}
 </style><style
   type="text/css"
   id="style2-3">
  .st0{fill-rule:evenodd;clip-rule:evenodd;fill:#74BB11;}
	.st1{fill-rule:evenodd;clip-rule:evenodd;fill:#009CD9;}
	.st2{fill-rule:evenodd;clip-rule:evenodd;fill:#EB2084;}
 </style><style
   type="text/css"
   id="style2-0-5">
  .st0{fill-rule:evenodd;clip-rule:evenodd;fill:#74BB11;}
	.st1{fill-rule:evenodd;clip-rule:evenodd;fill:#009CD9;}
	.st2{fill-rule:evenodd;clip-rule:evenodd;fill:#EB2084;}
 </style><g
   style="fill:#999999;fill-opacity:1"
   id="g802"
   transform="matrix(1.2268909,0,0,2.0928027,-13.48687,-44.070617)"><g
     id="SVGRepo_bgCarrier"
     stroke-width="0"
     style="fill:#999999;fill-opacity:1" /><g
     id="SVGRepo_tracerCarrier"
     stroke-linecap="round"
     stroke-linejoin="round"
     style="fill:#999999;fill-opacity:1" /><g
     id="SVGRepo_iconCarrier"
     style="fill:#999999;fill-opacity:1"> <path
   fill="#000000"
   fill-opacity="1"
   stroke-width="0.2"
   stroke-linejoin="round"
   d="m 23.9216,22.2925 h 7.0093 l 9.778,30.0893 h -5.8941 l -2.7223,-8.5264 h -9.5539 l -2.5896,8.5264 h -5.6691 z m 1.831,10.0002 -2.321,7.4111 h 7.7229 l -2.366,-7.4111 c -0.5808,-1.8301 -1.0716,-3.8839 -1.5179,-5.6246 h -0.0891 c -0.4467,1.7407 -0.8935,3.839 -1.4289,5.6246 z m 16.966,9.5535 c 0,-6.0263 3.6608,-11.6963 10.6251,-11.6963 7.0975,0 9.3749,5.8041 9.3749,10.5806 0,1.0262 -0.0891,1.8301 -0.1787,2.321 H 47.9868 c 0.1336,3.9293 3.2136,5.6245 6.6958,5.6245 2.5446,0 4.3752,-0.3558 6.0272,-0.9812 l 0.8035,3.7949 c -1.8752,0.758 -4.4638,1.3838 -7.5901,1.3838 -7.053,0 -11.2046,-4.3756 -11.2046,-11.0273 z m 10.3124,-7.946 c -3.3931,0 -4.822,3.08 -5.0442,5.3119 h 9.5535 c 0.0445,-2.0083 -0.849,-5.3119 -4.5093,-5.3119 z"
   id="path789"
   style="fill:#999999;fill-opacity:1" /> </g></g></svg>
