<?xml version="1.0" encoding="UTF-8" standalone="no"?>
<svg
   version="1.1"
   id="Layer_1"
   x="0px"
   y="0px"
   viewBox="0 0 67.495018 69.166372"
   xml:space="preserve"
   width="67.495018"
   height="69.166374"
   xmlns="http://www.w3.org/2000/svg"
   xmlns:svg="http://www.w3.org/2000/svg"
   xmlns:ns="ns_sfw;"><defs
   id="defs17" />
 <style
   type="text/css"
   id="style2">
  .st0{fill-rule:evenodd;clip-rule:evenodd;fill:#74BB11;}
	.st1{fill-rule:evenodd;clip-rule:evenodd;fill:#009CD9;}
	.st2{fill-rule:evenodd;clip-rule:evenodd;fill:#EB2084;}
 </style>
 <metadata
   id="metadata4">
  <ns:sfw>
   <ns:slices>
   </ns:slices>
   <ns:sliceSourceBounds
   bottomLeftOrigin="true"
   height="75.4"
   width="65.6"
   x="-138"
   y="92.1">
   </ns:sliceSourceBounds>
  </ns:sfw>
 </metadata>
 
<style
   type="text/css"
   id="style2-0">
  .st0{fill-rule:evenodd;clip-rule:evenodd;fill:#74BB11;}
	.st1{fill-rule:evenodd;clip-rule:evenodd;fill:#009CD9;}
	.st2{fill-rule:evenodd;clip-rule:evenodd;fill:#EB2084;}
 </style><style
   type="text/css"
   id="style2-8">
  .st0{fill-rule:evenodd;clip-rule:evenodd;fill:#74BB11;}
	.st1{fill-rule:evenodd;clip-rule:evenodd;fill:#009CD9;}
	.st2{fill-rule:evenodd;clip-rule:evenodd;fill:#EB2084;}
 </style><style
   type="text/css"
   id="style2-0-9">
  .st0{fill-rule:evenodd;clip-rule:evenodd;fill:#74BB11;}
	.st1{fill-rule:evenodd;clip-rule:evenodd;fill:#009CD9;}
	.st2{fill-rule:evenodd;clip-rule:evenodd;fill:#EB2084;}
 </style><style
   type="text/css"
   id="style2-3">
  .st0{fill-rule:evenodd;clip-rule:evenodd;fill:#74BB11;}
	.st1{fill-rule:evenodd;clip-rule:evenodd;fill:#009CD9;}
	.st2{fill-rule:evenodd;clip-rule:evenodd;fill:#EB2084;}
 </style><style
   type="text/css"
   id="style2-0-5">
  .st0{fill-rule:evenodd;clip-rule:evenodd;fill:#74BB11;}
	.st1{fill-rule:evenodd;clip-rule:evenodd;fill:#009CD9;}
	.st2{fill-rule:evenodd;clip-rule:evenodd;fill:#EB2084;}
 </style><style
   type="text/css"
   id="style2-89">
  .st0{fill-rule:evenodd;clip-rule:evenodd;fill:#74BB11;}
	.st1{fill-rule:evenodd;clip-rule:evenodd;fill:#009CD9;}
	.st2{fill-rule:evenodd;clip-rule:evenodd;fill:#EB2084;}
 </style><style
   type="text/css"
   id="style2-0-3">
  .st0{fill-rule:evenodd;clip-rule:evenodd;fill:#74BB11;}
	.st1{fill-rule:evenodd;clip-rule:evenodd;fill:#009CD9;}
	.st2{fill-rule:evenodd;clip-rule:evenodd;fill:#EB2084;}
 </style><path
   d="m 33.747514,4.9820246 h -12.54739 c -6.92971,0 -12.54738,4.417644 -12.54738,9.8670544 0,5.44941 5.61767,9.867055 12.54738,9.867055 M 33.747514,4.9820246 V 24.716134 m 0,-19.7341094 h 12.54738 c 6.92992,0 12.54738,4.417644 12.54738,9.8670544 0,5.44941 -5.61746,9.867055 -12.54738,9.867055 m -12.54738,0 h -12.54739 m 12.54739,0 h 12.54738 m -12.54738,0 V 44.45024 M 21.200124,24.716134 c -6.92971,0 -12.54738,4.417481 -12.54738,9.867055 0,5.449575 5.61767,9.867051 12.54738,9.867051 m 25.09477,-19.734106 c 6.92992,0 12.54738,4.417481 12.54738,9.867055 0,5.449575 -5.61746,9.867051 -12.54738,9.867051 -6.92992,0 -12.54738,-4.417476 -12.54738,-9.867051 0,-5.449574 5.61746,-9.867055 12.54738,-9.867055 z M 33.747514,44.45024 h -12.54739 m 12.54739,0 v 9.86706 c 0,5.44957 -5.61747,9.86705 -12.54739,9.86705 -6.92971,0 -12.54738,-4.41748 -12.54738,-9.86705 0,-5.44958 5.61767,-9.86706 12.54738,-9.86706"
   stroke="#000000"
   stroke-width="7.41787"
   stroke-linecap="round"
   stroke-linejoin="round"
   id="path958"
   style="fill:none;stroke:#999999;stroke-opacity:1" /></svg>
