<?xml version="1.0" encoding="UTF-8" standalone="no"?>
<svg
   width="48"
   height="48"
   viewBox="0 0 48 48"
   fill="none"
   version="1.1"
   id="svg2599"
   sodipodi:docname="web-design.svg"
   inkscape:export-filename="web-design1.svg"
   inkscape:export-xdpi="96"
   inkscape:export-ydpi="96"
   xmlns:inkscape="http://www.inkscape.org/namespaces/inkscape"
   xmlns:sodipodi="http://sodipodi.sourceforge.net/DTD/sodipodi-0.dtd"
   xmlns="http://www.w3.org/2000/svg"
   xmlns:svg="http://www.w3.org/2000/svg">
  <defs
     id="defs2603" />
  <sodipodi:namedview
     id="namedview2601"
     pagecolor="#ffffff"
     bordercolor="#000000"
     borderopacity="0.25"
     inkscape:showpageshadow="2"
     inkscape:pageopacity="0.0"
     inkscape:pagecheckerboard="0"
     inkscape:deskcolor="#d1d1d1"
     showgrid="false" />
  <path
     fill-rule="evenodd"
     clip-rule="evenodd"
     d="m 36,17 4,-7 -4,-7 h -8 l -4,7 -4,-7 h -8 l -4,7 4,7 H 4 l -4,7 4,7 h 8 l -4,7 4,7 h 8 l 4,-7 4,7 h 8 l 4,-7 -4,-7 h 8 l 4,-7 -4,-7 z m -4,7 4,7 h -8 z m -4,-7 4,7 4,-7 z m -8,0 h 8 l -4,-7 z m -4,7 -4,-7 h 8 z m 4,7 h -8 l 4,-7 z m 0,0 4,7 4,-7 z"
     fill="black"
     id="path2595"
     style="fill:#ffffff" />
  <path
     d="m 36,17 4,-7 -4,-7 h -8 l -4,7 4,7 z"
     fill="#475467"
     id="path2597"
     style="fill:#8f9db2;fill-opacity:1" />
</svg>
