<?xml version="1.0" encoding="UTF-8" standalone="no"?>
<svg
   width="64"
   height="65"
   viewBox="0 0 64 65"
   fill="none"
   version="1.1"
   id="svg4"
   xmlns="http://www.w3.org/2000/svg"
   xmlns:svg="http://www.w3.org/2000/svg">
  <defs
     id="defs8" />
  <path
     fill-rule="evenodd"
     clip-rule="evenodd"
     d="m 63.7862,15.0026 c 0.0231,0.0854 0.0348,0.1733 0.0351,0.2617 v 13.7375 c 0,0.1763 -0.0466,0.3495 -0.1349,0.502 -0.0884,0.1526 -0.2155,0.2791 -0.3685,0.3669 l -11.53,6.6383 v 13.1577 c 0,0.3581 -0.1903,0.6887 -0.5008,0.869 L 27.219,64.3908 c -0.0551,0.0313 -0.1152,0.0513 -0.1753,0.0726 -0.0225,0.0075 -0.0438,0.0213 -0.0676,0.0275 -0.1682,0.0443 -0.3451,0.0443 -0.5133,0 -0.0276,-0.0075 -0.0526,-0.0225 -0.0789,-0.0325 -0.0551,-0.02 -0.1127,-0.0376 -0.1653,-0.0676 L 2.1556,50.5357 C 2.00273,50.4478 1.87572,50.3213 1.78735,50.1687 1.69899,50.0162 1.6524,49.843 1.65228,49.6667 V 8.45446 C 1.65228,8.36431 1.6648,8.27667 1.68733,8.19153 1.69484,8.16273 1.71237,8.13644 1.72239,8.10764 1.74117,8.05505 1.7587,8.00122 1.78624,7.95239 1.80502,7.91983 1.83257,7.89354 1.85511,7.86349 1.8839,7.82343 1.9102,7.78211 1.944,7.74705 1.9728,7.71825 2.01036,7.69697 2.04291,7.67193 2.07922,7.64188 2.11178,7.60933 2.15309,7.58554 L 14.1865,0.657977 c 0.1523,-0.087667 0.325,-0.133807 0.5008,-0.133807 0.1758,0 0.3485,0.04614 0.5008,0.133807 L 27.2203,7.58554 h 0.0025 c 0.04,0.02504 0.0738,0.05634 0.1101,0.08514 0.0326,0.02504 0.0689,0.04757 0.0977,0.07512 0.0351,0.03631 0.0601,0.07763 0.0902,0.11769 0.0212,0.03005 0.05,0.05634 0.0676,0.0889 0.0288,0.05008 0.045,0.10266 0.0651,0.15525 0.01,0.0288 0.0275,0.05509 0.035,0.08514 0.0231,0.08532 0.0349,0.17329 0.0351,0.26168 V 34.1952 L 37.75,28.4221 v -13.159 c 0,-0.0877 0.0125,-0.1766 0.035,-0.2605 0.0088,-0.03 0.0251,-0.0563 0.0351,-0.0851 0.02,-0.0526 0.0375,-0.1064 0.0651,-0.1552 0.0188,-0.0326 0.0463,-0.0589 0.0676,-0.0889 0.03,-0.0401 0.0551,-0.0814 0.0901,-0.1165 0.0288,-0.0288 0.0651,-0.0501 0.0977,-0.0751 0.0376,-0.0301 0.0701,-0.0626 0.1102,-0.0864 L 50.2854,7.46785 c 0.1523,-0.08779 0.325,-0.134 0.5008,-0.134 0.1758,0 0.3485,0.04621 0.5009,0.134 l 12.0321,6.92755 c 0.0426,0.025 0.0751,0.0563 0.1127,0.0851 0.0313,0.0251 0.0676,0.0476 0.0964,0.0752 0.035,0.0363 0.0601,0.0776 0.0901,0.1177 0.0226,0.03 0.0501,0.0563 0.0676,0.0889 0.0288,0.0488 0.0451,0.1026 0.0652,0.1552 0.0112,0.0288 0.0275,0.0551 0.035,0.0851 z M 61.8155,28.4221 V 16.9984 l -4.2106,2.424 -5.817,3.3492 V 34.1952 L 61.8167,28.4221 Z M 49.7834,49.087 V 37.6559 l -5.7219,3.2678 -16.3392,9.3252 V 61.7878 Z M 3.65805,10.1885 V 49.087 L 25.7166,61.7865 V 50.2502 L 14.1927,43.7283 14.189,43.7258 14.184,43.7233 C 14.1452,43.7007 14.1126,43.6682 14.0763,43.6407 14.045,43.6156 14.0087,43.5956 13.9812,43.568 L 13.9786,43.5643 C 13.9461,43.533 13.9236,43.4942 13.896,43.4591 13.871,43.4253 13.8409,43.3965 13.8209,43.3614 l -0.0013,-0.0037 c -0.0225,-0.0376 -0.0363,-0.0826 -0.0525,-0.1252 -0.0163,-0.0376 -0.0376,-0.0726 -0.0476,-0.1127 -0.0125,-0.0476 -0.0151,-0.0989 -0.0201,-0.1477 -0.005,-0.0376 -0.015,-0.0752 -0.015,-0.1127 V 42.8569 15.9617 L 7.86867,12.6112 Z M 14.6886,2.68378 4.66344,8.45446 14.6861,14.2251 24.7099,8.4532 14.6861,2.68378 Z m 5.2135,36.01382 5.8157,-3.348 V 10.1885 l -4.2106,2.424 -5.817,3.3492 V 41.1228 Z M 50.7862,9.49365 40.7624,15.2643 50.7862,21.035 60.8088,15.2631 Z m -1.0028,13.27795 -5.817,-3.3492 -4.2107,-2.424 v 11.4237 l 5.8158,3.3479 4.2119,2.4252 z M 26.7182,48.5149 41.4209,40.1212 48.7704,35.9268 38.7541,30.1599 27.2215,36.7995 16.7106,42.8506 Z"
     fill="#FF2D20"
     id="path2"
     style="fill:#ffffff;fill-opacity:1" />
</svg>
