<?xml version="1.0" encoding="UTF-8" standalone="no"?>
<svg
   width="64"
   height="64"
   viewBox="0 0 64 64"
   fill="none"
   version="1.1"
   id="svg135"
   xmlns="http://www.w3.org/2000/svg"
   xmlns:svg="http://www.w3.org/2000/svg">
  <defs
     id="defs139" />
  <path
     d="M 29.9042,0.0172226 C 29.7666,0.029733 29.3286,0.0735193 28.9345,0.104795 19.8444,0.924225 11.3298,5.82829 5.93705,13.3658 2.93412,17.5568 1.01349,22.3107 0.287781,27.3461 0.0312805,29.1039 0,29.623 0,32.0063 0,34.3895 0.0312805,34.9087 0.287781,36.6664 2.02698,48.6826 10.5791,58.7785 22.1779,62.5191 c 2.077,0.6693 4.2667,1.1259 6.7566,1.4011 0.9697,0.1064 5.1613,0.1064 6.131,0 4.2979,-0.4753 7.939,-1.5387 11.53,-3.3715 0.5505,-0.2815 0.6569,-0.3565 0.5818,-0.4191 -0.05,-0.0375 -2.3961,-3.1839 -5.2113,-6.987 l -5.1175,-6.912 -6.4125,-9.4892 c -3.5285,-5.2168 -6.4313,-9.4828 -6.4563,-9.4828 -0.0251,-0.0063 -0.0501,4.2097 -0.0626,9.3577 -0.0188,9.0138 -0.025,9.3766 -0.1376,9.5892 -0.1627,0.3066 -0.2878,0.4317 -0.5506,0.5693 -0.2002,0.1001 -0.3753,0.1188 -1.32,0.1188 H 20.8266 L 20.5388,46.7122 C 20.3511,46.5934 20.2135,46.437 20.1196,46.2556 l -0.1313,-0.2815 0.0125,-12.5417 0.0188,-12.5479 0.1939,-0.2439 c 0.1001,-0.1314 0.3128,-0.3003 0.4629,-0.3816 0.2565,-0.1251 0.3566,-0.1376 1.4389,-0.1376 1.2763,0 1.489,0.05 1.8206,0.4128 0.0938,0.1001 3.566,5.3295 7.72,11.6284 4.1541,6.299 9.8346,14.8999 12.6248,19.1222 l 5.0675,7.6751 0.2565,-0.1689 c 2.271,-1.4762 4.6733,-3.578 6.5752,-5.7673 4.0477,-4.6476 6.6565,-10.3148 7.5323,-16.3573 C 63.9687,34.9087 64,34.3895 64,32.0063 64,29.623 63.9687,29.1039 63.7122,27.3461 61.973,15.3299 53.4209,5.23405 41.8221,1.49345 39.7763,0.830397 37.5992,0.373768 35.1593,0.0985401 34.5588,0.0359882 30.4235,-0.0328189 29.9042,0.0172226 Z M 43.0045,19.3708 c 0.3003,0.1501 0.5443,0.4378 0.6319,0.7381 0.05,0.1626 0.0625,3.6405 0.05,11.4783 l -0.0188,11.2468 -1.9831,-3.04 -1.9895,-3.04 v -8.1756 c 0,-5.2856 0.025,-8.2568 0.0626,-8.4007 0.1001,-0.3503 0.319,-0.6255 0.6193,-0.7882 0.2565,-0.1313 0.3504,-0.1438 1.3326,-0.1438 0.9259,0 1.0885,0.0125 1.295,0.1251 z"
     fill="#212324"
     id="path133"
     style="fill:#040404;fill-opacity:1" />
</svg>
