<?xml version="1.0" encoding="UTF-8" standalone="no"?>
<svg
   width="64"
   height="64"
   viewBox="0 0 64 64"
   fill="none"
   version="1.1"
   id="svg262"
   xmlns="http://www.w3.org/2000/svg"
   xmlns:svg="http://www.w3.org/2000/svg">
  <defs
     id="defs266" />
  <path
     d="m 34.68,0.68279 c -1.6225,-0.912437 -3.7375,-0.908334 -5.3613,0 C 21.186,5.17089 13.0533,9.66037 4.91922,14.1464 3.33644,14.9791 2.26889,16.6788 2.28592,18.4431 v 27.1175 c -0.01143,1.7987 1.11117,3.5149 2.73476,4.3361 2.33639,1.243 4.6063,2.6122 6.98492,3.7724 2.7476,1.3501 6.1851,1.6487 8.9663,0.2407 2.2575,-1.1671 3.2602,-3.7624 3.2574,-6.1475 0.0182,-8.9495 0.0028,-17.8993 0.007,-26.8488 0.0537,-0.3978 -0.2449,-0.8229 -0.6787,-0.8133 -1.0393,-0.0164 -2.0801,-0.0096 -3.1194,-0.0028 -0.3928,-0.0371 -0.776,0.2891 -0.7464,0.6838 -0.014,8.8919 0.0028,17.7865 -0.0084,26.6798 0.0227,1.2301 -0.8084,2.4125 -1.9939,2.828 C 14.9513,51.2487 7.13595,46.1742 7.13595,46.1742 6.84915,46.0414 6.66702,45.7303 6.69513,45.4214 c 0,-8.9468 0.0014,-17.8939 0,-26.8393 C 6.65571,18.2215 6.87799,17.8967 7.20919,17.7494 15.3151,13.2878 23.4167,8.81494 31.5226,4.35054 c 0.2814,-0.1879 0.674,-0.18734 0.9549,0.00137 8.1058,4.46304 16.2089,8.93179 24.3161,13.39369 0.3324,0.147 0.5451,0.4773 0.5113,0.8365 -0.0014,8.9454 0.0028,17.8925 -0.0028,26.8379 0.024,0.3166 -0.1395,0.6234 -0.4352,0.7625 -8.0302,4.4374 -16.1518,8.7317 -24.1092,13.2981 -0.3472,0.1992 -0.7405,0.4248 -1.1295,0.2054 -2.0926,-1.1575 -4.1598,-2.3601 -6.2455,-3.5287 -0.2267,-0.1416 -0.5155,-0.2022 -0.752,-0.044 -0.9352,0.4928 -1.8146,0.8919 -2.8884,1.317 -1.5083,0.597 -1.2673,0.8413 0.0928,1.6336 2.4392,1.3804 4.8825,2.7553 7.3215,4.1371 1.6056,1.002 3.7631,1.0734 5.4205,0.1473 8.1341,-4.4824 16.2654,-8.9703 24.4009,-13.4527 1.6194,-0.8258 2.7475,-2.5352 2.7361,-4.3352 V 18.4431 C 61.7297,16.7146 60.703,15.0452 59.168,14.2002 51.0071,9.69022 42.8423,5.19004 34.68,0.68279 Z"
     fill="#8CC84B"
     id="path258"
     style="fill:#ffffff;fill-opacity:1" />
  <path
     d="m 46.9528,21.0428 c -3.1924,-1.7079 -6.9903,-1.7988 -10.5379,-1.5757 -2.5629,0.2533 -5.2585,0.9605 -7.1258,2.7977 -1.9152,1.847 -2.332,4.8293 -1.4224,7.2404 0.652,1.7036 2.2928,2.8116 3.9897,3.3976 2.1859,0.7717 4.4816,1.0103 6.7781,1.2489 2.0947,0.2177 4.19,0.4355 6.2033,1.0579 0.8224,0.2726 1.7801,0.6895 2.032,1.5841 0.2325,1.0597 -0.0224,2.2915 -0.8829,3.0277 -2.7328,2.1631 -10.3346,1.8316 -13.0348,0.1292 -1.0915,-0.7253 -1.562,-2.0092 -1.7532,-3.2326 -0.0213,-0.3813 -0.3282,-0.731 -0.7422,-0.702 -1.0366,-0.0123 -2.0731,-0.0096 -3.1096,-0.0014 -0.3618,-0.0303 -0.7378,0.2271 -0.7576,0.5961 -0.2129,5.6038 4.9336,8.0468 9.7622,8.5848 2.7588,0.2628 5.578,0.2477 8.2946,-0.3442 2.042,-0.465 4.0894,-1.3211 5.4952,-2.8941 1.7334,-1.9115 2.0742,-4.7575 1.2968,-7.1386 -0.5943,-1.7765 -2.2928,-2.9162 -4.029,-3.5024 -2.3611,-0.8096 -5.1593,-1.2448 -7.2977,-1.4485 -3.1084,-0.2961 -6.8022,-0.1751 -7.6819,-2.2177 -0.3508,-1.0694 -0.0523,-2.3974 0.9306,-3.0552 2.6005,-1.764 7.8929,-1.5297 10.586,-0.212 1.2367,0.6193 1.9532,1.891 2.2489,3.1749 0.0548,0.3773 0.3086,0.7707 0.7452,0.7543 1.0293,0.0205 2.0589,0.0054 3.0882,0.0068 0.3536,0.0249 0.7408,-0.1748 0.8098,-0.5368 -0.0436,-2.6835 -1.4139,-5.4303 -3.8856,-6.7392 z"
     fill="#8CC84B"
     id="path260"
     style="fill:#ffffff;fill-opacity:1" />
</svg>
