<?xml version="1.0" encoding="UTF-8" standalone="no"?>
<!-- Generator: Adobe Illustrator 19.2.1, SVG Export Plug-In . SVG Version: 6.00 Build 0)  -->

<svg
   version="1.1"
   id="layer"
   x="0px"
   y="0px"
   viewBox="0 0 320.4361 201.6663"
   xml:space="preserve"
   width="320.4361"
   height="201.66629"
   xmlns="http://www.w3.org/2000/svg"
   xmlns:svg="http://www.w3.org/2000/svg"><defs
   id="defs49" />
<style
   type="text/css"
   id="style2">
	.st0{fill:#8DC63F;}
	.st1{fill:#FFFFFF;}
</style>

<g
   id="g22"
   transform="matrix(0.35360679,0,0,0.36007201,47.836741,-16.169176)">
	<path
   class="st0"
   d="m 390.6,329.9 c -14.3,0 -23.5,12.4 -23.5,25.9 0,14.1 8.3,27.5 23.7,27.5 15.8,0 24.1,-12.8 24.1,-27.3 -0.1,-14.5 -9.1,-26.1 -24.3,-26.1"
   id="path4"
   style="fill:#070a03;fill-opacity:1" />
	<path
   class="st0"
   d="m 222.4,329.9 c -14.3,0 -23.5,12.4 -23.5,25.9 0,14.1 8.3,27.5 23.6,27.5 15.8,0 24.1,-12.8 24.1,-27.3 0,-14.5 -9,-26.1 -24.2,-26.1"
   id="path6"
   style="fill:#070a03;fill-opacity:1" />
	<path
   class="st0"
   d="m 468.2,329.9 c -10.6,0 -20.4,8.5 -22,18.9 h 43.1 C 487.7,338.3 479,329.9 468.2,329.9"
   id="path8"
   style="fill:#070a03;fill-opacity:1" />
	<path
   class="st0"
   d="m 24.6,329.9 c -14.3,0 -23.5,12.4 -23.5,25.9 0,14.1 8.3,27.5 23.6,27.5 15.8,0 24.1,-12.8 24.1,-27.3 0,-14.5 -9,-26.1 -24.2,-26.1"
   id="path10"
   style="fill:#070a03;fill-opacity:1" />
	<path
   class="st0"
   d="m 143.1,329.9 c -15.2,0 -25.6,12.1 -25.6,26.7 0,14.7 10.4,26.7 25.6,26.7 15.2,0 25.6,-12 25.6,-26.7 0,-14.6 -10.4,-26.7 -25.6,-26.7"
   id="path12"
   style="fill:#070a03;fill-opacity:1" />
	<path
   class="st0"
   d="m 304.6,329.9 c -14.3,0 -23.5,12.4 -23.5,25.9 0,14.1 8.3,27.5 23.6,27.5 15.8,0 24.1,-12.8 24.1,-27.3 0.1,-14.5 -9,-26.1 -24.2,-26.1"
   id="path14"
   style="fill:#070a03;fill-opacity:1" />
	<path
   class="st0"
   d="m 543.6,329.9 c -14.3,0 -23.5,12.4 -23.5,25.9 0,14.1 8.3,27.5 23.6,27.5 15.8,0 24.1,-12.8 24.1,-27.3 0,-14.5 -9,-26.1 -24.2,-26.1"
   id="path16"
   style="fill:#070a03;fill-opacity:1" />
	<path
   class="st0"
   d="m 493.5,111.8 c -87.3,0 -150.5,65.8 -174.5,93.3 -3,3.3 -5.7,6.4 -7.9,9.3 -10.3,13 -29.1,14.8 -41.7,4 -26.9,-22.5 -64.9,-64.7 -145.1,-64.7 -103.8,-0.1 -188.2,84.3 -188.2,188 0,103.7 84.4,188.1 188.1,188.1 h 372.3 c 55.2,-0.8 107,-22.9 145.8,-62.2 38.9,-39.4 60.2,-91.5 60.2,-146.8 0,-115.3 -93.8,-209 -209,-209 M 26.9,394.7 c -10,0 -19,-4.1 -24.9,-12 H 1.7 v 10 H -10.6 V 266 H 1.7 v 64.8 H 2 c 5.8,-7.7 14.9,-12.3 24.7,-12.3 21.5,0 34.7,17.6 34.7,38.1 0,20.1 -13.3,38.1 -34.5,38.1 m 68.3,-64.8 c -13.5,0 -14.1,17.3 -14.1,26.7 v 36.1 H 68.8 v -72.1 h 12.3 v 7.8 h 0.3 c 4.3,-5.7 8,-9.8 16,-9.8 4.2,0 7.5,1.4 11.1,3.4 l -5.8,11.2 c -2.6,-1.8 -4.3,-3.3 -7.5,-3.3 m 47.9,64.8 c -21,0 -37.9,-16.7 -37.9,-37.9 0,-21.2 16.7,-38.2 37.9,-38.2 21.2,0 37.9,17 37.9,38.2 0,21.1 -16.9,37.9 -37.9,37.9 m 115.2,-2 H 246 v -10 h -0.3 c -6.3,8 -14.7,12 -24.9,12 -21.2,0 -34.5,-18 -34.5,-37.9 0,-20.6 13,-38.2 34.7,-38.2 9.8,0 18.7,4.6 24.7,12.3 h 0.3 v -10.3 h 12.3 z m 82.2,0 h -12.3 v -10 h -0.3 c -6,7.8 -15,12 -24.9,12 -21.2,0 -34.5,-18 -34.5,-37.9 0,-20.6 13,-38.2 34.7,-38.2 9.7,0 18.9,4.6 24.7,12.3 h 0.3 V 266 h 12.3 z m 52.4,2 c -10,0 -19,-4.1 -24.9,-12 h -0.3 v 10 H 355.4 V 266 h 12.3 v 64.8 h 0.3 c 5.8,-7.7 14.9,-12.3 24.7,-12.3 21.5,0 34.7,17.6 34.7,38.1 0,20.1 -13.4,38.1 -34.5,38.1 m 76.4,-11.4 c 10.4,0 17.2,-6.3 21.9,-14.9 l 10.4,6 c -6.9,12.9 -18.6,20.2 -33.3,20.2 -21.5,0 -35.3,-16.4 -35.3,-37.1 0,-21.3 12.4,-39 35,-39 23.2,0 35.5,19.2 34.2,40.7 h -56.7 c 0.3,13.4 9.9,24.1 23.8,24.1 m 110.2,9.4 h -12.3 v -10 h -0.3 c -6.3,8 -14.7,12 -24.9,12 -21.2,0 -34.5,-18 -34.5,-37.9 0,-20.6 13,-38.2 34.7,-38.2 9.8,0 18.7,4.6 24.7,12.3 h 0.3 v -10.3 h 12.3 z m 60.6,0 V 352 c 0,-11.7 -0.9,-22.1 -15.2,-22.1 -16.9,0 -18,15.7 -18,28.5 v 34.2 h -12.3 v -72.1 h 12.3 v 8.7 h 0.3 c 5.1,-6.9 11.7,-10.7 20.6,-10.7 20,0 24.6,14.4 24.6,31.3 v 42.8 h -12.3 z"
   id="path18"
   style="fill:#000000;fill-opacity:1" />
	<path
   class="st0"
   d="m 496.2,71.5 c -60.5,0 -113.4,27.1 -172.8,73.9 -18.7,15.1 -49.2,17.5 -70.2,5.6 -35.5,-20 -69.1,-37.8 -126.3,-37.8 -126.3,0 -229.1,102.8 -229.1,229.1 0,126.3 102.8,229.1 229.1,229.1 h 373.2 l 0.2,-0.1 C 566.1,570.2 627.8,543.8 674.1,497 720.6,449.9 746.2,387.6 746.2,321.4 746.2,183.7 634,71.5 496.2,71.5 m 161.7,409.6 c -42.1,42.6 -98.1,66.7 -158,67.6 H 126.2 c -113.1,0 -205.6,-92.6 -205.6,-206.3 0,-113.8 92.5,-206.3 206.3,-206.3 78.2,0 120.1,36.8 147.8,61.1 l 9.2,8 c 2.3,2 5.2,2.9 8.1,2.6 2.9,-0.3 5.6,-1.7 7.5,-4.1 2.3,-3 5.2,-6.3 8.5,-9.9 56.7,-65.1 121.8,-99.5 188.2,-99.5 125.3,0 227.2,101.9 227.2,227.2 0,60.2 -23.3,116.8 -65.5,159.6"
   id="path20"
   style="fill:#070903;fill-opacity:1" />
</g><g
   id="g44"
   transform="matrix(0.35360679,0,0,0.36007201,47.836741,-16.169176)">
	<path
   class="st1"
   d="m 368.2,456.2 c -2.4,0 -4.2,-0.7 -5.5,-2.1 -1.3,-1.4 -1.9,-3.3 -1.9,-5.9 V 431 h -3.1 c -0.3,0 -0.6,-0.1 -0.9,-0.3 -0.2,-0.2 -0.4,-0.5 -0.4,-1 v -2.5 l 4.6,-0.7 1.3,-8.6 c 0.1,-0.3 0.3,-0.6 0.5,-0.8 0.2,-0.2 0.5,-0.3 0.9,-0.3 h 3.1 v 9.7 h 7.9 v 4.5 h -7.9 v 16.8 c 0,1.1 0.3,1.9 0.8,2.4 0.5,0.6 1.2,0.8 2,0.8 0.5,0 0.9,-0.1 1.2,-0.2 0.3,-0.1 0.6,-0.3 0.9,-0.4 0.3,-0.1 0.5,-0.3 0.6,-0.4 0.2,-0.1 0.3,-0.2 0.5,-0.2 0.3,0 0.6,0.2 0.8,0.6 l 1.8,3.1 c -0.9,0.9 -2,1.5 -3.3,2 -1.3,0.5 -2.6,0.7 -3.9,0.7 z"
   id="path24" />
	<path
   class="st1"
   d="m 385.4,441.4 c 0.1,1.7 0.3,3.1 0.8,4.4 0.4,1.2 1,2.3 1.7,3.1 0.7,0.8 1.6,1.4 2.6,1.8 1,0.4 2.1,0.6 3.3,0.6 1.2,0 2.2,-0.1 3,-0.4 0.9,-0.3 1.6,-0.6 2.2,-0.9 0.6,-0.3 1.2,-0.6 1.6,-0.9 0.4,-0.3 0.9,-0.4 1.2,-0.4 0.5,0 0.9,0.2 1.1,0.6 l 1.7,2.3 c -0.7,0.9 -1.5,1.6 -2.4,2.2 -0.9,0.6 -1.8,1.1 -2.8,1.5 -1,0.4 -2,0.6 -3.1,0.8 -1.1,0.2 -2.1,0.2 -3.1,0.2 -2,0 -3.8,-0.3 -5.5,-1 -1.7,-0.7 -3.1,-1.7 -4.4,-3 -1.2,-1.3 -2.2,-3 -2.9,-5 -0.7,-2 -1,-4.2 -1,-6.8 0,-2 0.3,-4 0.9,-5.7 0.6,-1.8 1.5,-3.3 2.7,-4.6 1.2,-1.3 2.6,-2.4 4.2,-3.1 1.7,-0.8 3.6,-1.1 5.7,-1.1 1.7,0 3.4,0.3 4.8,0.9 1.5,0.6 2.8,1.5 3.8,2.6 1.1,1.1 1.9,2.5 2.5,4.2 0.6,1.7 0.9,3.5 0.9,5.6 0,1 -0.1,1.6 -0.3,1.9 -0.2,0.3 -0.6,0.5 -1.1,0.5 h -18.1 z m 14.3,-3.8 c 0,-1 -0.1,-2 -0.4,-2.9 -0.3,-0.9 -0.7,-1.7 -1.3,-2.4 -0.6,-0.7 -1.3,-1.2 -2.1,-1.6 -0.8,-0.4 -1.8,-0.6 -2.9,-0.6 -2.2,0 -3.9,0.6 -5.1,1.9 -1.2,1.3 -2,3.1 -2.4,5.5 h 14.2 z"
   id="path26" />
	<path
   class="st1"
   d="m 432.7,432 c -0.2,0.3 -0.4,0.4 -0.5,0.6 -0.2,0.1 -0.4,0.2 -0.7,0.2 -0.3,0 -0.6,-0.1 -1,-0.4 -0.3,-0.2 -0.8,-0.5 -1.2,-0.8 -0.5,-0.3 -1,-0.5 -1.7,-0.8 -0.7,-0.2 -1.5,-0.4 -2.5,-0.4 -1.3,0 -2.4,0.3 -3.4,0.7 -1,0.5 -1.8,1.2 -2.5,2.1 -0.7,0.9 -1.2,2 -1.5,3.3 -0.3,1.3 -0.5,2.7 -0.5,4.3 0,1.7 0.2,3.2 0.5,4.4 0.4,1.3 0.9,2.4 1.5,3.3 0.7,0.9 1.5,1.6 2.4,2 0.9,0.5 2,0.7 3.2,0.7 1.1,0 2.1,-0.1 2.8,-0.4 0.7,-0.3 1.3,-0.6 1.8,-1 0.5,-0.4 0.9,-0.7 1.2,-1 0.3,-0.3 0.7,-0.4 1.1,-0.4 0.5,0 0.9,0.2 1.1,0.6 l 1.7,2.3 c -0.7,0.9 -1.4,1.6 -2.3,2.2 -0.8,0.6 -1.7,1.1 -2.6,1.5 -0.9,0.4 -1.9,0.6 -2.9,0.8 -1,0.2 -2,0.2 -3,0.2 -1.8,0 -3.4,-0.3 -5,-1 -1.5,-0.7 -2.9,-1.7 -4,-3 -1.1,-1.3 -2,-2.9 -2.7,-4.8 -0.7,-1.9 -1,-4 -1,-6.5 0,-2.2 0.3,-4.2 0.9,-6.1 0.6,-1.9 1.5,-3.5 2.6,-4.8 1.1,-1.4 2.6,-2.4 4.3,-3.2 1.7,-0.8 3.6,-1.1 5.9,-1.1 2.1,0 3.9,0.4 5.5,1 1.6,0.6 3,1.7 4.2,3 z"
   id="path28" />
	<path
   class="st1"
   d="m 447.2,429.7 c 1.2,-1.2 2.5,-2.2 3.8,-2.9 1.4,-0.7 3,-1.1 4.9,-1.1 1.6,0 2.9,0.3 4.1,0.8 1.2,0.5 2.2,1.3 3,2.3 0.8,1 1.4,2.2 1.8,3.6 0.4,1.4 0.6,2.9 0.6,4.6 v 18.8 h -6 V 437 c 0,-2 -0.4,-3.5 -1.3,-4.6 -0.9,-1.1 -2.2,-1.7 -4,-1.7 -1.3,0 -2.6,0.3 -3.7,1 -1.1,0.6 -2.2,1.5 -3.2,2.6 v 21.6 h -6 v -43 h 6 z"
   id="path30" />
	<path
   class="st1"
   d="m 479.9,430.1 c 0.6,-0.7 1.3,-1.3 1.9,-1.8 0.7,-0.5 1.4,-1 2.1,-1.4 0.7,-0.4 1.5,-0.7 2.4,-0.9 0.8,-0.2 1.8,-0.3 2.7,-0.3 1.6,0 2.9,0.3 4.1,0.8 1.2,0.5 2.2,1.3 3,2.3 0.8,1 1.4,2.2 1.8,3.6 0.4,1.4 0.6,2.9 0.6,4.6 v 18.8 h -6 V 437 c 0,-2 -0.4,-3.5 -1.3,-4.6 -0.9,-1.1 -2.2,-1.7 -4,-1.7 -1.3,0 -2.6,0.3 -3.7,1 -1.1,0.6 -2.2,1.5 -3.2,2.6 v 21.6 h -6 v -29.6 h 3.6 c 0.8,0 1.3,0.4 1.6,1.2 z"
   id="path32" />
	<path
   class="st1"
   d="m 519.8,425.7 c 2.1,0 4,0.4 5.7,1.1 1.7,0.7 3.2,1.7 4.4,3 1.2,1.3 2.1,2.9 2.8,4.8 0.7,1.9 1,4 1,6.3 0,2.3 -0.3,4.5 -1,6.3 -0.6,1.9 -1.6,3.5 -2.8,4.8 -1.2,1.3 -2.7,2.3 -4.4,3.1 -1.7,0.7 -3.6,1.1 -5.7,1.1 -2.1,0 -4,-0.4 -5.7,-1.1 -1.7,-0.7 -3.2,-1.7 -4.4,-3.1 -1.2,-1.3 -2.1,-2.9 -2.8,-4.8 -0.7,-1.9 -1,-4 -1,-6.3 0,-2.3 0.3,-4.4 1,-6.3 0.6,-1.9 1.6,-3.5 2.8,-4.8 1.2,-1.3 2.7,-2.3 4.4,-3 1.6,-0.8 3.6,-1.1 5.7,-1.1 z m 0,25.6 c 2.6,0 4.5,-0.9 5.7,-2.7 1.3,-1.8 1.9,-4.3 1.9,-7.7 0,-3.4 -0.6,-5.9 -1.9,-7.7 -1.3,-1.8 -3.2,-2.7 -5.7,-2.7 -2.6,0 -4.5,0.9 -5.8,2.7 -1.3,1.8 -1.9,4.4 -1.9,7.7 0,3.3 0.6,5.9 1.9,7.7 1.2,1.8 3.2,2.7 5.8,2.7 z"
   id="path34" />
	<path
   class="st1"
   d="m 547.3,412.8 v 43 h -6 v -43 z"
   id="path36" />
	<path
   class="st1"
   d="m 568.9,425.7 c 2.1,0 4,0.4 5.7,1.1 1.7,0.7 3.2,1.7 4.4,3 1.2,1.3 2.1,2.9 2.8,4.8 0.7,1.9 1,4 1,6.3 0,2.3 -0.3,4.5 -1,6.3 -0.6,1.9 -1.6,3.5 -2.8,4.8 -1.2,1.3 -2.7,2.3 -4.4,3.1 -1.7,0.7 -3.6,1.1 -5.7,1.1 -2.1,0 -4,-0.4 -5.7,-1.1 -1.7,-0.7 -3.2,-1.7 -4.4,-3.1 -1.2,-1.3 -2.1,-2.9 -2.8,-4.8 -0.7,-1.9 -1,-4 -1,-6.3 0,-2.3 0.3,-4.4 1,-6.3 0.6,-1.9 1.6,-3.5 2.8,-4.8 1.2,-1.3 2.7,-2.3 4.4,-3 1.6,-0.8 3.5,-1.1 5.7,-1.1 z m 0,25.6 c 2.6,0 4.5,-0.9 5.7,-2.7 1.3,-1.8 1.9,-4.3 1.9,-7.7 0,-3.4 -0.6,-5.9 -1.9,-7.7 -1.3,-1.8 -3.2,-2.7 -5.7,-2.7 -2.6,0 -4.5,0.9 -5.8,2.7 -1.3,1.8 -1.9,4.4 -1.9,7.7 0,3.3 0.6,5.9 1.9,7.7 1.2,1.8 3.2,2.7 5.8,2.7 z"
   id="path38" />
	<path
   class="st1"
   d="m 614.6,427.2 v 2.3 c 0,0.8 -0.4,1.3 -1.3,1.4 l -2.8,0.5 c 0.5,1.1 0.7,2.4 0.7,3.7 0,1.5 -0.3,2.8 -0.8,4 -0.5,1.2 -1.3,2.2 -2.3,3 -1,0.8 -2.1,1.5 -3.4,1.9 -1.3,0.4 -2.8,0.7 -4.4,0.7 -0.6,0 -1.2,0 -1.7,-0.1 -0.6,-0.1 -1.1,-0.2 -1.7,-0.3 -0.5,0.3 -0.9,0.7 -1.2,1 -0.3,0.4 -0.4,0.7 -0.4,1.1 0,0.6 0.3,1.1 0.8,1.4 0.5,0.3 1.2,0.5 2.1,0.7 0.9,0.1 1.9,0.2 3,0.3 1.1,0 2.3,0.1 3.5,0.2 1.2,0.1 2.3,0.3 3.5,0.5 1.1,0.2 2.1,0.6 3,1.1 0.9,0.5 1.6,1.2 2.1,2.1 0.5,0.9 0.8,2 0.8,3.4 0,1.3 -0.3,2.5 -0.9,3.7 -0.6,1.2 -1.5,2.3 -2.7,3.2 -1.2,0.9 -2.6,1.7 -4.2,2.3 -1.6,0.6 -3.6,0.9 -5.7,0.9 -2.1,0 -4,-0.2 -5.5,-0.6 -1.6,-0.4 -2.9,-1 -3.9,-1.7 -1,-0.7 -1.8,-1.6 -2.3,-2.5 -0.5,-0.9 -0.8,-1.9 -0.8,-3 0,-1.4 0.4,-2.6 1.3,-3.6 0.9,-1 2,-1.8 3.4,-2.3 -0.8,-0.4 -1.4,-0.9 -1.9,-1.6 -0.5,-0.7 -0.7,-1.6 -0.7,-2.7 0,-0.9 0.3,-1.8 0.9,-2.7 0.6,-0.9 1.5,-1.7 2.8,-2.4 -1.4,-0.8 -2.5,-1.9 -3.4,-3.2 -0.8,-1.4 -1.2,-2.9 -1.2,-4.7 0,-1.5 0.3,-2.8 0.8,-4 0.5,-1.2 1.3,-2.2 2.3,-3 1,-0.8 2.2,-1.5 3.5,-1.9 1.3,-0.4 2.8,-0.7 4.4,-0.7 2.5,0 4.6,0.5 6.4,1.6 z m -6.1,30 c 0,-0.6 -0.2,-1.2 -0.5,-1.6 -0.4,-0.4 -0.8,-0.7 -1.5,-0.9 -0.6,-0.2 -1.3,-0.4 -2.2,-0.5 -0.8,-0.1 -1.7,-0.2 -2.6,-0.2 -0.9,0 -1.9,-0.1 -2.8,-0.1 -1,0 -1.9,-0.1 -2.8,-0.3 -0.9,0.5 -1.6,1.1 -2.2,1.7 -0.6,0.7 -0.9,1.5 -0.9,2.4 0,0.6 0.1,1.1 0.4,1.6 0.3,0.5 0.7,0.9 1.3,1.3 0.6,0.4 1.4,0.7 2.3,0.9 0.9,0.2 2.1,0.3 3.4,0.3 2.6,0 4.6,-0.4 5.9,-1.3 1.6,-0.9 2.2,-2 2.2,-3.3 z m -8.3,-16.5 c 1.9,0 3.3,-0.5 4.2,-1.5 0.9,-1 1.4,-2.3 1.4,-3.9 0,-1.6 -0.5,-2.9 -1.4,-3.9 -0.9,-1 -2.3,-1.4 -4.2,-1.4 -1.8,0 -3.2,0.5 -4.2,1.4 -0.9,0.9 -1.4,2.2 -1.4,3.9 0,0.8 0.1,1.5 0.4,2.2 0.2,0.6 0.6,1.2 1.1,1.7 0.5,0.5 1,0.8 1.7,1.1 0.7,0.3 1.5,0.4 2.4,0.4 z"
   id="path40" />
	<path
   class="st1"
   d="m 646.4,426.1 -15.7,38 c -0.2,0.4 -0.5,0.8 -0.7,1 -0.3,0.3 -0.7,0.4 -1.3,0.4 h -4.4 l 5.2,-11.8 -11.6,-27.6 h 5.2 c 0.5,0 0.9,0.1 1.2,0.4 0.3,0.2 0.5,0.5 0.6,0.9 l 6.8,16.8 c 0.2,0.5 0.3,1 0.5,1.4 0.1,0.5 0.3,1 0.4,1.5 0.1,-0.5 0.3,-1 0.4,-1.5 0.1,-0.5 0.3,-1 0.5,-1.5 l 6.5,-16.8 c 0.1,-0.4 0.3,-0.6 0.6,-0.9 0.3,-0.2 0.6,-0.4 1,-0.4 h 4.8 z"
   id="path42" />
</g>
</svg>
