<?xml version="1.0" encoding="UTF-8" standalone="no"?>
<!-- Generator: Adobe Illustrator 19.2.1, SVG Export Plug-In . SVG Version: 6.00 Build 0)  -->

<svg
   version="1.1"
   id="layer"
   x="0px"
   y="0px"
   viewBox="0 0 314.03439 141.97777"
   xml:space="preserve"
   width="314.03439"
   height="141.97777"
   xmlns="http://www.w3.org/2000/svg"
   xmlns:svg="http://www.w3.org/2000/svg"><defs
   id="defs193" />
<style
   type="text/css"
   id="style174">
	.st0{fill:#F36C22;}
	.st1{fill:#232A46;}
	.st2{fill:#252C47;}
</style>
<g
   id="Group_28303"
   transform="matrix(0.5,0,0,0.52840159,-5.6073945,-101.44763)">
		<path
   id="Path_17649"
   class="st0"
   d="m 620.7,341.2 v 2 c -1,2.7 -3.6,4.6 -6.5,4.5 -1,0 -1.9,0.4 -2.7,0.9 -2.5,1.8 -5.5,2.6 -8.6,2.3 -1.5,-0.2 -2.9,-0.7 -4.2,-1.4 -1.5,-0.8 -2.6,-0.1 -2.3,1.5 0.9,7.6 0.5,15.3 -1,22.8 -0.2,1.2 0,2.4 0.6,3.5 2.2,2.9 2.9,6.6 1.9,10.1 -1,5.6 0.5,11.4 4.1,15.8 1.5,2.1 2.9,4.2 4.2,6.4 1.5,2.8 1.8,6 1,9.1 -0.8,1.5 -2.2,2.7 -3.8,3.2 -0.6,0 -0.8,-0.4 -1.2,-0.8 -0.9,-0.9 -1.4,-0.8 -1.8,0.4 -0.6,2.2 -1.4,2.9 -3.7,3.1 -3.2,0.1 -3.8,-0.3 -4.5,-3.5 -0.4,-2.2 -0.5,-4.4 -0.5,-6.7 -0.1,-5.2 -0.9,-10.4 -2.4,-15.4 -1.5,-4.5 -2.8,-9.1 -3.8,-13.7 -0.3,-1.1 -0.7,-2.2 -1.4,-3.1 -1.1,-1.6 -2,-3.2 -2.7,-5 -0.3,-0.8 -0.7,-1.5 -1.3,-2.2 -4.4,-5 -8.1,-10.6 -11.2,-16.5 -1.7,-3.8 -2.6,-7.9 -2.8,-12.1 0,-0.9 -0.1,-1.9 -0.1,-2.9 -0.6,0.3 -0.6,0.9 -0.8,1.3 -0.8,3.4 -1.1,7 -0.9,10.5 0,1.4 0.1,2.7 0.3,4.1 0,1.2 -0.4,2.3 -1.2,3.2 -1,1.3 -2.3,2.2 -3.8,2.8 -2.8,1.3 -5.4,3 -7.8,4.9 l -4.2,3.1 c -1.7,1.2 -2.2,3.5 -1.1,5.2 0.1,0.1 0.2,0.3 0.3,0.4 0.6,0.9 1.4,1.5 2,2.4 1.1,1.3 1.9,2.8 2.2,4.5 0.2,2.1 1.9,3.8 4,3.8 4,0.4 7.6,2.7 9.6,6.2 1.2,1.8 1.2,4.2 -0.1,5.9 -1.5,3 -4.6,5 -7.9,5 -4.3,-0.1 -8.4,-1.7 -11.5,-4.6 -2.2,-2 -4,-4.5 -5.1,-7.3 -0.9,-3 -3.3,-5.2 -6.3,-6 -1,-0.2 -1.9,-0.9 -2.3,-1.9 -1.3,-3.5 -3.5,-6.5 -4.7,-10 -0.5,-1.3 -1,-2.7 -1.4,-4.1 -0.4,-1.9 -1.9,-3.4 -3.7,-3.8 -3,-0.7 -6,-1.2 -9.1,-1.3 -11.5,-0.9 -22.8,-3.7 -33.3,-8.3 -8.2,-3.5 -15,-9.8 -19.1,-17.8 -3.9,-7.1 -8.8,-13.6 -14.5,-19.4 -5.2,-5.8 -11.1,-11 -17.6,-15.4 l -1.9,-1.2 c -1.3,-0.8 -2.9,-1.2 -4.5,-1 -6.9,0.8 -13.7,1.7 -20.6,2.2 -1.2,0.1 -2.2,0 -3.3,0.1 -2.3,0.2 -4.5,-0.8 -5.8,-2.7 -2.2,-2.6 -3.4,-5.8 -3.6,-9.2 -0.1,-2 -0.4,-4 -0.5,-6 -0.1,-2.7 0.7,-5.5 2.3,-7.7 2.4,-3.4 4.3,-7 5.6,-10.9 0.8,-1.9 0.5,-2.2 -1.5,-2.2 -8.8,0.1 -17.6,-1.1 -26,-3.5 -4.6,-1.2 -8.9,-3.4 -12.4,-6.5 -1.4,-1.3 -2.6,-2.9 -3.3,-4.6 -0.3,-0.5 -0.6,-1.2 0,-1.7 0.5,-0.5 1.2,-0.1 1.7,0.1 4.5,2.5 9.5,4.3 14.6,5.1 8.7,1.4 17.5,0.8 25.9,-1.8 2.3,-0.6 4.6,-1.5 6.9,-2.4 0.8,-0.3 1.4,-1 1.7,-1.8 0.7,-2.1 2.1,-3.8 4.1,-4.7 3.5,-1.8 7.4,-2.8 11.3,-2.7 1.3,0.2 2.6,-0.4 3.2,-1.5 2.4,-4.2 6.8,-7 11.7,-7.2 2.6,-0.3 5.3,0.2 7.6,1.5 0.4,0.2 0.9,0.3 1.4,0.1 5.3,-1.8 10.3,-4.1 15,-7.1 0.8,-0.5 1.5,-1.1 2.2,-1.8 0.6,-0.6 0.6,-1.7 0,-2.3 0,0 0,0 0,0 -0.8,-0.7 -1.6,-1.4 -2.4,-1.9 -3.6,-2.3 -7.3,-4.2 -10.9,-6.3 -2.7,-1.7 -5.3,-3.5 -7.9,-5.3 -1.7,-1.2 -1.7,-2.3 -0.3,-3.6 h 0.9 l 0.8,0.4 c 8.8,4.3 18.2,7.6 27.8,9.6 3.1,0.5 6,1.9 8.5,4 2.8,2.2 3.3,6.3 1.1,9.2 0,0 0,0 0,0.1 -2.6,3.4 -5.6,6.4 -9.1,9 -2.5,1.9 -5.2,3.6 -7.9,5.1 -0.4,0.3 -0.9,0.5 -0.6,1.2 0.1,0.5 0.6,0.6 1.2,0.5 0.3,0 0.5,0 0.8,-0.1 2.8,-0.3 5.7,-0.4 8.6,-0.3 0.3,0 0.7,0.1 0.9,0.4 -0.6,0.4 -1.2,0.9 -1.8,1.3 -1,0.6 -1.9,1.4 -2.6,2.3 -0.7,0.7 -0.8,1.8 -0.3,2.7 0.5,0.8 1.5,1.2 2.4,1 0.9,-0.1 1.7,-0.4 2.4,-0.5 1.2,-0.3 1.4,0 1.4,1.2 0,0.3 0,0.6 -0.1,0.9 -0.5,1.5 0.2,3 1.7,3.6 0.3,0.1 0.7,0.2 1,0.2 3.8,0.5 7.6,1 11.4,1.8 3.5,0.5 6.8,2.1 9.2,4.7 0.7,0.9 1.7,1.4 2.8,1.7 5,1 9.9,2.4 14.7,4.2 8.5,3 15.4,9.3 19.1,17.6 2.1,4.8 3.9,9.7 5.5,14.7 0.5,2 1.2,4 2,5.9 0.1,0.3 0.3,0.6 0.6,0.5 0.4,-0.1 0.3,-0.5 0.3,-0.8 0.1,-1.4 -0.1,-2.8 -0.4,-4.2 -1,-5.6 -2.4,-11.2 -4,-16.6 -0.9,-3.1 1,-5 4.1,-4.4 0.4,0.1 0.8,0.1 1,0.3 3.1,1 6.3,2 9.4,3.1 9.4,3 18.4,7.2 26.7,12.4 3.9,2.3 6.5,6.2 7.2,10.6 0.1,1.4 0.6,2.8 1.5,4 1,1.3 2,2.7 2.9,4 0.5,0.8 1,1.6 1.4,2.4 1.5,3.6 2.6,7.3 3.3,11.2 0.3,2.8 1.2,5.5 2.6,7.9 2.1,4.6 7.5,6.7 12.1,4.6 0.4,-0.2 0.8,-0.4 1.1,-0.6 0.7,-0.4 1.2,-1 1.4,-1.8 0.2,-1.4 1.1,-2.7 2.3,-3.5 1.4,-0.9 2.9,-1.8 4.5,-2.7 0.4,-0.3 1,-0.3 1,0.3 0.2,1.7 1.2,2.6 1.6,3.7 z"
   style="fill:#676767;fill-opacity:1" />
		<path
   id="Path_17650"
   class="st1"
   d="m 88.5,397.6 c -0.4,-4 -2.3,-7.7 -5.3,-10.4 -2.1,-1.8 -4.4,-3.3 -6.8,-4.5 -1.9,-1 -2,-2.4 -0.3,-3.7 6.1,-4.4 9.2,-11.9 7.8,-19.4 -1,-7.1 -5.8,-13 -12.6,-15.3 -4.4,-1.8 -9.1,-2.6 -13.9,-2.4 H 23.8 c -1.2,-0.1 -2.3,0.3 -3.1,1.2 v 79.6 c 0.7,0.8 1.7,1.2 2.8,1.2 H 58 c 6,0.2 11.9,-0.8 17.4,-2.9 5.5,-2 9.8,-6.2 12.1,-11.5 1.1,-3.9 1.5,-7.9 1,-11.9 z M 34.6,357.3 c 0,-1.7 0.6,-2.3 2.3,-2.3 h 10.4 v 0.1 c 3.6,0 7.1,-0.1 10.6,0 2.5,0.1 5,0.8 7.2,2 3.2,1.9 4.9,5.4 4.4,9.1 -0.1,3.6 -2.3,6.8 -5.6,8.2 -2.8,1.3 -5.8,2 -8.8,1.9 H 36.8 c -1.7,0 -2.4,-0.6 -2.4,-2.3 0.3,-5.6 0.3,-11.2 0.2,-16.7 z m 34.8,51.1 c -3.4,1.6 -7.1,2.5 -10.9,2.4 H 37.1 c -1.8,0 -2.4,-0.6 -2.4,-2.4 v -17.6 c 0,-1.7 0.6,-2.3 2.3,-2.3 7.7,0 15.4,-0.1 23.2,0.1 3.6,0 7.2,1 10.3,2.9 4.4,3.5 5.2,10 1.6,14.4 -0.8,1.1 -1.7,1.9 -2.7,2.5 z"
   style="fill:#000000;fill-opacity:1" />
		<path
   id="Path_17651"
   class="st0"
   d="m 552.6,431.6 c -0.5,0.3 -1,0.4 -1.5,0.6 -0.9,0.5 -1.8,1 -2.8,-0.1 -0.3,-0.4 -0.9,-0.4 -1.3,-0.1 -0.2,0.2 -0.4,0.5 -0.3,0.9 0.2,1.2 -0.6,2.3 -1.8,2.6 0,0 0,0 0,0 h -3.1 c -4,-0.5 -4.5,-3.6 -4.5,-6.5 -0.2,-3.3 -1.1,-6.6 -2.6,-9.6 -0.8,-1.7 -1.7,-3.3 -2.6,-4.9 -1,-1.6 -1.7,-3.3 -2.3,-5.1 -0.9,-2.4 -2.5,-4.5 -4.6,-5.9 -1.9,-1.2 -3.4,-2.9 -4.2,-5 -1.7,-4.1 -5.1,-7.2 -9.2,-8.7 -4.5,-1.5 -8.9,-3.4 -13.1,-5.8 -5.4,-3.3 -9.9,-7.7 -13.2,-13.1 -0.8,-1.2 -1.5,-2.2 -2.3,-3.2 -0.4,-0.5 -0.6,-1 -1,-1.5 0.1,-0.4 0.4,-0.3 0.5,-0.1 7.4,2.5 15.1,4.3 22.8,5.5 4.2,0.8 8.3,1.4 12.6,1.8 1.8,0.2 3.3,1.3 4.1,2.8 2.2,4.1 4.7,8.1 7.6,11.8 1.9,2 3.1,4.5 3.5,7.2 0.5,2.8 1.7,5.3 3.6,7.4 2.1,2.9 4.6,5.6 7.3,7.9 2.5,2.2 4.6,4.8 6.2,7.8 1.5,3.1 3.1,6.2 4.4,9.4 0.3,2.1 -0.2,3 -2.2,3.9 z"
   style="fill:#676767;fill-opacity:1" />
		<path
   id="Path_17652"
   class="st1"
   d="m 265,388.5 v 32.6 c 0,2 -0.6,2.7 -2.7,2.7 h -9.4 c -2,0 -2.7,-0.6 -2.7,-2.7 v -32.4 c 0.5,-6 -3.9,-11.2 -9.9,-11.7 -1.5,-0.1 -3,0.1 -4.4,0.5 -5.5,1.5 -9.6,6.1 -10.4,11.8 -0.1,1.1 -0.2,2.2 -0.3,3.3 V 421 c 0,2.2 -0.6,2.8 -2.8,2.8 H 213 c -1.8,0 -2.4,-0.6 -2.4,-2.4 v -79 c 0,-0.9 0.3,-1.2 1.2,-1.2 1.9,0.1 4,0 5.9,0 4,0 7.3,3.2 7.3,7.2 0,0.1 0,0.2 0,0.2 v 21.7 c 0,0.4 -0.1,0.8 0.1,1.2 7.5,-7.3 18.9,-9.1 28.3,-4.5 5,2.5 8.6,7.1 10,12.4 1.2,3 1.6,6.1 1.6,9.1 z"
   style="fill:#000000;fill-opacity:1" />
		<path
   id="Path_17653"
   class="st1"
   d="m 301.8,363.9 c -17.2,0.1 -30.9,14.2 -30.8,31.3 0.1,17.2 14.2,30.9 31.3,30.8 0.5,0 0.9,0 1.4,0 17.1,-0.6 30.5,-15 29.9,-32.1 -0.6,-17.1 -14.8,-30.4 -31.8,-30 z m 12.7,43.2 c -5.1,6.9 -14.8,8.4 -21.7,3.3 -1,-0.7 -1.9,-1.6 -2.7,-2.5 -6,-7.6 -5.9,-18.4 0.1,-25.9 3.6,-3.9 8.7,-5.8 14,-5.3 5.5,0.5 10.2,4.1 12.2,9.2 3.4,6.9 2.7,15.1 -1.9,21.2 z"
   style="fill:#000000;fill-opacity:1" />
		<path
   id="Path_17654"
   class="st1"
   d="m 438.1,420.5 c 0,2.3 -0.9,3.2 -3.2,3.2 h -8.3 c -2.3,0 -3.1,-0.9 -3.1,-3.2 v -31.7 c 0.1,-2.2 -0.3,-4.4 -1.3,-6.4 -2.1,-3.9 -6.4,-6.1 -10.8,-5.4 -6,0.6 -11,5.1 -12.2,11 -0.4,1.4 -0.5,2.8 -0.5,4.2 v 28 c 0,2.6 -0.9,3.5 -3.5,3.5 h -8.1 c -2.2,0 -3.2,-0.9 -3.2,-3.2 v -51.8 c 0,-2.2 0.9,-3.1 3.1,-3.1 h 8.1 c 2,0 2.9,0.9 3.1,2.9 0,1.2 0.1,2.2 0.3,3.6 2.3,-2.6 5.1,-4.7 8.3,-6 7.1,-3 15.3,-2.4 21.9,1.5 4,2.6 6.9,6.6 8.2,11.2 0.9,3.1 1.4,6.3 1.3,9.5 -0.1,10.9 -0.1,21.5 -0.1,32.2 z"
   style="fill:#000000;fill-opacity:1" />
		<path
   id="Path_17655"
   class="st1"
   d="m 148.8,399.7 c 0.2,7.6 -3.6,14.7 -10,18.7 -4.7,3.2 -10.2,4.9 -15.9,4.9 -5.3,0.3 -10.6,-0.8 -15.4,-3.2 -6.6,-3.1 -11.2,-9.2 -12.4,-16.4 -0.2,-1.2 -0.3,-2.4 -0.3,-3.6 v -30.6 c 0,-2.3 0.8,-3.1 3.1,-3.1 h 7.7 c 2,0 2.8,0.8 2.8,2.8 v 27.7 c -0.3,5.4 3,10.4 8.2,12.1 5.1,2 10.9,1 15.1,-2.6 2.7,-2.7 4.1,-6.4 3.8,-10.1 v -26.8 c 0,-2.3 0.8,-2.9 2.9,-2.9 h 7.8 c 1.9,0 2.7,0.8 2.7,2.6 v 16.3 c -0.1,4.7 -0.1,9.5 -0.1,14.2 z"
   style="fill:#000000;fill-opacity:1" />
		<path
   id="Path_17656"
   class="st2"
   d="m 199.9,382.5 v 38.3 c 0,2.2 -0.6,2.9 -2.9,2.9 h -9.1 c -1.9,0 -2.7,-0.8 -2.7,-2.7 v -77.2 c 0,-1.9 0.8,-2.7 2.7,-2.7 h 9.4 c 1.9,0 2.7,0.8 2.7,2.7 z"
   style="fill:#000000;fill-opacity:1" />
		<path
   id="Path_17657"
   class="st2"
   d="m 174.4,421.5 c 0,1.3 -1,2.3 -2.2,2.3 0,0 -0.1,0 -0.1,0 h -10 c -1.4,0 -2.2,-0.8 -2.3,-2.3 v -77.1 c 0,-0.5 0,-1 0.1,-1.5 0.2,-1 1,-1.7 2,-1.7 h 10.4 c 1.1,0 1.9,0.7 2,1.8 0.1,0.5 0.1,0.9 0.1,1.4 v 76 c 0.1,0.4 0,0.7 0,1.1 z"
   style="fill:#000000;fill-opacity:1" />
		<path
   id="Path_17658"
   class="st1"
   d="m 377.3,367.9 c -0.6,2.9 -1.3,5.9 -1.9,8.7 -0.4,1.7 -1.3,2.2 -2.9,1.9 -4.4,-1 -9.1,-0.3 -13,2.2 -3.9,2.6 -6.2,7.1 -6,11.8 v 27.8 c 0,2.4 -0.8,3.2 -3.2,3.2 h -8.7 c -1.3,0.2 -2.5,-0.8 -2.7,-2.1 0,-0.2 0,-0.3 0,-0.5 v -52.8 c -0.1,-1.3 0.8,-2.4 2.1,-2.6 0.1,0 0.2,0 0.4,0 3.1,-0.1 6.3,-0.1 9.4,0 1.4,0 2.2,1 2.3,2.4 0.1,1.4 0.1,2.9 0.3,4.7 1.9,-2.4 4.3,-4.3 6.9,-5.8 4.6,-2.4 9.9,-3.1 15,-2.2 1.7,0.5 2.4,1.5 2,3.3 z"
   style="fill:#000000;fill-opacity:1" />
		<path
   id="Path_17659"
   class="st2"
   d="m 449.1,366 c -2.8,0 -5.1,2.2 -5.1,5 0,2.8 2.2,5 5,5.1 2.7,0.1 5,-2.1 5.1,-4.8 0,-0.1 0,-0.1 0,-0.2 0.1,-2.8 -2.2,-5.1 -5,-5.1 0,0 0,0 0,0 z m 0,9.3 c -2.4,0 -4.3,-1.9 -4.4,-4.2 0,0 0,0 0,0 0,-2.4 1.9,-4.3 4.2,-4.4 2.4,0 4.3,1.9 4.4,4.2 0.1,2.4 -1.8,4.4 -4.2,4.4 z"
   style="fill:#000000;fill-opacity:1" />
		<path
   id="Path_17660"
   class="st2"
   d="m 451.4,373.2 c 0.3,-1.2 -0.6,-2.2 0,-3.3 0.2,-0.6 -0.1,-1.3 -0.7,-1.6 -0.2,-0.1 -0.4,-0.1 -0.6,-0.1 -1,-0.2 -2.1,-0.2 -3.1,0.1 -0.5,0.3 -0.1,1.5 -0.1,2.4 v 2.3 c 0,0.4 -0.3,0.9 0.4,0.9 0.8,0 0.5,-0.6 0.5,-0.9 -0.1,-1.2 0.3,-1.4 1.4,-1.4 1.4,0 1.2,0.9 1.3,1.7 0,0.5 0.3,0.8 0.8,0.6 0.6,-0.1 0.1,-0.5 0.1,-0.7 z m -2.2,-2.6 c -0.9,0 -1.4,0.1 -1.4,-0.8 0,-0.9 0.5,-0.9 1,-0.8 0.6,0 1.5,-0.3 1.5,0.9 0.1,0.8 -0.8,0.6 -1.1,0.7 z"
   style="fill:#000000;fill-opacity:1" />
	</g>
</svg>
