<?xml version="1.0" encoding="UTF-8" standalone="no"?>
<svg
   version="1.1"
   id="svg2"
   x="0"
   y="0"
   width="321.3623"
   height="100.23573"
   xml:space="preserve"
   xmlns="http://www.w3.org/2000/svg"
   xmlns:svg="http://www.w3.org/2000/svg"><defs
     id="defs323" /><style
     id="style312">.st0{fill-rule:evenodd;clip-rule:evenodd;fill:#0dab40}</style><switch
     id="switch318"
     transform="matrix(3.051882,0,0,2.5723473,-22.160326,-28.195526)"
     style="fill:#000000;fill-opacity:1"><g
       id="g316"
       style="fill:#000000;fill-opacity:1"><path
         id="path14"
         class="st0"
         d="m 109.1,27.5 c 0,-0.1 -0.1,-0.2 -0.1,-0.2 -0.1,-0.1 -0.4,-0.1 -0.8,-0.1 -1,0 -1.9,0.5 -2.3,1.3 v -1 c 0,-0.1 -0.1,-0.2 -0.2,-0.2 h -1.5 c -0.1,0 -0.2,0.1 -0.2,0.2 v 6.9 c 0,0.1 0.1,0.2 0.2,0.2 h 1.6 c 0.1,0 0.2,-0.1 0.2,-0.2 v -3.1 c 0,-1.4 1,-2.1 2.2,-2.1 0.3,0 0.6,0.1 0.7,0.1 0.1,0 0.2,0 0.2,-0.2 z M 99,27.2 c 2.2,0 3.9,1.5 3.9,3.8 0,2.3 -1.7,3.8 -3.9,3.8 -2.2,0 -3.9,-1.5 -3.9,-3.8 0,-2.3 1.7,-3.8 3.9,-3.8 z m 0,5.7 c 1.1,0 1.9,-0.8 1.9,-1.9 0,-1.2 -0.8,-1.9 -1.9,-1.9 -1.1,0 -1.9,0.8 -1.9,1.9 0,1.1 0.8,1.9 1.9,1.9 z m -8.8,-5.7 c 2.2,0 3.9,1.5 3.9,3.8 0,2.3 -1.7,3.8 -3.9,3.8 -2.2,0 -3.9,-1.5 -3.9,-3.8 0,-2.3 1.7,-3.8 3.9,-3.8 z m 0,5.7 c 1.1,0 1.9,-0.8 1.9,-1.9 0,-1.2 -0.8,-1.9 -1.9,-1.9 -1.1,0 -1.9,0.8 -1.9,1.9 0,1.2 0.8,1.9 1.9,1.9 z M 85,24.5 c 0.1,0 0.2,0.1 0.2,0.2 v 9.8 c 0,0.1 -0.1,0.2 -0.2,0.2 h -1.6 c -0.1,0 -0.2,-0.1 -0.2,-0.2 v -0.9 c -0.5,0.8 -1.3,1.2 -2.4,1.2 -1.8,0 -3.3,-1.4 -3.3,-3.8 0,-2.5 1.5,-3.8 3.2,-3.8 1.1,0 1.9,0.5 2.4,1.2 v -3.8 c 0,-0.1 0.1,-0.2 0.2,-0.2 z m -3.6,8.4 c 1.1,0 1.9,-0.8 1.9,-1.9 0,-1.2 -0.8,-1.9 -1.9,-1.9 -1.1,0 -1.9,0.8 -1.9,1.9 0.1,1.2 0.9,1.9 1.9,1.9 z m -4.8,-0.5 c 0,1.6 -1.2,2.4 -3.1,2.4 -1.3,0 -2.5,-0.4 -3.1,-1.1 -0.1,-0.1 -0.1,-0.1 0,-0.2 l 0.9,-1.2 c 0.1,-0.1 0.2,-0.1 0.2,0 0.5,0.5 1.2,0.8 2.1,0.8 0.5,0 1,-0.1 1,-0.6 0,-0.4 -0.4,-0.5 -1.6,-0.7 -1.1,-0.2 -2.4,-0.7 -2.4,-2.3 0,-1.5 1.2,-2.3 3,-2.3 1.2,0 2.1,0.4 2.8,1 0.1,0.1 0.1,0.2 0,0.2 l -0.9,1.1 c -0.1,0.1 -0.2,0.1 -0.2,0 -0.4,-0.4 -1.1,-0.6 -1.8,-0.6 -0.6,0 -0.9,0.2 -0.9,0.5 0,0.4 0.4,0.4 1.7,0.7 1.2,0.3 2.3,0.8 2.3,2.3 z m -7.3,0 c 0,1.6 -1.2,2.4 -3.1,2.4 -1.3,0 -2.5,-0.4 -3.1,-1.1 V 33.5 L 64,32.3 c 0.1,-0.1 0.2,-0.1 0.2,0 0.5,0.5 1.2,0.8 2.1,0.8 0.5,0 1,-0.1 1,-0.6 0,-0.4 -0.4,-0.5 -1.6,-0.7 -1.1,-0.2 -2.4,-0.7 -2.4,-2.3 0,-1.5 1.1,-2.3 3,-2.3 1.2,0 2.1,0.4 2.8,1 0.1,0.1 0.1,0.2 0,0.2 l -0.9,1.1 c -0.1,0.1 -0.2,0.1 -0.2,0 -0.4,-0.4 -1.1,-0.6 -1.8,-0.6 -0.6,0 -0.9,0.2 -0.9,0.5 0,0.4 0.4,0.4 1.7,0.7 1.2,0.3 2.3,0.8 2.3,2.3 z M 58.6,27.2 c 2.1,0 3.1,0.9 3.1,2.9 v 4.3 c 0,0.1 -0.1,0.2 -0.2,0.2 H 60 c -0.1,0 -0.2,-0.1 -0.2,-0.2 v -0.8 c -0.4,0.6 -1.1,1.1 -2.2,1.1 -1.4,0 -2.4,-0.9 -2.4,-2.3 0,-1.3 1,-2.1 2.3,-2.3 l 2,-0.2 c 0.3,0 0.4,-0.1 0.4,-0.3 v -0.1 c 0,-0.4 -0.4,-0.7 -1.3,-0.7 -0.7,0 -1.4,0.2 -1.7,0.8 0,0.1 -0.1,0.1 -0.2,0 l -1.1,-0.8 c -0.1,0 -0.1,-0.1 0,-0.2 0.3,-0.9 1.5,-1.4 3,-1.4 z m 1.2,4.5 V 31.4 L 58,31.6 c -0.6,0.1 -0.9,0.4 -0.9,0.8 0,0.5 0.4,0.8 1,0.8 1.1,0 1.7,-0.7 1.7,-1.5 z m -5.9,-7.1 v 9.8 c 0,0.1 -0.1,0.2 -0.2,0.2 h -1.6 c -0.1,0 -0.2,-0.1 -0.2,-0.2 v -9.8 c 0,-0.1 0.1,-0.2 0.2,-0.2 h 1.6 z m -3.7,2.8 c 0.1,0 0.2,0.1 0.2,0.2 v 6.6 c 0,1.9 -0.9,3.6 -3.9,3.6 -1.4,0 -2.3,-0.4 -3.1,-1 -0.1,0 -0.1,-0.1 0,-0.3 l 0.7,-1.2 c 0,-0.1 0.2,-0.1 0.2,0 0.6,0.5 1.2,0.8 2,0.8 1.6,0 2.1,-0.8 2.1,-1.9 v -0.5 c -0.5,0.7 -1.3,1.1 -2.3,1.1 -1.9,0 -3.4,-1.3 -3.4,-3.7 0,-2.4 1.5,-3.8 3.3,-3.8 1.1,0 1.9,0.5 2.3,1.2 v -0.8 c 0,-0.1 0.1,-0.2 0.2,-0.2 z m -3.5,5.5 c 1.1,0 1.9,-0.8 1.9,-1.9 0,-1.2 -0.8,-1.9 -1.9,-1.9 -1.1,0 -1.9,0.8 -1.9,1.9 0,1.2 0.8,1.9 1.9,1.9"
         style="fill:#000000;fill-opacity:1" /><path
         id="path16"
         class="st0"
         d="M 28.6,41.1 H 10.9 c 0,2.5 2,4.4 4.4,4.4 h 13.3 c 2.4,0 4.4,-2 4.4,-4.4 V 22.9 c 0,-0.1 -0.1,-0.2 -0.2,-0.2 h -4.1 c -0.1,0 -0.2,0.1 -0.2,0.2 v 18.2 z m 0,-26.7 c 2.4,0 4.4,2 4.4,4.5 H 15.3 v 18.3 c 0,0.1 -0.1,0.2 -0.2,0.2 H 11 c -0.1,0 -0.2,-0.1 -0.2,-0.2 V 18.9 c 0,-2.5 2,-4.5 4.4,-4.5 h 13.4"
         style="fill:#000000;fill-opacity:1" /></g></switch></svg>
