<?xml version="1.0" encoding="UTF-8" standalone="no"?>
<svg
   height="91.124023"
   width="315.01926"
   version="1.1"
   id="svg457"
   xmlns:xlink="http://www.w3.org/1999/xlink"
   xmlns="http://www.w3.org/2000/svg"
   xmlns:svg="http://www.w3.org/2000/svg">
  <path
     d="M 81.837096,35.076191 H 46.833089 v 8.449663 H 71.660212 C 70.43004,55.353108 58.315634,60.429729 46.875027,60.429729 A 27.287469,22.198846 0 0 1 19.470133,37.932928 c 0,-12.79163 12.173118,-22.640094 27.438444,-22.640094 11.776108,0 18.715401,6.106957 18.715401,6.106957 l 7.269203,-6.127427 c 0,0 -9.33813,-8.454212 -26.364839,-8.454212 -21.681795,0 -38.4540826,14.886419 -38.4540826,30.96466 0,15.755267 15.7769656,31.119325 39.0020686,31.119325 20.429255,0 35.384242,-11.386006 35.384242,-28.221647 0,-3.552725 -0.634657,-5.604299 -0.634657,-5.604299 z"
     fill="#4885ed"
     id="path442"
     style="fill:#ffffff;fill-opacity:1;stroke-width:2.52172" />
  <use
     xlink:href="#A"
     fill="#db3236"
     id="use444"
     transform="matrix(2.7958472,0,0,2.2744719,-8.6840487,-25.074493)"
     style="fill:#bfbfbf;fill-opacity:1" />
  <use
     xlink:href="#A"
     x="19.181"
     fill="#f4c20d"
     id="use446"
     transform="matrix(2.7958472,0,0,2.2744719,-8.6840487,-25.074493)"
     style="fill:#d8d8d8;fill-opacity:1" />
  <path
     d="m 216.73952,28.978332 c -13.18522,0 -23.54663,9.393569 -23.54663,19.93802 0,12.009212 12.01376,19.974413 23.31737,19.974413 6.98962,0 10.70809,-2.258551 13.42007,-4.849174 v 3.934836 c 0,6.884826 -5.13877,11.008444 -12.89445,11.008444 -7.49287,0 -11.25049,-4.533023 -12.58131,-7.103176 l -9.4276,3.184261 c 3.34383,5.754414 10.07623,11.752196 22.08719,11.752196 13.14048,0 23.09929,-6.716515 23.09929,-20.804594 v -35.83658 h -10.24398 v 3.379866 c -3.15931,-2.774856 -7.48728,-4.578512 -13.22436,-4.578512 z m 0.95059,7.824183 c 6.464,0 13.10134,4.489808 13.10134,12.157052 0,7.794616 -6.62616,12.088818 -13.24393,12.088818 -7.02876,0 -13.56825,-4.639922 -13.56825,-12.016035 0,-7.660421 6.79391,-12.232109 13.71084,-12.232109 z"
     fill="#4885ed"
     id="path448"
     style="fill:#ffffff;fill-opacity:1;stroke-width:2.52172" />
  <path
     d="m 285.99825,28.930568 c -12.43593,0 -22.87842,8.05163 -22.87842,19.924374 0,12.568731 11.63911,20.022176 24.04428,20.022176 10.37819,0 16.77509,-4.617178 20.54948,-8.756717 l -8.4798,-4.589884 c -2.20033,2.774855 -5.87967,5.492849 -12.01655,5.492849 -6.89456,0 -10.06505,-3.070537 -12.03053,-6.050095 l 32.88755,-11.099423 -1.67751,-3.252495 C 303.22066,34.252832 295.80887,28.930568 286.00104,28.930568 Z m 0.42776,7.674068 c 4.48174,0 7.70536,1.93785 9.07532,4.26236 l -21.96417,7.467092 c -0.95059,-5.781708 5.7874,-11.729452 12.86089,-11.729452 z"
     fill="#db3236"
     id="path450"
     style="fill:#bfbfbf;fill-opacity:1;stroke-width:2.52172" />
  <path
     d="m 247.41555,67.694392 h 10.80316 V 8.8833725 h -10.80316 z"
     fill="#3cba54"
     id="path452"
     style="fill:#f2f2f2;fill-opacity:1;stroke-width:2.52172" />
  <defs
     id="defs455">
    <path
       id="A"
       d="m 42.634,23.755 c -5.138,0 -8.82,4.017 -8.82,8.7 0,4.754 3.57,8.845 8.88,8.845 4.806,0 8.743,-3.673 8.743,-8.743 0,-5.8 -4.58,-8.803 -8.803,-8.803 z m 0.05,3.446 c 2.526,0 4.92,2.043 4.92,5.334 0,3.22 -2.384,5.322 -4.932,5.322 -2.8,0 -5,-2.242 -5,-5.348 0,-3.04 2.18,-5.308 5.02,-5.308 z" />
  </defs>
</svg>
