<?xml version="1.0" encoding="UTF-8" standalone="no"?>
<svg
   width="316.04028"
   height="92.290894"
   viewBox="0 0 64.72505 18.88887"
   preserveAspectRatio="xMidYMid"
   version="1.1"
   id="svg582"
   xmlns="http://www.w3.org/2000/svg"
   xmlns:svg="http://www.w3.org/2000/svg">
  <defs
     id="defs586" />
  <path
     d="M 0.744,4.0302915 H 2.8858327 V 8.4101241 H 7.4036362 V 4.0302915 H 9.5481296 V 14.796361 H 7.4036362 V 10.30642 H 2.8884933 v 4.465472 H 0.744 Z M 16.335478,11.27292 A 1.7826433,1.6393787 0 0 1 14.560816,12.904958 1.7826433,1.6393787 0 0 1 12.786155,11.27292 V 6.6239354 H 10.75607 V 11.27292 a 3.8047462,3.4989725 0 0 0 7.609492,0 V 6.6239354 H 16.335478 V 11.27292 M 24.038093,6.7022341 A 3.1129742,2.8627957 0 0 0 21.648819,7.5830943 V 4.0302915 h -2.038067 v 6.5868765 c 0,2.466409 1.942283,4.154724 4.116044,4.154724 2.394595,0 4.541749,-1.720124 4.541749,-4.037276 0,-2.2877894 -1.955586,-4.0372756 -4.257058,-4.0372756 z m 0.05321,6.3617679 c -1.383544,0 -2.437166,-1.059479 -2.437166,-2.300024 0,-1.2405444 1.056283,-2.3000235 2.437166,-2.3000235 1.170692,0 2.226974,1.0619259 2.226974,2.3000235 0,1.238098 -1.056282,2.300024 -2.226974,2.300024 z m 7.604172,-5.8650606 c 0,-0.9420311 0.68379,-1.2405448 1.428775,-1.2405448 0.601309,0 1.396847,0.4159617 1.915676,0.9297969 L 36.37026,5.4543488 C 35.705095,4.6322126 34.356139,4.0645471 33.251965,4.0645471 c -2.20835,0 -3.804747,1.1818208 -3.804747,3.1392879 0,3.631102 4.858369,2.4810896 4.858369,4.514409 0,0.626389 -0.665166,1.179374 -1.428776,1.179374 -1.202619,0 -1.596397,-0.538304 -2.144493,-1.105969 l -1.479328,1.404482 c 0.941874,1.061926 2.112566,1.60023 3.512074,1.60023 2.096601,0 3.786121,-1.198949 3.786121,-3.063436 0,-4.0372764 -4.858368,-2.7796037 -4.858368,-4.5266431 M 41.91774,6.6288291 c -2.181743,0 -4.116044,1.7127837 -4.116044,4.1547239 v 6.606452 h 2.038067 v -3.572378 c 0.678469,0.611709 1.383544,0.88086 2.389274,0.88086 2.274866,0 4.257059,-1.749486 4.257059,-4.037276 0,-2.3171514 -2.123208,-4.0372756 -4.54441,-4.0372756 z m 0.36185,6.3617679 c -1.383544,0 -2.437166,-1.061926 -2.437166,-2.300024 0,-1.2380976 1.056282,-2.3000235 2.437166,-2.3000235 1.170691,0 2.226974,1.0619259 2.226974,2.3000235 0,1.238098 -1.056283,2.300024 -2.226974,2.300024 z m 19.183371,0.105214 c -1.202619,0 -1.543184,-0.477133 -1.543184,-1.211183 V 8.588743 h 1.867784 V 6.9420238 H 59.919777 V 4.774129 l -2.062013,0.8514982 v 6.6064518 c 0,1.712783 1.266475,2.539813 3.006548,2.539813 a 4.1772389,3.8415292 0 0 0 0.814162,-0.05872 l 0.505526,-1.702996 -0.718379,0.02936"
     fill="#45535e"
     id="path578"
     style="fill:#ffffff;fill-opacity:1;stroke-width:2.55151" />
  <path
     d="M 56.083103,8.6841695 C 55.691985,8.0651206 55.143889,7.5708601 54.454778,7.1964945 A 4.3634852,4.0128076 0 0 0 52.807828,6.6728721 V 4.7080644 A 1.5697904,1.443632 0 0 0 53.77897,3.3500716 c 0,-0.824583 -0.718379,-1.4681003 -1.615022,-1.4681003 A 1.6230036,1.4925687 0 0 0 50.535623,3.37454 c 0,0.6043679 0.351207,1.1255436 0.949856,1.3579928 v 1.9648076 c -0.478919,0.063618 -0.976463,0.2006404 -1.431436,0.4159618 l -5.75235,-4.0177013 c 0.04257,-0.1394695 0.0745,-0.2838327 0.0745,-0.4355364 0,-0.9126691 -0.80352,-1.6540597 -1.798607,-1.6540597 -0.995088,0 -1.795947,0.7413906 -1.795947,1.6540597 0,0.912669 0.80352,1.6540597 1.798608,1.6540597 a 1.7826433,1.6393787 0 0 0 0.923249,-0.2397897 l 0.372493,0.2618112 5.161684,3.4206738 C 48.763622,7.9868219 48.51086,8.2461863 48.305989,8.5447 a 3.9909925,3.6702509 0 0 0 -0.665166,1.979489 v 0.14681 c 0,0.504047 0.106427,0.978733 0.28203,1.431397 0.15964,0.391494 0.385796,0.746285 0.665166,1.069267 l -1.713466,1.580655 a 1.3835441,1.2723536 0 0 0 -1.865124,1.198948 1.3835441,1.2723536 0 0 0 1.388865,1.277248 1.3835441,1.2723536 0 0 0 1.388866,-1.277248 c 0,-0.132129 -0.02129,-0.261811 -0.06386,-0.384153 l 1.772,-1.629591 a 4.5497315,4.184086 0 0 0 0.787556,0.396387 4.6029447,4.2330226 0 0 0 1.841178,0.354791 h 0.122391 a 4.3368786,3.9883393 0 0 0 2.101922,-0.489367 c 0.691772,-0.34745 1.237208,-0.822136 1.649611,-1.426504 a 4.0708124,3.7436559 0 0 0 0.638558,-2.016191 v -0.0367 c 0,-0.7267093 -0.186246,-1.394695 -0.566721,-2.0064035 z m -2.163118,3.4206735 c -0.478919,0.489367 -1.032337,0.795221 -1.657592,0.795221 h -0.106427 c -0.356529,0 -0.705075,-0.09053 -1.048301,-0.25447 a 2.4212021,2.2266188 0 0 1 -0.917928,-0.768306 c -0.247442,-0.322982 -0.383135,-0.67288 -0.383135,-1.047245 v -0.119895 c 0,-0.367025 0.07982,-0.7144755 0.266066,-1.0423512 A 2.4478088,2.2510872 0 0 1 50.92674,8.8089581 c 0.364511,-0.2446834 0.750307,-0.3278758 1.183995,-0.3278758 h 0.03991 a 2.3945955,2.2021505 0 0 1 1.112156,0.2348961 c 0.356529,0.176172 0.649202,0.4159617 0.878019,0.7340501 a 2.5276286,2.3244922 0 0 1 0.391117,1.0276705 l 0.01064,0.232449 a 2.2083492,2.0308721 0 0 1 -0.627917,1.392248 z"
     fill="#f8761f"
     id="path580"
     style="fill:#e5e5e5;fill-opacity:1;stroke-width:2.55151" />
</svg>
