<?xml version="1.0" encoding="UTF-8" standalone="no"?>
<!-- Generator: Adobe Illustrator 26.0.3, SVG Export Plug-In . SVG Version: 6.00 Build 0)  -->

<svg
   version="1.0"
   id="Layer_1"
   x="0px"
   y="0px"
   viewBox="0 0 188.56304 41.22746"
   xml:space="preserve"
   width="188.56303"
   height="41.227459"
   xmlns="http://www.w3.org/2000/svg"
   xmlns:svg="http://www.w3.org/2000/svg"><defs
   id="defs844" />
<style
   type="text/css"
   id="style832">
	.st0{fill:#1C7ED6;}
	.st1{fill:none;}
</style>
<g
   id="Homepage"
   transform="translate(-32.960575,-75.554769)"
   style="fill:#ffffff;fill-opacity:1">
	<g
   id="JA-Website-Homepage-Desktop"
   style="fill:#ffffff;fill-opacity:1">
		<g
   id="JA-Logo-Alt"
   style="fill:#ffffff;fill-opacity:1">
			<g
   id="Colour"
   style="fill:#ffffff;fill-opacity:1">
				<path
   id="Mask"
   class="st0"
   d="m 205.1,97.7 c 0,-4.6 2.4,-8.9 8.2,-8.9 3.4,0 4.6,2 4.6,3.7 v 2 h -0.2 c -1,-0.5 -2.1,-0.7 -3.2,-0.7 -2.5,0 -3.9,1.4 -3.9,4.9 v 13.1 h -1.5 c -2.5,0 -4.1,-1.3 -4.1,-3.6 V 97.7 Z m -153.9,3.4 c 0,-6.8 3.9,-12.3 11.3,-12.3 6.8,0 10.8,5.5 10.8,11.5 0,6.8 -3.9,12.3 -11.3,12.3 -6.9,0 -10.8,-5.5 -10.8,-11.5 z m 5.8,-0.8 c 0,4.5 1.7,7.2 5.4,7.2 3.3,0 4.9,-2.7 4.9,-6.4 0,-4.6 -1.7,-7.2 -5.4,-7.2 -3.2,-0.1 -4.9,2.6 -4.9,6.4 z M 42.2,82.7 h 2 c 2.5,0 3.8,1.3 3.8,3.9 v 17.1 c 0,4.7 -2.7,8.2 -8.6,8.2 C 36.2,112 34,110.3 34,108.6 V 106 h 0.2 c 1.4,0.7 2.8,1 4.3,0.9 2.6,0 3.6,-1.1 3.6,-3.4 V 82.7 Z m 34.1,-1.3 h 2 c 2.2,0 3.7,1.3 3.7,3.9 v 6.6 c 1.3,-2.1 3.7,-3.4 6.2,-3.4 5.8,0 10.2,4.7 10.2,11.4 0,6.7 -4.4,12.3 -11.4,12.3 -5.8,0 -10.7,-4.8 -10.7,-11.6 z M 82,99.8 c 0,5.2 2.2,7.3 5.6,7.3 2.8,0 4.9,-2.7 4.9,-6.3 0,-5.5 -2,-7.3 -5.5,-7.3 -2.8,0 -5,2.8 -5,6.3 z m 31.8,-17.1 h 2.4 c 1.9,0 3.7,1 4.7,2.7 2.6,4.7 7,17.1 8.1,26.3 h -2.4 c -2.4,0 -3.7,-1.4 -3.9,-2.8 -0.3,-1.9 -0.5,-3.4 -0.8,-4.6 h -11.6 c -0.6,2.4 -1.1,4.9 -1.5,7.4 h -2.2 c -1.9,0 -2.7,-1 -2.7,-2.8 0,-4.3 5.4,-21.3 9.9,-26.2 z m 2.3,5.3 c -2,3.7 -3.5,7.6 -4.5,11.6 h 9 c -1,-4 -2.5,-7.9 -4.5,-11.6 z m 31.5,-6.5 h 1.8 c 2.7,0 3.9,1.6 3.9,3.8 v 16 c 0,6.6 -3.2,11 -11,11 -6,0 -10.7,-5.2 -10.7,-11.4 0,-7.4 3.7,-12.3 10.3,-12.3 2.4,0.1 4.6,1.4 5.7,3.6 z m -10.5,18.2 c 0,4.7 2.5,7.8 5.8,7.8 3.3,0 4.6,-2.3 4.6,-6.5 0,-5.7 -2.5,-7.7 -5.6,-7.7 -2.9,-0.1 -4.8,2.7 -4.8,6.4 z m 35.6,-18.2 h 1.7 c 2.7,0 3.9,1.6 3.9,3.8 v 16 c 0,6.6 -3.1,11 -11,11 -6,0 -10.7,-5.2 -10.7,-11.4 0,-7.4 3.7,-12.3 10.3,-12.3 2.4,0.1 4.6,1.4 5.7,3.6 z m -10.4,18.2 c 0,4.7 2.5,7.8 5.7,7.8 3.2,0 4.6,-2.3 4.6,-6.5 0,-5.7 -2.5,-7.7 -5.6,-7.7 -2.8,-0.1 -4.7,2.7 -4.7,6.4 z m 19.5,1.5 c 0,-7.6 4.6,-12.4 11.1,-12.4 4.7,0 9.1,3.4 9.1,8.8 0,4.2 -3.2,5.5 -10.7,5.5 h -3.7 c 0.4,2.9 3,4.7 6.4,4.7 2.4,0 5.1,-0.5 7,-2.2 h 0.2 v 1.8 c 0,2.9 -2,5.2 -8.2,5.2 -6.2,0 -11.2,-5 -11.2,-11.2 0,-0.1 0,-0.2 0,-0.2 z m 5.9,-2.8 -0.1,0.8 h 2.5 c 5.4,0 6.6,-0.6 6.6,-2.2 0,-2.3 -1.7,-3.4 -4.3,-3.4 -2.6,0 -4.7,2.1 -4.7,4.8 z"
   style="fill:#ffffff;fill-opacity:1" />
			</g>
		</g>
	</g>
</g>
<rect
   x="-4.9605756"
   y="0.44523087"
   class="st1"
   width="196"
   height="42"
   id="rect839" />
</svg>
