<?xml version="1.0" encoding="UTF-8" standalone="no"?>
<svg
   height="68"
   width="260"
   version="1.1"
   id="svg987"
   xmlns:xlink="http://www.w3.org/1999/xlink"
   xmlns="http://www.w3.org/2000/svg"
   xmlns:svg="http://www.w3.org/2000/svg">
  <defs
     id="defs964">
    <path
       id="a"
       d="M 0,0.554 H 17.677 V 59.571 H 0 Z" />
  </defs>
  <g
     id="g5635">
    <g
       fill="none"
       fill-rule="evenodd"
       id="g985">
      <g
         transform="translate(0,0.398)"
         id="g971"
         style="fill:#ffffff;fill-opacity:1">
        <mask
           fill="#ffffff"
           id="b">
          <use
             height="100%"
             width="100%"
             xlink:href="#a"
             id="use966" />
        </mask>
        <path
           mask="url(#b)"
           d="m 3.368,0.554 h 14.309 v 0.46 c -3.592,0.661 -3.821,2.241 -3.821,2.241 -0.26,0.949 -0.172,2.989 -0.172,2.989 V 42.676 C 13.08,53.882 0.38,59.57 0.38,59.57 -0.31,59.57 0.15,58.995 0.15,58.995 7.965,51.123 7.736,45.921 7.736,45.921 V 4.346 C 7.736,1.588 4.804,1.588 4.804,1.588 3.541,1.358 3.368,0.554 3.368,0.554"
           fill="#010101"
           id="path969"
           style="fill:#ffffff;fill-opacity:1" />
      </g>
      <path
         d="m 34.687,45.861 c -4.793,0 -8.677,-4.727 -8.677,-10.559 0,-5.831 3.884,-10.559 8.677,-10.559 4.792,0 8.677,4.728 8.677,10.56 0,5.83 -3.885,10.558 -8.677,10.558 m 0,-26.003 c -7.776,0 -14.08,6.882 -14.08,15.372 0,8.49 6.304,15.372 14.08,15.372 7.775,0 14.079,-6.882 14.079,-15.372 0,-8.49 -6.304,-15.372 -14.08,-15.372"
         fill="#010101"
         id="path973"
         style="fill:#ffffff;fill-opacity:1" />
      <path
         d="m 64.96,46.32 c -4.715,0 -8.538,-4.869 -8.538,-10.874 0,-6.007 3.823,-10.876 8.538,-10.876 4.714,0 8.537,4.869 8.537,10.876 0,6.005 -3.823,10.874 -8.537,10.874 m 0.17,-26.06 c -3.315,0 -6.35,1.328 -8.708,3.533 V 8.451 h -5.645 v 36.72 h -3.448 v 4.569 h 9.093 v -2.67 c 2.358,2.204 5.393,3.532 8.707,3.532 7.498,0 13.576,-6.792 13.576,-15.17 0,-8.379 -6.078,-15.171 -13.576,-15.171"
         fill="#010101"
         id="path975"
         style="fill:#ffffff;fill-opacity:1" />
      <path
         d="m 94.526,46.32 c -4.714,0 -8.537,-4.869 -8.537,-10.874 0,-6.007 3.823,-10.876 8.537,-10.876 4.714,0 8.537,4.869 8.537,10.876 0,6.005 -3.823,10.874 -8.537,10.874 m 0.17,-26.06 c -3.315,0 -6.35,1.328 -8.707,3.533 V 8.451 h -5.646 v 36.72 h -3.448 v 4.569 h 9.094 v -2.67 c 2.357,2.204 5.392,3.532 8.706,3.532 7.498,0 13.577,-6.792 13.577,-15.17 0,-8.379 -6.079,-15.171 -13.577,-15.171 m 19.971,12.125 h -3.148 v 4.597 h 2.922 a 12.654,12.654 0 0 1 -0.121,-1.681 c 0,-1.012 0.125,-1.989 0.347,-2.916"
         fill="#010101"
         id="path977"
         style="fill:#ffffff;fill-opacity:1" />
      <path
         d="m 137.278,36.983 c 0.06,-0.575 0.095,-1.16 0.095,-1.752 0,-0.973 -0.088,-1.923 -0.248,-2.845 -1.239,-7.13 -7.04,-12.528 -14.016,-12.528 -7.877,0 -14.263,6.883 -14.263,15.373 0,8.49 6.386,15.371 14.263,15.371 3.826,0 8.03,-1.265 10.59,-3.908 l -3.965,-3.045 c -1.472,1.346 -4.629,2.212 -6.625,2.212 -4.377,0 -7.997,-3.848 -8.668,-8.878 h -2.923 v -4.597 h 3.148 c 1.055,-4.412 4.432,-7.643 8.443,-7.643 4.013,0 7.39,3.231 8.444,7.643 h -16.887 a 12.52,12.52 0 0 0 -0.347,2.916 c 0,0.573 0.048,1.132 0.122,1.681 z"
         fill="#010101"
         id="path979"
         style="fill:#ffffff;fill-opacity:1" />
      <path
         d="m 135.079,20.72 v 4.598 h 3.333 v 24.48 h 9.711 V 45.2 H 143.7 V 31.466 c 0,-5.516 5.171,-6.32 5.171,-6.32 2.873,0 4.252,0.573 4.252,0.573 V 20.26 c -6.033,-1.263 -9.021,2.184 -9.021,2.184 v -1.752 l -9.022,0.028 z m 20.342,-0.057 v 4.77 h 3.39 v 24.595 h 8.908 v -4.827 h -3.505 V 31.754 c 0,-7.01 6.838,-6.609 6.838,-6.609 5.976,0 5.287,5.402 5.287,5.402 v 19.481 h 8.85 v -4.77 h -3.391 V 31.352 c 0,-6.552 6.666,-6.264 6.666,-6.264 5.344,0 5.172,5 5.172,5 v 19.71 h 8.39 v -4.597 h -2.644 V 30.72 c 0,-9.94 -9.424,-10.737 -9.424,-10.737 -8.045,-0.468 -9.654,4.072 -9.654,4.072 -1.897,-4.106 -9.195,-4.072 -9.195,-4.072 -4.482,0 -6.838,2.865 -6.838,2.865 v -2.069 l -8.85,-0.115 z m 64.089,22.742 c 0,0 -2.027,3.103 -7.242,2.284 0,0 -4.224,-0.646 -4.224,-4.784 0,0 -0.215,-4.784 5.862,-4.784 h 7.887 v 0.215 c 0,0 0.346,3.664 -2.284,7.069 z m 36.82,1.853 V 30.433 c 0,-9.023 -7.24,-10.115 -7.24,-10.115 -7.758,-1.206 -10.689,2.414 -10.689,2.414 v -2.126 h -5.575 v 24.652 h -5.459 v -15.17 c 0,-10.92 -11.147,-10.016 -11.147,-10.016 -4.942,-0.156 -9.999,2.832 -9.999,2.832 l 2.125,4.195 c 5.804,-3.62 10.172,-2.097 10.172,-2.097 4.482,1.465 3.275,6.465 3.275,6.465 -9.538,0 -13.561,1.034 -13.561,1.034 -6.608,2.701 -5.976,8.103 -5.976,8.103 0,8.792 8.159,9.769 8.159,9.769 8.333,0.804 11.206,-3.103 11.206,-3.103 v 2.758 h 16.78 V 32.214 c 0,-8.448 7.988,-7.01 7.988,-7.01 4.368,0 4.483,4.712 4.483,4.712 v 20.112 h 8.562 v -4.77 z"
         fill="#010101"
         id="path981"
         style="fill:#ffffff;fill-opacity:1" />
      <path
         d="m 17.074,11.267 c 0.604,-0.259 1.407,-0.488 1.407,-0.488 0.777,-0.489 0.46,-1.12 0.46,-1.12 -0.517,-2.357 -0.057,-4.972 -0.057,-4.972 0.402,-2.011 3.189,-1.896 3.189,-1.896 2.988,0.431 3.247,3.477 3.247,3.477 0.029,1.35 -0.632,2.183 -0.632,2.183 -1.207,2.212 -0.748,3.592 -0.748,3.592 2.788,0.575 3.277,0.69 3.277,0.69 0,2.671 0.488,7.096 0.488,7.126 0.143,4.396 0.46,6.406 0.46,6.406 0.574,2.76 2.327,4.713 2.327,4.713 1.523,1.523 0.862,2.873 0.862,2.873 -1.84,1.034 -3.39,0.69 -3.39,0.69 -1.179,0 -1.064,0.373 -1.064,0.373 0,3.908 0.144,4.885 0.144,4.885 0.23,2.24 0.316,3.534 0.316,3.534 0.402,2.04 0.948,2.987 0.948,2.987 0,2.903 -0.2,6.696 -0.2,6.696 0,0 0,0.603 -0.058,1.15 -0.058,0.545 -0.172,2.356 -0.172,2.356 0,0.114 0.23,0.374 0.286,0.46 a 63.746,63.746 0 0 1 2.213,2.47 c -0.603,0.517 -2.93,0.517 -2.93,0.517 -1.552,0.316 -2.702,0 -2.702,0 -1.091,-0.632 -1.264,-2.154 -1.264,-2.154 0,0 -0.028,0.287 -0.028,-0.145 0,-2.068 0.114,-3.188 0.114,-3.188 0.373,-4.34 -0.114,-8.851 -0.114,-8.851 l -0.26,-1.925 c -0.344,-3.017 -1.838,-5.89 -1.838,-5.89 -0.317,-0.315 -0.517,0.086 -0.517,0.086 -2.27,4.31 -3.505,7.96 -3.505,7.96 -2.443,6.58 -2.012,11.98 -2.012,11.98 0.201,0.921 0.287,1.15 0.287,1.15 -0.89,0.23 -3.189,-0.977 -3.189,-1.062 -2.299,-1.524 -1.236,-6.954 -1.236,-6.954 l 0.748,-2.529 -4.425,-1.839 1.695,-11.55 2.586,-0.23 -0.575,-11.033 c 0.03,-1.15 0.66,-1.581 0.66,-1.581 -0.172,-7.441 0.576,-7.93 0.576,-7.93 0.718,-1.35 2.097,-2.04 2.097,-2.04 1.523,-0.603 2.529,-0.977 2.529,-0.977"
         fill="#1a4d98"
         id="path983"
         style="fill:#e4e4e4;fill-opacity:1" />
    </g>
  </g>
</svg>
