<?xml version="1.0" encoding="UTF-8" standalone="no"?>
<svg
   width="330.55737"
   height="207.32776"
   viewBox="0.5 0.5 132.09073 82.841302"
   version="1.1"
   id="svg1114"
   xmlns="http://www.w3.org/2000/svg"
   xmlns:svg="http://www.w3.org/2000/svg">
  <defs
     id="defs1118" />
  <path
     fill="#00a1e0"
     d="m 56.822736,13.806764 c 3.86628,-3.453206 9.24888,-5.5949749 15.20184,-5.5949749 7.91352,0 14.8176,3.7825819 18.4944,9.3979239 3.19512,-1.223691 6.73176,-1.904457 10.452724,-1.904457 14.2728,0 25.84416,10.005552 25.84416,22.34729 0,12.343179 -11.57136,22.348731 -25.84416,22.348731 a 25.6482,21.986026 0 0 1 -5.090644,-0.434814 c -3.23772,4.950727 -9.40764,8.295717 -16.48944,8.295717 -2.9646,0 -5.76864,-0.586952 -8.26524,-1.630732 -3.28224,6.618079 -10.92924,11.258459 -19.84176,11.258459 -9.28128,0 -17.19132,-5.034151 -20.22756,-12.094346 -1.32684,0.241529 -2.70156,0.367437 -4.11216,0.367437 -11.05044,1.02e-4 -20.00904,-7.758346 -20.00904,-17.330525 0,-6.41461 4.02504,-12.015448 10.00536,-15.011929 -1.2312,-2.428457 -1.91604,-5.108831 -1.91604,-7.92684 0,-11.008186 10.42548,-19.9317961 23.28444,-19.9317961 7.54968,0 14.25924,3.0770253 18.51312,7.8448561"
     id="path1108"
     style="fill:#f9f9f9;fill-opacity:1;stroke-width:0.111103" />
  <path
     fill="#ffffff"
     d="m 24.299376,43.262083 c -0.07512,0.168391 0.02736,0.203571 0.05124,0.232785 0.22536,0.140515 0.45432,0.241632 0.68484,0.35427 1.22268,0.556196 2.3772,0.718621 3.58452,0.718621 2.45904,0 3.98568,-1.121238 3.98568,-2.926224 v -0.03508 c 0,-1.668896 -1.72296,-2.274878 -3.3402,-2.712572 l -0.21,-0.05853 c -1.21932,-0.339663 -2.27124,-0.632316 -2.27124,-1.320385 v -0.03652 c 0,-0.588495 0.61476,-1.021869 1.56768,-1.021869 1.05876,0 2.31564,0.301603 3.12504,0.685086 0,0 0.23736,0.131772 0.32448,-0.06583 0.04776,-0.105437 0.45768,-1.051083 0.5004,-1.153537 0.04608,-0.111301 -0.03588,-0.193285 -0.11952,-0.237209 -0.92388,-0.481617 -2.20128,-0.810994 -3.52296,-0.810994 l -0.24588,0.0014 c -2.25072,0 -3.82176,1.165264 -3.82176,2.835497 v 0.03518 c 0,1.76096 1.73328,2.331865 3.35736,2.730059 l 0.26124,0.06882 c 1.18344,0.311786 2.20296,0.579649 2.20296,1.294052 v 0.03518 c 0,0.652889 -0.66252,1.138828 -1.7316,1.138828 -0.41496,0 -1.73844,-0.0073 -3.16776,-0.781781 -0.17256,-0.08641 -0.27324,-0.149258 -0.40644,-0.218075 -0.06996,-0.03806 -0.24588,-0.103997 -0.32268,0.09515 z m 35.99976,0 c -0.07512,0.168391 0.02736,0.203571 0.05124,0.232785 0.22536,0.140515 0.45432,0.241632 0.68472,0.35427 1.22268,0.556196 2.37732,0.718621 3.58452,0.718621 2.45904,0 3.9858,-1.121238 3.9858,-2.926224 v -0.03508 c 0,-1.668896 -1.72308,-2.274878 -3.34032,-2.712572 l -0.21,-0.05853 c -1.21932,-0.339663 -2.27136,-0.632316 -2.27136,-1.320385 v -0.03652 c 0,-0.588495 0.61476,-1.021869 1.56768,-1.021869 1.05876,0 2.31564,0.301603 3.12516,0.685086 0,0 0.23736,0.131772 0.32436,-0.06583 0.04776,-0.105437 0.45768,-1.051083 0.5004,-1.153537 0.0462,-0.111301 -0.03588,-0.193285 -0.11952,-0.237209 -0.92388,-0.481617 -2.20128,-0.810994 -3.52296,-0.810994 l -0.246,0.0014 c -2.25072,0 -3.82176,1.165264 -3.82176,2.835497 v 0.03518 c 0,1.76096 1.73328,2.331865 3.35736,2.730059 l 0.26124,0.06882 c 1.18344,0.311786 2.20476,0.579649 2.20476,1.294052 v 0.03518 c 0,0.652889 -0.66432,1.138828 -1.7334,1.138828 -0.41484,0 -1.73832,-0.0073 -3.16764,-0.781781 -0.17256,-0.08641 -0.27492,-0.146378 -0.40464,-0.218075 -0.04452,-0.02489 -0.25284,-0.09371 -0.3246,0.09515 z m 24.57612,-3.535498 c 0,1.020326 -0.222,1.823914 -0.65916,2.391939 -0.43212,0.562161 -1.08612,0.835887 -1.99788,0.835887 -0.91356,0 -1.5642,-0.272286 -1.98948,-0.835887 -0.43044,-0.566482 -0.64884,-1.371613 -0.64884,-2.391939 0,-1.018783 0.2184,-1.821034 0.64884,-2.383196 0.42528,-0.556195 1.07592,-0.827041 1.98948,-0.827041 0.91188,0 1.56588,0.270846 1.99968,0.827041 0.43548,0.562059 0.65736,1.36431 0.65736,2.383196 m 2.05272,-1.891291 c -0.2016,-0.584175 -0.51576,-1.09943 -0.93408,-1.528278 -0.41844,-0.43039 -0.94776,-0.775814 -1.57632,-1.027629 -0.62676,-0.250273 -1.36776,-0.377621 -2.19936,-0.377621 -0.8334,0 -1.57452,0.127348 -2.20128,0.377621 -0.62844,0.251815 -1.15776,0.597341 -1.57788,1.027629 -0.41664,0.430391 -0.73092,0.945646 -0.93408,1.528278 -0.1998,0.581089 -0.3006,1.216388 -0.3006,1.891291 0,0.674902 0.1008,1.311642 0.3006,1.891291 0.20316,0.582632 0.51576,1.097989 0.93588,1.528277 0.41832,0.430391 0.94944,0.774374 1.5762,1.018783 0.62832,0.244512 1.36776,0.368877 2.20128,0.368877 0.8316,0 1.57104,-0.124365 2.19936,-0.368877 0.62676,-0.244409 1.15776,-0.588495 1.57632,-1.018783 0.41832,-0.42895 0.73248,-0.944205 0.93408,-1.528277 0.2016,-0.581089 0.30228,-1.217932 0.30228,-1.891291 0,-0.67336 -0.10092,-1.310202 -0.3024,-1.891291 m 16.856044,4.846626 c -0.0683,-0.171272 -0.26124,-0.106878 -0.26124,-0.106878 -0.2988,0.09813 -0.61656,0.188862 -0.9546,0.234226 -0.34332,0.04526 -0.72072,0.06882 -1.12548,0.06882 -0.99372,0 -1.782724,-0.253256 -2.347924,-0.753904 -0.567,-0.500648 -0.88464,-1.310099 -0.88128,-2.405106 0.0035,-0.996872 0.28344,-1.746455 0.78732,-2.317258 0.5004,-0.567922 1.262044,-0.859341 2.278084,-0.859341 0.84708,0 1.49256,0.08342 2.16864,0.266423 0,0 0.16224,0.05997 0.23904,-0.121485 0.17928,-0.42751 0.31248,-0.733433 0.50376,-1.203324 0.0547,-0.133212 -0.0785,-0.190302 -0.12636,-0.206452 -0.2664,-0.08929 -0.89484,-0.234123 -1.36956,-0.295636 -0.444,-0.05853 -0.96312,-0.08929 -1.54032,-0.08929 -0.86256,0 -1.630924,0.125908 -2.288284,0.377723 -0.6558,0.250273 -1.21248,0.595696 -1.653,1.02619 -0.44064,0.43039 -0.77532,0.945542 -0.999,1.528174 -0.222,0.581089 -0.33468,1.219372 -0.33468,1.894274 0,1.459461 0.45936,2.639229 1.3662,3.502993 0.9084,0.866645 2.27292,1.307219 4.052404,1.307219 1.05192,0 2.1312,-0.182895 2.90652,-0.444998 0,0 0.14856,-0.06151 0.0836,-0.209229 z m 3.59148,-3.932766 c 0.0973,-0.566482 0.28008,-1.037916 0.56184,-1.40525 0.42528,-0.557739 1.07412,-0.863662 1.98612,-0.863662 0.912,0 1.51476,0.307363 1.94676,0.863662 0.28692,0.367334 0.4116,0.859341 0.46116,1.40525 z m 6.91104,-1.245808 c -0.17412,-0.563602 -0.60624,-1.133067 -0.88968,-1.393626 -0.44748,-0.412801 -0.88452,-0.701134 -1.31832,-0.862222 -0.567,-0.207892 -1.24668,-0.345423 -1.99116,-0.345423 -0.86748,0 -1.6548,0.124467 -2.29344,0.382043 -0.64032,0.257679 -1.17816,0.609069 -1.60008,1.046763 -0.42192,0.436151 -0.73944,0.955829 -0.94104,1.545765 -0.20316,0.587055 -0.30564,1.226778 -0.30564,1.901474 0,0.68663 0.10596,1.326352 0.31596,1.901578 0.2118,0.579752 0.54984,1.090583 1.00752,1.513568 0.45588,0.42607 1.0434,0.759869 1.74696,0.992449 0.69852,0.231345 1.54728,0.35139 2.52228,0.349847 2.00664,-0.0059 3.0636,-0.389347 3.49908,-0.595799 0.0769,-0.03652 0.15036,-0.100911 0.058,-0.28535 l -0.4542,-1.090686 c -0.0682,-0.162425 -0.26124,-0.102455 -0.26124,-0.102455 -0.49704,0.158105 -1.20384,0.442118 -2.85192,0.439238 -1.07748,-0.0014 -1.8768,-0.273726 -2.3772,-0.699797 -0.51396,-0.436151 -0.765,-1.077416 -0.8094,-1.982018 l 6.9486,0.0059 c 0,0 0.18264,-0.0029 0.2016,-0.155224 0.007,-0.06419 0.23916,-1.223589 -0.20664,-2.565988 m -62.559244,1.245808 c 0.099,-0.566482 0.28008,-1.037916 0.56184,-1.40525 0.42516,-0.557739 1.07412,-0.863662 1.986,-0.863662 0.91188,0 1.51476,0.307363 1.94844,0.863662 0.28512,0.367334 0.4098,0.859341 0.45936,1.40525 z m 6.90924,-1.245808 c -0.17412,-0.563602 -0.60444,-1.133067 -0.88788,-1.393626 -0.44748,-0.412801 -0.88464,-0.701134 -1.31832,-0.862222 -0.567,-0.207892 -1.24656,-0.345423 -1.99116,-0.345423 -0.8658,0 -1.6548,0.124467 -2.29344,0.382043 -0.64032,0.257679 -1.17828,0.609069 -1.60008,1.046763 -0.4218,0.436151 -0.73944,0.955829 -0.94092,1.545765 -0.20148,0.587055 -0.30564,1.226778 -0.30564,1.901474 0,0.68663 0.10584,1.326352 0.31596,1.901578 0.2118,0.579752 0.54996,1.090583 1.00752,1.513568 0.456,0.42607 1.0434,0.759869 1.74696,0.992449 0.69852,0.231345 1.54716,0.35139 2.52228,0.349847 2.00652,-0.0059 3.0636,-0.389347 3.49908,-0.595799 0.07692,-0.03652 0.15024,-0.100911 0.05808,-0.28535 l -0.45252,-1.090686 c -0.07008,-0.162425 -0.26292,-0.102455 -0.26292,-0.102455 -0.49692,0.158105 -1.20228,0.442118 -2.8536,0.439238 -1.0758,-0.0014 -1.875,-0.273726 -2.3754,-0.699797 -0.51408,-0.436151 -0.765,-1.077416 -0.80952,-1.982018 l 6.9486,0.0059 c 0,0 0.18264,-0.0029 0.20148,-0.155224 0.0066,-0.06419 0.2388,-1.223589 -0.20856,-2.565988 m -21.92856,5.145965 c -0.27156,-0.185981 -0.30912,-0.232785 -0.40128,-0.35283 -0.13668,-0.182998 -0.20664,-0.443557 -0.20664,-0.774373 0,-0.524102 0.20148,-0.900282 0.61992,-1.153538 -0.005,0.0015 0.59772,-0.446437 2.01504,-0.43039 0.99552,0.01173 1.8852,0.137634 1.8852,0.137634 v 2.708149 h 0.0017 c 0,0 -0.88284,0.162425 -1.87668,0.213652 -1.41396,0.07324 -2.0424,-0.349744 -2.03724,-0.348304 m 2.76468,-4.185199 c -0.28176,-0.01759 -0.64728,-0.02788 -1.08444,-0.02788 -0.59592,0 -1.17144,0.06439 -1.71108,0.188861 -0.543,0.124365 -1.0314,0.319193 -1.45152,0.576666 a 3.35124,2.8727338 0 0 0 -1.00752,0.982266 c -0.24588,0.39233 -0.37056,0.854918 -0.37056,1.373156 0,0.526981 0.10584,0.985146 0.31764,1.359989 0.2118,0.37618 0.51744,0.689407 0.90672,0.931038 0.38592,0.241529 0.86244,0.418561 1.41564,0.525439 0.5448,0.106878 1.16292,0.160985 1.83924,0.160985 0.71208,0 1.42248,-0.04968 2.11068,-0.150801 0.68136,-0.09957 1.51812,-0.244512 1.75032,-0.289773 a 17.55,15.044126 0 0 0 0.48672,-0.106878 c 0.17256,-0.03652 0.15888,-0.194725 0.15888,-0.194725 l -0.0035,-5.446951 c 0,-1.194581 -0.37224,-2.080255 -1.10484,-2.629147 -0.72924,-0.547452 -1.80336,-0.824264 -3.19164,-0.824264 -0.52092,0 -1.35936,0.06162 -1.86144,0.147921 0,0 -1.51812,0.251815 -2.1432,0.670479 0,0 -0.13656,0.07324 -0.06144,0.237209 l 0.49188,1.133067 c 0.06144,0.146378 0.22716,0.09659 0.22716,0.09659 0,0 0.05292,-0.01759 0.11448,-0.04835 1.33716,-0.623573 3.02772,-0.604542 3.02772,-0.604542 0.75144,0 1.32864,0.128788 1.71792,0.384923 0.37908,0.248833 0.57204,0.625013 0.57204,1.418417 v 0.251816 c -0.59772,-0.07314 -1.14588,-0.115519 -1.14588,-0.115519 m 56.04348,-3.069104 c 0.0528,-0.134754 -0.05808,-0.199148 -0.10428,-0.213755 -0.11772,-0.0395 -0.7086,-0.146378 -1.1646,-0.171272 -0.87252,-0.04536 -1.35744,0.08054 -1.79136,0.247392 -0.43032,0.166849 -0.9084,0.436151 -1.17492,0.742177 v -0.724587 c 0,-0.101014 -0.08364,-0.181558 -0.1998,-0.181558 h -1.78116 c -0.11604,0 -0.19968,0.08044 -0.19968,0.181558 v 8.88411 c 0,0.09957 0.09564,0.181558 0.21168,0.181558 h 1.82556 a 0.2112,0.18104384 0 0 0 0.21,-0.181558 v -4.438352 c 0,-0.595799 0.07692,-1.190054 0.23064,-1.563354 0.15024,-0.36898 0.3552,-0.664616 0.60792,-0.876932 0.2544,-0.210772 0.543,-0.35859 0.85896,-0.442014 0.32268,-0.08497 0.67956,-0.112741 0.9324,-0.112741 0.36372,0 0.76332,0.08044 0.76332,0.08044 0.13308,0.01317 0.20832,-0.05709 0.2526,-0.160985 0.11964,-0.272286 0.4578,-1.087703 0.52272,-1.250128"
     id="path1110"
     style="stroke-width:0.111103" />
  <path
     fill="#ffffff"
     d="m 78.380736,31.277495 c -0.222,-0.05853 -0.42348,-0.09813 -0.68652,-0.140515 -0.26652,-0.04094 -0.58404,-0.06151 -0.94428,-0.06151 -1.257,0 -2.24748,0.304483 -2.9424,0.904602 -0.69168,0.597342 -1.16136,1.506367 -1.39704,2.702388 l -0.08544,0.402514 h -1.57776 c 0,0 -0.19128,-0.0059 -0.23232,0.172815 l -0.25776,1.239842 c -0.01884,0.117164 0.04104,0.191741 0.22536,0.191741 h 1.53528 l -1.55748,7.453966 c -0.12132,0.600222 -0.26136,1.093567 -0.41676,1.468204 -0.15204,0.36898 -0.30048,0.645586 -0.48492,0.847615 -0.1776,0.193284 -0.345,0.336679 -0.6354,0.420104 -0.23904,0.06882 -0.51564,0.101014 -0.81792,0.101014 -0.1674,0 -0.39096,-0.02356 -0.55668,-0.05277 -0.16392,-0.02788 -0.25104,-0.05853 -0.37572,-0.103998 0,0 -0.17928,-0.05843 -0.25104,0.09525 -0.0564,0.127348 -0.4662,1.091921 -0.51576,1.210628 -0.04776,0.118501 0.02052,0.210772 0.10752,0.238546 0.20496,0.06151 0.35688,0.102454 0.63528,0.159545 0.38604,0.07766 0.71208,0.08198 1.01772,0.08198 0.63864,0 1.22268,-0.07756 1.70604,-0.226819 0.48504,-0.150802 0.9084,-0.412904 1.28412,-0.767071 0.40476,-0.383587 0.65916,-0.78466 0.9018,-1.333552 0.24072,-0.541692 0.44748,-1.215051 0.61128,-1.999609 l 1.566,-7.593041 h 2.28828 c 0,0 0.19284,0.0059 0.23232,-0.174151 l 0.25944,-1.238402 c 0.01716,-0.118501 -0.04092,-0.191742 -0.22716,-0.191742 h -2.22168 c 0.012,-0.04238 0.11268,-0.712963 0.3672,-1.343736 0.10932,-0.267863 0.31416,-0.486041 0.48672,-0.635402 0.17088,-0.146378 0.3672,-0.250273 0.58248,-0.310346 0.2202,-0.06151 0.47136,-0.09073 0.74628,-0.09073 0.20832,0 0.41484,0.02047 0.57024,0.04824 0.21516,0.0396 0.2988,0.06007 0.35532,0.07478 0.22716,0.05853 0.25776,0.0014 0.30228,-0.09217 l 0.53112,-1.250129 c 0.0546,-0.13496 -0.08028,-0.19205 -0.12804,-0.208097 m -31.0416,12.881989 c 0,0.09957 -0.08364,0.180118 -0.1998,0.180118 h -1.8426 c -0.11616,0 -0.19812,-0.08054 -0.19812,-0.180118 V 31.447326 c 0,-0.09947 0.08196,-0.180015 0.19812,-0.180015 h 1.8426 c 0.11616,0 0.1998,0.08054 0.1998,0.180015 z"
     id="path1112"
     style="stroke-width:0.111103" />
</svg>
