<?xml version="1.0" encoding="UTF-8" standalone="no"?>
<svg
   id="Layer_1"
   data-name="Layer 1"
   viewBox="0 0 335.70104 183.70541"
   version="1.1"
   width="335.70105"
   height="183.70541"
   xmlns="http://www.w3.org/2000/svg"
   xmlns:svg="http://www.w3.org/2000/svg">
  <defs
     id="defs4394">
    <style
       id="style4392">.cls-1{fill:#1a7993;}.cls-2{fill:#91ba7a;}</style>
  </defs>
  <path
     class="cls-1"
     d="m 164.20399,24.399111 c 5.50081,0.244446 10.3395,2.876599 14.30272,8.376622 q 13.08519,18.1719 26.17666,36.33507 c 0.87549,1.213497 0.87235,1.842071 0,3.011917 -2.7551,3.653586 -5.29683,7.595269 -8.83643,9.948057 A 20.522104,28.547736 0 0 1 172.54149,76.6275 C 163.7992,64.514355 155.10398,52.36629 146.34286,40.29243 c -0.94138,-1.309529 -0.91,-1.916277 0.0157,-3.16906 3.06263,-4.159938 5.96208,-8.564321 10.13553,-10.707584 a 23.399592,32.550531 0 0 1 7.70991,-2.016675 z"
     id="path4396"
     style="fill:#ffffff;fill-opacity:1;stroke-width:0.3701" />
  <path
     class="cls-2"
     d="m 146.12634,84.790232 c -6.53946,-0.03056 -11.29657,-2.736916 -15.21899,-8.184557 Q 117.86923,58.477426 104.82482,40.397193 c -0.94138,-1.309529 -1.04179,-2.034136 -0.0345,-3.422237 3.24462,-4.456764 6.39825,-9.013925 10.93884,-10.960759 7.98605,-3.426601 15.11544,-1.357545 21.09321,6.809552 8.76426,11.973462 17.38103,24.152083 26.10136,36.182291 0.91627,1.261514 0.97276,1.911913 0.0282,3.212712 -3.1599,4.365097 -6.22567,8.830592 -10.59681,10.912743 -2.35032,1.139291 -4.73829,1.746039 -6.22881,1.658737 z"
     id="path4398"
     style="fill:#e5e5e5;fill-opacity:1;stroke-width:0.3701" />
  <path
     class="cls-2"
     d="m 221.5843,44.369431 a 11.851986,16.486973 0 0 1 -11.9524,16.539354 c -6.8156,-0.04365 -12.14381,-8.149637 -11.8865,-17.084991 0.26986,-9.249641 5.2937,-16.281813 12.12498,-16.251257 6.58339,0.03056 11.73902,7.420665 11.71392,16.796894 z"
     id="path4414"
     style="fill:#e4e4e4;fill-opacity:1;stroke-width:0.3701" />
  <g
     id="g4601"
     style="fill:#ffffff;fill-opacity:1">
    <path
       class="cls-1"
       d="m 41.582853,129.55867 c -0.94138,5.46074 -1.710175,10.31473 -2.579383,15.14252 -1.073175,5.98019 -2.259314,11.92545 -3.294834,17.91873 -0.241621,1.39683 -0.680932,1.70675 -1.600347,1.67619 -2.140073,-0.0698 -4.289559,-0.12222 -6.426494,0 -1.126519,0.0742 -1.521899,-0.53254 -1.807451,-1.94246 -2.742557,-13.53181 -5.554148,-27.06361 -8.290428,-40.59541 -0.455001,-2.25675 -1.11083,-4.17303 -3.112833,-5.53058 3.646282,0 6.806184,0 9.962948,0 0.724863,0 0.97276,0.43651 1.129657,1.36628 1.967486,11.65481 4.047938,23.2747 5.820872,35.67157 0.398518,-2.3004 0.712312,-4.02462 0.997864,-5.7401 1.606623,-9.98734 3.501937,-19.86992 5.334492,-29.77869 0.213379,-1.16112 0.555415,-1.54088 1.374416,-1.51469 1.932969,0.0611 3.869076,0.0786 5.802044,0 0.793898,-0.0349 1.113968,0.40159 1.283416,1.39246 1.926693,11.44092 4.170318,22.78145 5.845976,34.32276 0.407932,-0.19643 0.389104,-0.74643 0.467552,-1.19167 q 2.855522,-16.3953 5.689079,-32.79497 c 0.21338,-1.24842 0.564829,-1.79842 1.568968,-1.74604 1.929831,0.12659 3.869076,0.0873 5.802045,0 0.969622,-0.0349 1.317933,0.27063 1.001001,1.74604 q -4.89518,22.49334 -9.727602,45.00851 c -0.219656,1.0258 -0.589933,1.36628 -1.333623,1.34882 -2.196556,-0.0524 -4.393111,-0.12222 -6.589667,0.0262 -1.148485,0.0742 -1.499933,-0.55437 -1.738417,-1.98175 -1.798037,-10.76433 -3.646282,-21.48065 -5.579251,-32.80371 z"
       id="path4400"
       style="fill:#ffffff;fill-opacity:1;stroke-width:0.3701" />
    <path
       class="cls-1"
       d="m 221.87927,139.08768 c -0.0847,7.50796 -1.31794,14.50085 -5.59808,19.59492 -5.3596,6.37741 -11.57585,7.11074 -17.93645,3.72343 -6.0719,-3.2389 -8.78622,-10.27544 -9.64601,-18.88778 a 22.417418,31.184255 0 0 1 0.55855,-12.52346 c 2.23107,-11.34926 9.10001,-17.97984 17.57244,-16.8842 8.84584,1.13929 14.43451,9.41552 15.0621,22.36239 0.0251,0.86866 -0.0126,1.74168 -0.0126,2.6147 z m -24.7897,-0.25318 c -0.0408,4.08573 0.36086,7.7917 1.88276,11.10044 1.62545,3.56629 3.97576,5.23812 7.01643,4.91947 2.79903,-0.30992 4.81045,-2.34406 5.96207,-5.85796 2.01142,-6.19844 1.94866,-12.55839 0.3138,-18.86595 -1.13907,-4.40875 -3.66511,-6.70479 -6.96622,-6.74408 -3.30111,-0.0393 -5.78949,2.21311 -7.0886,6.54765 a 15.407268,21.432628 0 0 0 -1.11397,8.90043 z"
       id="path4406"
       style="fill:#ffffff;fill-opacity:1;stroke-width:0.3701" />
    <path
       class="cls-1"
       d="m 180.02861,144.60516 c 0,5.88415 -0.0282,11.78576 0.022,17.65245 0,1.47104 -0.24476,2.06906 -1.38069,1.99922 -1.88276,-0.12222 -3.76552,-0.12659 -5.64828,0 -1.13908,0.0786 -1.37756,-0.50635 -1.37128,-1.98176 0.0408,-11.54568 0,-23.09573 0.0565,-34.64141 0,-1.90755 -0.31379,-2.49683 -1.71645,-2.4139 -2.6547,0.16588 -2.66411,0.0436 -2.65783,-3.72779 0,-1.59326 -0.36714,-3.54009 0.15689,-4.69248 0.59935,-1.30953 2.10556,-0.3754 3.21325,-0.48889 0.73742,-0.0742 0.98531,-0.40595 0.98531,-1.43175 a 12.074779,16.796894 0 0 1 1.02925,-6.54765 c 1.69762,-5.57859 5.37214,-8.538128 10.10729,-8.17583 3.69649,0.28374 3.70276,0.28374 3.69335,5.40836 0,1.37501 0.28869,3.05557 -0.16945,4.03772 -0.45814,0.98214 -1.72586,0.13968 -2.63587,0.27063 -1.96434,0.27937 -3.19128,1.7766 -3.58666,4.3651 -0.22593,1.46667 -0.0533,2.18255 1.17987,2.07778 1.2991,-0.11785 2.61076,0.0262 3.91614,-0.0436 0.81587,-0.0393 1.17045,0.37977 1.07318,1.51033 a 2.617039,3.6404911 0 0 0 0,0.43651 c -0.0283,2.24802 0.546,5.15518 -0.2479,6.54764 -0.84411,1.49287 -3.03439,0.43651 -4.62846,0.43651 -1.08258,0 -1.43717,0.41032 -1.42148,1.9512 0.069,5.83177 0.0345,11.64172 0.0314,17.45166 z"
       id="path4412"
       style="fill:#ffffff;fill-opacity:1;stroke-width:0.3701" />
    <g
       id="g4589"
       style="fill:#ffffff;fill-opacity:1">
      <path
         class="cls-1"
         d="m 165.24265,164.22191 c -3.13794,0 -5.96208,-0.0437 -8.78622,0.0262 -0.8849,0.0218 -1.13593,-0.79008 -1.48738,-1.59326 -2.76139,-6.32939 -5.56043,-12.62386 -8.26847,-18.99691 -0.58365,-1.37937 -0.87548,-1.25714 -1.64114,-0.27936 -3.69021,4.71867 -3.71217,4.68375 -3.71217,11.61116 0,2.54485 -0.0408,5.0897 0.0157,7.63019 0.0251,1.21786 -0.23849,1.6631 -1.14221,1.62818 -1.98632,-0.0786 -3.97577,-0.10476 -5.96208,0 -1.092,0.0611 -1.28969,-0.57619 -1.28342,-1.91191 0.0377,-6.17662 0.0157,-12.35323 0.0157,-18.52984 q 0,-18.97072 0.0157,-37.9327 c 0,-1.80715 -0.0596,-3.49208 -1.30538,-4.85399 2.99359,0 5.98718,-0.0349 8.97763,0.0218 1.05749,0 0.62759,1.27461 0.64328,1.99921 0.0282,9.60322 0.0188,19.18024 0.0188,28.77473 v 2.61905 c 1.91414,-2.66271 3.57097,-4.93256 5.2027,-7.23733 2.27186,-3.21271 4.54059,-6.42542 6.77166,-9.69051 a 2.7017632,3.7583488 0 0 1 2.19656,-1.27461 c 2.65783,0.0742 5.33449,0.0262 8.01115,0.0262 0.0785,1.10437 -0.49579,1.50159 -0.86293,2.04723 -3.34818,4.98931 -6.68381,9.99607 -10.08219,14.91554 -0.70917,1.02579 -0.77507,1.70675 -0.21024,2.92025 4.02597,8.65162 7.99232,17.35999 11.97436,26.0509 0.25731,0.55873 0.48952,1.10437 0.90059,2.02977 z"
         id="path4402"
         style="fill:#ffffff;fill-opacity:1;stroke-width:0.3701" />
      <path
         class="cls-1"
         d="m 302.6623,141.58888 c -3.45173,0 -6.90346,0.0393 -10.35519,-0.0262 -0.98217,0 -1.25517,0.43651 -1.183,1.74604 0.26358,5.7401 2.53859,10.27107 5.96208,11.28814 3.003,0.87302 6.55201,0.0567 8.03311,-4.50478 0.3138,-0.91667 0.77507,-0.99961 1.38697,-0.99088 2.08987,0.0306 4.18287,0.0698 6.27587,0 0.99159,-0.0437 1.14221,0.34048 0.79076,1.58453 -1.63172,5.77502 -4.3178,10.1925 -8.65442,12.0564 -6.4767,2.78057 -12.61137,2.25239 -17.73562,-4.80161 -2.19656,-2.99882 -3.37642,-6.80955 -4.01028,-10.91274 a 25.436112,35.383479 0 0 1 0.23848,-16.40404 c 2.04907,-11.19211 8.51008,-17.55205 16.78796,-16.53062 8.94626,1.10874 13.92302,9.02266 14.23996,22.64613 0.11296,4.84962 0.11296,4.84962 -3.29798,4.84962 z m -4.1107,-7.42067 c 2.08987,0 4.17973,0 6.27588,0 0.47696,0 1.0512,0.25754 1.15162,-0.9123 0.35145,-4.05954 -2.13694,-9.20163 -5.00501,-10.23179 -5.0207,-1.80715 -9.44833,2.84168 -9.64602,10.06591 -0.0314,1.18295 0.43304,1.08691 0.96649,1.08691 z"
         id="path4404"
         style="fill:#ffffff;fill-opacity:1;stroke-width:0.3701" />
      <path
         class="cls-1"
         d="m 70.329489,139.16625 c 0.10669,-8.10162 1.647416,-15.36514 6.476701,-20.55961 9.994327,-10.74687 24.50101,-2.85477 26.5438,14.40482 0.71859,6.06312 0.50835,12.02148 -1.22065,17.75285 -2.984181,9.90441 -9.244364,13.77188 -15.890514,13.43577 -11.487985,-0.57619 -16.094475,-13.23497 -15.909337,-25.03383 z m 8.525773,-0.30119 c 0.01569,3.99843 0.41107,7.85717 2.011417,11.27068 3.16304,6.7528 10.170052,6.45161 12.72747,-0.78572 2.384832,-6.74407 2.268728,-13.81553 -0.01569,-20.61635 -1.255175,-3.76708 -3.693352,-5.37344 -6.661839,-5.34725 -2.921419,0.0262 -5.114837,1.7766 -6.498667,5.38217 -1.211243,3.16469 -1.518761,6.60002 -1.56583,10.09647 z"
         id="path4408"
         style="fill:#ffffff;fill-opacity:1;stroke-width:0.3701" />
      <path
         class="cls-1"
         d="m 275.78587,130.80272 c -0.26044,0 -0.52403,-0.0306 -0.78448,0 -1.88276,0.24881 -3.13794,-0.0786 -4.12325,-3.12104 -1.85452,-5.77066 -8.20884,-5.88852 -11.04553,-0.55437 -1.68508,3.17343 -2.1338,6.8663 -2.19656,10.70322 -0.0847,4.1774 0.10669,8.29368 1.56897,12.0564 1.27086,3.39168 3.29483,5.05915 6.07191,5.05915 2.77707,0 4.823,-1.82461 5.92756,-5.33415 0.46127,-1.45795 1.01983,-1.89446 2.10241,-1.82898 1.88277,0.11786 3.76553,0.0611 5.64829,0.0218 0.76879,0 1.12652,0.0873 0.88804,1.43611 a 13.872817,19.298095 0 0 1 -12.15951,14.77149 c -2.51035,0.35794 -5.0207,0.32302 -7.46201,-0.58928 -4.98304,-1.84644 -8.29357,-6.32067 -9.93784,-13.01236 a 22.969694,31.952512 0 0 1 0.19141,-22.18342 c 3.5647,-13.11712 15.17192,-18.48183 23.70397,-11.00878 3.13794,2.75001 4.91087,6.79209 5.73615,11.73338 0.23221,1.38374 -0.0345,2.01668 -1.14849,1.87699 -0.98845,-0.12658 -1.98945,-0.0262 -2.98104,-0.0262 z"
         id="path4410"
         style="fill:#ffffff;fill-opacity:1;stroke-width:0.3701" />
      <path
         class="cls-1"
         d="m 107.25359,116.2975 q 4.4998,0 9.00587,0 c 0.80959,0 0.7029,0.84247 0.70604,1.54525 0,1.9512 0,3.89803 0,6.47344 0.49266,-0.94286 0.74055,-1.40556 0.98217,-1.87263 2.31894,-4.50914 5.67967,-5.85359 9.43264,-6.04566 0.62759,-0.0306 0.80645,0.36667 0.79704,1.16985 -0.022,2.18255 -0.0345,4.3651 0,6.54764 0.0188,1.03017 -0.34831,1.13493 -0.95707,1.17422 -6.92543,0.4365 -9.7935,6.08058 -10.1324,14.93299 -0.27614,7.18932 -0.10669,14.40482 -0.0973,21.58104 0,1.82898 -0.2322,2.61906 -1.69448,2.47065 a 41.351726,57.523252 0 0 0 -5.33449,0 c -1.13594,0.0829 -1.3807,-0.49326 -1.37756,-1.97739 0.0377,-13.59291 0,-27.19019 0.0314,-40.78747 0.0188,-1.94683 0.0471,-3.81073 -1.36186,-5.21193 z"
         id="path4416"
         style="fill:#ffffff;fill-opacity:1;stroke-width:0.3701" />
      <path
         class="cls-1"
         d="m 226.23472,116.28441 c 2.87121,0 5.73929,0.0306 8.60736,-0.0218 0.85666,0 1.06376,0.49762 1.0418,1.56707 -0.0377,1.99922 0,4.0028 0,6.72662 2.28128,-5.8405 5.72045,-7.70876 9.75584,-8.17146 1.17673,-0.13096 1.56897,0.35793 1.47483,2.01231 -0.10669,2.0254 0.40166,4.33454 -0.14748,6.0282 -0.62759,1.92937 -2.55742,0.87302 -3.88477,1.42738 -4.15776,1.71112 -6.58967,5.91034 -7.02584,12.68934 -0.364,5.50875 -0.10041,11.0306 -0.16631,16.54372 -0.0314,2.46628 -0.0502,4.94129 0,7.42066 0.0345,1.30953 -0.25103,1.80715 -1.23007,1.74604 -1.92983,-0.0873 -3.86908,-0.11785 -5.79577,0 -1.15476,0.0786 -1.365,-0.5369 -1.35872,-1.99485 0.0376,-11.68973 0.0251,-23.38382 0.0188,-35.07355 0,-1.95993 -0.10041,-3.92859 -0.0722,-5.87542 0.0282,-1.85517 -0.0125,-3.62303 -1.21752,-5.02423 z"
         id="path4418"
         style="fill:#ffffff;fill-opacity:1;stroke-width:0.3701" />
    </g>
  </g>
</svg>
