<?xml version="1.0" encoding="UTF-8" standalone="no"?>
<svg
   height="193.34912"
   viewBox="0 -5.3879985 19.557816 14.562863"
   width="336.43695"
   version="1.1"
   id="svg2806"
   xmlns="http://www.w3.org/2000/svg"
   xmlns:svg="http://www.w3.org/2000/svg">
  <defs
     id="defs2810" />
  <path
     d="m 9.6814759,-4.2112794 c 0.8080241,-0.03726 1.6213031,0.1246519 2.3835711,0.4850586 1.146452,0.5363194 2.171227,1.5193083 2.921124,2.79247426 A 6.4401321,8.581563 0 0 1 15.80877,0.8881589 c 0.0383,0.10839298 0.06779,0.2296576 0.04745,0.350019 C 15.83097,1.4405115 15.697936,1.6076173 15.545076,1.6277152 15.386115,1.6586522 15.2219,1.5265484 15.165467,1.3273763 14.734679,-0.02301964 13.999865,-1.1956963 13.08338,-2.0075145 a 5.6856595,7.5762181 0 0 0 -1.866184,-1.077607 5.7700546,7.6886758 0 0 0 -2.6138781,-9.033e-4 c -1.2227133,0.3753108 -2.34239,1.3097486 -3.1319425,2.60843208 A 5.6904046,7.582541 0 0 0 4.6516585,1.3282796 C 4.6065799,1.4791265 4.5030349,1.5974555 4.382204,1.6238763 A 0.35927267,0.47873569 0 0 1 4.0573334,1.4845461 0.35842533,0.47760659 0 0 1 3.979378,0.98390603 C 4.553028,-0.82286954 5.6150854,-2.340823 6.9206688,-3.2443237 a 6.4448772,8.5878859 0 0 1 2.7606376,-0.9671816 z"
     fill="#f49813"
     id="path2798"
     style="fill:#e5e5e5;fill-opacity:1;stroke-width:0.195625" />
  <g
     fill="#3069b5"
     id="g2804"
     transform="matrix(0.16946824,0,0,0.22581872,-1.8789696,-4.218054)"
     style="fill:#ffffff;fill-opacity:1">
    <path
       d="m 61.915,24.666 c -0.029,-0.416 0.364,-0.727 0.754,-0.736 0.506,-0.014 1.014,-0.01 1.521,-0.003 0.353,0.012 0.764,0.247 0.763,0.643 0.018,4.65 -0.011,9.3 0.015,13.953 1.884,-2.095 3.784,-4.178 5.675,-6.267 0.372,-0.367 0.666,-0.923 1.246,-0.971 0.78,-0.032 1.562,-0.013 2.343,-0.012 0.301,-0.027 0.637,0.249 0.532,0.57 -0.124,0.248 -0.35,0.418 -0.535,0.615 -2.045,2.043 -4.097,4.078 -6.13,6.13 1.964,2.243 3.902,4.508 5.857,6.76 0.252,0.32 0.567,0.591 0.778,0.945 0.155,0.276 -0.102,0.612 -0.398,0.625 -0.65,0.036 -1.3,0 -1.951,0.015 -0.339,-0.008 -0.705,0.042 -1.012,-0.133 -0.324,-0.186 -0.52,-0.518 -0.753,-0.798 -1.886,-2.375 -3.76,-4.76 -5.653,-7.131 -0.02,2.338 -0.006,4.676 -0.008,7.013 -0.007,0.27 0.048,0.595 -0.187,0.791 -0.374,0.361 -0.93,0.235 -1.397,0.258 -0.414,-0.014 -0.898,0.077 -1.235,-0.229 -0.187,-0.146 -0.236,-0.395 -0.23,-0.616 0.006,-7.142 -10e-4,-14.282 0.005,-21.422 z m -8.594,6.568 c 0.946,-0.304 2.012,-0.362 2.939,0.039 0.325,0.152 0.703,0.478 0.556,0.879 -0.149,0.504 -0.275,1.013 -0.452,1.508 -0.131,0.355 -0.543,0.487 -0.89,0.417 -0.78,-0.133 -1.546,-0.391 -2.346,-0.365 -0.559,-0.013 -1.074,0.286 -1.456,0.674 -0.616,0.603 -0.935,1.446 -1.078,2.282 -0.113,0.604 -0.08,1.22 -0.086,1.831 v 7.697 c 0.036,0.422 -0.4,0.709 -0.781,0.723 -0.523,0.007 -1.045,0.014 -1.568,-0.004 -0.377,-0.02 -0.802,-0.295 -0.753,-0.72 -0.002,-4.75 -0.005,-9.499 0,-14.249 -0.031,-0.472 0.492,-0.729 0.902,-0.685 0.515,0.034 1.219,-0.16 1.553,0.359 0.255,0.6 0.375,1.25 0.614,1.856 0.718,-0.985 1.67,-1.854 2.846,-2.242 z M 0,31.596 c 0.145,-0.166 0.315,-0.347 0.557,-0.33 0.71,-0.006 1.421,-0.022 2.13,0.01 0.36,0.011 0.608,0.328 0.66,0.662 0.698,2.836 1.383,5.677 2.077,8.513 0.204,0.876 0.452,1.744 0.584,2.635 0.137,0.8 0.164,1.613 0.295,2.415 0.179,-1.145 0.34,-2.297 0.648,-3.415 0.908,-3.386 1.815,-6.771 2.724,-10.156 0.07,-0.386 0.434,-0.66 0.82,-0.66 0.79,-0.02 1.58,-0.007 2.37,-0.007 0.424,-0.02 0.877,0.228 0.979,0.661 0.678,2.469 1.348,4.941 2.023,7.412 0.41,1.6 0.947,3.173 1.179,4.814 0.064,0.452 0.126,0.906 0.22,1.355 0.254,-2.58 0.918,-5.089 1.464,-7.614 0.45,-2.01 0.89,-4.021 1.347,-6.03 0.067,-0.404 0.494,-0.607 0.87,-0.596 0.638,-0.004 1.278,-0.022 1.916,0.01 0.378,0.011 0.596,0.43 0.462,0.768 -1.28,4.727 -2.557,9.458 -3.839,14.186 a 0.828,0.828 0 0 1 -0.786,0.68 c -0.99,0.033 -1.981,0.009 -2.97,0.014 -0.355,0.022 -0.73,-0.168 -0.793,-0.542 -0.886,-3.25 -1.754,-6.508 -2.632,-9.761 -0.317,-1.132 -0.446,-2.305 -0.58,-3.47 -0.162,1.037 -0.243,2.09 -0.52,3.109 C 10.307,39.609 9.404,42.96 8.503,46.311 8.402,46.854 7.781,46.961 7.32,46.926 6.4,46.91 5.48,46.948 4.56,46.91 4.232,46.91 3.98,46.656 3.92,46.346 2.63,41.637 1.343,36.926 0.05,32.22 0.005,32.014 0.01,31.804 0.001,31.597 Z m 116.06,-0.321 a 53.044,53.044 0 0 1 2.019,0 c 0.408,0.006 0.793,0.286 0.922,0.676 1.16,3.033 2.312,6.07 3.47,9.105 0.243,0.615 0.412,1.257 0.52,1.91 0.48,-1.8 1.118,-3.551 1.678,-5.327 0.623,-1.92 1.247,-3.841 1.873,-5.762 0.093,-0.334 0.412,-0.562 0.75,-0.59 0.549,-0.041 1.1,-0.006 1.65,-0.02 0.322,0.003 0.704,-0.034 0.95,0.224 0.158,0.134 0.124,0.357 0.058,0.532 -1.854,5.289 -3.703,10.58 -5.555,15.871 -0.322,0.881 -0.569,1.804 -1.087,2.597 -0.743,1.207 -1.948,2.076 -3.272,2.546 -0.463,0.144 -0.94,0.461 -1.438,0.283 -0.353,-0.09 -0.488,-0.457 -0.677,-0.727 -0.135,-0.245 -0.385,-0.471 -0.333,-0.776 0.025,-0.302 0.267,-0.548 0.552,-0.629 0.558,-0.192 1.126,-0.405 1.578,-0.799 1.1,-0.93 1.779,-2.305 2.038,-3.704 -0.176,-0.622 -0.5,-1.193 -0.736,-1.794 -1.768,-4.11 -3.536,-8.22 -5.309,-12.329 -0.106,-0.268 -0.264,-0.525 -0.294,-0.816 0.004,-0.32 0.372,-0.461 0.643,-0.47 z m -82.444,1.988 c -0.965,0.18 -1.845,0.78 -2.334,1.635 -0.818,1.387 -0.913,3.06 -0.876,4.633 0.059,1.424 0.287,2.943 1.196,4.094 0.677,0.866 1.79,1.3 2.873,1.284 1.041,0.033 2.132,-0.32 2.838,-1.111 0.901,-0.986 1.19,-2.354 1.315,-3.644 0.054,-1.268 0.08,-2.558 -0.249,-3.795 -0.261,-1.046 -0.813,-2.09 -1.769,-2.654 -0.889,-0.545 -1.987,-0.596 -2.994,-0.442 z m 0.407,-2.255 c 1.745,-0.108 3.574,0.255 5.014,1.289 1.289,0.916 2.164,2.329 2.573,3.844 0.486,1.808 0.484,3.738 0.043,5.555 -0.415,1.676 -1.386,3.255 -2.85,4.208 -1.566,1.038 -3.532,1.308 -5.369,1.087 -1.565,-0.193 -3.09,-0.88 -4.18,-2.033 -1.28,-1.341 -1.916,-3.19 -2.048,-5.017 -0.161,-2.026 0.15,-4.17 1.276,-5.901 0.834,-1.302 2.16,-2.259 3.638,-2.695 0.617,-0.193 1.26,-0.283 1.903,-0.337 z m 51.483,2.172 c -0.957,0.062 -1.88,0.613 -2.308,1.486 -0.834,1.615 -0.851,3.495 -0.81,5.27 0.067,1.161 0.193,2.36 0.734,3.407 0.365,0.706 1.03,1.263 1.815,1.434 1.202,0.289 2.616,0.044 3.47,-0.905 0.823,-0.937 1.094,-2.211 1.22,-3.417 0.087,-1.374 0.092,-2.777 -0.249,-4.122 -0.234,-0.9 -0.631,-1.798 -1.344,-2.423 -0.683,-0.602 -1.635,-0.834 -2.528,-0.73 z m 4.117,-8.713 c -0.022,-0.364 0.35,-0.597 0.674,-0.625 0.519,-0.029 1.038,-0.015 1.558,-0.01 0.396,-0.003 0.838,0.291 0.781,0.73 0,7.175 0.001,14.348 -10e-4,21.52 0.027,0.371 -0.338,0.659 -0.68,0.68 -0.413,0.023 -0.827,0.023 -1.238,-0.006 -0.29,-0.018 -0.572,-0.204 -0.67,-0.482 -0.156,-0.466 -0.237,-0.95 -0.355,-1.424 -0.573,0.777 -1.311,1.464 -2.229,1.806 -1.309,0.481 -2.766,0.49 -4.11,0.161 a 4.973,4.973 0 0 1 -3.182,-2.476 c -1.023,-1.866 -1.144,-4.061 -1.08,-6.143 0.036,-1.779 0.376,-3.655 1.534,-5.067 0.874,-1.196 2.307,-1.883 3.753,-2.062 1.347,-0.197 2.806,0.03 3.92,0.845 0.528,0.37 0.95,0.868 1.327,1.388 -0.011,-2.944 -0.008,-5.89 -0.002,-8.835 z m 14.487,8.803 c -0.48,0.098 -0.945,0.29 -1.333,0.591 -0.776,0.604 -1.162,1.564 -1.368,2.497 -0.3,1.479 -0.295,3.007 -0.14,4.502 0.145,1.1 0.42,2.272 1.226,3.085 0.657,0.689 1.646,0.941 2.572,0.896 0.996,0.036 2.032,-0.335 2.675,-1.117 0.803,-0.972 1.03,-2.264 1.147,-3.48 0.074,-1.432 0.075,-2.898 -0.327,-4.287 -0.254,-0.866 -0.719,-1.727 -1.503,-2.22 -0.863,-0.567 -1.955,-0.619 -2.95,-0.467 z m -1.333,-1.964 a 8.736,8.736 0 0 1 4.256,-0.086 c 1.297,0.3 2.512,1.028 3.309,2.106 0.842,1.106 1.268,2.476 1.445,3.842 0.154,1.053 0.11,2.12 0.11,3.18 0,1.915 0,3.83 -0.004,5.744 0.02,0.233 -0.127,0.44 -0.317,0.562 -0.321,0.197 -0.72,0.11 -1.078,0.132 -0.402,-0.003 -0.93,0.033 -1.15,-0.386 -0.213,-0.491 -0.257,-1.04 -0.394,-1.557 -0.54,0.655 -1.098,1.331 -1.878,1.71 -1.189,0.588 -2.578,0.553 -3.85,0.305 -1.556,-0.308 -2.99,-1.228 -3.87,-2.554 -1.048,-1.544 -1.428,-3.45 -1.414,-5.293 -0.013,-1.796 0.339,-3.652 1.337,-5.172 0.799,-1.242 2.08,-2.141 3.498,-2.533 z m 27.833,11.763 c -0.79,0.29 -1.288,1.201 -1.086,2.024 0.206,0.966 1.33,1.626 2.267,1.268 0.865,-0.264 1.41,-1.25 1.142,-2.119 -0.236,-0.978 -1.396,-1.556 -2.323,-1.173 z m 0.11,-0.413 c 0.468,-0.074 0.977,-0.08 1.412,0.138 0.74,0.336 1.273,1.131 1.193,1.958 0.062,0.987 -0.768,1.869 -1.715,2.028 -1.066,0.226 -2.214,-0.546 -2.43,-1.61 -0.281,-1.07 0.463,-2.275 1.54,-2.514 z"
       id="path2800"
       style="fill:#ffffff;fill-opacity:1" />
    <path
       d="m 130.94,43.858 c -0.002,0.224 -0.003,0.448 0,0.673 0.196,-0.012 0.398,0 0.592,-0.054 0.182,-0.075 0.164,-0.307 0.114,-0.462 -0.188,-0.184 -0.468,-0.136 -0.706,-0.157 z m -0.593,-0.365 c 0.567,0.032 1.202,-0.127 1.712,0.189 0.412,0.309 0.212,0.98 -0.252,1.124 0.134,0.354 0.32,0.683 0.49,1.02 l -0.636,0.012 a 50.119,50.119 0 0 1 -0.448,-0.944 l -0.273,-0.005 c -0.002,0.315 -0.002,0.63 -0.002,0.945 l -0.594,-0.007 c 0.002,-0.778 0,-1.557 0.003,-2.334 z"
       id="path2802"
       style="fill:#ffffff;fill-opacity:1" />
  </g>
</svg>
