<?xml version="1.0" encoding="UTF-8" standalone="no"?>
<svg
   width="420"
   height="223"
   viewBox="0 0 420 223"
   version="1.1"
   id="svg12"
   sodipodi:docname="trace.svg"
   inkscape:export-filename="../PycharmProjects/grey-infotech/grey_infotech/public/assets/logo/logo-night.svg"
   inkscape:export-xdpi="96"
   inkscape:export-ydpi="96"
   xmlns:inkscape="http://www.inkscape.org/namespaces/inkscape"
   xmlns:sodipodi="http://sodipodi.sourceforge.net/DTD/sodipodi-0.dtd"
   xmlns="http://www.w3.org/2000/svg"
   xmlns:svg="http://www.w3.org/2000/svg">
  <defs
     id="defs16" />
  <sodipodi:namedview
     id="namedview14"
     pagecolor="#ffffff"
     bordercolor="#000000"
     borderopacity="0.25"
     inkscape:showpageshadow="2"
     inkscape:pageopacity="0.0"
     inkscape:pagecheckerboard="0"
     inkscape:deskcolor="#d1d1d1"
     showgrid="false" />
  <g
     id="g248"
     style="fill:#ffffff"
     transform="matrix(1.0514946,0,0,1.1259143,-10.847372,-14.165355)">
    <path
       d="M 99.75,66.758 C 98.787,66.972 98,67.739 98,68.462 c 0,0.724 -0.755,1.253 -1.677,1.177 -0.922,-0.076 -2.722,1.39 -4,3.259 -4.461,6.526 -2.213,15.731 4.918,20.132 4.072,2.513 7.563,2.181 9.607,-0.914 1.508,-2.284 1.484,-2.356 -0.563,-1.706 -3.634,1.153 -9.166,-1.88 -10.87,-5.96 -1.768,-4.231 -0.576,-9.524 2.655,-11.787 1.055,-0.738 1.713,-1.547 1.462,-1.797 -0.25,-0.251 1.148,-0.268 3.107,-0.04 3.301,0.386 3.483,0.27 2.489,-1.587 -1.224,-2.287 -2.858,-3.041 -5.378,-2.481 m 49.75,3.744 c -11.521,4.073 -15.086,19.705 -6.753,29.609 5.379,6.392 14.405,8.42 23.575,5.295 L 171,103.812 v -7 c 0,-6.158 0.24,-7.062 2,-7.522 2.984,-0.781 2.414,-2.29 -0.865,-2.29 -1.576,0 -4.051,0.933 -5.5,2.073 -2.307,1.814 -2.635,2.796 -2.635,7.893 0,6.491 -0.54,7.034 -7.005,7.034 -5.724,0 -9.577,-3.671 -10.989,-10.471 -2.001,-9.641 1.192,-18.449 7.436,-20.51 5.929,-1.957 11.252,0.415 13.588,6.053 1.545,3.73 2.97,3.76 2.97,0.063 0,-4.519 -3.302,-7.82 -9.058,-9.054 -6.218,-1.334 -6.51,-1.323 -11.442,0.421 M 175,71.5 c 0,0.825 0.848,1.5 1.883,1.5 2.669,0 3.088,2.529 3.103,18.75 L 180,106 h 3 3 v -8 c 0,-9.826 1.176,-10.269 5.972,-2.25 5.019,8.392 7.19,10.25 11.983,10.25 4.543,0 5.229,-1.139 1.663,-2.764 -3.262,-1.487 -10.525,-13.434 -8.564,-14.087 C 200.118,88.127 204,83.133 204,80.212 204,73.165 197.322,70 182.451,70 176.495,70 175,70.301 175,71.5 m 32,0 c 0,0.825 0.848,1.5 1.883,1.5 2.669,0 3.088,2.529 3.103,18.75 L 212,106 h 10.345 c 11.294,0 12.79,-0.659 14.185,-6.25 0.873,-3.496 0.329,-3.455 -3.376,0.25 -2.675,2.675 -3.658,3 -9.077,3 H 218 v -7 -7 h 7 c 5.556,0 7,-0.31 7,-1.5 0,-1.19 -1.444,-1.5 -7,-1.5 h -7 V 79.5 73 l 4.75,0.015 c 5.842,0.018 9.647,1.816 10.07,4.76 0.541,3.767 2.18,2.459 2.18,-1.74 0,-2.896 -0.521,-4.244 -1.934,-5 C 232.002,70.466 225.702,70 219.066,70 209.007,70 207,70.25 207,71.5 m 29,-0.791 c 0,0.534 1.044,1.446 2.32,2.027 1.276,0.581 5.101,5.117 8.5,10.08 6.142,8.968 6.18,9.067 6.18,16.104 V 106 h 3 3 v -7.511 c 0,-7.356 0.112,-7.692 5.484,-16.375 C 271.202,71.252 271.728,70 269.573,70 c -0.902,0 -2.508,1.463 -3.568,3.25 -1.059,1.787 -3.443,5.648 -5.297,8.579 l -3.37,5.329 -4.209,-6.46 C 250.814,77.145 248.056,73.456 247,72.5 244.888,70.588 236,69.141 236,70.709 m -49.333,2.958 C 186.3,74.033 186,77.183 186,80.667 V 87 h 3.427 c 6.771,0 9.607,-7.861 4.42,-12.25 -2.072,-1.753 -5.929,-2.335 -7.18,-1.083 m -119.07,1.837 c -1.785,1.351 -1.794,1.483 -0.15,2.114 1.048,0.402 2.111,0.111 2.639,-0.722 1.932,-3.052 0.651,-3.768 -2.489,-1.392 M 51.69,78.921 c 0.638,2.44 2.552,2.697 4.31,0.579 1.015,-1.223 0.96,-1.5 -0.296,-1.5 -0.847,0 -2.219,-0.261 -3.049,-0.579 -1.133,-0.435 -1.374,-0.061 -0.965,1.5 M 20.678,79.16 c -0.909,0.509 -2.069,1.702 -2.577,2.651 -0.811,1.516 -0.464,1.681 2.868,1.363 3.058,-0.291 4.411,0.194 7.003,2.51 5.799,5.181 3.703,14.365 -3.852,16.878 -3.112,1.036 -3.144,1.106 -1.276,2.797 1.821,1.647 2.085,1.64 5.286,-0.141 7.119,-3.96 9.654,-11.657 6.221,-18.892 C 31.851,81.06 24.329,77.117 20.678,79.16 M 71,93.015 c -1.333,0.876 -1.333,1.094 0,1.97 2.443,1.604 3.856,1.181 3.29,-0.985 C 73.703,91.756 73.164,91.595 71,93.015 m -15.655,3.528 c -0.891,2.321 0.268,2.841 2.635,1.183 1.836,-1.286 1.899,-1.558 0.483,-2.102 -2.272,-0.872 -2.451,-0.819 -3.118,0.919 m -2.965,5.909 c -0.306,0.799 -0.266,1.924 0.09,2.5 1.165,1.885 2.53,1.101 2.53,-1.452 0,-2.711 -1.718,-3.398 -2.62,-1.048 M 37.5,114 c 0.995,1.1 1.965,2 2.155,2 0.19,0 0.345,-0.9 0.345,-2 0,-1.381 -0.667,-2 -2.155,-2 -2.092,0 -2.102,0.059 -0.345,2 m 22.5,1.992 c 0,1.341 0.664,2.008 2,2.008 1.1,0 2,-0.342 2,-0.759 0,-0.418 -0.9,-1.322 -2,-2.009 -1.751,-1.093 -2,-0.999 -2,0.76 m 125,2.717 c -2.846,1.047 -5,3.608 -5,5.946 0,1.418 -0.593,2.345 -1.5,2.345 -0.825,0 -1.5,0.45 -1.5,1 0,0.55 0.675,1 1.5,1 1.222,0 1.5,1.667 1.5,9 0,8.933 0.019,9 2.5,9 2.481,0 2.5,-0.067 2.5,-9 v -9 h 3 c 1.65,0 3,-0.45 3,-1 0,-0.55 -1.35,-1 -3,-1 -3.033,0 -3.651,-1.14 -2.393,-4.418 0.698,-1.819 3.484,-2.091 5.08,-0.495 0.783,0.783 1.302,0.741 1.853,-0.152 1.512,-2.445 -3.653,-4.655 -7.54,-3.226 m -44.778,14.041 0.278,13.75 4.5,0.299 c 4.372,0.291 4.436,0.254 2.25,-1.306 -2.127,-1.518 -2.25,-2.288 -2.25,-14.05 V 119 h -2.528 -2.528 l 0.278,13.75 M 216.2,120.2 c -1.388,1.388 -1.633,6.8 -0.308,6.8 0.49,0 1.174,-1.125 1.519,-2.5 0.519,-2.068 1.229,-2.5 4.108,-2.5 H 225 v 12.5 12.5 h 2.5 2.5 V 134.5 122 h 4.5 c 3.333,0 4.5,-0.389 4.5,-1.5 0,-1.241 -1.867,-1.5 -10.8,-1.5 -7.067,0 -11.215,0.415 -12,1.2 m 65.8,-0.374 c 0,0.517 0.9,1.176 2,1.464 1.866,0.488 2,1.364 2,13.116 V 147 h 2.5 c 2.457,0 2.5,-0.136 2.5,-7.965 0,-7.023 0.244,-8.095 2.064,-9.069 3.694,-1.977 4.936,0.326 4.936,9.156 V 147 h 3 3 v -8 c 0,-10.04 -1.693,-12.385 -8.548,-11.84 l -4.361,0.347 -0.296,-4.003 c -0.29,-3.942 -0.361,-4.009 -4.545,-4.311 -2.337,-0.17 -4.25,0.115 -4.25,0.633 M 321,120 c 0,0.55 0.627,1 1.393,1 2.187,0 2.607,2.351 2.607,14.582 V 147 h 10 c 6,0 10,-0.4 10,-1 0,-0.578 -3.167,-1 -7.5,-1 H 330 v -11.8 c 0,-7.844 -0.402,-12.202 -1.2,-13 -1.448,-1.448 -7.8,-1.611 -7.8,-0.2 m 53,-0.107 c 0,0.491 0.675,1.152 1.5,1.469 0.825,0.316 1.5,1.714 1.5,3.107 0,2.274 -0.395,2.531 -3.889,2.531 -5.877,0 -8.324,2.524 -8.874,9.152 -0.392,4.734 -0.123,5.868 1.968,8.3 1.7,1.977 3.298,2.785 5.359,2.712 1.615,-0.057 4.849,-0.141 7.186,-0.187 l 4.25,-0.083 v -12.013 c 0,-6.607 -0.466,-12.883 -1.035,-13.947 -0.718,-1.341 -2.098,-1.934 -4.5,-1.934 -1.906,0 -3.465,0.402 -3.465,0.893 m -23.8,1.307 c -0.66,0.66 -1.2,2.235 -1.2,3.5 0,1.378 -0.601,2.3 -1.5,2.3 -0.825,0 -1.5,0.45 -1.5,1 0,0.55 0.675,1 1.5,1 1.208,0 1.5,1.553 1.5,7.977 0,7.432 0.173,8.09 2.531,9.636 1.906,1.248 3.284,1.439 5.576,0.773 3.384,-0.985 3.599,-2.991 0.274,-2.555 -2.58,0.338 -3.348,-1.962 -3.367,-10.081 -0.013,-5.47 0.108,-5.75 2.486,-5.75 1.375,0 2.5,-0.45 2.5,-1 0,-0.55 -1.125,-1 -2.5,-1 -2.19,0 -2.5,-0.433 -2.5,-3.5 0,-3.632 -1.538,-4.562 -3.8,-2.3 M 45,126.5 c 0,2.719 0.935,3.165 2.776,1.324 0.859,-0.859 0.88,-1.534 0.078,-2.5 C 46.154,123.275 45,123.751 45,126.5 m 106,1.587 c 0,0.502 0.675,0.913 1.5,0.913 1.222,0 1.5,1.667 1.5,9 v 9 h 3 3 v -8.393 c 0,-6.731 0.313,-8.513 1.582,-9 2.117,-0.812 2.054,-0.828 3.847,0.964 1.146,1.147 1.571,3.581 1.571,9 0,7.258 0.058,7.429 2.5,7.429 2.467,0 2.5,-0.11 2.5,-8.345 0,-10.988 -0.586,-11.538 -12.26,-11.506 -4.807,0.014 -8.74,0.436 -8.74,0.938 m 46.457,1.196 c -1.909,1.643 -2.796,3.549 -3.162,6.796 -0.432,3.827 -0.113,4.984 2.095,7.608 3.157,3.751 6.674,4.777 11.228,3.274 6.477,-2.138 8.526,-11.259 3.793,-16.884 -2.161,-2.569 -3.308,-3.077 -6.944,-3.077 -3.094,0 -5.124,0.661 -7.01,2.283 m 44.132,0.794 c -7.056,8.385 1.826,21.379 11.275,16.494 1.655,-0.856 3.308,-2.04 3.673,-2.63 1.169,-1.893 -0.335,-2.196 -2.695,-0.543 -4.409,3.088 -8.842,1.167 -8.842,-3.832 0,-1.248 1.224,-1.566 6.031,-1.566 6.719,0 7.712,-0.915 5.97,-5.496 -1.509,-3.969 -3.83,-5.435 -8.662,-5.472 -3.439,-0.026 -4.61,0.502 -6.75,3.045 m 23.868,-0.794 c -1.92,1.652 -2.796,3.547 -3.169,6.857 -0.456,4.046 -0.168,4.962 2.496,7.944 2.492,2.789 3.718,3.371 7.109,3.371 2.887,0 4.746,-0.65 6.296,-2.2 2.593,-2.593 1.669,-4.342 -1.012,-1.916 -4.375,3.96 -9.177,0.925 -9.177,-5.8 0,-5.677 2.62,-9.102 6.265,-8.187 1.431,0.359 2.887,1.552 3.236,2.65 0.864,2.724 2.499,2.526 2.499,-0.302 0,-3.455 -1.892,-4.7 -7.144,-4.7 -3.499,0 -5.441,0.599 -7.399,2.283 m -63.886,1.288 c -1.947,1.948 -2.113,10.305 -0.255,12.847 3.43,4.691 8.605,-2.719 6.653,-9.526 -1.375,-4.795 -3.711,-6.007 -6.398,-3.321 M 246.2,130.2 c -0.66,0.66 -1.2,2.01 -1.2,3 0,1.39 0.796,1.8 3.5,1.8 3.666,0 4.184,-0.854 2.465,-4.066 -1.18,-2.204 -3.013,-2.486 -4.765,-0.734 m 124.784,0.83 c -0.598,1.116 -0.951,4.333 -0.785,7.147 0.318,5.402 2.125,7.68 5.165,6.514 2.346,-0.901 2.394,-14.186 0.054,-15.084 -2.533,-0.972 -3.281,-0.732 -4.434,1.423 m -307.379,7.892 c -4.669,3.077 -6.765,7.249 -6.412,12.764 0.284,4.452 0.519,4.838 3.132,5.138 2.551,0.292 2.72,0.129 1.75,-1.685 -1.822,-3.404 -1.202,-6.965 1.795,-10.32 2.366,-2.647 3.554,-3.188 6.75,-3.075 6.838,0.243 8.38,0.651 8.395,2.22 0.009,0.845 0.459,2.211 1,3.036 0.876,1.333 1.094,1.333 1.97,0 1.533,-2.336 1.19,-5 -0.735,-5.691 -0.963,-0.346 -2.555,-1.457 -3.539,-2.469 -2.447,-2.517 -10.232,-2.472 -14.106,0.082 m 325.727,4.656 c -0.333,0.867 0.131,2.314 1.031,3.214 1.473,1.472 1.791,1.482 3.174,0.1 0.869,-0.87 1.257,-2.265 0.893,-3.214 -0.814,-2.122 -4.296,-2.19 -5.098,-0.1 m -61.485,12.421 c 0.341,4.93 2.103,7.127 2.205,2.751 l 0.053,-2.25 1.569,2.25 c 0.864,1.238 2.216,2.25 3.005,2.25 1.217,0 1.203,-0.33 -0.094,-2.182 -1.118,-1.597 -1.238,-2.532 -0.445,-3.487 1.835,-2.211 0.191,-4.331 -3.359,-4.332 H 327.5 l 0.347,5 M 337.2,152.2 c -0.66,0.66 -1.2,2.37 -1.2,3.8 0,1.43 0.54,3.14 1.2,3.8 1.72,1.72 5.325,1.479 6.928,-0.464 1.25,-1.516 1.162,-1.552 -0.995,-0.402 -3.195,1.703 -5.689,-0.584 -4.744,-4.349 0.684,-2.724 4.065,-3.647 4.891,-1.335 0.245,0.688 0.778,0.942 1.183,0.567 1.334,-1.237 -0.53,-2.817 -3.322,-2.817 -1.508,0 -3.281,0.54 -3.941,1.2 m 15.8,0.3 c -0.86,1.036 -0.898,1.5 -0.122,1.5 0.617,0 1.122,1.575 1.122,3.5 0,1.925 0.45,3.5 1,3.5 0.55,0 1,-2.25 1,-5 0,-5.146 -0.83,-6.114 -3,-3.5 m 4.335,0.069 c -0.833,2.17 0.953,4.973 3.053,4.792 2.388,-0.206 1.954,1.566 -0.638,2.608 -2.209,0.888 -2.211,0.905 -0.122,0.968 2.977,0.088 4.564,-2.229 4.19,-6.122 -0.267,-2.78 -0.763,-3.366 -3.074,-3.632 -1.876,-0.216 -2.964,0.226 -3.409,1.386 M 365,153.43 c 0,1.76 0.621,2.519 2.25,2.75 3.188,0.453 2.967,3.401 -0.229,3.041 -1.821,-0.204 -2.183,0.017 -1.365,0.835 0.612,0.612 2.178,0.963 3.479,0.779 3.298,-0.467 3.395,-5.189 0.115,-5.655 -1.238,-0.175 -2.25,-0.932 -2.25,-1.68 0,-0.748 1.012,-1.556 2.25,-1.794 1.627,-0.314 1.35,-0.471 -1,-0.57 -2.813,-0.118 -3.25,0.191 -3.25,2.294 m 8,-1.512 c 0,2.052 1.297,4.082 2.607,4.082 0.766,0 1.393,0.952 1.393,2.117 0,1.624 -0.465,1.995 -2,1.593 -1.1,-0.287 -2,-0.115 -2,0.384 0,0.498 1.35,0.906 3,0.906 1.667,0 3,-0.533 3,-1.2 0,-0.933 0.267,-0.933 1.2,0 1.702,1.702 6.748,1.499 7.438,-0.3 0.317,-0.825 1.653,-1.5 2.969,-1.5 1.46,0 2.393,0.585 2.393,1.5 0,2.113 1.977,1.879 2.106,-0.25 0.182,-3.011 -0.275,-7.728 -0.799,-8.25 -0.276,-0.275 -1.806,1.055 -3.399,2.956 -2.095,2.499 -3.199,3.153 -3.99,2.362 -0.751,-0.751 -0.766,-1.294 -0.049,-1.737 1.98,-1.224 -0.056,-3.581 -3.093,-3.581 -2.678,0 -2.956,0.278 -2.527,2.524 0.592,3.096 -0.206,3.712 -2.57,1.983 -1.135,-0.83 -1.408,-1.557 -0.739,-1.97 2.025,-1.252 1.043,-2.537 -1.94,-2.537 -1.65,0 -3,0.413 -3,0.918 m 24,1.582 c 0,1.833 0.533,2.5 2,2.5 1.37,0 2,0.667 2,2.117 0,1.624 -0.465,1.995 -2,1.593 -1.1,-0.287 -2,-0.086 -2,0.447 0,0.533 1.462,0.829 3.25,0.656 2.716,-0.262 3.25,-0.723 3.25,-2.813 0,-1.831 -0.602,-2.585 -2.25,-2.82 -1.238,-0.175 -2.25,-0.932 -2.25,-1.68 0,-0.748 1.012,-1.556 2.25,-1.794 1.627,-0.314 1.35,-0.471 -1,-0.57 -2.836,-0.119 -3.25,0.182 -3.25,2.364 m -67,0 c 0,0.917 0.484,1.505 1.075,1.308 0.591,-0.197 1.075,-0.786 1.075,-1.308 0,-0.522 -0.484,-1.111 -1.075,-1.308 -0.591,-0.197 -1.075,0.391 -1.075,1.308 m 29.51,-0.516 c -0.737,1.193 0.199,3.016 1.549,3.016 1.217,0 1.225,-2.707 0.01,-3.457 -0.512,-0.317 -1.213,-0.118 -1.559,0.441 m 32.073,1.882 c -0.431,0.697 -0.513,1.537 -0.183,1.867 0.895,0.895 1.871,-0.421 1.387,-1.871 -0.338,-1.016 -0.574,-1.016 -1.204,0.004 M 383,158.5 c 0,0.825 0.45,1.5 1,1.5 0.55,0 1,-0.675 1,-1.5 0,-0.825 -0.45,-1.5 -1,-1.5 -0.55,0 -1,0.675 -1,1.5 m 13.755,6 c 0.595,3.112 2.21,3.284 2.345,0.25 l 0.099,-2.25 0.651,2.309 c 0.733,2.605 2.017,3.008 3.273,1.026 0.633,-0.998 0.85,-1.02 0.862,-0.085 0.008,0.688 0.403,1.25 0.876,1.25 0.474,0 0.647,-1.125 0.384,-2.5 -0.513,-2.681 -1.761,-3.286 -2.583,-1.25 -0.403,1 -0.52,1 -0.583,0 -0.044,-0.69 -1.36,-1.25 -2.94,-1.25 -2.513,0 -2.803,0.304 -2.384,2.5"
       stroke="none"
       fill="#57696b"
       fill-rule="evenodd"
       id="path4"
       style="fill:#ffffff" />
    <path
       d="m 252.857,17.255 c -1.454,1.235 -4.753,6.183 -7.331,10.995 L 240.838,37 h -4.804 c -4.003,0 -5.073,-0.411 -6.42,-2.466 l -1.615,-2.466 -3.515,2.074 -3.514,2.073 2.087,3.378 2.088,3.377 -2.207,3.927 c -2.162,3.846 -2.354,3.942 -9.282,4.638 -4.386,0.44 -7.199,0.337 -7.401,-0.271 -0.18,-0.539 -0.958,-1.832 -1.73,-2.872 -1.248,-1.683 -1.571,-1.727 -2.925,-0.392 -1.363,1.342 -1.306,1.842 0.537,4.75 2.032,3.207 2.162,3.25 9.711,3.236 4.209,-0.007 8.552,-0.259 9.652,-0.559 1.174,-0.32 3.567,-3.432 5.796,-7.537 l 3.797,-6.991 5.191,0.3 5.191,0.301 6.124,10 6.123,10 13.389,-0.28 c 15.532,-0.326 13.677,0.877 21.557,-13.978 L 293.836,37.5 287.168,26.277 280.5,15.055 268,15.032 c -11.521,-0.02 -12.707,0.154 -15.143,2.223 M 251,27.185 c -2.475,4.501 -4.885,8.953 -5.356,9.894 -0.63,1.26 0.688,4.264 5,11.393 l 5.856,9.682 5,-0.568 c 2.75,-0.313 7.7,-0.576 11,-0.584 l 6,-0.016 5.255,-9.668 5.256,-9.667 -5.642,-9.326 L 277.726,19 266.613,19.001 255.5,19.002 251,27.185 M 87,62.666 c -1.375,0.217 -3.504,0.612 -4.732,0.878 -2.789,0.606 -9.45,6.353 -8.724,7.527 0.296,0.479 -0.183,2.264 -1.064,3.967 -1.568,3.032 -1.558,3.074 0.459,1.994 1.134,-0.606 2.108,-0.974 2.165,-0.817 0.057,0.157 0.845,5.235 1.75,11.285 1.641,10.967 1.656,11.005 5.146,12.79 3.632,1.858 9.338,1.684 14.909,-0.455 L 99.5,98.84 96.5,97.295 C 89.739,93.813 86,87.832 86,80.5 86,75.279 89.249,68 91.579,68 c 0.847,0 1.275,-0.427 0.952,-0.95 -0.323,-0.522 0.438,-1.507 1.691,-2.189 L 96.5,63.623 94,62.911 C 91.222,62.12 90.603,62.099 87,62.666 m -55.5,9.847 c -2.75,0.769 -5.45,1.428 -6,1.465 -0.55,0.036 0.8,0.899 3,1.918 7.424,3.437 11.5,9.537 11.5,17.209 0,4.807 -3.431,11.933 -6.079,12.626 -1.056,0.276 -1.921,1.125 -1.921,1.886 0,2.048 -4.009,1.675 -7.973,-0.741 -2.165,-1.32 -2.995,-1.542 -2.204,-0.589 3.852,4.641 14.316,5.673 22.819,2.25 3.269,-1.316 4.692,-2.727 6.75,-6.695 3.097,-5.968 3.123,-6.14 0.823,-5.41 -1.574,0.499 -1.945,-0.589 -3.131,-9.183 -0.74,-5.362 -1.361,-10.339 -1.381,-11.06 -0.043,-1.549 -3.989,-3.72 -8.203,-4.512 -1.65,-0.31 -5.25,0.066 -8,0.836 m 69.071,4.058 c -1.859,1.86 -2.07,6.53 -0.371,8.229 1.579,1.579 5.851,1.477 8.05,-0.192 3.773,-2.864 1.141,-9.608 -3.75,-9.608 -1.296,0 -3.064,0.707 -3.929,1.571 M 59.625,82.518 C 56.191,85.952 58.38,92 63.057,92 c 2.243,0 3.28,-0.645 4.167,-2.593 2.382,-5.226 -3.726,-10.762 -7.599,-6.889 M 18.223,88.557 C 13.937,91.558 16.061,98 21.335,98 25.32,98 27,96.475 27,92.857 27,90.228 23.968,87 21.5,87 c -0.58,0 -2.055,0.701 -3.277,1.557 m 106.358,5.518 c -3.841,2.371 -11.396,16.51 -9.719,18.187 0.87,0.87 1.494,0.795 2.546,-0.305 1.712,-1.79 10.969,-18.934 10.459,-19.37 -0.202,-0.172 -1.681,0.497 -3.286,1.488 m -18.865,11.256 -6.785,4.169 3.785,0.315 c 3.503,0.292 4.101,0.836 8.063,7.324 l 4.279,7.009 -4.099,7.426 -4.099,7.426 h -8.2 -8.2 l -4.285,-6.944 c -4.244,-6.878 -4.269,-6.973 -2.656,-10.093 0.896,-1.732 1.455,-3.322 1.244,-3.534 -0.212,-0.211 -1.926,0.672 -3.809,1.962 -3.132,2.146 -3.619,2.22 -5.698,0.857 -1.251,-0.819 -5.073,-1.613 -8.495,-1.764 l -6.22,-0.274 2.34,1.895 c 1.287,1.042 1.915,1.895 1.395,1.895 -0.52,0 -4.65,2.25 -9.178,5 -4.528,2.75 -8.616,5 -9.086,5 -1.318,0 -2.197,5.411 -1.401,8.622 0.829,3.341 5.251,10.378 6.522,10.378 0.477,0 0.867,0.477 0.867,1.059 0,0.582 -0.434,0.791 -0.964,0.464 -0.529,-0.328 -1.929,0.37 -3.11,1.551 -1.743,1.743 -2.03,2.875 -1.526,6.027 0.534,3.335 -0.012,5.05 -3.89,12.222 -2.48,4.588 -4.51,8.847 -4.51,9.465 0,0.617 3.195,6.318 7.1,12.667 L 52.2,207 63.85,206.882 c 17.548,-0.179 16.505,0.363 23.379,-12.132 l 5.913,-10.75 5.179,0.019 5.179,0.02 7.826,12.98 7.826,12.981 h 16.829 16.829 l 7.3,-13.5 7.3,-13.5 h 11.326 c 9.042,0 11.441,0.296 11.891,1.47 0.31,0.808 2.096,2.024 3.968,2.701 2.014,0.728 4.432,2.783 5.919,5.03 l 2.514,3.799 h 9.395 9.396 l 4.596,-8.502 4.597,-8.501 -4.791,-7.749 -4.792,-7.748 -9.682,-0.286 -9.682,-0.286 -3.047,6.036 c -1.676,3.32 -3.646,6.036 -4.377,6.036 -0.732,0 -2.158,0.914 -3.169,2.031 -1.67,1.845 -2.851,2.005 -12.905,1.75 L 167.5,178.5 160.267,166.553 c -3.978,-6.571 -7.836,-12.551 -8.574,-13.288 -1.07,-1.071 -4.614,-1.201 -17.554,-0.648 l -16.213,0.693 -7.213,13.326 c -6.783,12.532 -7.392,13.327 -10.213,13.332 -6.11,0.01 -7.307,-0.97 -13.507,-11.059 l -6.067,-9.873 4.624,-8.018 4.625,-8.018 h 9.754 9.753 l 2.811,-5.25 c 1.546,-2.887 3.855,-7.068 5.131,-9.29 l 2.319,-4.039 -5.003,-8.324 -5.004,-8.324 1.998,-3.386 c 1.099,-1.863 1.676,-3.351 1.282,-3.306 -0.394,0.044 -3.769,1.956 -7.5,4.25 m -59.591,7.237 c -4.386,5.576 2.952,10.486 7.836,5.243 2.326,-2.496 2.444,-3.186 1.004,-5.877 -1.541,-2.879 -6.348,-2.534 -8.84,0.634 m 33.907,13.991 c 0.017,0.517 0.692,1.815 1.5,2.882 0.807,1.068 1.454,1.518 1.436,1 -0.017,-0.517 -0.692,-1.815 -1.5,-2.882 -0.807,-1.068 -1.454,-1.518 -1.436,-1 M 64,134.121 c -6.156,2.447 -11,9.425 -11,15.844 0,3.512 0.441,4.334 3.25,6.046 3.434,2.094 11.181,2.719 12.25,0.989 0.34,-0.55 0.214,-1 -0.28,-1 -0.495,0 -1.437,-1.18 -2.094,-2.623 -2.665,-5.848 5.621,-10.432 9.317,-5.154 2.159,3.082 1.947,5.261 -0.693,7.103 l -2.25,1.569 2.5,0.039 c 2.113,0.032 3.166,-1.201 6.809,-7.975 2.513,-4.673 4.072,-8.731 3.741,-9.736 -1.464,-4.438 -15.099,-7.667 -21.55,-5.102 m 68.541,22.83 -11.959,0.549 -6.755,12.231 -6.756,12.231 7.215,11.999 7.214,11.998 14.354,-0.23 14.354,-0.229 6.389,-11.5 c 3.514,-6.325 6.392,-12.267 6.396,-13.205 0.004,-0.938 -3.188,-6.901 -7.093,-13.25 -5.753,-9.355 -7.508,-11.507 -9.25,-11.344 -1.183,0.111 -7.531,0.448 -14.109,0.75 m -6.148,1.841 c -0.6,0.389 -4.064,6.086 -7.697,12.66 -5.24,9.479 -6.365,12.242 -5.441,13.355 1.6,1.928 3.791,-0.97 10.745,-14.214 3.707,-7.059 5.171,-10.806 4.492,-11.492 -0.555,-0.56 -1.5,-0.699 -2.099,-0.309 m -65.868,2.941 c -1.086,0.275 -2.437,1.132 -3.001,1.904 -0.565,0.771 -2.281,1.738 -3.813,2.148 -2.17,0.58 -3.755,2.525 -7.148,8.771 l -4.36,8.025 6.148,10.172 6.149,10.172 5.5,0.031 c 3.025,0.016 8.443,-0.248 12.039,-0.588 l 6.539,-0.618 5.531,-10.095 5.531,-10.096 -6.07,-10.252 -6.07,-10.253 -7.5,0.089 c -4.125,0.049 -8.389,0.314 -9.475,0.59 m 142.191,9.478 c -2.312,3.915 -2.377,4.376 -0.935,6.577 1.16,1.772 1.309,3.039 0.59,5.039 -0.743,2.071 -0.533,3.405 0.933,5.923 1.843,3.163 2.076,3.25 8.7,3.25 h 6.806 l 2.599,-4.435 2.6,-4.436 -4.113,-6.56 c -2.296,-3.661 -3.858,-7.225 -3.536,-8.064 0.473,-1.235 -0.477,-1.505 -5.29,-1.505 -5.833,0 -5.881,0.024 -8.354,4.211 M 56.5,195 c -1.426,2.308 1.124,3 11.059,3 9.774,0 10.441,-0.128 10.441,-2 0,-1.872 -0.667,-2 -10.441,-2 -5.882,0 -10.711,0.437 -11.059,1"
       stroke="none"
       fill="#2b98a3"
       fill-rule="evenodd"
       id="path8"
       style="fill:#ffffff" />
    <path
       d="m 251.872,16.664 c -1.244,1.508 -1.162,1.552 0.878,0.465 2.327,-1.24 2.9,-2.129 1.372,-2.129 -0.482,0 -1.495,0.749 -2.25,1.664 m -111.422,3.081 -11.05,0.317 -4.925,9.086 c -2.709,4.997 -5.41,9.748 -6.002,10.558 -0.733,1.002 -5.058,1.936 -13.509,2.918 -12.526,1.455 -15.336,2.404 -13.262,4.478 0.802,0.802 4.542,0.718 13.758,-0.31 6.962,-0.776 12.874,-1.06 13.139,-0.631 0.638,1.032 -2.179,1.556 -13.591,2.529 -8.128,0.694 -9.542,1.079 -9.847,2.686 -0.338,1.78 0.248,1.84 11.491,1.178 8.125,-0.478 12.144,-1.12 12.79,-2.042 0.703,-1.004 2.032,0.408 5.25,5.579 2.369,3.808 4.308,7.186 4.308,7.509 0,0.322 -4.725,9.246 -10.5,19.83 -5.775,10.585 -10.5,19.568 -10.5,19.964 0,0.395 1.383,-0.094 3.072,-1.087 2.312,-1.36 5.302,-5.95 12.082,-18.549 4.956,-9.208 9.463,-17.022 10.017,-17.364 0.554,-0.342 6.214,-0.908 12.578,-1.258 L 157.319,64.5 163.231,53.75 169.142,43 h 11.188 c 10.106,0 11.31,0.194 12.438,2 0.687,1.1 2.28,2 3.54,2 1.261,0 2.761,0.469 3.334,1.042 2.606,2.606 5.479,-7.174 3.068,-10.442 -1.234,-1.672 -1.111,-2.419 1.03,-6.25 L 206.171,27 h 5.974 c 3.607,0 5.735,0.384 5.373,0.971 -0.619,1.001 1.828,6.507 3.296,7.414 0.455,0.281 2.253,-0.356 3.995,-1.415 l 3.168,-1.927 -2.731,-4.521 L 222.515,23 h -9.618 -9.618 l -3.198,6 c -1.759,3.3 -3.821,6 -4.583,6 -0.761,0 -2.025,0.915 -2.808,2.033 -1.316,1.878 -2.321,2.011 -13.202,1.75 L 167.71,38.5 162.458,30 c -6.3,-10.197 -7.042,-11.062 -9.247,-10.786 -0.941,0.117 -6.683,0.356 -12.761,0.531 M 128.71,30.25 c -1.905,3.438 -4.227,7.755 -5.161,9.595 l -1.699,3.345 5.325,8.888 5.325,8.889 11,-0.006 11,-0.005 5.123,-9.425 5.122,-9.426 -5.427,-9.052 L 153.891,24 h -10.859 -10.86 l -3.462,6.25 m 38.795,24.5 c -4.453,7.595 -5.138,10.207 -2.875,10.96 1.284,0.428 10.37,-14.508 10.37,-17.048 0,-3.803 -3.238,-1.173 -7.495,6.088 m -82.236,7.943 c 0.973,0.254 2.323,0.237 3,-0.037 0.677,-0.274 -0.119,-0.481 -1.769,-0.461 -1.65,0.02 -2.204,0.244 -1.231,0.498 m 9.185,1.992 C 93.379,65.486 92.612,66.559 92.75,67.071 92.888,67.582 92.334,68 91.52,68 89.24,68 86,75.337 86,80.5 c 0,7.378 5.036,15.107 11.097,17.031 1.102,0.349 1.633,1.096 1.237,1.738 -0.382,0.618 0.783,0.072 2.59,-1.215 l 3.286,-2.34 -3.671,-1.262 C 93.813,92.14 90,86.983 90,80.198 90,75.678 93.744,69.425 96.323,69.639 97.245,69.715 98,69.153 98,68.389 98,67.625 98.675,67 99.5,67 c 2.254,0 1.804,-1.54 -0.796,-2.725 -1.738,-0.792 -2.772,-0.692 -4.25,0.41 m 35.102,16.673 C 125.95,88.155 123,94.03 123,94.414 c 0,0.385 1.316,-0.078 2.924,-1.028 3.158,-1.866 14.622,-21.694 13.547,-23.433 -1.595,-2.581 -3.906,0.078 -9.915,11.405 M 99.557,70.89 c 0.236,0.237 -0.432,1.035 -1.487,1.773 -3.231,2.263 -4.423,7.556 -2.655,11.787 2.87,6.87 12.621,8.375 13.814,2.132 0.49,-2.561 -0.541,-3.504 -1.729,-1.582 -0.859,1.39 -5.846,1.254 -7.3,-0.2 -1.737,-1.737 -1.472,-6.385 0.474,-8.331 1.165,-1.165 2.67,-1.513 4.946,-1.143 3.125,0.507 3.224,0.426 2.208,-1.804 -0.788,-1.729 -2.054,-2.429 -4.883,-2.699 -2.1,-0.2 -3.625,-0.17 -3.388,0.067 m -27.292,1.336 c -0.561,0.701 -1.297,2.181 -1.636,3.29 -0.522,1.71 -1.536,2.037 -6.689,2.155 -3.993,0.092 -6.677,0.686 -7.835,1.734 -2.384,2.158 -3.449,2.008 -4.618,-0.649 -0.543,-1.234 -1.711,-2.38 -2.595,-2.546 -1.455,-0.273 -1.484,0.396 -0.303,6.994 0.718,4.013 1.329,8.789 1.358,10.613 0.046,2.853 0.333,3.229 2.053,2.683 2.537,-0.805 2.524,-0.695 -0.624,5.372 -2.184,4.21 -3.396,5.352 -7.239,6.82 -2.539,0.969 -6.308,1.763 -8.376,1.763 -2.069,0 -3.761,0.347 -3.761,0.772 0,0.821 2.058,1.111 5.75,0.812 1.734,-0.14 2.255,0.35 2.272,2.139 0.012,1.277 0.902,3.447 1.978,4.822 1.076,1.375 1.966,3.063 1.978,3.75 0.012,0.688 0.642,1.25 1.4,1.25 0.757,0 1.916,0.65 2.576,1.444 0.962,1.16 0.79,1.699 -0.878,2.741 -2.073,1.294 -2.909,4.815 -1.143,4.815 0.513,0 4.637,-2.25 9.165,-5 4.528,-2.75 8.658,-5 9.178,-5 0.52,0 -0.117,-0.91 -1.415,-2.023 l -2.361,-2.022 3.75,0.634 c 2.464,0.416 3.75,0.253 3.75,-0.478 0,-1.132 -1.722,-1.476 -5.75,-1.15 -1.734,0.14 -2.255,-0.35 -2.272,-2.139 C 59.966,114.545 59.076,112.375 58,111 56.924,109.625 56.034,107.938 56.022,107.25 56.01,106.563 55.311,106 54.469,106 c -2.245,0 -2.946,-2.81 -1.194,-4.787 0.835,-0.942 1.677,-2.561 1.872,-3.597 0.297,-1.584 1.436,-1.939 7.151,-2.227 4.37,-0.22 7.342,-0.886 8.321,-1.865 2.125,-2.125 3.068,-1.908 3.764,0.866 0.728,2.901 3.614,4.357 3.624,1.829 0.007,-2.052 -2.058,-17.166 -2.599,-19.012 -0.29,-0.992 -0.862,-1.035 -2.454,-0.182 -2.041,1.092 -2.048,1.058 -0.441,-2.05 1.693,-3.275 1.539,-4.982 -0.248,-2.749 m -50.32,4.617 -2.276,1.843 3.211,0.092 C 29.899,78.977 36,85.631 36,93.087 c 0,3.947 -3.322,9.746 -6.53,11.399 -4.386,2.259 -4.788,2.698 -3.327,3.624 2.135,1.352 5.857,1.039 5.857,-0.493 0,-0.761 0.865,-1.61 1.921,-1.886 4.522,-1.183 7.52,-12.788 5.015,-19.416 C 37.023,81.251 29.689,75 25.66,75 c -0.791,0 -2.463,0.829 -3.715,1.843 m 37.68,5.675 C 56.191,85.952 58.38,92 63.057,92 c 2.243,0 3.28,-0.645 4.167,-2.593 2.382,-5.226 -3.726,-10.762 -7.599,-6.889 m -42.59,2.416 C 16.466,85.998 16,87.552 16,88.388 c 0,1.328 0.361,1.312 2.875,-0.131 2.683,-1.54 3.051,-1.535 5.5,0.069 2.845,1.864 3.592,6.307 1.425,8.474 -1.838,1.838 -7.523,1.483 -8.798,-0.55 -0.923,-1.472 -1,-1.353 -0.487,0.75 1.039,4.254 2.71,6.92 5.4,8.617 2.495,1.574 2.524,1.567 0.846,-0.196 -1.663,-1.747 -1.601,-1.873 1.407,-2.874 7.436,-2.475 9.586,-11.697 3.909,-16.77 C 24.262,82.369 18.638,81.94 17.035,84.934 M 92.5,101 c -2.768,0.704 -2.806,0.771 -0.5,0.866 1.375,0.057 3.175,-0.333 4,-0.866 1.702,-1.1 0.822,-1.1 -3.5,0 m -6.301,7.75 C 84.223,111.554 80,119.509 80,120.426 c 0,1.74 6.915,-4.025 8.292,-6.911 1.529,-3.207 2.05,-3.516 5.942,-3.522 2.574,-0.004 5.456,-0.794 7.266,-1.993 l 3,-1.987 -8.182,-0.006 C 88.525,106 88.044,106.131 86.199,108.75 m -40.074,3.818 c -4.386,5.576 2.952,10.486 7.836,5.243 2.326,-2.496 2.444,-3.186 1.004,-5.877 -1.541,-2.879 -6.348,-2.534 -8.84,0.634 m 33.907,13.991 c 0.017,0.517 0.692,1.815 1.5,2.882 0.807,1.068 1.454,1.518 1.436,1 -0.017,-0.517 -0.692,-1.815 -1.5,-2.882 -0.807,-1.068 -1.454,-1.518 -1.436,-1 m -16.551,7.835 c -3.607,1.571 -9.218,7.711 -10.04,10.986 -1.016,4.046 -0.052,8.82 2.063,10.215 1.921,1.268 1.989,1.13 1.633,-3.341 -0.453,-5.694 1.846,-10.462 6.401,-13.278 4.089,-2.526 11.632,-2.663 14.041,-0.254 0.947,0.946 2.779,2.27 4.071,2.94 2.193,1.138 2.35,1.035 2.35,-1.536 0,-5.608 -12.676,-9.15 -20.519,-5.732 m 3.907,7.546 c -4.952,2.094 -7.879,9.169 -5.403,13.06 0.723,1.135 0.416,1.658 -1.265,2.15 -1.503,0.441 -0.705,0.683 2.471,0.75 2.58,0.055 4.969,-0.35 5.309,-0.9 0.34,-0.55 0.214,-1 -0.28,-1 -0.495,0 -1.437,-1.18 -2.094,-2.623 -0.981,-2.152 -0.909,-3.06 0.401,-5.059 2.395,-3.654 7.426,-2.914 9.586,1.412 1.522,3.046 1.705,3.129 3.208,1.468 1.349,-1.491 1.407,-2.293 0.374,-5.23 -0.752,-2.136 -1.983,-3.591 -3.207,-3.789 -1.094,-0.176 -3.113,-0.503 -4.488,-0.726 -1.375,-0.223 -3.45,-0.004 -4.612,0.487 m -21.35,4.56 c 0.003,0.55 0.927,2.125 2.051,3.5 1.359,1.661 1.698,1.828 1.012,0.5 -1.686,-3.262 -3.071,-5.07 -3.063,-4"
       stroke="none"
       fill="#537174"
       fill-rule="evenodd"
       id="path10"
       style="fill:#ffffff" />
  </g>
</svg>
