<?xml version="1.0" encoding="UTF-8" standalone="no"?>
<svg
   version="1.1"
   id="Layer_1"
   x="0px"
   y="0px"
   viewBox="0 0 61.449257 66.136696"
   xml:space="preserve"
   width="61.449257"
   height="66.136696"
   xmlns="http://www.w3.org/2000/svg"
   xmlns:svg="http://www.w3.org/2000/svg"
   xmlns:ns="ns_sfw;"><defs
   id="defs15" />
 <style
   type="text/css"
   id="style2">
  .st0{fill:#FFD02F;}
	.st1{fill-rule:evenodd;clip-rule:evenodd;fill:#050038;}
 </style>
 <metadata
   id="metadata4">
  <ns:sfw>
   <ns:slices>
   </ns:slices>
   <ns:sliceSourceBounds
   bottomLeftOrigin="true"
   height="48"
   width="48"
   x="175.8"
   y="-224.2">
   </ns:sliceSourceBounds>
  </ns:sfw>
 </metadata>
 
<circle
   cx="30.724571"
   cy="34.572174"
   r="20.16"
   fill="#d0d5dd"
   id="circle1097"
   style="fill:#e6e6e6;fill-opacity:1" /><path
   d="m 34.124772,30.260374 c 0.5279,0.5015 0.95,1.1036 1.241599,1.7708 0.2915,0.6672 0.4465,1.3861 0.4558,2.1142 0.0093,0.728 -0.1272,1.4506 -0.4015,2.1251 -0.2743,0.6744 -0.6809,1.2872 -1.1958,1.802 -0.5148,0.5149 -1.1276,0.9215 -1.802,1.1958 -0.6745,0.2743 -1.3971,0.4109 -2.1252,0.4015 -0.728,-0.0093 -1.4469,-0.1643 -2.1141,-0.4558 -0.6672,-0.2916 -1.2693,-0.7137 -1.7708,-1.2416 -2.13,-2.13 -13.5,-21.213 -13.5,-21.213 0,0 19.084,11.37 21.212001,13.501 z"
   stroke="#000000"
   stroke-width="2"
   stroke-miterlimit="10"
   stroke-linecap="square"
   id="path1099"
   style="fill:none;fill-opacity:1;stroke:#010101;stroke-opacity:1" /><path
   d="m 30.724771,11.572374 c 2.209101,0 4.000001,-1.7908697 4.000001,-4.0000097 0,-2.20914 -1.7909,-4 -4.000001,-4 -2.2091,0 -4,1.79086 -4,4 0,2.20914 1.7909,4.0000097 4,4.0000097 z"
   fill="#98a2b3"
   id="path1101"
   style="fill:#e6e6e6;fill-opacity:1" /><path
   d="m 39.724772,9.1084943 c 4.6665,1.6498697 8.7898,4.5507797 11.9191,8.3856797 3.1293,3.8348 5.144199,8.4561 5.8246,13.3587 0.6804,4.9027 0,9.898 -1.9668,14.4401 -1.9667,4.5421 -5.1442,8.4561 -9.1851,11.3144 -4.0409,2.8583 -8.7898,4.5508 -13.727601,4.8925 -4.9378,0.3418 -9.8745,-0.6804 -14.2707,-2.9547 -4.3961,-2.2744 -8.0825,-5.7134 -10.6562395,-9.9412 -2.57373,-4.2279 -3.93576,-9.0819 -3.93726,-14.0315"
   stroke="#000000"
   stroke-width="2"
   stroke-miterlimit="10"
   stroke-linecap="square"
   id="path1103"
   style="fill:none;fill-opacity:1;stroke:#010101;stroke-opacity:1" /></svg>
