<?xml version="1.0" encoding="UTF-8" standalone="no"?>
<svg
   version="1.1"
   id="Layer_1"
   x="0px"
   y="0px"
   viewBox="0 0 61.449257 66.136696"
   xml:space="preserve"
   width="61.449257"
   height="66.136696"
   xmlns="http://www.w3.org/2000/svg"
   xmlns:svg="http://www.w3.org/2000/svg"
   xmlns:ns="ns_sfw;"><defs
   id="defs15" />
 <style
   type="text/css"
   id="style2">
  .st0{fill:#FFD02F;}
	.st1{fill-rule:evenodd;clip-rule:evenodd;fill:#050038;}
 </style>
 <metadata
   id="metadata4">
  <ns:sfw>
   <ns:slices>
   </ns:slices>
   <ns:sliceSourceBounds
   bottomLeftOrigin="true"
   height="48"
   width="48"
   x="175.8"
   y="-224.2">
   </ns:sliceSourceBounds>
  </ns:sfw>
 </metadata>
 
<path
   d="m 56.724628,54.068353 h -8 v 8 h 8 z"
   stroke="#98a2b3"
   stroke-width="2"
   stroke-miterlimit="10"
   stroke-linecap="square"
   id="path1925"
   style="fill:none;stroke:#d8d8d8;stroke-opacity:1" /><path
   d="m 34.724628,4.0683429 h -8 v 8.0000101 h 8 z"
   stroke="#101828"
   stroke-width="2"
   stroke-miterlimit="10"
   stroke-linecap="square"
   id="path1927"
   style="fill:none;stroke:#000000;stroke-opacity:1" /><path
   d="M 12.724628,54.068353 H 4.7246284 v 8 h 7.9999996 z"
   stroke="#98a2b3"
   stroke-width="2"
   stroke-miterlimit="10"
   stroke-linecap="square"
   id="path1929"
   style="fill:none;stroke:#d8d8d8;stroke-opacity:1" /><path
   d="m 8.7246284,12.068353 c 2.2090996,0 3.9999996,-1.79087 3.9999996,-4.0000101 0,-2.20914 -1.7909,-4 -3.9999996,-4 -2.20914,0 -4,1.79086 -4,4 0,2.2091401 1.79086,4.0000101 4,4.0000101 z"
   stroke="#98a2b3"
   stroke-width="2"
   stroke-miterlimit="10"
   stroke-linecap="square"
   id="path1931"
   style="fill:none;stroke:#d8d8d8;stroke-opacity:1" /><path
   d="m 8.7246284,12.068353 v 7 l 4.9999996,5"
   stroke="#98a2b3"
   stroke-width="2"
   stroke-miterlimit="10"
   stroke-linecap="square"
   id="path1933"
   style="fill:none;stroke:#d8d8d8;stroke-opacity:1" /><path
   d="m 52.724628,12.068353 c 2.2091,0 4,-1.79087 4,-4.0000101 0,-2.20914 -1.7909,-4 -4,-4 -2.2091,0 -4,1.79086 -4,4 0,2.2091401 1.7909,4.0000101 4,4.0000101 z"
   stroke="#98a2b3"
   stroke-width="2"
   stroke-miterlimit="10"
   stroke-linecap="square"
   id="path1935"
   style="fill:none;stroke:#d8d8d8;stroke-opacity:1" /><path
   d="m 52.724628,12.068353 v 7 l -5,5"
   stroke="#98a2b3"
   stroke-width="2"
   stroke-miterlimit="10"
   stroke-linecap="square"
   id="path1937"
   style="fill:none;stroke:#d8d8d8;stroke-opacity:1" /><path
   d="m 30.724628,12.068353 v 5"
   stroke="#101828"
   stroke-width="2"
   stroke-miterlimit="10"
   stroke-linecap="square"
   id="path1939"
   style="fill:none;stroke:#000000;stroke-opacity:1" /><path
   d="m 30.724628,62.068353 c 2.2091,0 4,-1.7909 4,-4 0,-2.2092 -1.7909,-4 -4,-4 -2.2091,0 -4,1.7908 -4,4 0,2.2091 1.7909,4 4,4 z"
   stroke="#101828"
   stroke-width="2"
   stroke-miterlimit="10"
   stroke-linecap="square"
   id="path1941"
   style="fill:none;stroke:#000000;stroke-opacity:1" /><path
   d="m 8.7246284,54.068353 v -7 l 4.9999996,-5"
   stroke="#98a2b3"
   stroke-width="2"
   stroke-miterlimit="10"
   stroke-linecap="square"
   id="path1943"
   style="fill:none;stroke:#d8d8d8;stroke-opacity:1" /><path
   d="m 52.724628,54.068353 v -7 l -5,-5"
   stroke="#98a2b3"
   stroke-width="2"
   stroke-miterlimit="10"
   stroke-linecap="square"
   id="path1945"
   style="fill:none;stroke:#d8d8d8;stroke-opacity:1" /><path
   d="m 30.724628,54.068353 v -5"
   stroke="#101828"
   stroke-width="2"
   stroke-miterlimit="10"
   stroke-linecap="square"
   id="path1947"
   style="fill:none;stroke:#000000;stroke-opacity:1" /><path
   d="m 30.724628,40.068353 c 3.866,0 7,-3.134 7,-7 0,-3.866 -3.134,-7 -7,-7 -3.866,0 -7,3.134 -7,7 0,3.866 3.134,7 7,7 z"
   fill="#d0d5dd"
   stroke="#101828"
   stroke-width="2"
   stroke-miterlimit="10"
   stroke-linecap="square"
   id="path1949"
   style="fill:#d8d8d8;fill-opacity:1;stroke:#000000;stroke-opacity:1" /><path
   d="m 30.724628,26.068353 v -3"
   stroke="#101828"
   stroke-width="2"
   stroke-miterlimit="10"
   stroke-linecap="square"
   id="path1951"
   style="fill:none;stroke:#000000;stroke-opacity:1" /><path
   d="m 35.674828,28.118553 2.121,-2.121"
   stroke="#101828"
   stroke-width="2"
   stroke-miterlimit="10"
   stroke-linecap="square"
   id="path1953"
   style="fill:none;stroke:#000000;stroke-opacity:1" /><path
   d="m 37.724628,33.068353 h 3"
   stroke="#101828"
   stroke-width="2"
   stroke-miterlimit="10"
   stroke-linecap="square"
   id="path1955"
   style="fill:none;stroke:#000000;stroke-opacity:1" /><path
   d="m 35.674828,38.018553 2.121,2.121"
   stroke="#101828"
   stroke-width="2"
   stroke-miterlimit="10"
   stroke-linecap="square"
   id="path1957"
   style="fill:none;stroke:#000000;stroke-opacity:1" /><path
   d="m 30.724628,40.068353 v 3"
   stroke="#101828"
   stroke-width="2"
   stroke-miterlimit="10"
   stroke-linecap="square"
   id="path1959"
   style="fill:none;stroke:#000000;stroke-opacity:1" /><path
   d="m 25.774828,38.018553 -2.121,2.121"
   stroke="#101828"
   stroke-width="2"
   stroke-miterlimit="10"
   stroke-linecap="square"
   id="path1961"
   style="fill:none;stroke:#000000;stroke-opacity:1" /><path
   d="m 23.724628,33.068353 h -3"
   stroke="#101828"
   stroke-width="2"
   stroke-miterlimit="10"
   stroke-linecap="square"
   id="path1963"
   style="fill:none;stroke:#000000;stroke-opacity:1" /><path
   d="m 25.774828,28.118553 -2.121,-2.121"
   stroke="#101828"
   stroke-width="2"
   stroke-miterlimit="10"
   stroke-linecap="square"
   id="path1965"
   style="fill:none;stroke:#000000;stroke-opacity:1" /></svg>
