<?xml version="1.0" encoding="UTF-8" standalone="no"?>
<svg
   version="1.1"
   id="Layer_1"
   x="0px"
   y="0px"
   viewBox="0 0 61.449257 66.136696"
   xml:space="preserve"
   width="61.449257"
   height="66.136696"
   xmlns="http://www.w3.org/2000/svg"
   xmlns:svg="http://www.w3.org/2000/svg"
   xmlns:ns="ns_sfw;"><defs
   id="defs15" />
 <style
   type="text/css"
   id="style2">
  .st0{fill:#FFD02F;}
	.st1{fill-rule:evenodd;clip-rule:evenodd;fill:#050038;}
 </style>
 <metadata
   id="metadata4">
  <ns:sfw>
   <ns:slices>
   </ns:slices>
   <ns:sliceSourceBounds
   bottomLeftOrigin="true"
   height="48"
   width="48"
   x="175.8"
   y="-224.2">
   </ns:sliceSourceBounds>
  </ns:sfw>
 </metadata>
 
<path
   d="M 1.7246284,36.068353 H 22.997328 c 2.6108,0 4.7273,2.1165 4.7273,4.7273 v 21.2727"
   stroke="#000000"
   stroke-width="2.36364"
   stroke-miterlimit="10"
   stroke-linecap="square"
   id="path1463"
   style="fill:none;stroke:#000000;stroke-opacity:1" /><rect
   x="4.7246284"
   y="41.068352"
   width="18"
   height="18"
   rx="3.54545"
   fill="#d0d5dd"
   id="rect1465"
   style="fill:#d8d8d8;fill-opacity:1" /><path
   d="m 30.724628,33.068353 20,-20"
   stroke="#101828"
   stroke-width="3"
   stroke-miterlimit="10"
   id="path1467"
   style="fill:none;stroke:#000000;stroke-opacity:1" /><path
   d="M 57.724628,3.0683429 H 3.7246284 c -1.65685,0 -3,1.34314 -3,3 V 60.068353 c 0,1.6568 1.34315,3 3,3 H 57.724628 c 1.6569,0 3,-1.3432 3,-3 V 6.0683429 c 0,-1.65686 -1.3431,-3 -3,-3 z"
   stroke="#101828"
   stroke-width="2"
   stroke-miterlimit="10"
   stroke-linecap="square"
   id="path1469"
   style="fill:none;stroke:#000000;stroke-opacity:1" /><path
   d="m 50.724628,29.068353 v -16 h -16"
   stroke="#101828"
   stroke-width="3"
   stroke-miterlimit="10"
   stroke-linecap="square"
   id="path1471"
   style="fill:none;stroke:#000000;stroke-opacity:1" /></svg>
