<?xml version="1.0" encoding="UTF-8" standalone="no"?>
<!-- Creator: CorelDRAW -->

<svg
   xml:space="preserve"
   width="400px"
   height="400px"
   version="1.1"
   style="shape-rendering:geometricPrecision; text-rendering:geometricPrecision; image-rendering:optimizeQuality; fill-rule:evenodd; clip-rule:evenodd"
   viewBox="0 0 400 400"
   zoomAndPan="magnify"
   id="svg3"
   sodipodi:docname="favicon.svg"
   inkscape:export-filename="C:\Users\Graham Sobiribo Paul\Desktop\favicon.png"
   inkscape:export-xdpi="96"
   inkscape:export-ydpi="96"
   inkscape:version="1.4.2 (f4327f4, 2025-05-13)"
   xmlns:inkscape="http://www.inkscape.org/namespaces/inkscape"
   xmlns:sodipodi="http://sodipodi.sourceforge.net/DTD/sodipodi-0.dtd"
   xmlns="http://www.w3.org/2000/svg"
   xmlns:svg="http://www.w3.org/2000/svg"><sodipodi:namedview
   id="namedview3"
   pagecolor="#ffffff"
   bordercolor="#000000"
   borderopacity="0.25"
   inkscape:showpageshadow="2"
   inkscape:pageopacity="0.0"
   inkscape:pagecheckerboard="0"
   inkscape:deskcolor="#d1d1d1"
   inkscape:zoom="2.1125"
   inkscape:cx="199.76331"
   inkscape:cy="200"
   inkscape:window-width="1920"
   inkscape:window-height="1054"
   inkscape:window-x="-9"
   inkscape:window-y="-9"
   inkscape:window-maximized="1"
   inkscape:current-layer="_585635879520" />
 <defs
   id="defs1">
  <style
   type="text/css"
   id="style1">
   <![CDATA[
    .fil0 {fill:#26D4D4}
   ]]>
  </style>
 </defs>
 <g
   id="Layer_x0020_1"
   inkscape:label="Layer 1">
  <metadata
   id="CorelCorpID_0Corel-Layer" />
  <g
   id="_585635879520">
   <path
   class="fil0"
   d="M147.75 392.88l-0.51 -124.33c-1.53,-1.49 -3,-3.05 -4.43,-4.7 -14.25,-16.53 -21.37,-37.88 -21.37,-64.03 0,-26.52 7.21,-47.86 21.63,-64.03 1.18,-1.32 2.38,-2.58 3.62,-3.79l-0.5 -125.05c-17.16,4.18 -33.22,10.53 -48.19,19.05 -29.37,16.71 -52.21,40.14 -68.53,70.29 -16.31,30.15 -24.47,64.66 -24.47,103.53 0,38.87 8.16,73.38 24.47,103.53 16.32,30.15 39.24,53.58 68.78,70.29 15.3,8.66 31.8,15.07 49.5,19.24z"
   id="path1" />
   <path
   class="fil0"
   d="M253.63 392.64l-11.09 2.36c3.75,-0.69 7.45,-1.48 11.09,-2.36l-11.09 2.36 0 -116.35c0.51,-0.3 1.01,-0.6 1.51,-0.91 3.62,-2.25 6.95,-4.77 9.98,-7.55l-0.4 122.45zm0.72 -224.42l-0.25 79.55 -11.56 0 0 -79.55 11.81 0z"
   id="path2"
   style="fill:#f9f9f9" />
   <path
   class="fil0"
   d="M254.88 7.78l-0.41 124.31 0.41 -124.31c-4.06,-1.04 -8.18,-1.97 -12.34,-2.78l12.34 2.78 -12.34 -2.78 12.34 2.78 -0.41 124.31c2.84,2.87 5.38,6.01 7.61,9.43l126.22 0c-6.86,-28.34 -19.31,-53.13 -37.35,-74.38 -18.03,-21.25 -40.09,-37.6 -66.2,-49.05 -9.61,-4.21 -19.57,-7.65 -29.87,-10.31l-12.34 -2.78 0 117.7c4.44,2.72 8.42,5.85 11.93,9.39l0.41 -124.31zm-0.53 160.44l-0.25 79.55 15.71 0c-3.79,8.77 -9.05,16.25 -15.78,22.42l-0.4 122.45c17.61,-4.26 33.99,-10.78 49.15,-19.54 29.54,-17.08 52.3,-40.87 68.26,-71.39 15.98,-30.51 23.96,-65.38 23.96,-104.62 0,-9.44 -0.51,-19.07 -1.54,-28.87l-139.11 0zm0 0l-0.25 79.55 0.25 -79.55z"
   id="path3"
   style="fill:#f9f9f9" />
  </g>
 </g>
</svg>
