<?xml version="1.0" encoding="UTF-8" standalone="no"?>
<!-- Uploaded to: SVG Repo, www.svgrepo.com, Transformed by: SVG Repo Mixer Tools -->

<svg
   width="64"
   height="64"
   viewBox="0 0 20.277228 20.277228"
   fill="none"
   class="cursor-default-hover"
   version="1.1"
   id="svg17"
   sodipodi:docname="research1.svg"
   inkscape:version="1.4.2 (f4327f4, 2025-05-13)"
   xmlns:inkscape="http://www.inkscape.org/namespaces/inkscape"
   xmlns:sodipodi="http://sodipodi.sourceforge.net/DTD/sodipodi-0.dtd"
   xmlns="http://www.w3.org/2000/svg"
   xmlns:svg="http://www.w3.org/2000/svg">
  <defs
     id="defs17" />
  <sodipodi:namedview
     id="namedview17"
     pagecolor="#ffffff"
     bordercolor="#000000"
     borderopacity="0.25"
     inkscape:showpageshadow="2"
     inkscape:pageopacity="0.0"
     inkscape:pagecheckerboard="0"
     inkscape:deskcolor="#d1d1d1"
     showguides="true"
     inkscape:zoom="8.3663366"
     inkscape:cx="50.5"
     inkscape:cy="50.5"
     inkscape:window-width="1920"
     inkscape:window-height="1054"
     inkscape:window-x="-9"
     inkscape:window-y="-9"
     inkscape:window-maximized="1"
     inkscape:current-layer="svg17">
    <sodipodi:guide
       position="1.4011834,5.3216478"
       orientation="0,-1"
       id="guide17"
       inkscape:locked="false" />
    <sodipodi:guide
       position="1.9692308,1.2695768"
       orientation="0,-1"
       id="guide18"
       inkscape:locked="false" />
  </sodipodi:namedview>
  <g
     id="SVGRepo_bgCarrier"
     stroke-width="0" />
  <g
     id="SVGRepo_tracerCarrier"
     stroke-linecap="round"
     stroke-linejoin="round" />
  <g
     id="g19"
     transform="matrix(0.70030535,0,0,0.73491727,-1.0837795,-1.9875728)">
    <g
       id="g18">
      <g
         id="SVGRepo_iconCarrier">
        <path
           d="M 10,27.9201 H 7 c -0.26522,0 -0.51957,-0.1054 -0.70711,-0.2929 C 6.10536,27.4396 6,27.1853 6,26.9201 6,26.6548 6.10536,26.4005 6.29289,26.213 6.48043,26.0254 6.73478,25.9201 7,25.9201 h 2.23 l 0.77,-2.32 c 0.0903,-0.2469 0.2742,-0.4483 0.5119,-0.5605 0.2377,-0.1123 0.51,-0.1265 0.7581,-0.0395 0.25,0.0844 0.4565,0.2642 0.5745,0.5002 0.118,0.236 0.138,0.5091 0.0555,0.7598 l -1,3 c -0.0674,0.187 -0.1891,0.3496 -0.3494,0.4672 -0.1603,0.1176 -0.352,0.1847 -0.5506,0.1928 z"
           fill="#b3b3b3"
           id="path1"
           style="fill:#e4f3f3;fill-opacity:1" />
        <path
           d="M 9,7.92006 C 8.86769,7.91951 8.73681,7.89271 8.61493,7.84122 8.49306,7.78972 8.38261,7.71455 8.29,7.62006 l -1.7,-1.7 H 5 C 4.73478,5.92006 4.48043,5.8147 4.29289,5.62717 4.10536,5.43963 4,5.18528 4,4.92006 4,4.65484 4.10536,4.40049 4.29289,4.21295 4.48043,4.02542 4.73478,3.92006 5,3.92006 H 7 C 7.13161,3.9193 7.26207,3.94452 7.38391,3.99429 7.50574,4.04405 7.61656,4.11738 7.71,4.21006 l 2,2 C 9.85103,6.34993 9.94721,6.52863 9.98628,6.72338 10.0253,6.91813 10.0055,7.1201 9.92937,7.30354 9.8532,7.48699 9.72413,7.64359 9.55861,7.75339 9.39309,7.86319 9.19862,7.92122 9,7.92006 Z"
           fill="#b3b3b3"
           id="path3"
           style="fill:#e4f3f3;fill-opacity:1" />
        <path
           d="m 21.95,6.92004 h 2 l 1,-2 h 2"
           fill="#b3b3b3"
           id="path5" />
        <path
           d="m 24,7.92004 h -2 c -0.2652,0 -0.5196,-0.10535 -0.7071,-0.29289 C 21.1054,7.43961 21,7.18526 21,6.92004 21,6.65483 21.1054,6.40047 21.2929,6.21294 21.4804,6.0254 21.7348,5.92004 22,5.92004 h 1.38 l 0.73,-1.45 C 24.1931,4.30513 24.3202,4.16645 24.4773,4.06937 24.6344,3.97229 24.8153,3.9206 25,3.92004 h 2 c 0.2652,0 0.5196,0.10536 0.7071,0.2929 C 27.8946,4.40047 28,4.65483 28,4.92004 28,5.18526 27.8946,5.43961 27.7071,5.62715 27.5196,5.81469 27.2652,5.92004 27,5.92004 h -1.43 l -0.72,1.44 C 24.7714,7.52093 24.6511,7.65778 24.5016,7.75629 24.3521,7.85479 24.1788,7.91135 24,7.92004 Z"
           fill="#b3b3b3"
           id="path6"
           style="fill:#e4f3f3;fill-opacity:1" />
        <path
           d="m 28.05,7.09009 c -0.3956,0 -0.7823,-0.1173 -1.1112,-0.33706 C 26.61,6.53327 26.3536,6.22091 26.2022,5.85546 26.0509,5.49 26.0112,5.08787 26.0884,4.69991 c 0.0772,-0.38796 0.2677,-0.74433 0.5474,-1.02403 0.2797,-0.27971 0.636,-0.47019 1.024,-0.54736 0.388,-0.07717 0.7901,-0.03757 1.1556,0.11381 0.3654,0.15137 0.6778,0.40772 0.8975,0.73662 0.2198,0.3289 0.3371,0.71558 0.3371,1.11114 0,0.53043 -0.2107,1.03914 -0.5858,1.41421 -0.3751,0.37508 -0.8838,0.58579 -1.4142,0.58579 z"
           fill="#7c8488"
           id="path7"
           style="fill:#f3f4f5;fill-opacity:1" />
        <path
           d="m 28.27,24.8001 -4,-4 -1.27,-1.64 c -0.0885,-0.1066 -0.1982,-0.1937 -0.3222,-0.2557 -0.1239,-0.062 -0.2594,-0.0975 -0.3978,-0.1043 -0.1375,-0.0075 -0.2752,0.0135 -0.4042,0.0616 -0.1291,0.0482 -0.2468,0.1226 -0.3458,0.2184 l -3.17,3.14 c -0.0945,0.0926 -0.1696,0.203 -0.2211,0.3249 -0.0515,0.1219 -0.0783,0.2528 -0.0789,0.3851 -7e-4,0.1316 0.0245,0.262 0.0742,0.3839 0.0498,0.1218 0.1231,0.2326 0.2158,0.3261 l 5.53,5.56 c 0.5621,0.5627 1.3246,0.8793 2.12,0.88 0.7954,-7e-4 1.5579,-0.3173 2.12,-0.88 l 0.17,-0.17 c 0.5561,-0.5648 0.8662,-1.3266 0.8624,-2.1192 -0.0037,-0.7925 -0.321,-1.5514 -0.8824,-2.1108 z"
           fill="#7a8285"
           class="cursor-default-hover"
           id="path8"
           style="fill:#f3f4f5;fill-opacity:1" />
        <path
           d="m 15.95,25.92 c 6.0751,0 11,-4.9248 11,-11 0,-6.07509 -4.9249,-10.99996 -11,-10.99996 -6.07512,0 -10.99999,4.92487 -10.99999,10.99996 0,6.0752 4.92487,11 10.99999,11 z"
           fill="#000000"
           id="path9"
           style="fill:#d1d1d1;fill-opacity:1" />
        <path
           d="m 15.95,21.92 c 3.866,0 7,-3.134 7,-7 0,-3.8659 -3.134,-6.99996 -7,-6.99996 -3.866,0 -6.99999,3.13406 -6.99999,6.99996 0,3.866 3.13399,7 6.99999,7 z"
           fill="#c5cace"
           id="path10"
           style="fill:#f5f6f6;fill-opacity:1" />
        <path
           d="m 5,15 c 0,2.9174 1.15893,5.7153 3.22183,7.7782 C 10.2847,24.8411 13.0826,26 16,26 V 4 C 13.0826,4 10.2847,5.15893 8.22183,7.22183 6.15893,9.28473 5,12.0826 5,15 Z"
           fill="#7c8488"
           id="path15"
           style="fill:#e9ebeb;fill-opacity:1" />
        <path
           d="m 9,15 c 0,1.8565 0.7375,3.637 2.0503,4.9497 C 12.363,21.2625 14.1435,22 16,22 V 8 C 14.1435,8 12.363,8.7375 11.0503,10.0503 9.7375,11.363 9,13.1435 9,15 Z"
           fill="#ffffff"
           id="path16" />
        <path
           d="M 4,6.92004 C 3.60444,6.92004 3.21776,6.80275 2.88886,6.58298 2.55996,6.36322 2.30362,6.05086 2.15224,5.68541 2.00087,5.31996 1.96126,4.91783 2.03843,4.52986 2.1156,4.1419 2.30608,3.78554 2.58579,3.50583 2.86549,3.22613 3.22186,3.03564 3.60982,2.95847 3.99778,2.8813 4.39992,2.92091 4.76537,3.07229 5.13082,3.22366 5.44318,3.48001 5.66294,3.8089 5.8827,4.1378 6,4.52448 6,4.92005 6,5.45048 5.78929,5.95919 5.41421,6.33426 5.03914,6.70933 4.53043,6.92004 4,6.92004 Z"
           fill="#7c8488"
           id="path4"
           style="fill:#f3f4f5;fill-opacity:1" />
        <path
           d="M 6,28.92 C 5.60444,28.92 5.21776,28.8027 4.88886,28.583 4.55996,28.3632 4.30362,28.0509 4.15224,27.6854 4.00087,27.32 3.96126,26.9178 4.03843,26.5299 4.1156,26.1419 4.30608,25.7855 4.58579,25.5058 4.86549,25.2261 5.22186,25.0356 5.60982,24.9585 5.99778,24.8813 6.39992,24.9209 6.76537,25.0723 7.13082,25.2237 7.44318,25.48 7.66294,25.8089 7.8827,26.1378 8,26.5245 8,26.92 8,27.4505 7.78929,27.9592 7.41421,28.3343 7.03914,28.7093 6.53043,28.92 6,28.92 Z"
           fill="#7c8488"
           id="path2"
           style="fill:#f3f4f5;fill-opacity:1" />
        <path
           d="M 28.27,24.8 24.86,21.34 C 26.2364,19.4812 26.9858,17.2328 27,14.92 27.0106,12.5601 26.2655,10.2588 24.8737,8.35299 23.4818,6.4472 21.5164,5.03707 19.2652,4.32907 17.014,3.62107 14.5952,3.6524 12.3631,4.41847 10.131,5.18453 8.20274,6.64509 6.86072,8.58628 5.51871,10.5275 4.83342,12.8473 4.9052,15.2062 c 0.07178,2.3588 0.89685,4.6327 2.35441,6.4887 1.45756,1.856 3.47099,3.1966 5.74559,3.8255 2.2746,0.629 4.6908,0.5132 6.8948,-0.3304 l 4,4 c 0.2795,0.2798 0.6116,0.5017 0.9771,0.6527 0.3656,0.151 0.7574,0.2283 1.1529,0.2273 0.3955,0.001 0.7873,-0.0763 1.1528,-0.2273 0.3656,-0.151 0.6977,-0.3729 0.9772,-0.6527 l 0.17,-0.17 c 0.5478,-0.5695 0.8488,-1.3322 0.8375,-2.1223 C 29.1563,26.1075 28.8338,25.3537 28.27,24.8 Z M 6.99997,14.92 c 0,-1.78 0.52785,-3.5201 1.51678,-5.00014 0.98893,-1.48004 2.39455,-2.63359 4.03905,-3.31478 1.6446,-0.68119 3.4542,-0.85942 5.2,-0.51215 1.7458,0.34726 3.3495,1.20443 4.6081,2.4631 1.2587,1.25868 2.1159,2.86237 2.4631,4.60817 0.3473,1.7458 0.1691,3.5554 -0.5121,5.1999 -0.6812,1.6446 -1.8348,3.0502 -3.3148,4.0391 C 19.5201,23.3922 17.78,23.92 16,23.92 13.613,23.92 11.3238,22.9718 9.63601,21.284 7.94819,19.5961 6.99997,17.3069 6.99997,14.92 Z M 26.84,27.61 26.66,27.79 c -0.0935,0.0927 -0.2043,0.166 -0.3261,0.2158 -0.1219,0.0497 -0.2523,0.075 -0.3839,0.0742 -0.1316,8e-4 -0.2621,-0.0245 -0.3839,-0.0742 C 25.4442,27.956 25.3334,27.8827 25.24,27.79 l -3.5,-3.54 c 0.6461,-0.4003 1.2493,-0.8661 1.8,-1.39 l 3.3,3.35 c 0.1832,0.1869 0.2858,0.4382 0.2858,0.7 0,0.2617 -0.1026,0.5131 -0.2858,0.7 z"
           fill="#263238"
           class="cursor-default-hover"
           id="path17"
           style="fill:#afc0c9;fill-opacity:1" />
      </g>
    </g>
  </g>
</svg>
