<?xml version="1.0" encoding="UTF-8" standalone="no"?>
<svg
   version="1.1"
   id="Layer_1"
   x="0px"
   y="0px"
   viewBox="0 0 61.449257 66.136696"
   xml:space="preserve"
   width="61.449257"
   height="66.136696"
   xmlns="http://www.w3.org/2000/svg"
   xmlns:svg="http://www.w3.org/2000/svg"
   xmlns:ns="ns_sfw;"><defs
   id="defs15" />
 <style
   type="text/css"
   id="style2">
  .st0{fill:#FFD02F;}
	.st1{fill-rule:evenodd;clip-rule:evenodd;fill:#050038;}
 </style>
 <metadata
   id="metadata4">
  <ns:sfw>
   <ns:slices>
   </ns:slices>
   <ns:sliceSourceBounds
   bottomLeftOrigin="true"
   height="48"
   width="48"
   x="175.8"
   y="-224.2">
   </ns:sliceSourceBounds>
  </ns:sfw>
 </metadata>
 
<g
   id="g1815"><path
     d="m 22.017522,3.0683429 h 16"
     stroke="#101828"
     stroke-width="2"
     stroke-miterlimit="10"
     stroke-linecap="square"
     id="path1627"
     style="fill:none;stroke:#a3a3a3;stroke-opacity:1" /><path
     d="m 30.017522,3.0683429 v 3"
     stroke="#101828"
     stroke-width="2"
     stroke-miterlimit="10"
     stroke-linecap="square"
     id="path1629"
     style="fill:none;stroke:#a3a3a3;stroke-opacity:1" /><path
     d="m 30.017522,63.068353 c 14.3594,0 26,-11.6406 26,-26 0,-14.3594 -11.6406,-26 -26,-26 -14.3594,0 -26.0000003,11.6406 -26.0000003,26 0,14.3594 11.6406003,26 26.0000003,26 z"
     stroke="#101828"
     stroke-width="2"
     stroke-miterlimit="10"
     stroke-linecap="square"
     id="path1631"
     style="fill:none;stroke:#a3a3a3;stroke-opacity:1" /><path
     d="m 30.017522,14.068353 c -12.7025,0 -23.0000003,10.2974 -23.0000003,23 H 30.017522 Z"
     fill="#d0d5dd"
     id="path1633"
     style="fill:#828282;fill-opacity:1" /><path
     d="m 26.733122,39.352453 c -1.261,-1.814 -5.281,-14.6 -5.281,-14.6 0,0 10.587,8.216 11.848,10.033 0.3101,0.4307 0.5314,0.9189 0.6509,1.436 0.1196,0.5172 0.135,1.0529 0.0454,1.5761 -0.0895,0.5232 -0.2823,1.0233 -0.5671,1.4712 -0.2848,0.4479 -0.6559,0.8346 -1.0917,1.1377 -0.4357,0.303 -0.9275,0.5163 -1.4465,0.6274 -0.519,0.1111 -1.0549,0.1178 -1.5766,0.0197 -0.5216,-0.0981 -1.0185,-0.299 -1.4617,-0.5911 -0.4432,-0.292 -0.8238,-0.6694 -1.1197,-1.11 z"
     stroke="#000000"
     stroke-width="2"
     stroke-miterlimit="10"
     stroke-linecap="square"
     id="path1635"
     style="fill:none;stroke:#a3a3a3;stroke-opacity:1" /><path
     d="m 30.017522,17.068353 v 4"
     stroke="#101828"
     stroke-width="2"
     stroke-miterlimit="10"
     stroke-linecap="square"
     id="path1637"
     style="fill:none;stroke:#a3a3a3;stroke-opacity:1" /><path
     d="m 50.017522,37.068353 h -4"
     stroke="#101828"
     stroke-width="2"
     stroke-miterlimit="10"
     stroke-linecap="square"
     id="path1639"
     style="fill:none;stroke:#a3a3a3;stroke-opacity:1" /><path
     d="m 30.017522,57.068353 v -4"
     stroke="#101828"
     stroke-width="2"
     stroke-miterlimit="10"
     stroke-linecap="square"
     id="path1641"
     style="fill:none;stroke:#a3a3a3;stroke-opacity:1" /><path
     d="m 10.017522,37.068353 h 4"
     stroke="#101828"
     stroke-width="2"
     stroke-miterlimit="10"
     stroke-linecap="square"
     id="path1643"
     style="fill:none;stroke:#a3a3a3;stroke-opacity:1" /><path
     d="m 48.017522,10.068343 9,9.00001"
     stroke="#101828"
     stroke-width="2"
     stroke-miterlimit="10"
     stroke-linecap="square"
     id="path1645"
     style="fill:none;stroke:#a3a3a3;stroke-opacity:1" /></g></svg>
