<?xml version="1.0" encoding="UTF-8" standalone="no"?>
<svg
   width="64"
   height="65"
   viewBox="0 0 64 65"
   fill="none"
   version="1.1"
   id="svg12"
   xmlns="http://www.w3.org/2000/svg"
   xmlns:svg="http://www.w3.org/2000/svg">
  <defs
     id="defs16" />
  <path
     d="M 57,37.6797 C 57,44.0449 54.4714,50.1494 49.9706,54.6502 45.4697,59.1511 39.3652,61.6797 33,61.6797 26.6348,61.6797 20.5303,59.1511 16.0294,54.6502 11.5286,50.1494 9,44.0449 9,37.6797 V 9.67969 l 24,-6 24,6 z"
     stroke="#101828"
     stroke-width="2"
     stroke-miterlimit="10"
     stroke-linecap="square"
     id="path2"
     style="stroke:#e5e5e5;stroke-opacity:1" />
  <path
     d="m 52.1998,36.6795 c 0,5.0921 -2.0228,9.9757 -5.6235,13.5764 -3.6007,3.6007 -8.4843,5.6236 -13.5765,5.6236 -5.0922,0 -9.9757,-2.0229 -13.5764,-5.6236 -3.6007,-3.6007 -5.6236,-8.4843 -5.6236,-13.5764 v -22.4 l 19.2,-4.80001 19.2,4.80001 z"
     fill="#D0D5DD"
     id="path4"
     style="fill:#f9fafb;fill-opacity:1" />
  <path
     d="M 41,31.6797 H 25 c -1.1046,0 -2,0.8954 -2,2 v 10 c 0,1.1046 0.8954,2 2,2 h 16 c 1.1046,0 2,-0.8954 2,-2 v -10 c 0,-1.1046 -0.8954,-2 -2,-2 z"
     fill="#98A2B3"
     stroke="black"
     stroke-width="2"
     stroke-miterlimit="10"
     stroke-linecap="square"
     id="path6"
     style="fill:#dde0e6;fill-opacity:1;stroke:#e5e5e5;stroke-opacity:1" />
  <path
     d="m 33,39.6797 c 0.5523,0 1,-0.4477 1,-1 0,-0.5523 -0.4477,-1 -1,-1 -0.5523,0 -1,0.4477 -1,1 0,0.5523 0.4477,1 1,1 z"
     stroke="#101828"
     stroke-width="2"
     stroke-miterlimit="10"
     stroke-linecap="square"
     id="path8"
     style="stroke:#e5e5e5;stroke-opacity:1" />
  <path
     d="m 27,30.6797 v -6.8572 c 0,-1.3639 0.6321,-2.672 1.7574,-3.6365 1.1252,-0.9645 2.6513,-1.5063 4.2426,-1.5063 1.5913,0 3.1174,0.5418 4.2426,1.5063 C 38.3679,21.1505 39,22.4586 39,23.8225 v 6.8572"
     stroke="black"
     stroke-width="2"
     stroke-miterlimit="10"
     stroke-linecap="square"
     id="path10"
     style="stroke:#e5e5e5;stroke-opacity:1" />
</svg>
