<?xml version="1.0" encoding="UTF-8" standalone="no"?>
<svg
   version="1.1"
   id="Layer_1"
   x="0px"
   y="0px"
   viewBox="0 0 61.449257 66.136696"
   xml:space="preserve"
   width="61.449257"
   height="66.136696"
   xmlns="http://www.w3.org/2000/svg"
   xmlns:svg="http://www.w3.org/2000/svg"
   xmlns:ns="ns_sfw;"><defs
   id="defs15" />
 <style
   type="text/css"
   id="style2">
  .st0{fill:#FFD02F;}
	.st1{fill-rule:evenodd;clip-rule:evenodd;fill:#050038;}
 </style>
 <metadata
   id="metadata4">
  <ns:sfw>
   <ns:slices>
   </ns:slices>
   <ns:sliceSourceBounds
   bottomLeftOrigin="true"
   height="48"
   width="48"
   x="175.8"
   y="-224.2">
   </ns:sliceSourceBounds>
  </ns:sfw>
 </metadata>
 
<g
   id="g1299"><path
     d="M 52.724628,3.0683429 H 8.7246284 c -1.65685,0 -3,1.34314 -3,3 V 60.068353 c 0,1.6568 1.34315,3 3,3 H 52.724628 c 1.6569,0 3,-1.3432 3,-3 V 6.0683429 c 0,-1.65686 -1.3431,-3 -3,-3 z"
     stroke="#101828"
     stroke-width="2"
     stroke-miterlimit="10"
     stroke-linecap="square"
     id="path1251"
     style="fill:none;stroke:#a3a3a3;stroke-opacity:1" /><rect
     x="8.7246284"
     y="40.068352"
     width="44"
     height="20"
     rx="3"
     fill="#d0d5dd"
     id="rect1253"
     style="fill:#e2e2e2;fill-opacity:1" /><path
     d="m 29.724628,16.068353 h 16"
     stroke="#101828"
     stroke-width="2"
     stroke-miterlimit="10"
     stroke-linecap="square"
     id="path1255"
     style="fill:none;stroke:#a3a3a3;stroke-opacity:1" /><path
     d="m 14.724628,16.068353 2,2 6,-6"
     stroke="#101828"
     stroke-width="2"
     stroke-miterlimit="10"
     stroke-linecap="square"
     id="path1257"
     style="fill:none;stroke:#a3a3a3;stroke-opacity:1" /><path
     d="m 29.724628,31.068353 h 16"
     stroke="#101828"
     stroke-width="2"
     stroke-miterlimit="10"
     stroke-linecap="square"
     id="path1259"
     style="fill:none;stroke:#a3a3a3;stroke-opacity:1" /><path
     d="m 14.724628,31.068353 2,2 6,-6"
     stroke="#101828"
     stroke-width="2"
     stroke-miterlimit="10"
     stroke-linecap="square"
     id="path1261"
     style="fill:none;stroke:#a3a3a3;stroke-opacity:1" /><path
     d="m 29.724628,47.068353 h 16"
     stroke="#98a2b3"
     stroke-width="2"
     stroke-miterlimit="10"
     stroke-linecap="square"
     stroke-dasharray="4, 4"
     id="path1263"
     style="fill:none;stroke:#c8c8c8;stroke-opacity:1" /><path
     d="m 17.724628,50.068353 c 1.6569,0 3,-1.3432 3,-3 0,-1.6569 -1.3431,-3 -3,-3 -1.6569,0 -3,1.3431 -3,3 0,1.6568 1.3431,3 3,3 z"
     fill="#98a2b3"
     stroke="#98a2b3"
     stroke-width="2"
     stroke-miterlimit="10"
     stroke-linecap="square"
     id="path1265"
     style="fill:#c7c7c7;fill-opacity:1;stroke:#c8c8c8;stroke-opacity:1" /></g></svg>
