<svg xmlns="http://www.w3.org/2000/svg" xml:space="preserve" width="1.99999in" height="1.99999in" version="1.1" style="shape-rendering:geometricPrecision; text-rendering:geometricPrecision; image-rendering:optimizeQuality; fill-rule:evenodd; clip-rule:evenodd" viewBox="0 0 2000 2000" xmlns:xlink="http://www.w3.org/1999/xlink" class="cursor-default-hover">
 <defs>
  <style type="text/css">
   
    .fil0 {fill:#043659}
    .fil1 {fill:#249ECF}
   
  </style>
 </defs>
 <g id="Layer_x0020_1">
  <metadata id="CorelCorpID_0Corel-Layer"></metadata>
  <path class="fil0" d="M1021 1572l-65 0c-11,0 -21,-8 -23,-19l-10 -61c-14,-6 -27,-13 -39,-23l-58 22c-11,4 -22,0 -28,-10l-32 -56c-6,-10 -4,-22 5,-29l48 -40c-1,-7 -2,-15 -2,-22 0,-8 1,-15 2,-23l-48 -39c-9,-7 -11,-20 -5,-29l32 -56c6,-10 17,-14 28,-10l58 21c12,-9 25,-16 39,-22l10 -61c2,-11 12,-19 23,-19l65 0c11,0 20,8 22,19l10 61c14,6 27,13 39,22l59 -21c10,-4 22,0 27,10l33 56c5,9 3,22 -6,29l-47 39c1,8 1,15 1,23 0,7 0,15 -1,22l47 40c9,7 11,19 6,29l-33 56c-5,10 -17,14 -27,10l-59 -22c-12,10 -25,17 -39,23l-10 61c-2,11 -11,19 -22,19zm-46 -45l26 0 10 -56c1,-8 7,-15 15,-17 18,-6 33,-15 47,-27 6,-6 15,-8 23,-5l53 20 13 -23 -44 -36c-6,-5 -9,-14 -7,-22 2,-9 3,-18 3,-27 0,-9 -1,-18 -3,-27 -2,-8 1,-17 7,-22l44 -36 -13 -23 -53 20c-8,2 -17,1 -23,-5 -14,-12 -30,-21 -47,-27 -8,-2 -14,-9 -15,-18l-10 -55 -26 0 -10 55c-1,9 -7,16 -15,18 -17,6 -33,15 -46,27 -7,6 -15,8 -23,5l-53 -20 -13 23 43 36c6,5 9,14 8,22 -2,9 -3,18 -3,27 0,9 1,18 3,27 1,8 -2,17 -8,22l-43 36 13 23 53 -20c8,-3 16,-1 23,5 13,12 29,21 46,26 8,3 14,10 15,18l10 56z" id="id_101" style="fill: rgb(255, 255, 255);"></path>
  <path class="fil0" d="M988 1419c-47,0 -85,-38 -85,-85 0,-47 38,-85 85,-85 47,0 85,38 85,85 0,47 -38,85 -85,85zm0 -124c-21,0 -39,17 -39,39 0,22 18,39 39,39 22,0 39,-17 39,-39 0,-22 -17,-39 -39,-39z" id="id_102" style="fill: rgb(255, 255, 255);"></path>
  <path class="fil0" d="M652 1853c-13,0 -23,-10 -23,-22l0 -119c0,-12 10,-23 23,-23 12,0 22,11 22,23l0 119c0,12 -10,22 -22,22z" id="id_103" style="fill: rgb(255, 255, 255);"></path>
  <path class="fil0" d="M306 1853c-12,0 -23,-10 -23,-22l0 -119c0,-12 11,-23 23,-23 13,0 23,11 23,23l0 119c0,12 -10,22 -23,22z" id="id_104" style="fill: rgb(250, 254, 255);"></path>
  <path class="fil0" d="M786 1853l-614 0c-12,0 -23,-10 -23,-22l0 -155c0,-98 80,-178 178,-178l58 0c6,0 12,3 16,7l78 80 78 -80c4,-4 10,-7 16,-7l58 0c98,0 177,80 177,178l0 155c0,12 -10,22 -22,22zm-591 -45l568 0 0 -132c0,-73 -59,-132 -132,-132l-48 0 -88 90c-8,8 -24,8 -32,0l-88 -90 -48 0c-73,0 -132,59 -132,132l0 132 0 0z" id="id_105" style="fill: rgb(255, 255, 255);"></path>
  <path class="fil0" d="M479 1497c-83,0 -152,-69 -153,-153l0 -44c0,-12 10,-23 22,-23 13,0 23,10 23,23l1 44c0,59 48,107 107,107 59,0 107,-48 107,-107l0 -42c0,-13 10,-23 23,-23 12,0 22,10 22,23l0 42c0,84 -68,153 -152,153z" id="id_106" style="fill: rgb(255, 255, 255);"></path>
  <path class="fil0 cursor-default-hover" d="M609 1324c-2,0 -4,0 -5,0 -12,-3 -20,-15 -18,-27 3,-11 4,-44 -11,-62 -16,-19 -50,-22 -98,-8 -7,2 -15,1 -21,-4 -8,-7 -36,-24 -58,-24 -9,0 -13,3 -16,6 -6,7 -17,30 -11,93 1,11 -7,22 -18,24 -12,2 -23,-5 -26,-16 -22,-82 0,-135 23,-164 29,-38 78,-61 130,-61 52,0 99,22 128,60 23,29 45,82 23,166 -3,11 -12,17 -22,17zm-79 -151c20,0 37,3 51,10 -2,-5 -5,-10 -9,-14 -21,-27 -54,-43 -92,-43 -30,0 -58,10 -78,27 29,1 58,18 73,27 20,-5 39,-7 55,-7z" id="id_107" style="fill: rgb(255, 255, 255);"></path>
  <path class="fil0" d="M573 1544c-9,0 -17,-6 -21,-14l-27 -66c-5,-12 1,-25 13,-30 11,-5 24,1 29,13l27 66c5,11 -1,24 -12,29 -3,1 -6,2 -9,2z" id="id_108" style="fill: rgb(255, 255, 255);"></path>
  <path class="fil0" d="M786 1769l-134 0c-13,0 -23,-11 -23,-23 0,-13 10,-23 23,-23l134 0c12,0 22,10 22,23 0,12 -10,23 -22,23z" id="id_109" style="fill: rgb(255, 255, 255);"></path>
  <path class="fil0" d="M306 1769l-134 0c-12,0 -23,-11 -23,-23 0,-13 11,-23 23,-23l134 0c13,0 23,10 23,23 0,12 -10,23 -23,23z" id="id_110" style="fill: rgb(255, 255, 255);"></path>
  <path class="fil0" d="M385 1544c-3,0 -6,-1 -9,-2 -11,-5 -17,-18 -12,-29l27 -66c4,-12 18,-18 29,-13 12,5 17,18 13,30l-27 66c-4,8 -12,14 -21,14z" id="id_111" style="fill: rgb(255, 255, 255);"></path>
  <path class="fil0" d="M479 1774c-13,0 -23,-10 -23,-22l0 -41c0,-12 10,-22 23,-22 12,0 23,10 23,22l0 41c0,12 -11,22 -23,22z" id="id_112" style="fill: rgb(255, 255, 255);"></path>
  <path class="fil0" d="M1694 1853c-13,0 -23,-10 -23,-22l0 -119c0,-12 10,-23 23,-23 12,0 23,11 23,23l0 119c0,12 -11,22 -23,22z" id="id_113" style="fill: rgb(255, 255, 255);"></path>
  <path class="fil0" d="M1348 1853c-12,0 -22,-10 -22,-22l0 -119c0,-12 10,-23 22,-23 13,0 23,11 23,23l0 119c0,12 -10,22 -23,22z" id="id_114" style="fill: rgb(255, 255, 255);"></path>
  <path class="fil0 cursor-default-hover" d="M1828 1853l-614 0c-12,0 -22,-10 -22,-22l0 -155c0,-98 79,-178 177,-178l58 0c6,0 12,3 16,7l78 80 78 -80c4,-4 10,-7 16,-7l58 0c98,0 178,80 178,178l0 155c0,12 -11,22 -23,22zm-591 -45l568 0 0 -132c0,-73 -59,-132 -132,-132l-48 0 -88 90c-4,4 -10,6 -16,6l0 0c-6,0 -12,-2 -16,-6l-88 -90 -48 0c-73,0 -132,59 -132,132l0 132 0 0z" id="id_115" style="fill: rgb(255, 255, 255);"></path>
  <path class="fil0" d="M1521 1497c-83,0 -152,-69 -153,-153l0 -44c0,-12 10,-23 23,-23 0,0 0,0 0,0 12,0 22,10 22,23l1 44c0,59 49,107 107,107 59,0 107,-48 107,-107l0 -42c0,-13 10,-23 23,-23 13,0 23,10 23,23l0 42c0,84 -69,153 -153,153z" id="id_116" style="fill: rgb(255, 255, 255);"></path>
  <path class="fil0" d="M1651 1324c-2,0 -3,0 -5,0 -12,-3 -20,-15 -17,-27 2,-11 4,-44 -12,-62 -16,-19 -50,-22 -98,-8 -7,2 -15,1 -20,-4 -9,-7 -37,-24 -58,-24 -9,0 -14,3 -16,6 -7,7 -18,30 -11,93 1,11 -7,22 -19,24 -12,2 -23,-5 -26,-16 -22,-82 0,-135 23,-164 29,-38 78,-61 130,-61 52,0 99,22 128,60 23,29 45,82 23,166 -3,11 -12,17 -22,17zm-79 -151c20,0 37,3 52,10 -3,-5 -6,-10 -10,-14 -20,-27 -54,-43 -92,-43 -29,0 -57,10 -78,27 29,1 58,18 73,27 20,-5 39,-7 55,-7z" id="id_117" style="fill: rgb(255, 255, 255);"></path>
  <path class="fil0" d="M1615 1544c-9,0 -17,-6 -21,-14l-27 -66c-4,-12 1,-25 13,-30 11,-5 25,1 29,13l27 66c5,11 -1,24 -12,29 -3,1 -6,2 -9,2z" id="id_118" style="fill: rgb(255, 255, 255);"></path>
  <path class="fil0" d="M1828 1769l-134 0c-13,0 -23,-11 -23,-23 0,-13 10,-23 23,-23l134 0c12,0 23,10 23,23 0,12 -11,23 -23,23z" id="id_119" style="fill: rgb(255, 255, 255);"></path>
  <path class="fil0" d="M1348 1769l-134 0c-12,0 -22,-11 -22,-23 0,-13 10,-23 22,-23l134 0c13,0 23,10 23,23 0,12 -10,23 -23,23z" id="id_120" style="fill: rgb(255, 255, 255);"></path>
  <path class="fil0 cursor-default-hover" d="M1427 1544c-3,0 -6,-1 -9,-2 -11,-5 -17,-18 -12,-29l27 -66c5,-12 18,-18 29,-13 12,5 18,18 13,30l-27 66c-4,8 -12,14 -21,14z" id="id_121" style="fill: rgb(255, 255, 255);"></path>
  <path class="fil0 cursor-default-hover" d="M1521 1774c-12,0 -23,-10 -23,-22l0 -41c0,-12 11,-22 23,-22 13,0 23,10 23,22l0 41c0,12 -10,22 -23,22z" id="id_122" style="fill: rgb(255, 255, 255);"></path>
  <path class="fil1" d="M1171 1030c-13,0 -23,-10 -23,-23l0 -136c0,-13 10,-23 23,-23 12,0 22,10 22,23l0 136c0,13 -10,23 -22,23z" id="id_123" style="fill: rgb(255, 255, 255);"></path>
  <path class="fil1" d="M773 1030c-13,0 -23,-10 -23,-23l0 -136c0,-13 10,-23 23,-23 12,0 22,10 22,23l0 136c0,13 -10,23 -22,23z" id="id_124" style="fill: rgb(255, 255, 255);"></path>
  <path class="fil1 cursor-default-hover" d="M1325 1030l-707 0c-12,0 -23,-10 -23,-23l0 -178c0,-111 91,-201 201,-201l67 0c6,0 12,2 16,7l93 94 92 -94c4,-5 10,-7 16,-7l67 0c111,0 201,90 201,201l0 178c0,13 -10,23 -23,23zm-684 -45l661 0 0 -156c0,-86 -69,-156 -155,-156l-57 0 -102 105c-9,9 -24,9 -33,0l-101 -105 -58 0c-85,0 -155,70 -155,156l0 156z" id="id_125" style="fill: rgb(255, 255, 255);"></path>
  <path class="fil1" d="M972 619c-95,0 -172,-77 -173,-172l0 -51c0,-13 10,-23 22,-23 0,0 0,0 0,0 13,0 23,10 23,23l1 51c0,70 57,127 127,127 70,0 127,-57 127,-127l0 -49c0,-13 10,-23 22,-23 13,0 23,10 23,23l0 49c0,95 -77,172 -172,172z" id="id_126" style="fill: rgb(255, 255, 255);"></path>
  <path class="fil1" d="M1121 420c-1,0 -3,0 -5,0 -12,-3 -19,-15 -17,-27 0,0 9,-47 -14,-75 -11,-13 -29,-20 -54,-20 -18,0 -39,4 -63,10 -7,2 -14,1 -20,-3 -11,-9 -44,-30 -69,-30 -12,0 -18,5 -21,9 -8,9 -21,36 -14,109 1,12 -7,23 -18,25 -12,2 -23,-5 -26,-16 -25,-93 0,-153 26,-186 33,-43 88,-69 147,-69 59,0 112,24 145,68 25,33 51,93 25,189 -3,10 -12,16 -22,16zm-90 -167c26,0 49,5 67,17 -5,-10 -10,-19 -16,-28 -25,-32 -64,-50 -109,-50 -39,0 -74,14 -99,38 36,-2 75,20 92,32 24,-6 46,-9 65,-9z" id="id_127" style="fill: rgb(255, 255, 255);"></path>
  <path class="fil1" d="M1080 673c-9,0 -17,-5 -21,-14l-31 -76c-5,-11 1,-25 13,-29 11,-5 24,0 29,12l31 76c5,12 -1,25 -12,30 -3,1 -6,1 -9,1z" id="id_128" style="fill: rgb(255, 255, 255);"></path>
  <path class="fil1" d="M1325 932l-154 0c-13,0 -23,-10 -23,-22 0,-13 10,-23 23,-23l154 0c13,0 23,10 23,23 0,12 -10,22 -23,22z" id="id_129" style="fill: rgb(255, 255, 255);"></path>
  <path class="fil1" d="M773 932l-155 0c-12,0 -23,-10 -23,-22 0,-13 11,-23 23,-23l155 0c12,0 22,10 22,23 0,12 -10,22 -22,22z" id="id_130" style="fill: rgb(255, 255, 255);"></path>
  <path class="fil1" d="M863 673c-3,0 -6,0 -8,-1 -12,-5 -18,-18 -13,-30l31 -76c5,-12 18,-17 30,-12 11,4 17,18 12,29l-31 76c-3,9 -12,14 -21,14z" id="id_131" style="fill: rgb(255, 255, 255);"></path>
  <path class="fil1" d="M972 869c-13,0 -23,-10 -23,-23l0 -27c0,-12 10,-22 23,-22 12,0 22,10 22,22l0 27c0,13 -10,23 -22,23z" id="id_132" style="fill: rgb(255, 255, 255);"></path>
  <path class="fil1" d="M972 955c-13,0 -23,-10 -23,-22l0 -27c0,-13 10,-23 23,-23 12,0 22,10 22,23l0 27c0,12 -10,22 -22,22z" id="id_133" style="fill: rgb(255, 255, 255);"></path>
 </g>
</svg>