<svg xmlns="http://www.w3.org/2000/svg" xml:space="preserve" width="1.70666in" height="1.70666in" version="1.1" style="shape-rendering:geometricPrecision; text-rendering:geometricPrecision; image-rendering:optimizeQuality; fill-rule:evenodd; clip-rule:evenodd" viewBox="0 0 1706.66 1706.66" xmlns:xlink="http://www.w3.org/1999/xlink" xmlns:xodm="http://www.corel.com/coreldraw/odm/2003">
 <defs>
  <style type="text/css">
   
    .fil0 {fill:black}
   
  </style>
 </defs>
 <g id="Layer_x0020_1">
  <metadata id="CorelCorpID_0Corel-Layer"></metadata>
  <path class="fil0" d="M853.3 1706.67c-2.22,0 -4.44,-0.41 -6.53,-1.11 -838.06,-291.67 -734.86,-1277.36 -720.42,-1388.75 1.49,-10.92 7.67,-19.05 18.75,-19.86 503.2,-37.22 690.28,-286.25 692.09,-288.75 7.9,-10.88 24.24,-10.98 32.36,0.14 1.8,2.5 188.89,251.53 692.09,288.75 11.11,0.8 17.28,8.74 18.61,19.72 14.58,111.39 117.78,1097.09 -720.42,1388.75 -2.08,0.7 -4.31,1.11 -6.53,1.11zm-43.3 -1548.23c20.89,-29.35 65.48,-29.35 86.25,-0.08 24.02,32.8 85.91,77.14 119.56,97.35 120.84,72.56 264.52,106.87 403.97,117.17 27.2,2.01 45.7,22.16 49.21,48.41 21.38,159.61 6.7,359.91 -33.31,513.63 -78.89,303.09 -264.09,527.1 -564.17,631.91 -11.77,4.43 -23.58,4.62 -35.49,0.56 -302.78,-103.15 -487.39,-328.82 -565.39,-633.48 -41.92,-163.75 -51.59,-345.12 -33.25,-513.34 2.78,-25.55 23.5,-45.65 49.14,-47.55 169.94,-12.61 365.59,-65.12 494.02,-183.72 9.61,-8.87 21.51,-20.31 29.46,-30.86z" id="id_107"></path>
  <path class="fil0" d="M853.3 1536.94c-2.22,0 -4.44,-0.41 -6.53,-1.11 -672.74,-229.18 -585.37,-1027.46 -576.25,-1111.67 1.11,-9.58 8.89,-17.09 18.47,-17.92 398.47,-29.44 546.67,-226.25 548.06,-228.33 7.42,-10.64 24.32,-11.14 32.22,0 1.39,1.94 149.72,198.75 548.06,228.19 11.14,0.8 17,8.62 18.61,19.44 11.53,89.03 93.89,876.81 -576.39,1110.14 -1.8,0.83 -4.03,1.25 -6.25,1.25zm-122.08 -479.86c-5.14,0 -10.28,-1.94 -14.17,-5.83l-123.33 -123.33c-18.54,-18.54 9.53,-46.97 28.33,-28.33l109.17 109.17 353.47 -353.47c18.54,-18.54 46.98,9.53 28.33,28.33l-367.78 367.64c-3.89,3.89 -9.03,5.83 -14.03,5.83zm122.08 319.44c-22.31,0 -27.75,-31.52 -6.53,-38.89 215,-74.86 349.72,-236.25 400.28,-480 5.31,-25.76 44.49,-17.74 39.17,8.06 -36.8,177.64 -140.7,410.28 -426.25,509.59 -2.22,0.83 -4.44,1.24 -6.67,1.24z" id="id_108"></path>
 </g>
</svg>