<?xml version="1.0" encoding="UTF-8"?>
<svg xmlns="http://www.w3.org/2000/svg" width="64" height="65" viewBox="0 0 64 65" fill="none">
  <path d="M57 37.6797C57 44.0449 54.4714 50.1494 49.9706 54.6502C45.4697 59.1511 39.3652 61.6797 33 61.6797C26.6348 61.6797 20.5303 59.1511 16.0294 54.6502C11.5286 50.1494 9 44.0449 9 37.6797V9.67969L33 3.67969L57 9.67969V37.6797Z" stroke="#101828" stroke-width="2" stroke-miterlimit="10" stroke-linecap="square"></path>
  <path d="M52.1998 36.6795C52.1998 41.7716 50.177 46.6552 46.5763 50.2559C42.9756 53.8566 38.092 55.8795 32.9998 55.8795C27.9076 55.8795 23.0241 53.8566 19.4234 50.2559C15.8227 46.6552 13.7998 41.7716 13.7998 36.6795V14.2795L32.9998 9.47949L52.1998 14.2795V36.6795Z" fill="#D0D5DD"></path>
  <path d="M41 31.6797H25C23.8954 31.6797 23 32.5751 23 33.6797V43.6797C23 44.7843 23.8954 45.6797 25 45.6797H41C42.1046 45.6797 43 44.7843 43 43.6797V33.6797C43 32.5751 42.1046 31.6797 41 31.6797Z" fill="#98A2B3" stroke="black" stroke-width="2" stroke-miterlimit="10" stroke-linecap="square"></path>
  <path d="M33 39.6797C33.5523 39.6797 34 39.232 34 38.6797C34 38.1274 33.5523 37.6797 33 37.6797C32.4477 37.6797 32 38.1274 32 38.6797C32 39.232 32.4477 39.6797 33 39.6797Z" stroke="#101828" stroke-width="2" stroke-miterlimit="10" stroke-linecap="square"></path>
  <path d="M27 30.6797V23.8225C27 22.4586 27.6321 21.1505 28.7574 20.186C29.8826 19.2215 31.4087 18.6797 33 18.6797C34.5913 18.6797 36.1174 19.2215 37.2426 20.186C38.3679 21.1505 39 22.4586 39 23.8225V30.6797" stroke="black" stroke-width="2" stroke-miterlimit="10" stroke-linecap="square"></path>
</svg>
