<?xml version="1.0" encoding="UTF-8" standalone="no"?>
<!-- Created with Inkscape (http://www.inkscape.org/) -->

<svg
   width="180.9267mm"
   height="99.216637mm"
   viewBox="0 0 180.9267 99.216637"
   version="1.1"
   id="svg5"
   xml:space="preserve"
   xmlns="http://www.w3.org/2000/svg"
   xmlns:svg="http://www.w3.org/2000/svg"><g
     id="g378"
     transform="translate(-14.046775,-30.91997)"><g
       id="g27"
       transform="matrix(0.35277776,0,0,-0.35277778,130.62831,80.259762)"
       clip-path="url(#clipPath258)"
       style="fill:#ffffff"><path
         d="m 0,0 c 39.738,44.186 113.653,82.342 155.318,77.606 -3.461,14.889 -10.393,29.585 -20.507,42.508 C 104.152,159.526 26.546,77.328 0,0"
         style="fill:#ffffff;fill-opacity:1;fill-rule:evenodd;stroke:none"
         id="path29" /></g><g
       id="g31"
       transform="matrix(0.35277776,0,0,-0.35277778,184.62948,124.0235)"
       clip-path="url(#clipPath252)"
       style="fill:#ffffff"><path
         d="m 0,0 c 1.304,62.776 -28.09,145.443 -63.475,171.845 13.383,9.031 29.346,15.263 46.429,17.976 C 35.011,198.056 35.481,78.737 0,0"
         style="fill:#ffffff;fill-opacity:1;fill-rule:evenodd;stroke:none"
         id="path33" /></g><g
       id="g35"
       transform="matrix(0.35277776,0,0,-0.35277778,102.23937,108.08726)"
       clip-path="url(#clipPath246)"
       style="fill:#ffffff"><path
         d="M 0,0 C 70.828,-16.01 171.424,-1.822 209.675,32.298 216.789,14.936 220.154,-4.583 219.31,-24.619 216.501,-85.525 81.077,-58.375 0,0"
         style="fill:#ffffff;fill-opacity:1;fill-rule:evenodd;stroke:none"
         id="path37" /></g><text
       xml:space="preserve"
       style="font-style:normal;font-variant:normal;font-weight:normal;font-stretch:normal;font-size:19.8821px;font-family:C059;-inkscape-font-specification:'C059, Normal';font-variant-ligatures:normal;font-variant-caps:normal;font-variant-numeric:normal;font-variant-east-asian:normal;writing-mode:lr-tb;fill:#ffffff;fill-opacity:1;fill-rule:nonzero;stroke:none;stroke-width:0.352778"
       id="text41"
       x="16.956696"
       y="97.108185"><tspan
         x="16.956696 30.198196 41.014069 51.392548 61.651733 66.343903 79.545624 89.80481 99.74588 109.70682 113.88208 122.65012 132.90927 142.25388 146.94608 153.10953 159.94897 171.58002"
         y="97.108185"
         id="tspan39"
         style="font-style:normal;font-variant:normal;font-weight:normal;font-stretch:normal;font-size:19.8821px;font-family:C059;-inkscape-font-specification:'C059, Normal';font-variant-ligatures:normal;font-variant-caps:normal;font-variant-numeric:normal;font-variant-east-asian:normal;fill:#ffffff;stroke-width:0.352778">Cane Services Ltd.</tspan></text><text
       xml:space="preserve"
       style="font-variant:normal;font-weight:100;font-stretch:normal;font-size:6.92997px;font-family:Calypso;-inkscape-font-specification:Calypso;writing-mode:lr-tb;fill:#ffffff;fill-opacity:1;fill-rule:nonzero;stroke:none;stroke-width:0.352778"
       id="text45"
       x="16.956696"
       y="104.71566"><tspan
         x="16.956696 20.123688 24.143066 27.933762 31.107681 34.413269 36.173492 39.091003 42.396591 45.314117 48.515762 51.82135 54.738861 58.633514 61.807434 65.113037 68.772064 71.945984 74.974365 77.891876 81.197479 82.99234 86.16626 89.790649 92.964569"
         y="104.71566"
         id="tspan43"
         style="fill:#ffffff;stroke-width:0.352778">Take it to the Next Level</tspan></text><text
       xml:space="preserve"
       style="font-variant:normal;font-weight:200;font-stretch:normal;font-size:3.45348px;font-family:'Cascadia Code ExtraLight';-inkscape-font-specification:CascadiaCode-Roman;writing-mode:lr-tb;fill:#eacf2f;fill-opacity:1;fill-rule:nonzero;stroke:none;stroke-width:0.352778"
       id="text49"
       x="181.10342"
       y="126.32845"><tspan
         x="181.10342 182.95447"
         y="126.32845"
         id="tspan47"
         style="stroke-width:0.352778">TM</tspan></text></g><defs
     id="defs2"><clipPath
       clipPathUnits="userSpaceOnUse"
       id="clipPath246"><g
         id="g250"
         transform="matrix(2.8346458,0,0,-2.8346457,-289.8124,306.38908)"><path
           d="M 14.98642,32.200916 H 195.91308 V 131.41755 H 14.98642 Z"
           id="path248"
           style="stroke-width:0.352778" /></g></clipPath><clipPath
       clipPathUnits="userSpaceOnUse"
       id="clipPath252"><g
         id="g256"
         transform="matrix(2.8346458,0,0,-2.8346457,-523.35918,351.56267)"><path
           d="M 14.98642,32.200916 H 195.91308 V 131.41755 H 14.98642 Z"
           id="path254"
           style="stroke-width:0.352778" /></g></clipPath><clipPath
       clipPathUnits="userSpaceOnUse"
       id="clipPath258"><g
         id="g262"
         transform="matrix(2.8346458,0,0,-2.8346457,-370.28499,227.50799)"><path
           d="M 14.98642,32.200916 H 195.91308 V 131.41755 H 14.98642 Z"
           id="path260"
           style="stroke-width:0.352778" /></g></clipPath></defs></svg>
