<?xml version="1.0" encoding="UTF-8" standalone="no"?>
<!-- Created with Inkscape (http://www.inkscape.org/) -->

<svg
   width="550"
   height="249.99998"
   viewBox="0 0 145.52084 66.145828"
   version="1.1"
   id="svg5"
   xml:space="preserve"
   inkscape:export-filename="car1.svg"
   inkscape:export-xdpi="96"
   inkscape:export-ydpi="96"
   xmlns:inkscape="http://www.inkscape.org/namespaces/inkscape"
   xmlns:sodipodi="http://sodipodi.sourceforge.net/DTD/sodipodi-0.dtd"
   xmlns="http://www.w3.org/2000/svg"
   xmlns:svg="http://www.w3.org/2000/svg"><sodipodi:namedview
     id="namedview7"
     pagecolor="#505050"
     bordercolor="#ffffff"
     borderopacity="1"
     inkscape:showpageshadow="0"
     inkscape:pageopacity="0"
     inkscape:pagecheckerboard="1"
     inkscape:deskcolor="#505050"
     inkscape:document-units="px"
     showgrid="false" /><defs
     id="defs2" /><text
     xml:space="preserve"
     style="font-style:italic;font-variant:normal;font-weight:bold;font-stretch:normal;font-size:4.53618px;font-family:C059;-inkscape-font-specification:'C059, Bold Italic';font-variant-ligatures:normal;font-variant-caps:normal;font-variant-numeric:normal;font-variant-east-asian:normal;writing-mode:lr-tb;fill:#ffffff;fill-opacity:1;fill-rule:nonzero;stroke:none;stroke-width:0.386104"
     id="text802"
     x="39.377911"
     y="53.639832"
     transform="scale(0.98063001,1.0197526)"><tspan
       sodipodi:role="line"
       id="tspan800"
       style="font-style:italic;font-variant:normal;font-weight:bold;font-stretch:normal;font-size:4.53618px;font-family:C059;-inkscape-font-specification:'C059, Bold Italic';font-variant-ligatures:normal;font-variant-caps:normal;font-variant-numeric:normal;font-variant-east-asian:normal;fill:#ffffff;stroke-width:0.386104"
       x="39.377911"
       y="53.639832">Where Cars Meet New Owners.</tspan></text><g
     id="g804"
     transform="matrix(0.37862526,0,0,-0.39373066,-21.895896,130.43894)"
     style="fill:#ffffff"><g
       id="g806"
       style="fill:#ffffff"><g
         id="g812"
         style="fill:#ffffff"><g
           id="g814"
           style="fill:#ffffff"><path
             d="m 238.788,313.111 c -2.655,-0.315 -5.266,-0.87 -7.83,-1.554 v 0 c -2.568,-0.68 -5.088,-1.506 -7.567,-2.428 v 0 c -4.967,-1.828 -9.785,-4.009 -14.505,-6.364 v 0 c -4.72,-2.357 -9.337,-4.907 -13.877,-7.585 v 0 c -4.481,-2.654 -8.885,-5.412 -13.197,-8.356 v 0 c -8.968,-0.19 -17.917,-0.599 -26.865,-1.102 v 0 c -9.01,-0.516 -18.015,-1.184 -26.994,-2.128 v 0 c -4.491,-0.452 -8.969,-1.043 -13.435,-1.714 v 0 c -4.459,-0.717 -8.903,-1.516 -13.319,-2.451 v 0 c -4.414,-0.951 -8.801,-2.023 -13.138,-3.27 v 0 c -2.169,-0.627 -4.323,-1.3 -6.454,-2.04 v 0 C 79.476,273.378 77.356,272.6 75.3,271.671 v 0 c 2.073,0.889 4.207,1.623 6.349,2.32 v 0 c 2.142,0.702 4.31,1.319 6.482,1.918 v 0 c 4.349,1.181 8.742,2.186 13.159,3.07 v 0 c 4.422,0.869 8.868,1.6 13.325,2.248 v 0 c 4.463,0.595 8.934,1.142 13.421,1.556 v 0 c 8.968,0.862 17.965,1.448 26.967,1.882 v 0 c 9,0.438 18.016,0.723 27.019,0.892 v 0 l 0.191,0.004 0.162,0.11 c 4.323,2.938 8.787,5.717 13.304,8.372 v 0 c 4.523,2.651 9.122,5.174 13.816,7.499 v 0 c 4.692,2.324 9.476,4.471 14.382,6.261 v 0 c 2.45,0.901 4.934,1.707 7.45,2.366 v 0 c 2.515,0.663 5.06,1.194 7.628,1.491 v 0 c 10.408,1.105 20.915,1.421 31.406,1.404 v 0 c 10.493,-0.071 20.992,-0.463 31.447,-1.368 v 0 c 5.228,-0.432 10.443,-1.012 15.627,-1.771 v 0 c 2.597,-0.36 5.172,-0.828 7.746,-1.304 v 0 l 3.844,-0.801 c 1.28,-0.277 2.551,-0.596 3.828,-0.892 v 0 c 5.095,-1.237 10.165,-2.605 15.205,-4.081 v 0 c 5.044,-1.46 10.068,-2.997 15.08,-4.574 v 0 c 5.015,-1.572 10.016,-3.187 15.022,-4.795 v 0 c 2.504,-0.801 5.01,-1.596 7.524,-2.369 v 0 c 2.518,-0.769 5.024,-1.554 7.615,-2.144 v 0 c 1.298,-0.325 2.654,-0.319 3.968,-0.348 v 0 l 1.979,0.049 1.974,0.107 c 2.627,0.176 5.246,0.431 7.86,0.727 v 0 c 5.226,0.599 10.431,1.355 15.62,2.194 v 0 c -5.205,-0.744 -10.425,-1.368 -15.652,-1.901 v 0 c -2.613,-0.258 -5.232,-0.474 -7.851,-0.609 v 0 l -1.965,-0.078 -1.963,-0.018 c -1.306,0.049 -2.606,0.059 -3.862,0.394 v 0 c -2.525,0.615 -5.032,1.439 -7.528,2.243 v 0 c -2.5,0.806 -4.989,1.648 -7.485,2.472 v 0 c -4.989,1.653 -9.978,3.314 -14.982,4.931 v 0 c -5.002,1.626 -10.018,3.21 -15.059,4.719 v 0 c -5.036,1.525 -10.108,2.943 -15.218,4.233 v 0 c -1.281,0.309 -2.556,0.641 -3.842,0.931 v 0 l -3.868,0.843 c -2.594,0.488 -5.191,0.967 -7.801,1.337 v 0 c -5.216,0.78 -10.453,1.378 -15.701,1.827 v 0 c -10.494,0.941 -21.023,1.365 -31.554,1.468 v 0 c -0.662,0.002 -1.323,0.004 -1.985,0.004 v 0 c -9.87,0 -19.753,-0.277 -29.596,-1.379 m 5.847,-4.403 c -3.385,-0.243 -6.761,-0.547 -10.127,-1.106 v 0 c -3.377,-0.644 -6.578,-1.846 -9.731,-3.104 v 0 c -3.153,-1.272 -6.24,-2.688 -9.299,-4.159 v 0 c -3.057,-1.473 -6.083,-3.009 -9.085,-4.591 v 0 c -5.997,-3.174 -11.896,-6.515 -17.729,-9.992 v 0 l -1.716,-1.023 2.003,0.026 c 11.777,0.15 23.553,0.277 35.329,0.493 v 0 l 35.327,0.726 c 5.888,0.129 11.775,0.298 17.662,0.499 v 0 c 2.943,0.092 5.887,0.206 8.831,0.327 v 0 c 1.472,0.054 2.945,0.144 4.416,0.215 v 0 c 0.735,0.028 1.477,0.096 2.218,0.157 v 0 l 1.111,0.092 c 0.37,0.051 0.738,0.106 1.104,0.17 v 0 c 2.92,0.525 5.781,1.238 8.632,1.988 v 0 c 2.849,0.756 5.685,1.556 8.512,2.381 v 0 c 2.828,0.826 5.647,1.679 8.457,2.561 v 0 c 1.406,0.44 2.807,0.895 4.203,1.363 v 0 l 2.089,0.718 1.037,0.38 c 0.337,0.141 0.702,0.245 1,0.459 v 0 c -0.302,-0.206 -0.669,-0.3 -1.01,-0.432 v 0 l -1.046,-0.354 -2.105,-0.663 -4.231,-1.264 c -2.825,-0.828 -5.658,-1.625 -8.498,-2.397 v 0 c -2.841,-0.771 -5.688,-1.515 -8.545,-2.213 v 0 c -2.858,-0.685 -5.721,-1.386 -8.605,-1.862 v 0 c -1.843,-0.249 -3.718,-0.341 -5.6,-0.408 v 0 l 2.731,17.899 -3.723,-17.936 c -0.725,-0.024 -1.451,-0.048 -2.176,-0.077 v 0 c -2.942,-0.086 -5.883,-0.166 -8.827,-0.224 v 0 l -17.659,-0.347 -68.601,-1.142 c 5.225,3.113 10.52,6.123 15.87,9.017 v 0 c 2.975,1.613 5.973,3.179 9.001,4.682 v 0 c 3.029,1.501 6.087,2.947 9.203,4.247 v 0 c 3.114,1.286 6.283,2.514 9.563,3.179 v 0 c 3.311,0.585 6.682,0.977 10.048,1.278 v 0 c 6.742,0.585 13.518,0.807 20.293,0.788 v 0 c -2.208,0.07 -4.418,0.105 -6.628,0.105 v 0 c -4.568,0 -9.137,-0.15 -13.699,-0.456 m 52.45,-1.587 c 4.813,-0.284 9.626,-0.577 14.427,-0.963 v 0 c 2.399,-0.202 4.797,-0.42 7.183,-0.694 v 0 c 1.191,-0.149 2.38,-0.306 3.558,-0.507 v 0 c 0.591,-0.096 1.169,-0.228 1.754,-0.34 v 0 l 0.857,-0.22 0.428,-0.111 0.408,-0.143 c 1.091,-0.366 2.133,-0.941 3.134,-1.572 v 0 c 1.002,-0.634 1.971,-1.327 2.917,-2.055 v 0 c 1.658,-1.293 3.249,-2.693 4.772,-4.143 v 0 c -3.592,-1.36 -7.205,-2.678 -10.826,-3.959 v 0 c -3.896,-1.363 -7.788,-2.733 -11.715,-3.99 v 0 c -3.924,-1.258 -7.87,-2.463 -11.853,-3.445 v 0 c -0.997,-0.231 -1.992,-0.496 -2.994,-0.667 v 0 l -1.501,-0.287 c -0.498,-0.076 -0.997,-0.125 -1.495,-0.188 v 0 l -0.747,-0.091 -0.768,-0.033 -1.535,-0.064 c -1.018,-0.052 -2.058,-0.057 -3.086,-0.087 v 0 c -8.253,-0.192 -16.517,-0.265 -24.778,-0.395 v 0 l -24.787,-0.379 -24.789,-0.381 -24.788,-0.526 c -8.262,-0.195 -16.524,-0.388 -24.784,-0.675 v 0 c -8.259,-0.309 -16.522,-0.564 -24.77,-1.119 v 0 c 16.52,0.546 33.046,0.619 49.57,0.834 v 0 l 24.789,0.224 24.789,0.276 c 16.527,0.184 33.05,0.302 49.585,0.741 v 0 c 1.037,0.035 2.064,0.044 3.108,0.101 v 0 l 1.561,0.072 0.781,0.037 0.79,0.097 c 0.526,0.07 1.057,0.125 1.578,0.206 v 0 l 1.541,0.302 c 1.035,0.182 2.038,0.454 3.051,0.693 v 0 c 4.037,1.013 7.995,2.241 11.933,3.522 v 0 c 7.873,2.574 15.623,5.464 23.326,8.49 v 0 l 0.774,0.305 -0.595,0.568 c -1.77,1.685 -3.609,3.257 -5.549,4.732 v 0 c -0.974,0.73 -1.976,1.428 -3.02,2.07 v 0 c -1.043,0.638 -2.137,1.228 -3.336,1.617 v 0 l -0.447,0.149 -0.449,0.111 -0.897,0.218 c -0.6,0.107 -1.2,0.236 -1.8,0.325 v 0 c -1.202,0.19 -2.404,0.333 -3.607,0.468 v 0 c -2.407,0.252 -4.815,0.424 -7.225,0.572 v 0 c -4.817,0.287 -9.636,0.48 -14.455,0.664 v 0 c -4.818,0.189 -9.638,0.339 -14.457,0.494 v 0 z m 48.959,-8.065 c 2.752,-0.852 5.517,-1.662 8.283,-2.464 v 0 c 2.771,-0.789 5.544,-1.568 8.33,-2.306 v 0 c 2.782,-0.749 5.578,-1.451 8.387,-2.107 v 0 c -2.73,0.933 -5.472,1.821 -8.227,2.663 v 0 c -2.753,0.851 -5.518,1.662 -8.284,2.463 v 0 c -2.772,0.788 -5.545,1.568 -8.33,2.306 v 0 c -2.783,0.748 -5.578,1.451 -8.386,2.108 v 0 c 2.729,-0.933 5.471,-1.82 8.227,-2.663 m -128.725,-2.793 c -0.966,-0.238 -1.867,-0.567 -2.762,-0.919 v 0 c -0.892,-0.353 -1.775,-0.723 -2.645,-1.121 v 0 c -0.872,-0.389 -1.734,-0.801 -2.587,-1.231 v 0 c -0.855,-0.424 -1.708,-0.853 -2.543,-1.316 v 0 l 2.678,1.005 2.679,0.986 c 1.782,0.637 3.585,1.314 5.374,1.721 v 0 c 0.853,0.182 1.769,0.12 2.668,-0.02 v 0 c 0.904,-0.144 1.799,-0.401 2.677,-0.705 v 0 c 1.548,-0.528 3.056,-1.234 4.5,-2.014 v 0 c -0.847,-0.607 -1.818,-1.08 -2.816,-1.477 v 0 c -1.223,-0.478 -2.502,-0.832 -3.793,-1.143 v 0 c -2.589,-0.593 -5.239,-0.987 -7.907,-1.217 v 0 c 1.341,-0.033 2.683,0.029 4.022,0.13 v 0 c 1.341,0.097 2.678,0.257 4.008,0.495 v 0 c 1.329,0.235 2.648,0.556 3.94,1 v 0 c 1.287,0.448 2.559,1.032 3.667,1.934 v 0 l 0.483,0.394 -0.54,0.332 c -1.662,1.024 -3.404,1.846 -5.241,2.503 v 0 c -0.923,0.309 -1.87,0.572 -2.85,0.719 v 0 c -0.482,0.073 -0.976,0.121 -1.474,0.121 v 0 c -0.511,0 -1.026,-0.051 -1.538,-0.177 m 141.549,-8.142 c -4.936,-0.17 -9.863,-0.564 -14.765,-1.111 v 0 c -4.901,-0.562 -9.789,-1.228 -14.645,-2.073 v 0 c -9.718,-1.647 -19.357,-3.735 -28.853,-6.335 v 0 c 4.819,1.007 9.641,1.97 14.486,2.81 v 0 c 4.838,0.872 9.689,1.66 14.548,2.378 v 0 c 4.86,0.705 9.73,1.342 14.613,1.819 v 0 c 2.439,0.262 4.883,0.453 7.328,0.649 v 0 l 3.668,0.224 c 1.223,0.074 2.449,0.098 3.673,0.152 v 0 c 9.796,0.374 19.614,0.003 29.389,-0.904 v 0 c 9.775,-0.908 19.512,-2.319 29.239,-3.828 v 0 c -4.807,1.06 -9.643,1.982 -14.491,2.854 v 0 c -4.853,0.839 -9.729,1.568 -14.63,2.125 v 0 c -4.898,0.575 -9.821,0.957 -14.751,1.187 v 0 c -2.666,0.111 -5.334,0.163 -8.003,0.163 v 0 c -2.269,0 -4.538,-0.038 -6.806,-0.11 m 7.274,-16.216 c -4.388,-0.18 -8.758,-0.938 -12.919,-2.329 v 0 c -4.163,-1.375 -8.111,-3.389 -11.619,-5.971 v 0 c 3.722,2.261 7.717,4.005 11.85,5.235 v 0 c 4.138,1.219 8.421,1.917 12.724,2.074 v 0 c 4.303,0.161 8.628,-0.208 12.846,-1.112 v 0 c 4.217,-0.914 8.333,-2.337 12.232,-4.277 v 0 c -3.711,2.278 -7.801,3.977 -12.057,5.032 v 0 c -2.125,0.54 -4.295,0.904 -6.478,1.135 v 0 c -1.63,0.164 -3.268,0.238 -4.906,0.238 v 0 c -0.558,0 -1.116,-0.008 -1.673,-0.025 m -186.44,-1.298 -14.576,-0.138 c -4.859,-0.082 -9.718,-0.131 -14.578,-0.242 v 0 c 4.86,-0.112 9.719,-0.16 14.578,-0.242 v 0 l 14.576,-0.138 c 9.717,-0.082 19.436,-0.075 29.154,-0.116 v 0 c 9.717,0.039 19.435,0.035 29.153,0.114 v 0 l 14.576,0.139 c 4.859,0.082 9.718,0.13 14.577,0.243 v 0 c -4.859,0.112 -9.718,0.161 -14.577,0.243 v 0 l -14.576,0.138 c -9.718,0.08 -19.436,0.075 -29.153,0.115 v 0 c -9.718,-0.043 -19.437,-0.035 -29.154,-0.116 m -61.629,0.092 c -3.039,-0.127 -6.066,-0.659 -8.939,-1.646 v 0 c -2.875,-0.971 -5.59,-2.402 -7.976,-4.232 v 0 c 2.599,1.511 5.362,2.671 8.208,3.496 v 0 c 2.85,0.814 5.789,1.286 8.744,1.39 v 0 c 2.954,0.113 5.921,-0.132 8.825,-0.729 v 0 c 2.901,-0.608 5.744,-1.548 8.462,-2.832 v 0 c -2.53,1.623 -5.346,2.837 -8.287,3.587 v 0 c -2.576,0.673 -5.245,0.985 -7.912,0.985 v 0 c -0.375,0 -0.75,-0.006 -1.125,-0.019"
             style="fill:#ffffff;stroke:none"
             id="path822" /></g></g></g></g><text
     xml:space="preserve"
     style="font-style:italic;font-variant:normal;font-weight:800;font-stretch:normal;font-size:22.9159px;font-family:'Montserrat ExtraBold';-inkscape-font-specification:Montserrat-ExtraBoldItalic;writing-mode:lr-tb;fill:#ffffff;fill-opacity:1;fill-rule:nonzero;stroke:none;stroke-width:0.386104"
     id="text826"
     x="6.9967465"
     y="48.591503"
     transform="scale(0.98063001,1.0197526)"><tspan
       x="6.9967465 23.63368 41.64558 58.374165 72.925774 89.883553 107.89545 126.824"
       y="48.591503"
       sodipodi:role="line"
       id="tspan824"
       style="fill:#ffffff;stroke-width:0.386104">CARTRADE</tspan></text></svg>
