<?xml version="1.0" encoding="UTF-8" standalone="no"?>
<!-- Created with Inkscape (http://www.inkscape.org/) -->

<svg
   width="1277.0353"
   height="1015.735"
   viewBox="0 0 337.88224 268.74653"
   version="1.1"
   id="svg5"
   xml:space="preserve"
   inkscape:export-filename="pat1.svg"
   inkscape:export-xdpi="96"
   inkscape:export-ydpi="96"
   xmlns:inkscape="http://www.inkscape.org/namespaces/inkscape"
   xmlns:sodipodi="http://sodipodi.sourceforge.net/DTD/sodipodi-0.dtd"
   xmlns="http://www.w3.org/2000/svg"
   xmlns:svg="http://www.w3.org/2000/svg"><sodipodi:namedview
     id="namedview7"
     pagecolor="#ffffff"
     bordercolor="#000000"
     borderopacity="0.25"
     inkscape:showpageshadow="2"
     inkscape:pageopacity="0"
     inkscape:pagecheckerboard="0"
     inkscape:deskcolor="#d1d1d1"
     inkscape:document-units="px"
     showgrid="false" /><defs
     id="defs2" /><g
     inkscape:label="Layer 1"
     inkscape:groupmode="layer"
     id="layer1"
     transform="translate(181.53293,-32.637936)"><path
       style="fill:#000000;stroke-width:0.352778"
       d="m -135.18751,288.06303 c -6.18255,-1.73332 -7.15552,-11.28552 -1.46811,-14.41345 1.99376,-1.09652 4.70608,-1.29999 6.62748,-0.49718 2.37287,0.99145 3.92078,3.93863 3.69562,7.03635 l -0.10745,1.47829 -4.67431,0.0984 c -2.57087,0.0541 -4.6743,0.23117 -4.6743,0.3934 0,0.16223 0.32437,0.70734 0.72084,1.21136 1.01513,1.29054 2.74956,1.53131 5.35286,0.74309 2.07174,-0.62727 2.13777,-0.62672 2.61199,0.0218 0.26759,0.36594 0.48653,1.12019 0.48653,1.6761 0,0.85279 -0.23867,1.11632 -1.52719,1.68629 -2.06706,0.91436 -4.9687,1.1473 -7.04396,0.56549 z m 6.36629,-1.48254 c 1.23161,-0.50244 1.25021,-0.52861 0.94356,-1.32772 -0.17777,-0.46327 -0.3515,-0.46685 -1.39978,-0.0289 -3.57867,1.49527 -7.56948,-0.2354 -7.56948,-3.28259 v -1.15623 h 4.81164 4.81164 l -0.21493,-1.81479 c -0.48147,-4.06522 -3.37842,-5.98073 -7.36892,-4.87246 -1.89235,0.52555 -3.30546,1.86999 -3.9482,3.75633 -1.08096,3.17246 -0.5748,5.69234 1.5612,7.77219 1.84866,1.80008 5.32786,2.19653 8.37327,0.95413 z m -7.85427,-7.21453 c -0.40013,-0.64743 0.13822,-2.04009 1.15197,-2.98011 0.77174,-0.71559 1.32393,-0.89242 2.78678,-0.89242 1.61198,0 1.9328,0.12891 2.75631,1.10759 0.60219,0.71567 0.89416,1.43346 0.82511,2.02848 -0.10651,0.91769 -0.11924,0.92122 -3.69459,1.02109 -2.31452,0.0647 -3.67213,-0.0363 -3.82558,-0.28463 z m 6.32212,-1.13851 c -0.64816,-1.13933 -1.39654,-1.67569 -2.33808,-1.67569 -1.27577,0 -2.26155,0.50898 -2.74869,1.4192 -0.35754,0.66807 -0.25292,0.69747 2.48218,0.69747 2.18298,0 2.79638,-0.10386 2.60459,-0.44098 z m 18.95165,9.91293 c -1.69866,-0.48865 -2.99886,-1.55184 -3.96411,-3.24149 -0.67698,-1.18504 -0.83908,-1.97791 -0.8411,-4.1138 -0.005,-4.8959 2.30275,-7.74025 6.52681,-8.04579 1.38192,-0.1 2.40266,0.0243 3.11406,0.37924 0.66272,0.33061 1.18262,0.40363 1.39089,0.19536 0.18293,-0.18293 1.10881,-0.28331 2.05751,-0.22306 l 1.72491,0.10953 0.10018,6.70278 c 0.0551,3.68653 0.0124,7.05996 -0.0949,7.49653 -0.16076,0.65407 -0.43714,0.79375 -1.57063,0.79375 -1.77529,0 -2.48897,-0.28746 -2.5023,-1.00789 -0.01,-0.52246 -0.0454,-0.52011 -0.36254,0.0239 -0.36254,0.62188 -2.43723,1.35575 -3.68368,1.30302 -0.38806,-0.0164 -1.24084,-0.18383 -1.89508,-0.37204 z m 4.95637,-1.94728 c 0.81008,-0.77611 1.05956,-0.85526 1.51206,-0.47971 0.29806,0.24737 0.54193,0.66845 0.54193,0.93573 0,0.30479 0.39458,0.48597 1.05833,0.48597 h 1.05833 v -6.52639 -6.52639 h -0.93125 c -0.51218,0 -1.13269,0.27551 -1.37891,0.61223 -0.4208,0.57547 -0.53188,0.56489 -1.85081,-0.17639 -4.44981,-2.50093 -9.46481,1.57426 -8.73234,7.09591 0.39758,2.99712 1.95449,4.90512 4.52368,5.5438 1.67035,0.41524 3.10187,0.0863 4.19898,-0.96476 z m -5.13652,-1.5384 c -2.04586,-1.79628 -2.15628,-6.02782 -0.21163,-8.10958 0.8764,-0.93818 1.20802,-1.05169 3.07246,-1.05169 1.71803,0 2.2187,0.14127 2.81299,0.79375 1.17173,1.28645 1.51669,2.22652 1.51669,4.13327 0,3.55549 -1.41713,5.30353 -4.29956,5.30353 -1.35977,0 -1.90119,-0.20025 -2.89095,-1.06928 z m 4.8956,-0.7828 c 0.71617,-0.61826 0.96195,-1.22272 1.11171,-2.73403 0.16343,-1.64929 0.0674,-2.12344 -0.64018,-3.16156 -1.50854,-2.21318 -4.12197,-2.04407 -5.31983,0.34424 -1.97529,3.93839 1.76106,8.21655 4.8483,5.55135 z m 92.46165,4.15629 c -2.35061,-0.67304 -3.17736,-1.53862 -2.85808,-2.99231 0.32076,-1.46043 0.96218,-1.66689 2.95723,-0.95189 2.0265,0.72628 3.7023,0.74684 4.2785495,0.0525 0.61107,-0.7363 0.023,-1.35587 -1.8470395,-1.94586 -2.86363,-0.90348 -4.52794,-1.84165 -5.0467,-2.84482 -1.1811,-2.284 -0.13278,-5.2222 2.21291,-6.20229 1.56922,-0.65566 5.3996495,-0.51743 6.9695695,0.25153 1.23313,0.60398 1.47073,1.39291 0.86206,2.86237 -0.3789,0.91473 -0.56553,1.02644 -1.35416,0.81049 -1.54209,-0.42225 -4.7196195,-0.37731 -4.8706095,0.0689 -0.078,0.23051 0.75408,0.74195 1.90882,1.17325 4.5997395,1.71801 5.3984795,2.50177 5.3984795,5.29725 0,1.87359 -0.79474,3.37335 -2.16233,4.08056 -1.5096,0.78065 -4.3815395,0.93221 -6.4486995,0.34032 z m 6.0691395,-1.45854 c 1.50608,-0.98568 1.97078,-3.69686 0.8662,-5.05355 -0.33955,-0.41705 -1.72861,-1.16061 -3.0868095,-1.65237 -2.82991,-1.02461 -3.70416,-1.68411 -3.70416,-2.79428 0,-1.3329 0.80674,-1.66052 3.75425,-1.52464 3.1543695,0.14543 3.8522095,-0.41536 1.6578295,-1.33223 -1.7414695,-0.72763 -5.1489595,-0.47637 -6.1841895,0.456 -1.68824,1.52053 -1.58834,3.99347 0.20613,5.10204 0.60233,0.3721 1.96827,0.92984 3.03542,1.23942 2.3002595,0.6673 3.1749995,1.34935 3.1749995,2.47556 0,2.05572 -2.7536695,2.85361 -5.9528695,1.72486 -1.37844,-0.48634 -1.45546,-0.47766 -1.45546,0.16398 0,1.79773 5.46901,2.64788 7.6886595,1.19521 z m 17.83137,1.65897 c -3.22954,-0.82814 -5.36105,-3.31369 -5.65582,-6.59524 -0.25643,-2.85463 0.35623,-4.83629 2.06999,-6.6955 1.54096,-1.67175 2.9886,-2.26148 5.5592805,-2.26471 3.82969,-0.005 6.5363,3.04223 6.30495,7.09796 l -0.10815,1.89591 -4.67431,0.0984 c -2.57087,0.0541 -4.6743005,0.18364 -4.6743005,0.28778 0,0.59605 0.86264,1.61718 1.7568205,2.07958 1.32344,0.68437 2.15236,0.67105 4.51121,-0.0725 1.85596,-0.58504 1.93682,-0.58278 2.41226,0.0674 0.27056,0.37001 0.49193,1.12758 0.49193,1.68349 0,0.86116 -0.23887,1.11641 -1.61398,1.72469 -1.82107,0.80555 -4.71461,1.11971 -6.3798805,0.69269 z m 4.0571005,-1.11443 c 2.13347,-0.45755 2.99257,-1.03505 2.69466,-1.81138 -0.19887,-0.51827 -0.34762,-0.52653 -1.41898,-0.0789 -3.70976,1.55004 -7.5694805,-0.27534 -7.5694805,-3.57985 v -0.85898 h 4.7625005 4.7625 v -0.84143 c 0,-0.46279 -0.2649,-1.66167 -0.58868,-2.6642 -0.69837,-2.16236 -1.8438,-3.10887 -4.14373,-3.42411 -4.3788005,-0.60018 -7.6956705,3.05133 -7.1002905,7.81662 0.31461,2.51803 2.31907,4.91244 4.52674,5.40738 2.0374005,0.45678 2.1046605,0.45735 4.0747605,0.0348 z m -6.0470505,-7.61105 c -0.53725,-0.53726 -0.19073,-1.54943 0.94144,-2.74987 1.05722,-1.12099 1.3842605,-1.25984 2.9672505,-1.25984 1.56125,0 1.89317,0.1356 2.71105,1.10759 0.60219,0.71567 0.89416,1.43346 0.82511,2.02848 -0.10641,0.91684 -0.1224,0.92131 -3.65248,1.02063 -1.9500905,0.0549 -3.6566605,-0.0113 -3.7923705,-0.14699 z m 6.2468005,-1.27569 c -1.27046,-2.2332 -3.44207,-2.30897 -5.0547505,-0.17639 -0.43535,0.5757 -0.27208,0.61737 2.4193805,0.61737 2.2076,0 2.82726,-0.10369 2.63537,-0.44098 z m 75.51989,9.84667 c -2.17823,-0.71266 -3.15404,-1.50161 -4.17312,-3.37398 -1.69477,-3.11386 -1.10187,-8.01779 1.22838,-10.16002 2.12852,-1.95678 6.24312,-2.47343 9.01437,-1.13189 1.25682,0.60842 1.52249,0.90939 1.52249,1.7248 0,0.54329 -0.28729,1.34257 -0.63842,1.7762 -0.60919,0.75232 -0.6879,0.76283 -1.71918,0.22953 -2.45778,-1.27097 -4.75149,-0.68381 -5.6405,1.44388 -1.58581,3.79539 1.83357,7.46447 5.17588,5.55384 0.48506,-0.27729 1.13427,-0.50979 1.44267,-0.51666 0.63405,-0.0142 1.37955,1.38256 1.37955,2.58459 0,1.63436 -4.74201,2.80217 -7.59212,1.86971 z m 5.69781,-1.37694 c 0.91436,-0.41661 0.97398,-0.56197 0.52266,-1.27421 -0.23227,-0.36654 -0.47137,-0.38702 -1.02974,-0.0882 -1.16767,0.62492 -3.6494,0.46144 -4.93998,-0.3254 -2.68336,-1.636 -2.98471,-6.38946 -0.54821,-8.64753 0.75006,-0.69513 1.30936,-0.86842 2.80285,-0.86842 1.02619,0 2.2595,0.14968 2.74069,0.33263 0.68158,0.25914 0.92186,0.21026 1.08743,-0.22121 0.29099,-0.75831 -0.71881,-1.44072 -2.5533,-1.72551 -4.56425,-0.70854 -7.82976,2.03091 -7.82976,6.56843 0,4.41967 3.14102,7.32642 7.36611,6.81672 0.84991,-0.10253 1.92147,-0.35782 2.38125,-0.56731 z m 16.33793,1.32552 c -2.04445,-0.65687 -4.10214,-2.69547 -4.60818,-4.56544 -0.21395,-0.79059 -0.31214,-2.52307 -0.2182,-3.84996 0.13583,-1.91856 0.37862,-2.70753 1.18581,-3.85347 2.59251,-3.68048 8.45669,-4.21601 11.14762,-1.01802 1.00164,1.19039 1.82852,4.16713 1.63137,5.87289 l -0.12232,1.05834 -4.67431,0.0984 c -2.57086,0.0541 -4.6743,0.24373 -4.6743,0.4213 0,0.17758 0.35743,0.73841 0.7943,1.2463 1.03351,1.20153 3.1415,1.51376 4.99404,0.73972 1.91079,-0.79838 2.63812,-0.71716 3.03983,0.33943 0.65613,1.72574 0.43683,2.26873 -1.2106,2.99746 -2.11661,0.93628 -5.27537,1.15873 -7.28506,0.51302 z m 6.59612,-1.46909 c 0.82359,-0.38695 1.06192,-0.6959 0.92899,-1.20422 -0.21379,-0.81753 -0.0745,-0.80432 -1.6296,-0.15458 -1.759,0.73496 -4.05878,0.66614 -5.41714,-0.1621 -1.33093,-0.81152 -2.34862,-2.58733 -2.04001,-3.55969 0.2022,-0.63707 0.56865,-0.68793 4.95707,-0.68793 5.41547,0 5.32196,0.0735 4.17805,-3.2837 -1.66592,-4.88919 -8.15858,-5.03863 -10.60415,-0.24408 -1.51295,2.96614 -0.74269,7.12295 1.6334,8.81487 2.00921,1.43069 5.52261,1.64229 7.99339,0.48143 z m -7.85706,-7.34994 c -0.28787,-0.75017 0.51356,-2.56841 1.40832,-3.19513 0.41156,-0.28827 1.52825,-0.51511 2.53572,-0.51511 2.16232,0 3.36727,1.00427 3.45545,2.87994 l 0.0553,1.177 -3.62228,0.1006 c -3.01202,0.0837 -3.65771,0.008 -3.83254,-0.4473 z m 6.13892,-1.32899 c -0.286,-0.43657 -0.93576,-0.99865 -1.44391,-1.24907 -0.77545,-0.38217 -1.09392,-0.36741 -1.98201,0.0918 -0.58196,0.30094 -1.22714,0.86302 -1.43375,1.24907 -0.36072,0.67403 -0.26134,0.70191 2.50202,0.70191 h 2.87766 z m 18.24923,10.43849 c -3.40615,-0.7299 -4.47303,-1.80164 -3.73246,-3.74949 0.41762,-1.09842 1.12331,-1.19984 2.97249,-0.4272 1.5966,0.6671 3.074,0.67516 3.95574,0.0216 0.60836,-0.45096 0.62573,-0.56617 0.15562,-1.03234 -0.29104,-0.2886 -1.53815,-0.86127 -2.77135,-1.27261 -3.03768,-1.01321 -3.85602,-1.61638 -4.32736,-3.18958 -0.83959,-2.80232 0.63519,-5.32154 3.42128,-5.84422 1.70724,-0.32028 4.69677,-0.0276 5.96617,0.58409 1.23317,0.59424 1.47114,1.38358 0.86111,2.85632 -0.39902,0.96332 -0.54287,1.03778 -1.53055,0.79227 -1.67795,-0.41709 -4.53741,-0.37407 -4.68824,0.0705 -0.0736,0.21691 0.78526,0.7561 1.90855,1.19821 4.8085,1.89258 5.39372,2.48208 5.39372,5.43318 0,3.31796 -3.51559,5.43122 -7.58472,4.55926 z m 3.58415,-1.22907 c 1.18167,-0.29755 1.77927,-0.69199 2.27156,-1.49931 1.42191,-2.33181 0.53891,-4.40233 -2.33615,-5.47803 -1.07719,-0.40303 -2.08991,-0.73278 -2.25049,-0.73278 -0.70504,0 -2.15101,-1.52964 -2.15101,-2.27547 0,-1.38073 0.80482,-1.71414 3.69075,-1.52893 1.98219,0.12721 2.66941,0.0534 2.8055,-0.30123 0.30744,-0.80118 -1.27048,-1.34814 -3.9102,-1.35544 -2.18243,-0.006 -2.65152,0.10792 -3.42128,0.83107 -1.07208,1.00717 -1.43765,2.40932 -0.95745,3.67235 0.38397,1.0099 2.1439,2.05617 4.5473,2.70334 2.6738,0.71998 3.63944,2.44358 2.18426,3.89876 -0.8546,0.8546 -3.11833,0.94318 -5.21338,0.204 -1.31481,-0.46389 -1.43414,-0.4534 -1.58921,0.1396 -0.18785,0.71831 0.70024,1.32088 2.61192,1.77219 1.7032,0.4021 1.93432,0.39898 3.71788,-0.0501 z m -306.23646,0.84636 c -0.11408,-0.11407 -0.20741,-4.86407 -0.20741,-10.55555 v -10.34815 h 2.11667 2.11666 v 4.06814 4.06814 l 4.14514,-0.0994 4.14514,-0.0994 0.0705,-3.35139 c 0.0388,-1.84326 0.0785,-3.63713 0.0882,-3.98635 0.0153,-0.54847 0.294,-0.62056 2.04615,-0.52917 l 2.02847,0.1058 0.0935,10.31069 0.0935,10.3107 -0.83845,0.21043 c -0.46114,0.11574 -1.37635,0.15906 -2.03379,0.0962 l -1.19534,-0.11418 -0.099,-4.32153 -0.0991,-4.32153 h -4.21162 -4.21161 l -0.0991,4.32153 -0.0991,4.32153 -1.82107,0.0604 c -1.00158,0.0332 -1.91439,-0.0329 -2.02847,-0.147 z m 2.97147,-3.88217 c 0.002,-1.69775 0.10297,-3.68635 0.22407,-4.41912 l 0.22019,-1.33231 4.9794,0.0976 4.9794,0.0976 0.0991,4.32152 0.0991,4.32153 h 1.04748 1.04748 v -9.525 -9.525 h -1.03457 c -1.32582,0 -1.52233,0.61299 -1.3933,4.34619 0.0551,1.59504 -0.0204,3.09528 -0.16788,3.33388 -0.37072,0.59984 -9.08214,0.60927 -9.68092,0.0105 -0.27446,-0.27446 -0.42333,-1.70117 -0.42333,-4.05695 v -3.63361 h -1.05834 -1.05833 v 9.525 9.525 h 1.05833 1.05834 l 0.004,-3.0868 z m 75.19438,3.82734 c -0.32355,-0.19997 -0.52939,-9.94629 -0.42021,-19.89634 0.0107,-0.97849 0.0298,-0.98675 2.03931,-0.88194 l 2.02847,0.1058 0.0938,10.03092 c 0.0598,6.39157 -0.0351,10.15983 -0.26149,10.38622 -0.4181,0.4181 -2.91954,0.60164 -3.47988,0.25534 z m 2.76563,-10.26554 v -9.525 h -1.05834 -1.05833 v 9.525 9.525 h 1.05833 1.05834 z m 15.875,10.28479 c -2.67985,-0.70075 -3.28988,-1.99138 -3.46784,-7.33698 -0.15052,-4.52115 -0.17121,-4.57501 -1.68857,-4.39606 -0.67058,0.0791 -1.25009,-0.93042 -1.13089,-1.97 0.10212,-0.89057 0.26438,-1.00242 1.59445,-1.09904 l 1.48077,-0.10758 0.10673,-1.62874 c 0.10323,-1.57524 0.15637,-1.64522 1.61768,-2.13056 2.18154,-0.72455 2.546,-0.46296 2.546,1.82738 v 1.93202 l 1.6757,0.10753 c 1.55324,0.0997 1.68415,0.18155 1.79146,1.12063 0.14824,1.29716 -0.20587,1.62721 -1.90887,1.77919 l -1.3819,0.12332 -0.10094,3.60596 c -0.11602,4.14473 0.0883,4.59092 2.10285,4.59092 h 1.38635 l -0.10663,1.85208 -0.10663,1.85209 -1.76389,0.0542 c -0.97014,0.0298 -2.16076,-0.0496 -2.64583,-0.17639 z m 3.52778,-1.64173 c 0,-0.72906 -0.16987,-0.88195 -0.97984,-0.88195 -0.53892,0 -1.33267,-0.24712 -1.76389,-0.54917 -0.74155,-0.5194 -0.78405,-0.79671 -0.78405,-5.11527 0,-4.94059 -0.15683,-4.55641 1.94028,-4.7529 0.38805,-0.0364 0.90399,-0.0886 1.14652,-0.11605 0.24254,-0.0275 0.44098,-0.20869 0.44098,-0.40272 0,-0.19403 -0.70501,-0.35278 -1.56668,-0.35278 -0.86168,0 -1.68294,-0.1881 -1.82504,-0.41802 -0.14209,-0.22991 -0.24434,-1.18241 -0.22722,-2.11666 0.0171,-0.93426 -0.0273,-1.69865 -0.0986,-1.69865 -0.0714,0 -0.53412,0.18423 -1.02832,0.40941 -0.75686,0.34484 -0.89854,0.64484 -0.89854,1.90253 0,1.62441 -0.33617,1.92139 -2.17492,1.92139 -1.5316,0 -1.07707,0.85593 0.52649,0.99144 l 1.29565,0.10949 0.0271,3.94745 c 0.0346,5.04491 0.46699,6.56866 2.09581,7.38649 0.67566,0.33925 1.82378,0.61706 2.55138,0.61737 1.17608,3.5e-4 1.32292,-0.0974 1.32292,-0.8814 z m 11.37156,1.64606 c -0.34692,-0.22021 -0.42559,-2.55945 -0.35277,-10.48974 l 0.0937,-10.20632 2.02847,-0.1058 2.02847,-0.1058 v 3.35099 3.351 l 1.22339,-0.51117 c 2.87937,-1.20308 5.89959,-0.34719 7.26661,2.05925 0.76303,1.34322 0.85734,1.9887 0.97831,6.69556 0.0971,3.77818 0.0145,5.35285 -0.3007,5.73264 -0.45014,0.54238 -2.68977,0.70972 -3.39441,0.25362 -0.25632,-0.16591 -0.44896,-2.0514 -0.53529,-5.23942 -0.15041,-5.55383 -0.36435,-6.13226 -2.26822,-6.13226 -0.82994,0 -1.44164,0.28514 -2.07347,0.96653 -0.86536,0.93326 -0.89622,1.1263 -0.89622,5.6067 0,5.08931 0.007,5.07386 -2.23371,5.06303 -0.61472,-0.003 -1.3186,-0.13293 -1.56416,-0.28881 z m 2.73955,-5.33795 v -4.57384 l 1.09487,-1.247 c 0.99663,-1.13509 1.26393,-1.24699 2.97861,-1.24699 2.8029,0 2.98207,0.39685 2.98207,6.60488 v 5.03678 h 1.27395 1.27396 l -0.13098,-5.02708 c -0.11632,-4.46436 -0.21978,-5.17052 -0.92429,-6.30849 -0.43633,-0.70478 -1.27116,-1.47934 -1.8552,-1.72126 -1.42445,-0.59003 -3.74495,-0.23713 -4.76944,0.72532 -1.52779,1.43529 -1.92355,0.7811 -1.92355,-3.17964 v -3.53885 h -1.05834 -1.05833 v 9.525 9.525 h 1.05833 1.05834 z m 82.99097,5.3832 c -0.78728,-0.15164 -0.79423,-0.20731 -0.85255,-6.83113 -0.0324,-3.67303 -0.072,-6.95605 -0.0882,-7.2956 -0.0245,-0.51474 0.33709,-0.63482 2.17546,-0.72239 1.39727,-0.0666 2.20486,0.0333 2.20486,0.27272 0,0.21851 0.35964,0.1421 0.85313,-0.18125 0.53844,-0.3528 1.41681,-0.51846 2.38125,-0.44911 l 1.52812,0.10989 v 1.76389 1.76389 l -1.63708,0.10595 c -2.67887,0.17336 -2.92803,0.69062 -3.06614,6.36519 -0.0771,3.16744 -0.25793,4.90143 -0.52917,5.07398 -0.43084,0.27409 -1.62124,0.28369 -2.96969,0.024 z m 2.38125,-5.05403 c 0,-5.94694 0.86156,-7.63928 3.79236,-7.44924 1.01114,0.0656 1.14653,-0.0311 1.14653,-0.81866 0,-1.21533 -1.34073,-1.20351 -2.80037,0.0247 -1.12095,0.94321 -2.13852,0.93148 -2.13852,-0.0247 0,-0.36508 -0.34314,-0.54024 -1.05833,-0.54024 h -1.05834 v 6.52639 6.52639 h 1.05834 1.05833 z m 19.49964,5.01755 c -0.61879,-0.39312 -6.16668,-13.83319 -5.94675,-14.40632 0.12546,-0.32697 0.83941,-0.47768 2.26281,-0.47768 h 2.07951 l 1.69743,4.65978 1.69742,4.65978 1.30178,-3.8884 c 1.86086,-5.55842 1.76633,-5.43116 4.03447,-5.43116 1.04888,0 2.00331,0.15575 2.12096,0.34612 0.25309,0.40951 -5.3763,14.17567 -5.95129,14.55334 -0.52183,0.34275 -2.74893,0.33231 -3.29634,-0.0154 z m 2.72536,-0.88763 c 0,-0.0631 1.19062,-2.95362 2.64583,-6.42335 1.45521,-3.46973 2.64584,-6.36503 2.64584,-6.434 0,-0.069 -0.50482,-0.0756 -1.12181,-0.0148 -1.10476,0.10887 -1.14692,0.18294 -2.77383,4.87305 -2.31275,6.66727 -2.36012,6.65243 -5.34299,-1.67362 -1.14757,-3.20321 -1.18868,-3.26116 -2.31485,-3.2632 -0.63059,-10e-4 -1.14652,0.09 -1.14652,0.20263 0,0.11259 0.87312,2.25697 1.94027,4.76529 1.06716,2.50832 1.94028,4.62555 1.94028,4.70494 0,0.0794 0.31186,0.87189 0.69302,1.7611 0.60577,1.4132 0.82784,1.61675 1.76389,1.61675 0.58898,0 1.07087,-0.0516 1.07087,-0.11475 z m 16.30847,0.87763 c -0.34412,-0.2184 -0.42621,-1.96151 -0.35278,-7.49112 l 0.0957,-7.20649 1.72976,-0.10973 c 1.14495,-0.0726 1.82892,0.0466 2.02307,0.35278 0.48423,0.76357 0.37549,13.83196 -0.11922,14.32667 -0.4775,0.4775 -2.69346,0.56143 -3.37653,0.12789 z m 2.38875,-7.28928 v -6.52639 h -0.88194 -0.88195 v 6.52639 6.52639 h 0.88195 0.88194 z m -2.20486,-9.60032 c -0.49335,-0.12211 -0.61736,-0.53736 -0.61736,-2.06721 v -1.91441 h 1.90253 c 1.40943,0 1.95804,0.14463 2.11667,0.55802 0.30132,0.78522 0.26687,2.89576 -0.0505,3.09044 -0.44301,0.27178 -2.6949,0.49564 -3.35139,0.33316 z m 2.20968,-1.07121 c 0.003,-0.14552 0.10054,-0.62177 0.21753,-1.05833 0.18729,-0.69886 0.0813,-0.79375 -0.88676,-0.79375 -0.91665,0 -1.09948,0.13688 -1.09948,0.82315 0,0.45273 0.10584,0.92898 0.23519,1.05833 0.32138,0.32139 1.52755,0.29826 1.53352,-0.0294 z m -181.57289,-16.47119 c -4.69768,-1.06879 -9.31885,-4.31233 -11.53736,-8.09794 -0.52653,-0.89847 -1.38126,-2.70312 -1.8994,-4.01034 -0.88681,-2.23737 -0.94207,-2.7182 -0.94207,-8.19761 0,-5.5054 0.052,-5.95216 0.95961,-8.2442 2.1303,-5.37981 5.34155,-9.12498 9.54372,-11.13049 2.94716,-1.40655 5.08639,-1.86662 8.87829,-1.90939 3.7858,-0.0427 6.37383,0.64599 8.95491,2.38293 1.75293,1.17963 2.3813,1.19738 1.94288,0.0549 -0.50691,-1.32098 0.44085,-1.61484 5.20817,-1.61484 4.37992,0 4.56535,0.0299 4.84344,0.78167 0.15903,0.42992 0.27298,9.43898 0.25321,20.02014 l -0.0359,19.23847 -5.20347,0.0976 -5.20347,0.0976 v -2.06563 -2.06562 l -1.63837,1.56983 c -2.48323,2.37935 -4.87172,3.32807 -8.73784,3.47072 -1.92309,0.071 -4.0782,-0.0802 -5.38631,-0.37783 z m 9.9346,-1.62809 c 0.96624,-0.435 2.66744,-1.6595 3.78043,-2.72112 2.53976,-2.42252 3.03391,-2.31451 3.17672,0.69436 l 0.10549,2.22257 3.96875,0.042 3.96875,0.042 V 232.92593 213.7342 l -3.96875,0.0998 -3.96875,0.0998 -0.10663,1.85208 c -0.0587,1.01865 -0.27345,1.85209 -0.47734,1.85209 -0.20388,0 -1.15577,-0.70584 -2.11529,-1.56854 -2.4369,-2.19099 -5.01217,-3.11512 -8.76602,-3.1457 -6.97413,-0.0568 -12.63529,2.96242 -16.01624,8.54186 -1.9886,3.28169 -2.76302,6.05725 -2.95558,10.59289 -0.29697,6.99496 1.55168,12.16463 5.76292,16.11578 4.51193,4.23327 12.60619,5.91712 17.61154,3.66373 z m -7.96357,-6.12175 c -2.49605,-0.95788 -3.43701,-1.62357 -4.64361,-3.28519 -1.99901,-2.75285 -2.5588,-4.91991 -2.53151,-9.80003 0.03,-5.36569 0.77385,-7.54631 3.50619,-10.27865 2.12704,-2.12704 4.29912,-2.95051 7.78255,-2.95051 4.64723,0 7.77167,1.89559 9.75124,5.91605 1.14592,2.32733 1.16135,2.42437 1.16135,7.30533 0,5.55152 -0.43109,7.30616 -2.49309,10.14756 -1.716,2.36461 -3.74502,3.22035 -7.91386,3.33767 -2.21162,0.0622 -3.78258,-0.0711 -4.61926,-0.39223 z m 7.92972,-0.99281 c 1.93438,-0.57445 4.44204,-3.13098 5.2866,-5.38963 0.42378,-1.13334 0.72326,-3.10821 0.83776,-5.5245 0.221,-4.664 -0.56836,-7.7568 -2.5794,-10.10624 -2.06716,-2.41501 -3.6418,-3.06758 -7.38458,-3.06035 -2.83007,0.005 -3.37546,0.11654 -5.02013,1.02242 -3.41488,1.8809 -5.38682,6.03782 -5.38682,11.35563 0,5.90685 2.97531,10.79422 7.18192,11.79735 1.77422,0.42309 5.48876,0.37331 7.06465,-0.0947 z m 109.78128,8.9006 c -6.9694205,-1.26228 -11.59079047,-4.68324 -14.6465105,-10.84207 -1.48348,-2.98999 -2.12554,-6.01424 -2.13168,-10.04085 -0.0145,-9.51715 4.39711,-16.40716 12.51966,-19.55303 2.10843,-0.81659 3.13664,-0.97817 7.0542905,-1.10859 6.50622,-0.21659 9.9252,0.66581 13.83562,3.57082 1.06474,0.79098 1.48644,1.35675 1.48153,1.98766 -0.01,1.26159 -2.94571,6.19774 -3.614,6.07628 -0.29452,-0.0535 -1.42777,-0.63462 -2.51832,-1.29132 -1.09056,-0.6567 -2.78642,-1.38678 -3.7686,-1.62239 -2.54122,-0.60964 -6.5276,-0.281 -8.567,0.70626 -4.6711905,2.26128 -7.0943605,9.69319 -5.1731305,15.8661 1.54743,4.9719 5.3114205,7.82034 10.3601605,7.84014 3.23206,0.0127 4.83981,-0.41845 7.47253,-2.00379 1.1475,-0.69099 2.32804,-1.2098 2.62344,-1.15291 0.80488,0.15501 3.42481,6.55981 2.98124,7.28809 -0.50519,0.82944 -5.63508,3.33866 -7.89207,3.86029 -2.55569,0.59067 -7.84789,0.8122 -10.01716,0.41931 z m 10.2041,-1.56585 c 2.06673,-0.5623 5.01848,-1.8912 6.26835,-2.82206 0.59369,-0.44217 0.58822,-0.54794 -0.11317,-2.18419 -1.69139,-3.94586 -1.78614,-4.08505 -2.40909,-3.5387 -3.07704,2.69867 -10.16623,3.51045 -14.428,1.65214 -2.4352905,-1.06188 -4.6706805,-3.55793 -5.7606205,-6.43235 -0.71331,-1.88116 -0.83735,-2.81586 -0.80974,-6.102 0.0399,-4.75116 0.85445,-7.22021 3.21413,-9.7429 2.17413,-2.32433 4.1768105,-3.18675 7.9009805,-3.40244 3.41521,-0.19781 6.43596,0.56289 8.90928,2.24355 0.73683,0.50069 1.38107,0.85655 1.43165,0.79079 0.0506,-0.0658 0.70386,-1.12481 1.45175,-2.35346 1.62943,-2.67688 1.56209,-2.872 -1.62941,-4.72153 -3.23136,-1.87262 -6.06852,-2.53888 -10.72889,-2.5195 -3.44262,0.0143 -4.20632,0.13802 -6.7671505,1.09623 -7.23134997,2.70579 -11.03027,7.4119 -12.31664,15.25787 -1.3698,8.35487 2.39081,17.1126 8.96603,20.88012 3.52608,2.02041 6.7316705,2.78333 10.9997005,2.61789 2.0373,-0.079 4.65667,-0.40273 5.82084,-0.71946 z m 26.61729,1.54163 c -4.80137,-0.70691 -8.90277,-3.08524 -11.74771,-6.81231 -2.63017,-3.44572 -3.75265,-6.92266 -4.00429,-12.40351 -0.16307,-3.55153 -0.0776,-4.70819 0.52395,-7.0868 1.62025,-6.40722 5.03118,-10.98056 9.94648,-13.33615 3.41056,-1.63447 5.72059,-2.06746 10.20765,-1.91331 3.21592,0.11049 4.01325,0.26481 5.74286,1.11153 1.10465,0.54078 2.48595,1.42929 3.06956,1.97445 l 1.0611,0.99122 0.10544,-1.62473 0.10544,-1.62473 h 4.7625 4.7625 l 0.17639,19.7014 c 0.097,10.83578 0.0848,19.8495 -0.0272,20.0305 -0.11504,0.18594 -2.33999,0.28622 -5.11527,0.23053 l -4.91169,-0.0985 -0.10598,-2.03441 -0.10598,-2.0344 -0.86506,1.02806 c -2.81958,3.35088 -7.73263,4.76221 -13.58069,3.9012 z m 8.59598,-1.70173 c 0.93467,-0.4078 2.6159,-1.61566 3.73607,-2.68412 2.75141,-2.6244 3.14782,-2.57139 3.27968,0.43859 l 0.10431,2.38125 h 4.05694 4.05695 v -19.05 -19.05 h -4.05695 -4.05694 l -0.10663,1.85208 c -0.0594,1.03176 -0.27631,1.85209 -0.48972,1.85209 -0.21069,0 -1.08692,-0.64878 -1.94717,-1.44173 -6.18374,-5.69998 -18.13101,-3.91428 -23.80757,3.55839 -2.69934,3.55344 -4.22982,8.37988 -4.25094,13.40556 -0.0495,11.77337 7.90368,20.07549 18.78398,19.60815 2.03908,-0.0876 3.5424,-0.36606 4.69799,-0.87026 z m -7.8838,-6.20441 c -1.96304,-0.63283 -4.29206,-2.57591 -5.44437,-4.54218 -2.53088,-4.31862 -2.52064,-12.38702 0.0212,-16.72439 1.24442,-2.12345 3.95803,-4.17167 6.14958,-4.64167 6.32457,-1.35638 11.40449,0.96833 13.42318,6.14282 0.71692,1.83766 0.82762,2.74441 0.83985,6.87916 0.012,4.05879 -0.0996,5.06322 -0.75516,6.79766 -1.02067,2.7003 -2.59061,4.61454 -4.57074,5.5731 -2.09046,1.01197 -7.26695,1.28811 -9.66357,0.5155 z m 8.20579,-1.12607 c 3.74412,-1.17419 5.94968,-5.54179 5.93467,-11.75231 -0.012,-4.98134 -0.97766,-7.67047 -3.63337,-10.11841 -2.67677,-2.46737 -7.84928,-2.96991 -11.48261,-1.11562 -4.38597,2.23841 -6.60257,9.96296 -4.66191,16.24611 1.94009,6.28128 7.17661,8.83093 13.84322,6.74023 z m 65.35918,9.06161 c -8.21135,-1.17793 -14.52338,-6.64439 -16.60569,-14.38117 -0.66779,-2.48113 -0.75458,-9.18273 -0.15295,-11.8096 0.786,-3.43187 2.94996,-7.3801 5.4174,-9.88425 3.84551,-3.90271 8.09946,-5.54944 14.35393,-5.55648 6.1471,-0.007 9.89359,1.38422 13.06091,4.84977 1.89307,2.07132 3.59952,5.31727 4.22337,8.03354 0.531,2.312 1.01777,7.91547 0.79077,9.10295 l -0.17971,0.94011 h -13.74524 -13.74524 l 0.22722,1.14653 c 0.79685,4.02094 2.55173,6.53244 5.54885,7.94125 4.63762,2.17995 10.68986,1.53577 16.44841,-1.75069 2.26879,-1.29482 2.36939,-1.22776 3.70928,2.47268 1.20835,3.33711 1.19112,4.06979 -0.11758,5.00167 -1.54911,1.10306 -5.21318,2.69448 -7.66883,3.3308 -2.62575,0.6804 -8.68866,0.9755 -11.5649,0.56289 z m 11.99444,-1.79219 c 1.3582,-0.42009 3.55148,-1.34142 4.87396,-2.0474 2.7319,-1.45837 2.71198,-1.37445 1.23908,-5.21998 -0.79072,-2.06445 -0.86693,-2.14659 -1.53229,-1.6515 -4.67597,3.47935 -13.76391,4.34849 -18.71015,1.78937 -1.87254,-0.96883 -3.95432,-3.55391 -4.51871,-5.61116 -1.11871,-4.0778 -0.95032,-5.32787 0.69762,-5.17888 0.36541,0.0331 6.4426,0.0349 13.50487,0.004 l 12.84048,-0.0559 -0.22005,-2.85345 c -0.45565,-5.90881 -2.24133,-10.63179 -5.17757,-13.69422 -4.65744,-4.85762 -13.6882,-5.94853 -20.69433,-2.49987 -10.47303,5.1552 -13.9363,19.98189 -7.02295,30.06615 2.67994,3.90914 7.26437,6.74666 12.41588,7.68478 2.88928,0.52616 9.50967,0.13223 12.30416,-0.73212 z m -19.10038,-23.7962 c -0.35429,-0.92325 1.34877,-4.46774 2.85227,-5.9363 2.27077,-2.21798 4.05446,-2.87518 7.80911,-2.87727 2.94976,-0.002 3.33885,0.0824 4.92719,1.06441 0.94849,0.5864 2.1649,1.69765 2.70314,2.46944 1.07197,1.53713 2.22053,4.88819 1.86987,5.45557 -0.14065,0.22758 -3.80544,0.35741 -10.08892,0.35741 -8.47979,0 -9.89682,-0.075 -10.07266,-0.53326 z m 19.01067,-0.37657 c 0.43399,-0.43399 -0.91032,-3.35833 -2.23631,-4.86473 -1.86825,-2.12245 -3.79319,-2.84129 -6.99503,-2.6122 -2.89084,0.20684 -5.02322,1.29247 -6.702,3.41209 -0.94085,1.18792 -2.145,3.47911 -2.145,4.08139 0,0.25609 17.82203,0.23977 18.07834,-0.0165 z m -301.00612,-2.92958 c 0,-26.55467 0.0356,-28.18855 0.61736,-28.31042 0.33955,-0.0711 6.57049,-0.0344 13.84653,0.0816 14.42405,0.22994 14.93191,0.29444 19.31846,2.45394 2.90199,1.42864 5.08991,4.10017 6.12658,7.48076 1.03201,3.36541 0.83251,10.36161 -0.38408,13.46966 -1.51307,3.86544 -5.02896,6.54189 -10.5427,8.02555 -2.21052,0.59481 -4.12369,0.7582 -10.54951,0.90096 l -7.8493,0.17439 v 11.95234 11.95234 h -5.29167 -5.29167 z m 9.52467,15.61246 c 2.5e-4,-8.92341 0.1046,-11.77106 0.44131,-12.04365 0.25149,-0.20359 3.77573,-0.43292 8.20208,-0.53371 10.5474,-0.24018 14.29703,-1.26769 17.9243,-4.91177 2.44593,-2.45726 3.42238,-5.26056 3.45648,-9.92317 0.0668,-9.12996 -3.70992,-13.47466 -13.0905,-15.05936 -1.71376,-0.28951 -6.62269,-0.46022 -13.93473,-0.4846 l -11.28888,-0.0376 -0.0904,27.2258 c -0.0853,25.70884 -0.0558,27.23546 0.52916,27.39907 0.34074,0.0953 2.24657,0.14681 4.23517,0.11448 l 3.61564,-0.0588 z m 0.36552,-20.21653 c -0.21671,-0.40494 -0.36519,-3.54276 -0.36519,-7.71791 0,-5.86607 0.0892,-7.10956 0.53648,-7.48079 0.75271,-0.62469 13.01001,-0.25289 15.68257,0.4757 2.60038,0.70891 4.02796,2.26778 4.59994,5.023 0.23394,1.12685 0.33146,2.73375 0.21671,3.57088 -0.71352,5.20573 -4.2597,6.80325 -15.11426,6.80882 -4.7727,0.002 -5.22049,-0.0523 -5.55625,-0.6797 z m 14.8669,-1.18127 c 2.67994,-0.84675 3.73716,-1.80694 4.36412,-3.9636 0.77006,-2.64891 0.24793,-5.50186 -1.29901,-7.09789 -1.5491,-1.59827 -3.52093,-1.96638 -10.82671,-2.02117 l -6.23576,-0.0468 -0.0965,6.51504 c -0.053,3.58327 -0.0101,6.74016 0.0955,7.01531 0.26407,0.68816 11.57683,0.36415 13.99829,-0.40093 z m 77.81001,33.42003 c -4.83062,-1.18173 -7.30653,-3.72404 -8.33155,-8.55501 -0.24201,-1.14058 -0.39877,-5.95457 -0.40206,-12.34722 -0.003,-5.76277 -0.12787,-10.6705 -0.27756,-10.90605 -0.17941,-0.28233 -1.59008,-0.46265 -4.13973,-0.52917 l -3.86759,-0.10089 -0.10244,-3.12169 c -0.0656,-1.99826 0.0452,-3.29957 0.30778,-3.61597 0.30791,-0.37101 1.4141,-0.49428 4.43541,-0.49428 h 4.02519 l -0.046,-4.43398 c -0.0253,-2.43869 0.0298,-4.50977 0.12244,-4.6024 0.33521,-0.33522 8.12665,-2.60529 8.94198,-2.60529 h 0.83646 v 5.81115 5.81115 l 5.02708,0.0979 5.02708,0.0979 v 3.52778 3.52777 l -5.02708,0.0979 -5.02708,0.0979 0.0268,10.30907 c 0.0188,7.20691 0.15775,10.68061 0.46189,11.54379 0.62254,1.76686 2.22563,2.45026 6.45488,2.75173 l 3.46333,0.24688 v 3.88055 3.88056 l -4.93889,0.0635 c -3.25636,0.0419 -5.63097,-0.10582 -6.9704,-0.43349 z m 11.02735,-3.4522 v -2.94025 l -3.83328,-0.37202 c -2.43063,-0.2359 -4.16023,-0.58626 -4.72682,-0.9575 -1.73997,-1.14008 -1.84685,-1.95793 -1.84685,-14.13303 v -11.28889 l 5.02708,-0.0979 5.02709,-0.0979 v -2.62646 -2.62647 l -5.02709,-0.0979 -5.02708,-0.0979 -0.0971,-5.76696 c -0.0736,-4.37269 -0.20156,-5.7273 -0.52917,-5.60287 -0.23763,0.0902 -1.86081,0.59588 -3.60706,1.12361 -1.74625,0.52775 -3.32576,1.10429 -3.51002,1.28123 -0.18426,0.17693 -0.37039,2.02831 -0.41362,4.11417 -0.0432,2.08587 -0.0909,4.06526 -0.10595,4.39865 -0.0239,0.53116 -0.54032,0.61847 -4.1725,0.70556 l -4.14514,0.0994 -0.10365,2.55764 -0.10364,2.55764 h 4.0337 4.03371 l 0.16148,11.55347 c 0.14938,10.68789 0.21955,11.73232 0.93665,13.94069 1.75919,5.41756 5.20799,7.22743 13.88412,7.28613 l 4.14513,0.028 z m 5.51019,-14.61044 c -0.1012,-10.23497 -0.23146,-19.24403 -0.28946,-20.02014 l -0.10546,-1.41111 h 5.29167 5.29167 l 0.10463,1.98955 0.10464,1.98955 1.71581,-1.67124 c 3.02481,-2.94626 6.54109,-3.95952 10.69713,-3.08251 l 1.33332,0.28135 -0.0986,4.47999 -0.0986,4.47997 -0.88195,-0.10709 c -0.48507,-0.0589 -2.24258,-0.13828 -3.90558,-0.17639 -2.75828,-0.0632 -3.15052,0.0146 -4.46937,0.88696 -3.90523,2.58305 -4.31075,4.42274 -4.31892,19.59305 l -0.006,11.37709 h -5.09039 -5.0904 z m 7.10161,17.55458 2.55764,-0.004 v -12.33399 c 0,-11.56908 0.0448,-12.45381 0.72294,-14.26621 0.79823,-2.13347 2.41268,-3.78677 4.72205,-4.83568 1.58734,-0.72097 5.53359,-0.90154 7.05566,-0.32285 l 0.90491,0.34405 v -3.49823 c 0,-2.3994 -0.13715,-3.58299 -0.43661,-3.76807 -0.24014,-0.14841 -1.47045,-0.26932 -2.73403,-0.2687 -2.85357,0.001 -5.32227,1.22518 -7.61436,3.77453 -0.97741,1.08711 -1.77324,1.67178 -2.17017,1.59432 -0.615,-0.12 -0.67382,-0.39013 -0.77278,-3.54903 l -0.0304,-0.97014 h -4.45086 -4.45087 l 0.26978,0.79375 c 0.14838,0.43656 0.33942,8.96853 0.42455,18.95992 0.11299,13.2623 0.26554,18.24155 0.56512,18.44543 0.22569,0.15359 0.96596,0.19588 1.64506,0.094 0.6791,-0.10191 2.38566,-0.18704 3.79236,-0.18917 z m 19.38289,0.82877 c -0.13458,-0.13458 -0.24469,-9.09125 -0.24469,-19.90371 0,-17.60102 0.0584,-19.68143 0.55802,-19.87315 0.82535,-0.31672 8.71769,-0.24961 9.23455,0.0785 0.34991,0.22215 0.42465,4.46214 0.35278,20.01474 l -0.0912,19.73289 -4.78239,0.0977 c -2.63031,0.0537 -4.8925,-0.0124 -5.02708,-0.14699 z m 8.8424,-19.79446 -0.0913,-18.96181 h -3.88056 -3.88055 l -0.0913,18.96181 -0.0913,18.9618 h 4.06307 4.06307 z m 92.74809,19.78495 c -0.12935,-0.12935 -0.23518,-7.61954 -0.23518,-16.64486 0,-10.24703 -0.15156,-17.59141 -0.40355,-19.55636 -0.33689,-2.62691 -0.32232,-3.19814 0.0882,-3.45808 0.55112,-0.34898 9.1185,-0.44166 9.98788,-0.10805 0.41292,0.15845 0.55802,0.70642 0.55802,2.10738 v 1.89326 l 1.60045,-1.60045 c 2.3096,-2.30961 4.67158,-3.31216 7.81339,-3.31643 1.39407,-0.002 2.94679,0.15324 3.45048,0.34474 l 0.91581,0.34819 -0.0991,4.32612 -0.0991,4.32611 -0.88195,-0.11293 c -0.48507,-0.0621 -2.23132,-0.1415 -3.88055,-0.17639 -2.59765,-0.055 -3.19845,0.051 -4.49307,0.79253 -0.82195,0.4708 -1.91777,1.46682 -2.43514,2.2134 -1.72175,2.48447 -1.89124,4.00257 -1.89124,16.93944 v 11.91757 h -4.88009 c -2.68405,0 -4.98593,-0.10584 -5.11528,-0.23519 z m 8.96605,-11.84745 c 0.0159,-6.2574 0.10307,-11.85334 0.19358,-12.43542 0.55909,-3.59538 1.98631,-5.93047 4.53908,-7.42649 1.85633,-1.08789 5.08899,-1.49013 7.49736,-0.9329 l 1.4993,0.34689 v -3.46946 c 0,-2.37654 -0.13754,-3.55446 -0.43661,-3.7393 -0.24013,-0.14841 -1.47044,-0.26907 -2.73402,-0.26813 -2.9344,0.002 -5.02924,1.00777 -7.46539,3.58364 -2.33745,2.47151 -2.91238,2.37103 -3.05095,-0.53321 l -0.10503,-2.20132 h -4.43293 -4.43293 l 0.23685,1.14653 c 0.13027,0.63059 0.32429,9.1634 0.43117,18.96181 0.13929,12.76992 0.30835,17.88868 0.59694,18.07446 0.22144,0.14255 2.02981,0.26161 4.0186,0.26458 l 3.61597,0.005 0.029,-11.37708 z M -23.43406,210.49412 c -0.0877,-0.24254 -0.20177,-1.9491 -0.25351,-3.79236 l -0.0941,-3.35139 -1.41111,-0.19571 c -2.91166,-0.40383 -3.8125,-1.52654 -4.23044,-5.27235 -0.14072,-1.26118 -0.56741,-3.20277 -0.94819,-4.31465 -0.38079,-1.11188 -0.59231,-2.18344 -0.47006,-2.38125 0.12675,-0.20508 1.72018,-0.35965 3.70762,-0.35965 h 3.48534 l 0.25116,-1.6757 c 0.18095,-1.20723 0.56582,-1.99041 1.37666,-2.80143 1.17994,-1.18019 1.27347,-1.21202 5.40573,-1.83945 1.41934,-0.21551 3.06085,-0.64018 3.64782,-0.94371 1.80562,-0.93372 2.02569,-0.57987 2.13754,3.43696 l 0.10071,3.61676 1.3343795,0.27654 c 3.09066,0.64052 4.48245,2.27541 4.49064,5.27501 0.002,0.8438 0.25354,2.40731 0.55831,3.47446 1.11258,3.89575 1.42094,3.48857 -2.72867,3.60321 l -3.6546595,0.10096 -0.19402,1.45354 c -0.38933,2.9166 -1.87161,4.12269 -5.51376,4.48637 -1.19901,0.11973 -3.02463,0.53871 -4.05695,0.93107 -2.18084,0.82889 -2.72126,0.87902 -2.94046,0.27277 z m 6.28134,-2.03709 c 3.39114,-0.39057 4.71729,-1.20763 5.01982,-3.09278 0.50821,-3.1668 0.1251,-2.89583 4.0943295,-2.89583 3.24972,0 3.53702,-0.0536 3.30793,-0.61736 -0.57495,-1.41486 -0.85693,-2.72722 -1.08643,-5.05628 -0.16368,-1.66108 -0.47677,-2.76142 -0.96083,-3.3768 -0.81561,-1.03687 -2.78047,-1.97425 -3.5329795,-1.68549 -0.27687,0.10625 -0.76199,-0.0654 -1.07805,-0.38148 -0.44539,-0.44538 -0.57466,-1.2847 -0.57466,-3.73117 v -3.15653 l -0.97014,0.23477 c -0.53357,0.12912 -1.29796,0.35518 -1.69865,0.50235 -0.40067,0.14717 -1.67067,0.3732 -2.82222,0.50228 -1.15154,0.12908 -2.50002,0.38902 -2.99662,0.57765 -1.21991,0.46338 -2.0957,2.05435 -2.0957,3.80708 0,1.6525 0.27088,1.55884 -4.19701,1.45114 -3.1083,-0.0749 -3.29774,-0.0391 -3.03721,0.57427 0.65931,1.55225 1.237,4.28497 1.237,5.85152 0,1.41801 0.18577,1.89436 1.14653,2.93992 0.90771,0.98784 1.51392,1.29982 2.91041,1.4978 l 1.76389,0.25007 0.10053,3.61188 0.10053,3.61188 1.31058,-0.55118 c 0.72082,-0.30314 2.54735,-0.69361 4.05895,-0.86771 z m -1.11544,-52.24699 c -4.13757,-0.68737 -9.01074,-3.28894 -11.74908,-6.27229 -3.69161,-4.02194 -5.23595,-8.01241 -5.25844,-13.58747 -0.017,-4.20809 0.40341,-6.32449 1.83308,-9.22856 1.12146,-2.27803 4.29063,-6.44436 5.00267,-6.57675 0.23372,-0.0434 -7.75067,-0.16252 -17.7431,-0.26458 -20.79504,-0.21241 -19.91566,-0.0795 -23.26276,-3.51584 -2.70655,-2.77871 -3.19557,-4.5002 -3.19557,-11.24913 0,-8.741345 1.27537,-12.297345 6.16184,-17.180415 4.51228,-4.50916 8.47812,-6.00376 15.18121,-5.72132 5.52158,0.23266 9.62994,1.9555 13.21701,5.54257 l 1.42327,1.42327 0.0128,-5.02708 c 0.0266,-10.44409 0.35672,-29.07119 0.53924,-30.42709 0.41649,-3.09394 3.53735,-6.59575 7.06132,-7.92326 1.93722,-0.72977 2.52116,-0.77501 8.08524,-0.62633 4.83827,0.12929 6.37371,0.29717 7.94543,0.86873 3.7931495,1.37938 5.7961295,2.64581 8.4587395,5.34824 4.10648003,4.16789 5.60787,7.89703 5.63188,13.98837 0.0218,5.52905 -1.67251997,9.90437 -5.28354,13.64405 l -1.94708,2.01645 17.9972805,0.10021 17.99729,0.10021 1.94028,0.91426 c 2.27683,1.07284 4.63588,3.379 5.74087,5.61213 0.69258,1.39969 0.79977,2.25307 0.90595,7.21319 0.14038,6.557565 -0.2177,8.890725 -1.89787,12.365985 -4.31022,8.91527 -13.53272,13.29976 -23.26978,11.06275 -3.4948905,-0.80293 -7.9209205,-3.42682 -9.7896605,-5.80364 l -0.79368,-1.00946 -0.17639,18.1599 c -0.17576,18.09589 -0.17923,18.16523 -0.98541,19.67509 -1.80075997,3.37257 -4.70736,5.65714 -8.11598,6.37912 -2.16465,0.45849 -8.9038995,0.45773 -11.6670695,-0.001 z m 13.1837395,-1.84545 c 2.57078,-1.17869 4.16655003,-2.64997 5.41136003,-4.98922 l 0.93863997,-1.76389 0.19178,-18.34444 c 0.10548,-10.08945 0.22454,-18.38414 0.26459,-18.43264 0.32939,-0.39903 1.30227,0.22 3.11263,1.98052 2.72067,2.64578 7.0318405,4.82515 10.6017705,5.3594 9.69612,1.45103 18.62516,-4.6332 21.51468,-14.66007 0.73558,-2.55251 1.02668,-9.848705 0.48683,-12.202015 -0.64734,-2.82193 -2.33865,-5.42862 -4.47852,-6.9024 -3.10353,-2.13748 -4.06432,-2.23489 -21.99237,-2.22972 -8.8282605,0.002 -16.5673305,0.001 -17.1979205,-0.002 -0.63633,-0.004 -1.14653,-0.19044 -1.14653,-0.4195 0,-0.227 1.00477,-1.45732 2.23282,-2.73403 5.78908003,-6.0185 7.14172,-14.29103 3.55459,-21.73922 -2.34437,-4.86778 -6.41115,-8.26634 -12.1996095,-10.19507 -2.42475,-0.80793 -3.26325,-0.90232 -8.01563,-0.90232 -4.92488,0 -5.4546,0.065 -7.34614,0.90138 -2.7428,1.21278 -5.07357,3.71897 -5.95362,6.40171 -0.63038,1.92165 -0.66358,3.10822 -0.5482,19.59401 0.11107,15.87172 0.0686,17.56929 -0.44473,17.76626 -0.38693,0.14848 -1.34419,-0.51485 -3.00796,-2.08436 -2.69955,-2.54663 -5.67381,-4.1567 -9.22485,-4.99373 -5.92069,-1.39559 -12.3926,0.40975 -17.01305,4.7458 -2.5469,2.39013 -4.1622,4.9195 -5.44561,8.52717 -0.84022,2.36185 -0.92269,3.080035 -0.94524,8.232045 -0.0221,5.05264 0.0543,5.81542 0.72929,7.27513 1.0339,2.236 3.08607,4.41382 5.22084,5.54047 l 1.78627,0.94274 18.51615,0.17639 c 16.08503,0.15322 18.52934,0.24586 18.61659,0.70555 0.0552,0.29104 -0.86266,1.54013 -2.03977,2.77575 -8.24483,8.65462 -6.96693,21.90701 2.78517,28.88352 4.04423,2.89319 8.25805,3.98283 14.86214,3.84317 3.5724495,-0.0755 4.3097195,-0.20169 6.1736095,-1.05627 z M -18.91968,144.24741 c -3.03243,-1.53953 -4.71324,-4.07331 -4.97098,-7.49363 -0.22429,-2.97657 0.45486,-4.95845 2.37455,-6.92932 2.70661,-2.77877 6.52296,-3.60108 9.54532,-2.05673 2.7113495,1.38544 2.9890595,2.06727 3.1200295,7.66041 0.10203,4.35744 0.0371,5.02872 -0.60938,6.29585 -1.1246795,2.20456 -2.5748395,3.0402 -5.5004995,3.16959 -1.97589,0.0874 -2.76916,-0.0421 -3.95904,-0.64617 z m 6.90777,-1.36403 c 1.698,-1.20908 2.1650695,-2.72931 2.1644395,-7.04485 -7e-4,-4.30788 -0.4856995,-5.70464 -2.4328695,-7.00544 -3.01471,-2.01395 -8.41328,0.24538 -10.07148,4.21497 -1.5746,3.76949 0.31412,8.34442 4.21462,10.20878 1.86297,0.89045 4.58321,0.7246 6.12529,-0.37346 z M -25.13396,118.6249 c -0.12935,-0.12934 -0.23518,-2.35184 -0.23518,-4.93888 v -4.70371 h -1.42517 c -2.51853,0 -5.05873,-1.80644 -5.77127,-4.1042 -0.1284,-0.41404 -0.37969,-2.03497 -0.55842,-3.60205 -0.17873,-1.567085 -0.70145,-3.931845 -1.16161,-5.255025 -0.46015,-1.32318 -0.77209,-2.59944 -0.69319,-2.83614 0.10337,-0.31012 1.46588,-0.43037 4.87655,-0.43037 h 4.73311 l 0.0155,-1.14653 c 0.0199,-1.46993 0.79298,-3.63708 1.62583,-4.55738 1.09371,-1.20854 2.39436,-1.67514 5.71933,-2.0518 1.75408,-0.1987 4.3209,-0.76949 5.70405,-1.26842 1.38315,-0.49893 2.7400495,-0.82072 3.0153395,-0.71508 0.39805,0.15275 0.50052,1.16932 0.50052,4.96564 v 4.77357 l 1.32291,0.008 c 1.99963,0.0117 4.13956,1.14352 5.20441,2.75262 0.73443,1.10979 0.99116,2.05977 1.22309,4.525615 0.16145003,1.71653 0.64419003,4.07347 1.07276003,5.23764 1.37036997,3.7225 1.59728997,3.51314 -3.92960003,3.62565 l -4.80781,0.0979 -0.15799,1.90515 c -0.17582,2.12011 -1.3790795,4.06864 -3.0328095,4.91125 -0.52355,0.26676 -2.4621,0.66052 -4.30789,0.87503 -1.87766,0.21821 -4.35466,0.78139 -5.62314,1.2785 -2.37929,0.93244 -2.92287,1.03975 -3.3093,0.65331 z m 4.17454,-2.21181 c 0.77611,-0.22449 2.82872,-0.54982 4.56135,-0.72295 4.49721,-0.44937 6.22229,-1.9203 6.5487895,-5.58401 l 0.17875,-2.00576 4.88544,-0.0984 c 3.79448003,-0.0764 4.80694003,-0.19458 4.53391003,-0.52917 -0.67602,-0.82845 -1.53576003,-4.33669 -1.80314003,-7.35783 -0.20769,-2.346765 -0.45133,-3.278565 -1.06078,-4.056945 -1.12018,-1.4307 -2.76201,-2.21324 -4.67957,-2.2304 -2.08024,-0.0186 -2.15105,-0.21243 -2.00532,-5.48848 0.0609,-2.20614 0.0205,-4.10151 -0.0899,-4.21191 -0.1103995,-0.1104 -0.9118995,0.11385 -1.7811195,0.49834 -0.86921,0.3845 -3.28657,0.9197 -5.37192,1.18935 -4.09856,0.52996 -5.06602,0.98655 -6.47409,3.05544 -0.54769,0.80472 -0.79375,1.68502 -0.79375,2.83973 0,2.02581 0.007,2.02305 -5.45689,2.09105 -2.12816,0.0265 -3.90235,0.0811 -3.94265,0.12142 -0.0403,0.0403 0.2482,1.02428 0.64111,2.18663 0.39291,1.16235 0.84773,3.53097 1.01071,5.263605 0.42262,4.49266 1.8918,6.2214 5.56557,6.54879 l 2.00576,0.17875 0.0982,4.8546 0.0982,4.85459 0.96016,-0.49415 c 0.52809,-0.27178 1.59516,-0.67782 2.37127,-0.90231 z m -37.21607,-8.22453 c -4.17396,-2.12566 -4.21719,-8.596365 -0.0823,-12.323745 3.43041,-3.09235 9.56287,-2.66394 12.67956,0.88579 1.22267,1.39253 2.22206,4.201315 2.20969,6.210315 -0.0128,2.08571 -1.14353,4.07549 -2.90125,5.10558 -1.45584,0.85318 -1.86309,0.91581 -5.95489,0.91581 -3.85784,0 -4.58178,-0.0966 -5.95079,-0.79375 z m 10.92709,-0.88249 c 1.7549,-0.8817 2.83099,-2.65047 2.82151,-4.63773 -0.0233,-4.880775 -4.95104,-8.892565 -9.56368,-7.786005 -6.31205,1.51424 -8.63972,9.632875 -3.53504,12.329765 1.79908,0.95049 8.45136,1.01131 10.27721,0.094 z m 62.25829,0.24245 c -1.60227,-0.46593 -3.76199,-2.48754 -4.73238,-4.42976 -1.2118205,-2.42544 -1.2335005,-5.767645 -0.0498,-7.671865 1.32082,-2.12475 2.92872,-2.67534 7.8399,-2.68462 4.23299,-0.008 5.6454,0.32077 7.23128,1.68322 2.76264,2.37341 2.39168,7.992345 -0.73159,11.081375 -2.18224,2.15832 -6.17963,3.00387 -9.55744,2.02165 z m 4.70385,-0.69677 c 3.58919,-0.8279 6.05154,-3.62694 6.32612,-7.191115 0.14133,-1.8346 0.0448,-2.3216 -0.66994,-3.37833 -1.36338,-2.01586 -2.69676,-2.46827 -7.27672,-2.4689 -4.33047,-7e-4 -5.43912,0.32353 -6.73303,1.96847 -0.98551,1.25287 -1.26119,3.0102 -0.77508,4.940715 0.76955,3.05616 2.61984,5.01874 5.67355,6.01787 1.59501,0.52186 1.66535,0.52413 3.4551,0.11129 z M -22.46195,73.706435 c -2.21598,-1.3511 -2.55162,-2.39958 -2.5531,-7.97543 -0.001,-4.57962 0.0617,-5.06759 0.79244,-6.14118 1.15416,-1.69582 2.43951,-2.51933 4.2509,-2.72349 7.83843,-0.88351 12.7056595,8.18645 7.82615,14.58381 -2.06411,2.70619 -7.59463,3.91576 -10.31639,2.25629 z m 7.16149,-1.02287 c 2.78596,-1.49318 4.19504,-3.87565 4.19504,-7.09293 0,-2.55257 -0.49085,-3.74084 -2.30569,-5.58171 -1.74791,-1.77297 -3.04259,-2.32437 -5.49667,-2.341 -1.9517,-0.0132 -2.29903,0.0968 -3.29469,1.04355 -1.88074,1.78837 -2.10834,2.56154 -2.10834,7.16225 0,3.77788 0.0803,4.31882 0.80078,5.39738 1.66346,2.49004 5.09688,3.08077 8.20957,1.41246 z"
       id="path179" /></g></svg>
