<?xml version="1.0" encoding="UTF-8" standalone="no"?>
<svg
   width="64"
   height="64"
   viewBox="0 0 64 64"
   fill="none"
   version="1.1"
   id="svg18"
   xmlns="http://www.w3.org/2000/svg"
   xmlns:svg="http://www.w3.org/2000/svg">
  <defs
     id="defs22" />
  <path
     d="M 37,54 H 2 V 2 h 48 v 22"
     stroke="#000000"
     stroke-width="2"
     stroke-linejoin="round"
     id="path2" />
  <path
     d="m 57,45.7469 v 14.253 l -7,-4 -7,4 v -14.253"
     fill="#D0D5DD"
     id="path4"
     style="fill:#eceef1;fill-opacity:1" />
  <path
     d="m 57,45.7469 v 14.253 l -7,-4 -7,4 v -14.253"
     stroke="#000000"
     stroke-width="2"
     stroke-linecap="round"
     stroke-linejoin="round"
     id="path6" />
  <path
     d="m 50,48 c 6.6274,0 12,-5.3726 12,-12 0,-6.6274 -5.3726,-12 -12,-12 -6.6274,0 -12,5.3726 -12,12 0,6.6274 5.3726,12 12,12 z"
     fill="#ffffff"
     stroke="#000000"
     stroke-width="2"
     stroke-linecap="round"
     stroke-linejoin="round"
     id="path8" />
  <path
     d="m 50,43.92 c 4.3741,0 7.92,-3.5459 7.92,-7.92 0,-4.3741 -3.5459,-7.92 -7.92,-7.92 -4.3741,0 -7.92,3.5459 -7.92,7.92 0,4.3741 3.5459,7.92 7.92,7.92 z"
     fill="#98A2B3"
     id="path10"
     style="fill:#d3d7de;fill-opacity:1" />
  <path
     d="M 12,16 H 40"
     stroke="#000000"
     stroke-width="2"
     stroke-linejoin="round"
     id="path12" />
  <path
     d="M 12,28 H 28"
     stroke="#000000"
     stroke-width="2"
     stroke-linejoin="round"
     id="path14" />
  <path
     d="M 12,40 H 28"
     stroke="#000000"
     stroke-width="2"
     stroke-linejoin="round"
     id="path16" />
</svg>
