<?xml version="1.0" encoding="UTF-8" standalone="no"?>
<svg
   width="64"
   height="64"
   viewBox="0 0 64 64"
   fill="none"
   version="1.1"
   id="svg18"
   xmlns="http://www.w3.org/2000/svg"
   xmlns:svg="http://www.w3.org/2000/svg">
  <defs
     id="defs22" />
  <circle
     cx="28"
     cy="19"
     r="7"
     fill="#D9D9D9"
     id="circle2"
     style="fill:#fafafa;fill-opacity:1" />
  <path
     d="M 19.338,24 C 18.487,22.529 18,20.821 18,19 18,13.477 22.477,9 28,9 c 5.523,0 10,4.477 10,10 0,2.251 -0.744,4.329 -2,6"
     stroke="#122734"
     stroke-width="2"
     stroke-linecap="round"
     stroke-linejoin="round"
     id="path4"
     style="stroke:#e5e5e5;stroke-opacity:1" />
  <path
     d="M 18,32.749 C 13.758,29.658 11,24.651 11,19 11,9.611 18.611,2 28,2 c 9.389,0 17,7.611 17,17 0,2.897 -0.722,5.619 -1.996,8"
     stroke="#98A2B3"
     stroke-width="2"
     stroke-linecap="round"
     stroke-linejoin="round"
     id="path6"
     style="stroke:#f6f8f8;stroke-opacity:1" />
  <path
     d="m 24,38 v 6"
     stroke="#122734"
     stroke-width="2"
     stroke-linecap="round"
     stroke-linejoin="round"
     id="path8" />
  <path
     d="m 31,36 v -2.5 c 0,-1.933 1.567,-3.5 3.5,-3.5 1.933,0 3.5,1.567 3.5,3.5 V 36"
     stroke="#122734"
     stroke-width="2"
     stroke-linecap="round"
     stroke-linejoin="round"
     id="path10"
     style="stroke:#e5e5e5;stroke-opacity:1" />
  <path
     d="m 38,37 v -1.5 c 0,-1.933 1.567,-3.5 3.5,-3.5 1.933,0 3.5,1.567 3.5,3.5 V 38"
     stroke="#122734"
     stroke-width="2"
     stroke-linecap="round"
     stroke-linejoin="round"
     id="path12"
     style="stroke:#e5e5e5;stroke-opacity:1" />
  <path
     d="m 45,37.5 c 0,-1.933 1.567,-3.5 3.5,-3.5 1.847,0 3.266,1.636 3.005,3.465 L 48,62 H 24 c 0,-3.833 -7,-9.333 -7,-14 v -7 c 0,-1.657 1.343,-3 3,-3 h 4 V 19.5 c 0,-1.933 1.567,-3.5 3.5,-3.5 1.933,0 3.5,1.567 3.5,3.5 V 35"
     fill="#ffffff"
     id="path14" />
  <path
     d="m 45,37.5 c 0,-1.933 1.567,-3.5 3.5,-3.5 1.847,0 3.266,1.636 3.005,3.465 L 48,62 H 24 c 0,-3.833 -7,-9.333 -7,-14 v -7 c 0,-1.657 1.343,-3 3,-3 h 4 V 19.5 c 0,-1.933 1.567,-3.5 3.5,-3.5 1.933,0 3.5,1.567 3.5,3.5 V 35"
     stroke="#122734"
     stroke-width="2"
     stroke-linecap="round"
     stroke-linejoin="round"
     id="path16"
     style="stroke:#e5e5e5;stroke-opacity:1" />
</svg>
