<?xml version="1.0" encoding="UTF-8" standalone="no"?>
<svg
   width="64"
   height="64"
   viewBox="0 0 64 64"
   fill="none"
   version="1.1"
   id="svg165"
   xmlns="http://www.w3.org/2000/svg"
   xmlns:svg="http://www.w3.org/2000/svg">
  <defs
     id="defs169" />
  <path
     d="M 40,46 H 8 C 4.686,46 2,43.314 2,40 V 8 C 2,4.686 4.686,2 8,2 h 42 c 3.314,0 6,2.686 6,6 v 18"
     stroke="black"
     stroke-width="2"
     stroke-linecap="round"
     stroke-linejoin="round"
     id="path147"
     style="stroke:#999999;stroke-opacity:1" />
  <rect
     x="7"
     y="7"
     width="13"
     height="34"
     rx="3"
     fill="#D0D5DD"
     id="rect149"
     style="fill:#e2e5e9;fill-opacity:1" />
  <path
     d="M 41.9655,10 48,16.0345 41.9655,22.069"
     stroke="black"
     stroke-width="2"
     stroke-linejoin="round"
     id="path151"
     style="stroke:#999999;stroke-opacity:1" />
  <path
     d="m 13,34.1379 h 5.7798 c 1.1921,-1e-4 2.3658,-0.2945 3.4168,-0.8571 1.051,-0.5625 1.9468,-1.3758 2.6081,-2.3678 l 7.77,-11.6537 c 0.6612,-0.992 1.557,-1.8053 2.608,-2.3678 1.0511,-0.5626 2.2247,-0.857 3.4168,-0.8571 H 48"
     stroke="black"
     stroke-width="2"
     stroke-linejoin="round"
     id="path153"
     style="stroke:#999999;stroke-opacity:1" />
  <path
     d="M 41.9655,40.1724 48,34.1379 41.9655,28.1034"
     stroke="#000000"
     stroke-width="2"
     stroke-linecap="round"
     stroke-linejoin="round"
     id="path155" />
  <path
     d="m 30.701,28.1034 1.8737,2.8096 c 0.6612,0.992 1.557,1.8053 2.6081,2.3678 1.051,0.5626 2.2246,0.857 3.4167,0.8571 H 48"
     stroke="black"
     stroke-width="2"
     stroke-linejoin="round"
     id="path157"
     style="stroke:#999999;stroke-opacity:1" />
  <path
     d="m 13,16.0344 h 5.7798 c 1.1921,10e-5 2.3658,0.2945 3.4168,0.8571 1.051,0.5625 1.9468,1.3758 2.6081,2.3678 l 1.8737,2.8096"
     stroke="black"
     stroke-width="2"
     stroke-linejoin="round"
     id="path159"
     style="stroke:#999999;stroke-opacity:1" />
  <path
     d="M 58,62 H 44 c -2.209,0 -4,-1.791 -4,-4 V 30 c 0,-2.209 1.791,-4 4,-4 h 14 c 2.209,0 4,1.791 4,4 v 28 c 0,2.209 -1.791,4 -4,4 z"
     fill="#ffffff"
     stroke="black"
     stroke-width="2"
     stroke-linecap="round"
     stroke-linejoin="round"
     id="path161"
     style="stroke:#999999;stroke-opacity:1" />
  <path
     d="M 56.0909,59 H 45.9091 C 44.3025,59 43,57.5573 43,55.7778 V 33.2222 C 43,31.4427 44.3025,30 45.9091,30 H 56.0909 C 57.6975,30 59,31.4427 59,33.2222 V 55.7778 C 59,57.5573 57.6975,59 56.0909,59 Z"
     fill="#98A2B3"
     id="path163"
     style="fill:#ccd7db;fill-opacity:1" />
</svg>
