<?xml version="1.0" encoding="UTF-8" standalone="no"?>
<svg
   width="64"
   height="64"
   viewBox="0 0 64 64"
   fill="none"
   version="1.1"
   id="svg14"
   xmlns="http://www.w3.org/2000/svg"
   xmlns:svg="http://www.w3.org/2000/svg">
  <defs
     id="defs18" />
  <path
     d="m 32,48.7999 c 9.2784,0 16.8,-7.5216 16.8,-16.7999 0,-9.2784 -7.5216,-16.8 -16.8,-16.8 -9.2784,0 -16.8,7.5216 -16.8,16.8 0,9.2783 7.5216,16.7999 16.8,16.7999 z"
     fill="#D0D5DD"
     id="path2"
     style="fill:#eaedf0;fill-opacity:1" />
  <path
     d="m 32,39 c 3.866,0 7,-3.134 7,-7 0,-3.866 -3.134,-7 -7,-7 -3.866,0 -7,3.134 -7,7 0,3.866 3.134,7 7,7 z"
     fill="#98A2B3"
     stroke="black"
     stroke-width="2"
     stroke-linecap="round"
     stroke-linejoin="round"
     id="path4"
     style="fill:#d3d7df;fill-opacity:1;stroke:#999999;stroke-opacity:1" />
  <path
     d="M 58.98,21.3449 C 56.5034,15.0613 51.9112,9.83919 45.9957,6.5796 40.0803,3.32001 33.2126,2.22739 26.5776,3.49026 19.9426,4.75313 13.9566,8.29228 9.65217,13.4971 5.34778,18.7019 2.99509,25.2459 3.00001,31.9999"
     stroke="black"
     stroke-width="2"
     stroke-linejoin="round"
     id="path6"
     style="stroke:#999999;stroke-opacity:1" />
  <path
     d="M 58.978,4.95898 60,21.351 44.311,15.897"
     stroke="black"
     stroke-width="2"
     stroke-linejoin="round"
     id="path8"
     style="stroke:#999999;stroke-opacity:1" />
  <path
     d="m 5.02,42.655 c 2.47663,6.2836 7.0688,11.5057 12.9843,14.7653 5.9155,3.2596 12.7831,4.3523 19.4181,3.0894 6.635,-1.2629 12.6211,-4.802 16.9254,-10.0068 C 58.6522,45.2981 61.0049,38.7541 61,32"
     stroke="black"
     stroke-width="2"
     stroke-linejoin="round"
     id="path10"
     style="stroke:#999999;stroke-opacity:1" />
  <path
     d="M 5.022,59.0409 4,42.6489 l 15.689,5.454"
     stroke="black"
     stroke-width="2"
     stroke-linejoin="round"
     id="path12"
     style="stroke:#999999;stroke-opacity:1" />
</svg>
