<?xml version="1.0" encoding="UTF-8" standalone="no"?>
<svg
   width="64"
   height="64"
   viewBox="0 0 64 64"
   fill="none"
   version="1.1"
   id="svg206"
   xmlns:xlink="http://www.w3.org/1999/xlink"
   xmlns="http://www.w3.org/2000/svg"
   xmlns:svg="http://www.w3.org/2000/svg">
  <g
     id="g3982">
    <path
       d="m 53.5068,19.0205 c -4.4373,0.5547 -6.5706,3.0293 -7.68,6.6133 -2.1333,6.6987 -4.6506,13.824 -4.608,13.7814 -2.3466,-7.0827 -3.2,-19.9254 -10.0693,-19.9254 h -13.696 c -5.888,0 -14.03734,10.9654 -17.706674,25.1734 L 6.57349,44.5778 c 4.82131,-0.4693 7.08271,-3.1146 8.23471,-6.8266 0.9386,-2.9867 1.7066,-5.5467 2.3893,-7.6374 1.664,-2.304 4.9067,-5.9306 4.9067,-5.9306 2.3466,7.1253 3.2,19.7973 10.0266,19.7973 6.8267,0 13.184,-0.0427 13.3547,-0.0427 5.0773,-0.64 10.2827,-9.9413 18.7307,-25.0026 z"
       fill="url(#paint0_linear_5278_153978)"
       id="path2"
       style="mix-blend-mode:hard-light;fill:url(#linearGradient2521);fill-opacity:1"
       clip-path="url(#clipPath1443)" />
    <path
       d="m 22.1468,24.1406 c 2.3467,7.1253 3.2,19.7973 10.0267,19.7973 0.512,0 1.0667,-0.0427 1.5787,-0.1707 -6.1867,-1.4506 -6.912,-13.9946 -10.6667,-20.48 -0.3413,0.2987 -0.64,0.5974 -0.9387,0.8534 z"
       fill="url(#paint1_linear_5278_153978)"
       id="path4"
       style="mix-blend-mode:hard-light;fill:url(#linearGradient2523);fill-opacity:1"
       clip-path="url(#clipPath1437)" />
    <path
       d="m 23.0428,23.3299 c 3.7547,6.4853 4.48,19.0293 10.6667,20.48 0.512,-0.0854 0.9813,-0.2133 1.4507,-0.384 -5.5467,-2.7307 -7.0827,-14.8907 -11.3494,-20.7787 -0.256,0.2134 -0.512,0.4267 -0.768,0.6827 z"
       fill="url(#paint2_linear_5278_153978)"
       id="path6"
       style="mix-blend-mode:hard-light;fill:url(#linearGradient2525);fill-opacity:1"
       clip-path="url(#clipPath1431)" />
    <path
       d="m 28.4615,19.4473 c -0.512,0 -1.0667,0.0426 -1.5787,0.128 -1.4933,0.2986 -2.9013,0.896 -4.1813,1.7493 0.384,0.384 0.768,0.8107 1.1093,1.28 1.28,-1.1093 2.688,-1.9627 4.2667,-2.6027 0.512,-0.1706 1.0666,-0.3413 1.5786,-0.4266 -0.384,-0.0854 -0.768,-0.128 -1.1946,-0.128 z"
       fill="#13569b"
       id="path8"
       clip-path="url(#clipPath1425)"
       style="mix-blend-mode:hard-light;fill:url(#linearGradient2527);fill-opacity:1" />
    <path
       d="m 39.5122,40.9085 c 0.5546,-0.4693 1.152,-0.9386 1.7066,-1.4933 -2.3466,-7.0827 -3.2,-19.9253 -10.0693,-19.9253 -0.512,0 -0.9813,0.0426 -1.4933,0.128 6.272,1.536 7.0826,15.104 9.856,21.2906 z"
       fill="url(#paint3_linear_5278_153978)"
       id="path10"
       style="mix-blend-mode:hard-light;fill:url(#linearGradient2529);fill-opacity:1"
       clip-path="url(#clipPath1419)" />
    <path
       d="m 39.3842,42.4019 c -0.256,-0.256 -0.512,-0.5547 -0.768,-0.8107 -1.0667,0.768 -2.2187,1.3653 -3.456,1.8347 0.4266,0.2133 0.8533,0.3413 1.28,0.4266 0.3413,0.0854 0.7253,0.128 1.1093,0.128 1.0667,0.0427 2.176,-0.128 3.1573,-0.5546 -0.4693,-0.3414 -0.9386,-0.64 -1.3226,-1.024 z"
       fill="#266ab4"
       id="path12"
       clip-path="url(#clipPath1413)"
       style="mix-blend-mode:hard-light;fill:url(#linearGradient2531);fill-opacity:1" />
    <path
       d="m 28.0775,20.0446 c 5.5893,2.9013 6.0586,16.1707 10.5386,21.5466 0.2987,-0.2133 0.5974,-0.4266 0.896,-0.6826 -2.7733,-6.1867 -3.584,-19.7547 -9.8133,-21.2907 -0.5547,0.0854 -1.0666,0.2134 -1.6213,0.4267 z"
       fill="url(#paint4_linear_5278_153978)"
       id="path14"
       style="mix-blend-mode:hard-light;fill:url(#linearGradient2533);fill-opacity:1"
       clip-path="url(#clipPath1407)" />
    <path
       d="m 23.8108,22.6472 c 4.2667,5.8454 5.8027,18.048 11.3494,20.7787 1.2373,-0.4693 2.3893,-1.0667 3.456,-1.8347 -4.4374,-5.4186 -4.9494,-18.6453 -10.5387,-21.5466 -1.536,0.5973 -2.9867,1.4933 -4.2667,2.6026 z"
       fill="url(#paint5_linear_5278_153978)"
       id="path16"
       style="mix-blend-mode:hard-light;fill:url(#linearGradient2535);fill-opacity:1"
       clip-path="url(#clipPath1401)" />
    <path
       d="m 19.4161,23.9699 c -0.8106,2.0053 -1.5786,4.0533 -2.176,6.1013 1.4507,-2.1333 3.1147,-4.096 4.9067,-5.9306 -0.2133,-0.64 -0.4693,-1.28 -0.7253,-1.92 -0.6827,0.5546 -1.3654,1.152 -2.0054,1.7493 z"
       fill="url(#paint6_linear_5278_153978)"
       id="path18"
       style="mix-blend-mode:hard-light;fill:url(#linearGradient2537);fill-opacity:1"
       clip-path="url(#clipPath1395)" />
    <path
       d="m 22.0188,21.7939 c -0.2133,0.128 -0.384,0.2987 -0.5973,0.4267 0.256,0.64 0.512,1.2373 0.7253,1.92 0.2987,-0.2987 0.5973,-0.5547 0.896,-0.8533 -0.2987,-0.512 -0.64,-1.024 -1.024,-1.4934 z"
       fill="#2c75b2"
       id="path20"
       clip-path="url(#clipPath1389)"
       style="mix-blend-mode:hard-light;fill:url(#linearGradient2539);fill-opacity:1" />
    <path
       d="m 22.7015,21.3246 c -0.2133,0.128 -0.4693,0.2987 -0.7253,0.4693 0.384,0.4694 0.7253,0.9814 1.024,1.4934 0.256,-0.2134 0.512,-0.4694 0.768,-0.6827 -0.2987,-0.4267 -0.64,-0.8533 -1.0667,-1.28 z"
       fill="#145b9e"
       id="path22"
       clip-path="url(#clipPath1383)"
       style="mix-blend-mode:hard-light;fill:url(#linearGradient2541);fill-opacity:1" />
    <path
       d="m 60.8028,18.8925 c -3.1573,12.2027 -9.7707,21.9734 -15.2747,24.448 -0.0853,0.0427 -0.2133,0.0854 -0.2986,0.128 h -0.0427 l -0.0853,0.0427 h -0.0427 l -0.128,0.0427 h -0.128 l -0.0853,0.0426 h -0.0427 c -0.0427,0 -0.0853,0.0427 -0.128,0.0427 h -0.128 -0.0427 l -0.0853,0.0427 h -0.128 c 0.256,0.0853 0.512,0.128 0.768,0.128 5.248,0 10.5387,-9.3867 19.2853,-25.0454 h -3.456 z"
       fill="url(#paint7_linear_5278_153978)"
       id="path24"
       style="mix-blend-mode:hard-light;fill:url(#linearGradient2543);fill-opacity:1"
       clip-path="url(#clipPath1377)" />
    <path
       d="m 19.4161,23.97 c 0.64,-0.5974 1.3227,-1.1947 2.0054,-1.7067 -0.128,-0.2987 -0.2987,-0.64 -0.4694,-0.9387 -0.64,0.8534 -1.152,1.7067 -1.536,2.6454 z m 0.4694,-3.9254 c 0.4266,0.384 0.768,0.8107 1.0666,1.28 0.0854,-0.128 0.2134,-0.2133 0.2987,-0.3413 -0.4267,-0.384 -0.896,-0.7253 -1.408,-0.9813 z"
       fill="#1982c5"
       id="path26"
       clip-path="url(#clipPath1371)"
       style="mix-blend-mode:hard-light;fill:url(#linearGradient2545);fill-opacity:1" />
    <path
       d="M 3.62949,38.6472 C 9.00549,28.2792 11.5655,21.7085 16.0882,19.9165 11.4375,21.7512 6.18949,28.6205 3.62949,38.6472 Z"
       fill="url(#paint8_linear_5278_153978)"
       id="path28"
       style="mix-blend-mode:hard-light;fill:url(#linearGradient2547);fill-opacity:1"
       clip-path="url(#clipPath1365)" />
    <path
       d="m 21.2508,20.9833 c -0.128,0.128 -0.2133,0.2133 -0.2987,0.3413 0.1707,0.2987 0.3414,0.5973 0.4694,0.9387 0.2133,-0.1707 0.384,-0.2987 0.5973,-0.4267 -0.256,-0.2987 -0.512,-0.5973 -0.768,-0.8533 z"
       fill="#277bbf"
       id="path30"
       clip-path="url(#clipPath1359)"
       style="mix-blend-mode:hard-light;fill:url(#linearGradient2549);fill-opacity:1" />
    <path
       d="M 6.10416,44.5352 H 5.67749 c 5.46131,-0.1707 7.93601,-2.9014 9.17331,-6.8267 0.9387,-2.9867 1.7067,-5.5467 2.3894,-7.6373 -2.5174,3.6266 -4.8214,7.424 -6.912,11.3493 -0.81071,1.7067 -2.38938,2.8587 -4.22404,3.1147 z"
       fill="url(#paint9_linear_5278_153978)"
       id="path32"
       style="mix-blend-mode:hard-light;fill:url(#linearGradient2551);fill-opacity:1"
       clip-path="url(#clipPath1353)" />
    <path
       d="m 6.10416,44.5352 c 1.83466,-0.256 3.456,-1.4507 4.26664,-3.1147 2.048,-3.9253 4.352,-7.68 6.8694,-11.3493 0.64,-2.0907 1.3653,-4.1387 2.176,-6.1014 -4.5654,4.352 -9.1307,11.52 -13.31204,20.5654 z"
       fill="url(#paint10_linear_5278_153978)"
       id="path34"
       style="mix-blend-mode:hard-light;fill:url(#linearGradient2553);fill-opacity:1"
       clip-path="url(#clipPath1347)" />
    <path
       d="m 3.62947,38.6472 c -0.98133,1.8773 -2.00533,3.84 -3.199996,5.9307 H 2.47747 c 0.29867,-1.9627 0.68267,-3.968 1.152,-5.9307 z"
       fill="#269fda"
       id="path36"
       clip-path="url(#clipPath1341)"
       style="mix-blend-mode:hard-light;fill:url(#linearGradient2555);fill-opacity:1" />
    <path
       d="m 48.4721,25.6339 c -1.024,3.328 -1.8773,6.0587 -2.6026,8.32 2.8586,-3.9253 5.632,-8.832 8.32,-14.5066 -3.1147,0.9813 -4.7787,3.2 -5.7174,6.1866 z"
       fill="url(#paint11_linear_5278_153978)"
       id="path38"
       style="mix-blend-mode:hard-light;fill:url(#linearGradient2557);fill-opacity:1"
       clip-path="url(#clipPath1335)" />
    <path
       d="m 45.9548,43.1272 c -0.128,0.0854 -0.2987,0.128 -0.4267,0.2134 5.5467,-2.4747 12.1174,-12.2454 15.2747,-24.448 h -0.64 c -7.2107,12.9706 -9.5573,21.6746 -14.208,24.2346 z"
       fill="url(#paint12_linear_5278_153978)"
       id="path40"
       style="mix-blend-mode:hard-light;fill:url(#linearGradient2559);fill-opacity:1"
       clip-path="url(#clipPath1329)" />
    <path
       d="m 42.3708,42.0606 c 1.1947,-1.4507 2.176,-3.968 3.5413,-8.064 -1.3653,1.9626 -2.944,3.7547 -4.6506,5.4187 0.256,0.896 0.64,1.7919 1.1093,2.6453 z"
       fill="#2898d5"
       id="path42"
       clip-path="url(#clipPath1323)"
       style="mix-blend-mode:hard-light;fill:url(#linearGradient2561);fill-opacity:1" />
    <path
       d="m 42.3708,42.0605 c -0.384,0.4694 -0.8106,0.8534 -1.3226,1.152 -0.128,0.0427 -0.2134,0.128 -0.3414,0.1707 0.512,0.2987 1.1094,0.4693 1.7067,0.5547 l 0.2987,0.0426 h 1.1946 l 0.256,-0.0426 c -0.8106,-0.3414 -1.4506,-0.9814 -1.8346,-1.7494 z"
       fill="#266ab4"
       id="path44"
       clip-path="url(#clipPath1317)"
       style="mix-blend-mode:hard-light;fill:url(#linearGradient2563);fill-opacity:1" />
    <path
       d="m 32.1735,43.9378 c 0.512,0 1.0667,-0.0426 1.5787,-0.1706 0.512,-0.0854 0.9813,-0.2134 1.4506,-0.384 0.7254,0.3413 1.536,0.5546 2.3894,0.5546 z m 5.376,0 c 1.0667,0.0427 2.176,-0.128 3.1573,-0.5546 0.512,0.2986 1.1094,0.4693 1.7067,0.5546 l 0.2987,0.0427 h 0.128 z"
       fill="#295eac"
       id="path46"
       clip-path="url(#clipPath1311)"
       style="mix-blend-mode:hard-light;fill:url(#linearGradient2565);fill-opacity:1" />
    <path
       d="m 42.9681,43.9379 h 0.896 c 0.0854,0 0.1707,-0.0426 0.256,-0.0426 0.256,0.0853 0.512,0.128 0.8107,0.128 h -2.0053 z"
       fill="#2862ae"
       id="path48"
       clip-path="url(#clipPath1305)"
       style="mix-blend-mode:hard-light;fill:url(#linearGradient2567);fill-opacity:1" />
    <path
       d="m 41.2188,39.4153 c -0.5546,0.5547 -1.152,1.0667 -1.7067,1.4933 -0.2986,0.256 -0.5973,0.4693 -0.896,0.6827 0.2561,0.2987 0.5121,0.5973 0.7681,0.8533 0.384,0.384 0.8533,0.7254 1.3226,0.9814 0.128,-0.0427 0.2134,-0.128 0.3414,-0.1707 0.512,-0.2987 0.9386,-0.6827 1.3226,-1.152 -0.4693,-0.896 -0.8533,-1.7493 -1.152,-2.688 z"
       fill="#1d60ab"
       id="path50"
       clip-path="url(#clipPath1299)"
       style="mix-blend-mode:hard-light;fill:url(#linearGradient2569);fill-opacity:1" />
    <path
       d="m 58.1575,18.8926 h -3.2427 c -0.1706,0 -0.3413,0 -0.512,0.0426 l -0.256,0.512 c -2.688,5.6747 -5.4613,10.5814 -8.32,14.5067 -1.3226,4.096 -2.304,6.6133 -3.5413,8.064 0.384,0.768 1.024,1.408 1.8347,1.7493 h 0.3413 l 0.128,-0.0426 h 0.0427 l 0.0853,-0.0427 h 0.128 l 0.128,-0.0427 h 0.0427 l 0.0853,-0.0426 h 0.0427 l 0.2986,-0.128 c 0.128,-0.0854 0.2987,-0.128 0.4267,-0.2134 4.608,-2.56 6.9547,-11.264 14.208,-24.2346 h -2.0053 z"
       fill="url(#paint13_linear_5278_153978)"
       id="path52"
       style="mix-blend-mode:hard-light;fill:url(#linearGradient2571);fill-opacity:1"
       clip-path="url(#clipPath1293)" />
    <path
       d="m 21.2508,20.9832 c 0.256,0.256 0.512,0.5547 0.768,0.8533 0.2134,-0.1706 0.4694,-0.3413 0.7254,-0.4693 -0.2987,-0.2987 -0.64,-0.5973 -0.9814,-0.8107 -0.1706,0.128 -0.3413,0.256 -0.512,0.4267 z"
       fill="#61c5ec"
       id="path54"
       clip-path="url(#clipPath1287)"
       style="mix-blend-mode:hard-light;fill:url(#linearGradient2573);fill-opacity:1" />
    <path
       d="m 18.0081,19.4899 h 0.4267 c 1.1947,0 2.3467,0.384 3.2853,1.0667 1.024,-0.8107 2.2187,-1.0667 3.9254,-1.0667 0.0426,-0.0427 -7.808,-0.0427 -7.6374,0 z"
       fill="url(#paint14_linear_5278_153978)"
       id="path56"
       style="mix-blend-mode:hard-light;fill:url(#linearGradient2575);fill-opacity:1"
       clip-path="url(#clipPath1281)" />
    <path
       d="m 25.6882,19.4472 c -1.7067,0 -2.9014,0.2987 -3.9254,1.0667 0.3414,0.256 0.6827,0.512 0.9814,0.8106 1.28,-0.8533 2.688,-1.4506 4.1813,-1.7493 0.512,-0.0853 1.024,-0.128 1.5787,-0.1707 h -2.816 z"
       fill="url(#paint15_linear_5278_153978)"
       id="path58"
       style="mix-blend-mode:hard-light;fill:url(#linearGradient2577);fill-opacity:1"
       clip-path="url(#clipPath1275)" />
    <path
       d="m 45.8695,33.9538 c 0.7253,-2.2613 1.5786,-4.992 2.6026,-8.32 0.9387,-2.9866 2.6027,-5.248 5.7174,-6.1866 l 0.256,-0.512 c -5.0774,0.2986 -7.424,2.9013 -8.6187,6.6986 -2.0907,6.656 -3.328,11.008 -4.5653,13.7387 1.664,-1.664 3.2426,-3.456 4.608,-5.4187 z"
       fill="url(#paint16_linear_5278_153978)"
       id="path60"
       style="mix-blend-mode:hard-light;fill:url(#linearGradient2579);fill-opacity:1"
       clip-path="url(#clipPath1269)" />
    <path
       d="m 2.52014,44.6205 3.584,-0.0427 c 1.87733,-4.096 4.05336,-8.1066 6.48536,-11.9466 1.9626,-3.1574 4.224,-6.0587 6.8693,-8.6614 0.384,-0.9386 0.896,-1.8346 1.536,-2.6453 -0.2987,-0.64 -0.8533,-1.1947 -1.4933,-1.4933 -1.024,-0.4694 -2.2187,-0.4267 -3.2427,0.0853 -1.5787,0.5547 -3.072,1.8347 -4.48,3.84 -2.47466,3.7547 -5.20533,8.832 -8.10666,14.9333 -0.512,1.92 -0.896,3.9254 -1.152,5.9307 z"
       fill="url(#paint17_linear_5278_153978)"
       id="path62"
       style="mix-blend-mode:hard-light;fill:url(#linearGradient2581);fill-opacity:1"
       clip-path="url(#clipPath1263)" />
    <path
       d="M -0.253174,44.5779 H 0.47216 c 1.152,-2.048 2.21867,-4.0534 3.2,-5.9307 1.024,-4.224 2.77333,-8.2773 5.12,-11.9467 2.68804,-4.1386 5.76004,-6.656 9.25864,-7.2533 -1.9626,-0.256 -4.3946,0.5973 -8.10664,4.5227 -2.34667,2.56 -4.48,6.1013 -6.48533,10.2826 -1.57867,3.328 -2.816004,6.784 -3.712004,10.3254 z"
       fill="url(#paint18_linear_5278_153978)"
       id="path64"
       style="mix-blend-mode:hard-light;fill:url(#linearGradient2583);fill-opacity:1"
       clip-path="url(#clipPath1257)"
       transform="translate(0,0.21410949)" />
    <path
       d="m 21.2508,20.9832 c -0.896,-0.8533 -2.0053,-1.3653 -3.2427,-1.536 0.8534,-0.0853 1.664,0.0427 2.432,0.3414 0.4694,0.1706 0.896,0.3839 1.28,0.7253 z"
       fill="#7ecbeb"
       id="path66"
       clip-path="url(#clipPath1251)"
       style="mix-blend-mode:hard-light;fill:url(#linearGradient2585);fill-opacity:1" />
  </g>
  <defs
     id="defs204">
    <linearGradient
       id="linearGradient2591">
      <stop
         style="stop-color:#999999;stop-opacity:1;"
         offset="0.18897623"
         id="stop2587" />
      <stop
         style="stop-color:#999999;stop-opacity:0;"
         offset="1"
         id="stop2589" />
    </linearGradient>
    <linearGradient
       id="linearGradient2519">
      <stop
         style="stop-color:#999999;stop-opacity:1;"
         offset="0"
         id="stop2515" />
      <stop
         style="stop-color:#999999;stop-opacity:0;"
         offset="1"
         id="stop2517" />
    </linearGradient>
    <clipPath
       clipPathUnits="userSpaceOnUse"
       id="clipPath1251">
      <g
         id="g1255">
        <rect
           width="64"
           height="64"
           fill="#ffffff"
           id="rect1253"
           x="0"
           y="0" />
      </g>
    </clipPath>
    <clipPath
       clipPathUnits="userSpaceOnUse"
       id="clipPath1257">
      <g
         id="g1261">
        <rect
           width="64"
           height="64"
           fill="#ffffff"
           id="rect1259"
           x="0"
           y="0" />
      </g>
    </clipPath>
    <clipPath
       clipPathUnits="userSpaceOnUse"
       id="clipPath1263">
      <g
         id="g1267">
        <rect
           width="64"
           height="64"
           fill="#ffffff"
           id="rect1265"
           x="0"
           y="0" />
      </g>
    </clipPath>
    <clipPath
       clipPathUnits="userSpaceOnUse"
       id="clipPath1269">
      <g
         id="g1273">
        <rect
           width="64"
           height="64"
           fill="#ffffff"
           id="rect1271"
           x="0"
           y="0" />
      </g>
    </clipPath>
    <clipPath
       clipPathUnits="userSpaceOnUse"
       id="clipPath1275">
      <g
         id="g1279">
        <rect
           width="64"
           height="64"
           fill="#ffffff"
           id="rect1277"
           x="0"
           y="0" />
      </g>
    </clipPath>
    <clipPath
       clipPathUnits="userSpaceOnUse"
       id="clipPath1281">
      <g
         id="g1285">
        <rect
           width="64"
           height="64"
           fill="#ffffff"
           id="rect1283"
           x="0"
           y="0" />
      </g>
    </clipPath>
    <clipPath
       clipPathUnits="userSpaceOnUse"
       id="clipPath1287">
      <g
         id="g1291">
        <rect
           width="64"
           height="64"
           fill="#ffffff"
           id="rect1289"
           x="0"
           y="0" />
      </g>
    </clipPath>
    <clipPath
       clipPathUnits="userSpaceOnUse"
       id="clipPath1293">
      <g
         id="g1297">
        <rect
           width="64"
           height="64"
           fill="#ffffff"
           id="rect1295"
           x="0"
           y="0" />
      </g>
    </clipPath>
    <clipPath
       clipPathUnits="userSpaceOnUse"
       id="clipPath1299">
      <g
         id="g1303">
        <rect
           width="64"
           height="64"
           fill="#ffffff"
           id="rect1301"
           x="0"
           y="0" />
      </g>
    </clipPath>
    <clipPath
       clipPathUnits="userSpaceOnUse"
       id="clipPath1305">
      <g
         id="g1309">
        <rect
           width="64"
           height="64"
           fill="#ffffff"
           id="rect1307"
           x="0"
           y="0" />
      </g>
    </clipPath>
    <clipPath
       clipPathUnits="userSpaceOnUse"
       id="clipPath1311">
      <g
         id="g1315">
        <rect
           width="64"
           height="64"
           fill="#ffffff"
           id="rect1313"
           x="0"
           y="0" />
      </g>
    </clipPath>
    <clipPath
       clipPathUnits="userSpaceOnUse"
       id="clipPath1317">
      <g
         id="g1321">
        <rect
           width="64"
           height="64"
           fill="#ffffff"
           id="rect1319"
           x="0"
           y="0" />
      </g>
    </clipPath>
    <clipPath
       clipPathUnits="userSpaceOnUse"
       id="clipPath1323">
      <g
         id="g1327">
        <rect
           width="64"
           height="64"
           fill="#ffffff"
           id="rect1325"
           x="0"
           y="0" />
      </g>
    </clipPath>
    <clipPath
       clipPathUnits="userSpaceOnUse"
       id="clipPath1329">
      <g
         id="g1333">
        <rect
           width="64"
           height="64"
           fill="#ffffff"
           id="rect1331"
           x="0"
           y="0" />
      </g>
    </clipPath>
    <clipPath
       clipPathUnits="userSpaceOnUse"
       id="clipPath1335">
      <g
         id="g1339">
        <rect
           width="64"
           height="64"
           fill="#ffffff"
           id="rect1337"
           x="0"
           y="0" />
      </g>
    </clipPath>
    <clipPath
       clipPathUnits="userSpaceOnUse"
       id="clipPath1341">
      <g
         id="g1345">
        <rect
           width="64"
           height="64"
           fill="#ffffff"
           id="rect1343"
           x="0"
           y="0" />
      </g>
    </clipPath>
    <clipPath
       clipPathUnits="userSpaceOnUse"
       id="clipPath1347">
      <g
         id="g1351">
        <rect
           width="64"
           height="64"
           fill="#ffffff"
           id="rect1349"
           x="0"
           y="0" />
      </g>
    </clipPath>
    <clipPath
       clipPathUnits="userSpaceOnUse"
       id="clipPath1353">
      <g
         id="g1357">
        <rect
           width="64"
           height="64"
           fill="#ffffff"
           id="rect1355"
           x="0"
           y="0" />
      </g>
    </clipPath>
    <clipPath
       clipPathUnits="userSpaceOnUse"
       id="clipPath1359">
      <g
         id="g1363">
        <rect
           width="64"
           height="64"
           fill="#ffffff"
           id="rect1361"
           x="0"
           y="0" />
      </g>
    </clipPath>
    <clipPath
       clipPathUnits="userSpaceOnUse"
       id="clipPath1365">
      <g
         id="g1369">
        <rect
           width="64"
           height="64"
           fill="#ffffff"
           id="rect1367"
           x="0"
           y="0" />
      </g>
    </clipPath>
    <clipPath
       clipPathUnits="userSpaceOnUse"
       id="clipPath1371">
      <g
         id="g1375">
        <rect
           width="64"
           height="64"
           fill="#ffffff"
           id="rect1373"
           x="0"
           y="0" />
      </g>
    </clipPath>
    <clipPath
       clipPathUnits="userSpaceOnUse"
       id="clipPath1377">
      <g
         id="g1381">
        <rect
           width="64"
           height="64"
           fill="#ffffff"
           id="rect1379"
           x="0"
           y="0" />
      </g>
    </clipPath>
    <clipPath
       clipPathUnits="userSpaceOnUse"
       id="clipPath1383">
      <g
         id="g1387">
        <rect
           width="64"
           height="64"
           fill="#ffffff"
           id="rect1385"
           x="0"
           y="0" />
      </g>
    </clipPath>
    <clipPath
       clipPathUnits="userSpaceOnUse"
       id="clipPath1389">
      <g
         id="g1393">
        <rect
           width="64"
           height="64"
           fill="#ffffff"
           id="rect1391"
           x="0"
           y="0" />
      </g>
    </clipPath>
    <clipPath
       clipPathUnits="userSpaceOnUse"
       id="clipPath1395">
      <g
         id="g1399">
        <rect
           width="64"
           height="64"
           fill="#ffffff"
           id="rect1397"
           x="0"
           y="0" />
      </g>
    </clipPath>
    <clipPath
       clipPathUnits="userSpaceOnUse"
       id="clipPath1401">
      <g
         id="g1405">
        <rect
           width="64"
           height="64"
           fill="#ffffff"
           id="rect1403"
           x="0"
           y="0" />
      </g>
    </clipPath>
    <clipPath
       clipPathUnits="userSpaceOnUse"
       id="clipPath1407">
      <g
         id="g1411">
        <rect
           width="64"
           height="64"
           fill="#ffffff"
           id="rect1409"
           x="0"
           y="0" />
      </g>
    </clipPath>
    <clipPath
       clipPathUnits="userSpaceOnUse"
       id="clipPath1413">
      <g
         id="g1417">
        <rect
           width="64"
           height="64"
           fill="#ffffff"
           id="rect1415"
           x="0"
           y="0" />
      </g>
    </clipPath>
    <clipPath
       clipPathUnits="userSpaceOnUse"
       id="clipPath1419">
      <g
         id="g1423">
        <rect
           width="64"
           height="64"
           fill="#ffffff"
           id="rect1421"
           x="0"
           y="0" />
      </g>
    </clipPath>
    <clipPath
       clipPathUnits="userSpaceOnUse"
       id="clipPath1425">
      <g
         id="g1429">
        <rect
           width="64"
           height="64"
           fill="#ffffff"
           id="rect1427"
           x="0"
           y="0" />
      </g>
    </clipPath>
    <clipPath
       clipPathUnits="userSpaceOnUse"
       id="clipPath1431">
      <g
         id="g1435">
        <rect
           width="64"
           height="64"
           fill="#ffffff"
           id="rect1433"
           x="0"
           y="0" />
      </g>
    </clipPath>
    <clipPath
       clipPathUnits="userSpaceOnUse"
       id="clipPath1437">
      <g
         id="g1441">
        <rect
           width="64"
           height="64"
           fill="#ffffff"
           id="rect1439"
           x="0"
           y="0" />
      </g>
    </clipPath>
    <clipPath
       clipPathUnits="userSpaceOnUse"
       id="clipPath1443">
      <g
         id="g1447">
        <rect
           width="64"
           height="64"
           fill="#ffffff"
           id="rect1445"
           x="0"
           y="0" />
      </g>
    </clipPath>
    <linearGradient
       xlink:href="#linearGradient2519"
       id="linearGradient2521"
       x1="0"
       y1="31.7992"
       x2="64"
       y2="31.7992"
       gradientUnits="userSpaceOnUse" />
    <linearGradient
       xlink:href="#linearGradient2519"
       id="linearGradient2523"
       x1="22.146799"
       y1="33.612549"
       x2="33.752201"
       y2="33.612549"
       gradientUnits="userSpaceOnUse" />
    <linearGradient
       xlink:href="#linearGradient2519"
       id="linearGradient2525"
       x1="23.042801"
       y1="33.22855"
       x2="35.160198"
       y2="33.22855"
       gradientUnits="userSpaceOnUse" />
    <linearGradient
       xlink:href="#linearGradient2519"
       id="linearGradient2527"
       x1="22.7015"
       y1="21.025949"
       x2="29.656099"
       y2="21.025949"
       gradientUnits="userSpaceOnUse" />
    <linearGradient
       xlink:href="#linearGradient2519"
       id="linearGradient2529"
       x1="29.6562"
       y1="30.1992"
       x2="41.2188"
       y2="30.1992"
       gradientUnits="userSpaceOnUse" />
    <linearGradient
       xlink:href="#linearGradient2519"
       id="linearGradient2531"
       x1="35.160198"
       y1="42.789032"
       x2="40.706799"
       y2="42.789032"
       gradientUnits="userSpaceOnUse" />
    <linearGradient
       xlink:href="#linearGradient2519"
       id="linearGradient2533"
       x1="28.077499"
       y1="30.604549"
       x2="39.5121"
       y2="30.604549"
       gradientUnits="userSpaceOnUse" />
    <linearGradient
       xlink:href="#linearGradient2519"
       id="linearGradient2535"
       x1="23.810801"
       y1="31.73525"
       x2="38.616199"
       y2="31.73525"
       gradientUnits="userSpaceOnUse" />
    <linearGradient
       xlink:href="#linearGradient2519"
       id="linearGradient2537"
       x1="17.240101"
       y1="26.145901"
       x2="22.146799"
       y2="26.145901"
       gradientUnits="userSpaceOnUse" />
    <linearGradient
       xlink:href="#linearGradient2519"
       id="linearGradient2539"
       x1="21.421499"
       y1="22.967251"
       x2="23.042801"
       y2="22.967251"
       gradientUnits="userSpaceOnUse" />
    <linearGradient
       xlink:href="#linearGradient2519"
       id="linearGradient2541"
       x1="21.9762"
       y1="22.30595"
       x2="23.7682"
       y2="22.30595"
       gradientUnits="userSpaceOnUse" />
    <linearGradient
       xlink:href="#linearGradient2519"
       id="linearGradient2543"
       x1="44.1628"
       y1="31.287201"
       x2="64"
       y2="31.287201"
       gradientUnits="userSpaceOnUse" />
    <linearGradient
       xlink:href="#linearGradient2519"
       id="linearGradient2545"
       x1="19.4161"
       y1="21.986"
       x2="21.421499"
       y2="21.986"
       gradientUnits="userSpaceOnUse" />
    <linearGradient
       xlink:href="#linearGradient2519"
       id="linearGradient2547"
       x1="3.6294899"
       y1="29.281851"
       x2="16.0882"
       y2="29.281851"
       gradientUnits="userSpaceOnUse" />
    <linearGradient
       xlink:href="#linearGradient2519"
       id="linearGradient2549"
       x1="20.952101"
       y1="21.623301"
       x2="22.018801"
       y2="21.623301"
       gradientUnits="userSpaceOnUse" />
    <linearGradient
       xlink:href="#linearGradient2519"
       id="linearGradient2551"
       x1="5.6774902"
       y1="37.3032"
       x2="17.2402"
       y2="37.3032"
       gradientUnits="userSpaceOnUse" />
    <linearGradient
       xlink:href="#linearGradient2519"
       id="linearGradient2553"
       x1="6.1041598"
       y1="34.252499"
       x2="19.416201"
       y2="34.252499"
       gradientUnits="userSpaceOnUse" />
    <linearGradient
       xlink:href="#linearGradient2519"
       id="linearGradient2555"
       x1="0.429474"
       y1="41.612549"
       x2="3.6294701"
       y2="41.612549"
       gradientUnits="userSpaceOnUse" />
    <linearGradient
       xlink:href="#linearGradient2519"
       id="linearGradient2557"
       x1="45.869499"
       y1="26.7006"
       x2="54.189499"
       y2="26.7006"
       gradientUnits="userSpaceOnUse" />
    <linearGradient
       xlink:href="#linearGradient2519"
       id="linearGradient2559"
       x1="45.528099"
       y1="31.1166"
       x2="60.802799"
       y2="31.1166"
       gradientUnits="userSpaceOnUse" />
    <linearGradient
       xlink:href="#linearGradient2519"
       id="linearGradient2561"
       x1="41.261501"
       y1="38.028599"
       x2="45.912102"
       y2="38.028599"
       gradientUnits="userSpaceOnUse" />
    <linearGradient
       xlink:href="#linearGradient2519"
       id="linearGradient2563"
       x1="40.706799"
       y1="43.0205"
       x2="44.1628"
       y2="43.0205"
       gradientUnits="userSpaceOnUse" />
    <linearGradient
       xlink:href="#linearGradient2519"
       id="linearGradient2565"
       x1="32.1735"
       y1="43.68185"
       x2="42.840199"
       y2="43.68185"
       gradientUnits="userSpaceOnUse" />
    <linearGradient
       xlink:href="#linearGradient2519"
       id="linearGradient2567"
       x1="42.925499"
       y1="43.959301"
       x2="44.930801"
       y2="43.959301"
       gradientUnits="userSpaceOnUse" />
    <linearGradient
       xlink:href="#linearGradient2519"
       id="linearGradient2569"
       x1="38.6161"
       y1="41.42065"
       x2="42.3708"
       y2="41.42065"
       gradientUnits="userSpaceOnUse" />
    <linearGradient
       xlink:href="#linearGradient2519"
       id="linearGradient2571"
       x1="42.2855"
       y1="31.329901"
       x2="60.077499"
       y2="31.329901"
       gradientUnits="userSpaceOnUse" />
    <linearGradient
       xlink:href="#linearGradient2519"
       id="linearGradient2573"
       x1="21.250799"
       y1="21.196501"
       x2="22.7442"
       y2="21.196501"
       gradientUnits="userSpaceOnUse" />
    <linearGradient
       xlink:href="#linearGradient2519"
       id="linearGradient2575"
       x1="18.00536"
       y1="20.007238"
       x2="25.645674"
       y2="20.007238"
       gradientUnits="userSpaceOnUse" />
    <linearGradient
       xlink:href="#linearGradient2519"
       id="linearGradient2577"
       x1="21.7628"
       y1="20.3645"
       x2="28.5042"
       y2="20.3645"
       gradientUnits="userSpaceOnUse" />
    <linearGradient
       xlink:href="#linearGradient2519"
       id="linearGradient2579"
       x1="41.261501"
       y1="29.153851"
       x2="54.445499"
       y2="29.153851"
       gradientUnits="userSpaceOnUse" />
    <linearGradient
       xlink:href="#linearGradient2519"
       id="linearGradient2581"
       x1="2.5201399"
       y1="32.062382"
       x2="20.994801"
       y2="32.062382"
       gradientUnits="userSpaceOnUse" />
    <linearGradient
       xlink:href="#linearGradient2519"
       id="linearGradient2583"
       x1="0"
       y1="31.991711"
       x2="18.0508"
       y2="31.991711"
       gradientUnits="userSpaceOnUse" />
    <linearGradient
       xlink:href="#linearGradient2591"
       id="linearGradient2585"
       x1="18.008101"
       y1="20.202232"
       x2="21.7201"
       y2="20.202232"
       gradientUnits="userSpaceOnUse" />
  </defs>
</svg>
