<?xml version="1.0" encoding="UTF-8" standalone="no"?>
<svg
   width="64"
   height="64"
   viewBox="0 0 64 64"
   fill="none"
   version="1.1"
   id="svg571"
   xmlns="http://www.w3.org/2000/svg"
   xmlns:svg="http://www.w3.org/2000/svg">
  <path
     fill-rule="evenodd"
     clip-rule="evenodd"
     d="M 49.3089,42.082 13.3397,63.4998 59.913,60.3306 63.5001,13.238 Z"
     fill="url(#paint0_linear_5278_153976)"
     id="path385"
     style="fill:#f2f2f2;fill-opacity:1" />
  <path
     fill-rule="evenodd"
     clip-rule="evenodd"
     d="M 59.9894,60.2986 55.9864,32.5929 45.0827,47.0309 Z"
     fill="url(#paint1_linear_5278_153976)"
     id="path387"
     style="fill:#e5e5e5;fill-opacity:1" />
  <path
     fill-rule="evenodd"
     clip-rule="evenodd"
     d="M 60.0434,60.2987 30.717,57.9901 13.4955,63.4397 Z"
     fill="url(#paint2_linear_5278_153976)"
     id="path389"
     style="fill:#dbdbdb;fill-opacity:1" />
  <path
     fill-rule="evenodd"
     clip-rule="evenodd"
     d="M 13.5369,63.4459 20.863,39.3784 4.7417,42.8352 Z"
     fill="url(#paint3_linear_5278_153976)"
     id="path391"
     style="fill:#f2f2f2;fill-opacity:1" />
  <path
     fill-rule="evenodd"
     clip-rule="evenodd"
     d="M 61.9707,21.0058 43.7349,6.07043 38.6568,22.5331 Z"
     fill="url(#paint4_linear_5278_153976)"
     id="path393"
     style="fill:#f2f2f2;fill-opacity:1" />
  <path
     fill-rule="evenodd"
     clip-rule="evenodd"
     d="M 53.4426,0.745242 42.7174,6.68878 35.9509,0.665527 Z"
     fill="url(#paint5_linear_5278_153976)"
     id="path395"
     style="fill:#e5e5e5;fill-opacity:1" />
  <path
     fill-rule="evenodd"
     clip-rule="evenodd"
     d="M 0.499939,50.9082 4.99291,42.6912 1.35847,32.9022 Z"
     fill="url(#paint6_linear_5278_153976)"
     id="path397"
     style="fill:#e5e5e5;fill-opacity:1" />
  <path
     fill-rule="evenodd"
     clip-rule="evenodd"
     d="M 1.11682,32.593 4.77352,42.9942 20.6627,39.4195 38.8031,22.5136 43.9225,6.20746 35.8615,0.499878 22.1568,5.64307 C 17.8391,9.67026 9.46046,17.6386 9.15838,17.7884 8.85949,17.9415 3.62564,27.8612 1.11682,32.593 Z"
     fill="#ffffff"
     id="path399" />
  <path
     d="m 20.7709,39.3186 18.0322,-16.8051 0.0081,-0.0257 6.2687,24.6228 z"
     fill="url(#paint7_linear_5278_153976)"
     id="path401"
     style="fill:#e5e5e5;fill-opacity:1" />
  <path
     fill-rule="evenodd"
     clip-rule="evenodd"
     d="M 13.9566,13.908 C 23.3146,4.60367 35.3785,-0.893467 40.0082,3.79057 44.635,8.47462 39.7284,19.8579 30.3704,29.159 21.0124,38.4601 9.09795,44.2602 4.47143,39.5761 -0.158269,34.8953 4.59862,23.2091 13.9566,13.908 Z"
     fill="url(#paint8_linear_5278_153976)"
     id="path403"
     style="fill:#e5e5e5;fill-opacity:1" />
  <path
     fill-rule="evenodd"
     clip-rule="evenodd"
     d="m 13.5369,63.4363 7.2689,-24.1441 24.1405,7.777 C 36.218,55.2766 26.5102,62.215 13.5369,63.4363 Z"
     fill="url(#paint9_linear_5278_153976)"
     id="path405"
     style="fill:#e5e5e5;fill-opacity:1" />
  <path
     fill-rule="evenodd"
     clip-rule="evenodd"
     d="m 38.8349,22.466 6.1973,24.6159 C 52.3233,39.3942 58.8673,31.1294 62.0721,20.9067 Z"
     fill="url(#paint10_linear_5278_153976)"
     id="path407"
     style="fill:#f2f2f2;fill-opacity:1" />
  <path
     fill-rule="evenodd"
     clip-rule="evenodd"
     d="M 62.0088,21.0314 C 64.489,13.5254 65.0613,2.75755 53.3659,0.758301 L 43.7695,6.07369 Z"
     fill="url(#paint11_linear_5278_153976)"
     id="path409"
     style="fill:#e5e5e5;fill-opacity:1" />
  <path
     fill-rule="evenodd"
     clip-rule="evenodd"
     d="M 0.499939,50.7998 C 0.843351,63.1878 9.75616,63.3724 13.5528,63.4811 L 4.78305,42.9431 Z"
     fill="#9E1209"
     id="path411"
     style="fill:#f2f2f2;fill-opacity:1" />
  <path
     fill-rule="evenodd"
     clip-rule="evenodd"
     d="m 38.8696,22.5043 c 5.6027,3.4533 16.8942,10.3884 17.1232,10.516 0.3558,0.2009 4.8681,-7.6303 5.892,-12.0561 z"
     fill="url(#paint12_radial_5278_153976)"
     id="path413"
     style="fill:#e5e5e5;fill-opacity:1" />
  <path
     fill-rule="evenodd"
     clip-rule="evenodd"
     d="m 20.683126,39.066052 9.7173,18.8 c 5.7458,-3.1248 10.2451,-6.932 14.3661,-11.0102 z"
     fill="url(#paint13_radial_5278_153976)"
     id="path415"
     style="fill:#f2f2f2;fill-opacity:1" />
  <path
     fill-rule="evenodd"
     clip-rule="evenodd"
     d="M 4.74488,42.9687 3.36806,59.4091 C 5.9659,62.9676 9.53993,63.2769 13.2888,62.9995 10.5765,56.2301 5.15825,42.6945 4.74488,42.9687 Z"
     fill="url(#paint14_linear_5278_153976)"
     id="path417"
     style="fill:#e5e5e5;fill-opacity:1" />
  <path
     fill-rule="evenodd"
     clip-rule="evenodd"
     d="M 43.7126,6.11482 63.0168,8.8315 C 61.9866,4.45357 58.8227,1.62848 53.4299,0.745239 Z"
     fill="url(#paint15_linear_5278_153976)"
     id="path419"
     style="fill:#f2f2f2;fill-opacity:1" />
  <defs
     id="defs569" />
</svg>
