<?xml version="1.0" encoding="UTF-8" standalone="no"?>
<svg
   width="64"
   height="64"
   viewBox="0 0 64 64"
   fill="none"
   version="1.1"
   id="svg337"
   xmlns="http://www.w3.org/2000/svg"
   xmlns:svg="http://www.w3.org/2000/svg">
  <defs
     id="defs341" />
  <path
     d="M 32,64 C 49.6731,64 64,49.6731 64,32 64,14.3269 49.6731,0 32,0 14.3269,0 3.8147e-6,14.3269 3.8147e-6,32 3.8147e-6,49.6731 14.3269,64 32,64 Z"
     fill="black"
     id="path333"
     style="fill:#ffffff;fill-opacity:1" />
  <path
     d="m 45.9902,11.8403 c -3.25,0.114 -6.0895,1.906 -8.1995,4.3842 -2.3403,2.7176 -3.8951,5.9424 -5.0168,9.2323 -2.0052,-1.6438 -3.552,-3.7709 -6.7689,-4.6988 -2.4885,-0.7147 -5.0989,-0.4206 -7.5007,1.369 -1.1388,0.8504 -1.9219,2.1351 -2.2947,3.3423 -0.9666,3.1394 1.0134,5.9333 1.9139,6.9376 l 1.9664,2.1043 c 0.4058,0.4138 1.3805,1.4922 0.9051,3.0368 -0.5164,1.6813 -2.5409,2.7677 -4.619,2.1282 -0.9279,-0.2873 -2.2616,-0.9769 -1.9618,-1.9481 0.1231,-0.399 0.4081,-0.6988 0.562,-1.0397 0.1402,-0.2963 0.2063,-0.5175 0.2485,-0.6474 0.3796,-1.2403 -0.1391,-2.8521 -1.4659,-3.2614 -1.2391,-0.3784 -2.5044,-0.0775 -2.9958,1.515 -0.5585,1.8136 0.309,5.0977 4.9519,6.5306 5.4397,1.6723 10.0416,-1.2915 10.6936,-5.1536 C 26.82,33.2527 25.7257,31.4539 23.7251,29.141 L 22.095,27.3388 c -0.9883,-0.9883 -1.3268,-2.6697 -0.3055,-3.9613 0.863,-1.0909 2.0907,-1.556 4.1049,-1.0099 2.9376,0.7956 4.2474,2.835 6.4315,4.4799 -0.9017,2.9581 -1.4922,5.9276 -2.0245,8.5927 l -0.3272,1.9835 c -1.5628,8.1915 -2.7541,12.6885 -5.8524,15.2704 -0.6235,0.4458 -1.5172,1.1092 -2.8612,1.1559 -0.7056,0.0228 -0.9324,-0.4628 -0.9438,-0.6748 -0.016,-0.4947 0.4024,-0.7216 0.6794,-0.9439 0.4138,-0.2268 1.0396,-0.6007 0.9974,-1.7988 -0.0467,-1.4203 -1.2209,-2.6491 -2.9171,-2.591 -1.2733,0.0422 -3.21,1.2379 -3.1371,3.4312 0.0753,2.2616 2.1841,3.9589 5.3645,3.8495 1.7008,-0.0559 5.4968,-0.7478 9.2369,-5.1947 4.3533,-5.0988 5.5719,-10.9432 6.4884,-15.2202 l 1.0214,-5.6461 c 0.5688,0.0673 1.1752,0.114 1.8364,0.1288 5.4226,0.1163 8.1345,-2.6936 8.1767,-4.7364 0.0262,-1.2368 -0.8116,-2.4531 -1.9858,-2.4257 -0.8389,0.0239 -1.8945,0.5825 -2.1476,1.7429 -0.2473,1.1399 1.7259,2.1682 0.1835,3.1679 -1.0954,0.7101 -3.0595,1.2094 -5.825,0.8036 l 0.5039,-2.7803 c 1.0248,-5.271 2.2924,-11.7549 7.0949,-11.9111 0.3499,-0.0182 1.6312,0.016 1.6608,0.8618 0.008,0.2827 -0.0615,0.3557 -0.3921,1.0032 -0.3385,0.5038 -0.4651,0.9336 -0.4503,1.4283 0.0479,1.3451 1.0704,2.2297 2.5512,2.1773 1.98,-0.065 2.55,-1.9926 2.5181,-2.9844 -0.0821,-2.3311 -2.5375,-3.8016 -5.7851,-3.6968 z"
     fill="white"
     id="path335"
     style="fill:#999999;fill-opacity:1" />
</svg>
