<?xml version="1.0" encoding="UTF-8" standalone="no"?>
<svg
   width="80"
   height="80"
   viewBox="0 0 80 80"
   fill="none"
   version="1.1"
   id="svg8"
   xmlns="http://www.w3.org/2000/svg"
   xmlns:svg="http://www.w3.org/2000/svg">
  <defs
     id="defs12" />
  <path
     fill-rule="evenodd"
     clip-rule="evenodd"
     d="M 40,3.2567945 27.651129,15.50453 15.302258,3.2567945 H 2.9533873 V 15.50453 L 15.302258,27.752265 2.9533873,40 15.302258,52.247735 2.9533873,64.49547 V 76.743205 H 15.302258 L 27.651129,64.49547 40,76.743205 52.348871,64.49547 64.697742,76.743205 H 77.046613 V 64.49547 L 64.697742,52.247735 77.046613,40 64.697742,27.752265 77.046613,15.50453 V 3.2567945 H 64.697742 L 52.348871,15.50453 Z M 52.348871,15.50453 64.697742,27.752265 52.348871,40 64.697742,52.247735 52.348871,64.49547 40,52.247735 27.651129,64.49547 15.302258,52.247735 27.651129,40 15.302258,27.752265 27.651129,15.50453 40,27.752265 Z"
     fill="black"
     id="path4"
     style="fill:#999999;fill-opacity:1;stroke-width:1.75689" />
  <path
     d="M 64.697742,27.752265 77.046613,15.50453 V 3.2567945 H 64.697742 L 52.348871,15.50453 Z"
     fill="#667085"
     id="path6"
     style="fill:#ccd6dc;fill-opacity:1;stroke-width:1.75689" />
</svg>
