<?xml version="1.0" encoding="UTF-8" standalone="no"?>
<svg
   width="40"
   height="40"
   viewBox="0 0 40 40"
   fill="none"
   version="1.1"
   id="svg10"
   xmlns="http://www.w3.org/2000/svg"
   xmlns:svg="http://www.w3.org/2000/svg">
  <defs
     id="defs14" />
  <path
     fill-rule="evenodd"
     clip-rule="evenodd"
     d="m 14.966,2.10625 c 1.4897,-0.83206 3.2065,-1.306247 5.0341,-1.306247 1.8275,0 3.5443,0.474187 5.034,1.306247 L 26.124,1.01629 c 0.2884,-0.288384 0.756,-0.288384 1.0444,0 0.2884,0.28839 0.2884,0.75596 0,1.04435 l -0.8749,0.87492 c 2.4596,1.88992 4.045,4.86127 4.045,8.20294 H 9.6616 c 0,-3.34167 1.5854,-6.31302 4.0451,-8.20294 l -0.875,-0.87492 c -0.2884,-0.28839 -0.2884,-0.75596 0,-1.04435 0.2884,-0.288384 0.756,-0.288384 1.0444,0 z m 2.0802,4.60145 c 0,0.81568 -0.6612,1.47692 -1.4769,1.47692 -0.8157,0 -1.4769,-0.66124 -1.4769,-1.47692 0,-0.81569 0.6612,-1.47693 1.4769,-1.47693 0.8157,0 1.4769,0.66124 1.4769,1.47693 z m 7.3846,1.47692 c 0.8157,0 1.477,-0.66124 1.477,-1.47692 0,-0.81569 -0.6613,-1.47693 -1.477,-1.47693 -0.8157,0 -1.4769,0.66124 -1.4769,1.47693 0,0.81568 0.6612,1.47692 1.4769,1.47692 z"
     fill="black"
     id="path2"
     style="fill:#999999;fill-opacity:1" />
  <path
     d="m 3.75391,14.8308 c 0,-1.2236 0.99186,-2.2154 2.21538,-2.2154 1.22352,0 2.21539,0.9918 2.21539,2.2154 v 8.8615 c 0,1.2235 -0.99187,2.2154 -2.21539,2.2154 -1.22352,0 -2.21538,-0.9919 -2.21538,-2.2154 z"
     fill="black"
     id="path4"
     style="fill:#999999;fill-opacity:1" />
  <path
     d="m 14.0924,31.8154 v 5.1692 c 0,1.2235 0.9918,2.2154 2.2154,2.2154 1.2235,0 2.2153,-0.9919 2.2153,-2.2154 v -5.1692 h 2.9539 v 5.1692 c 0,1.2235 0.9918,2.2154 2.2154,2.2154 1.2235,0 2.2154,-0.9919 2.2154,-2.2154 v -5.1692 h 1.4769 c 1.6313,0 2.9538,-1.3225 2.9538,-2.9539 V 12.6154 H 9.6616 v 16.2461 c 0,1.6314 1.3225,2.9539 2.9538,2.9539 z"
     fill="black"
     id="path6"
     style="fill:#999999;fill-opacity:1" />
  <path
     d="m 31.8154,14.8308 c 0,-1.2236 0.9919,-2.2154 2.2154,-2.2154 1.2236,0 2.2154,0.9918 2.2154,2.2154 v 8.8615 c 0,1.2235 -0.9918,2.2154 -2.2154,2.2154 -1.2235,0 -2.2154,-0.9919 -2.2154,-2.2154 z"
     fill="black"
     id="path8"
     style="fill:#999999;fill-opacity:1" />
</svg>
