<?xml version="1.0" encoding="UTF-8" standalone="no"?>
<svg
   width="36.240105"
   height="40.452114"
   viewBox="0 0 36.240105 40.452113"
   fill="none"
   version="1.1"
   id="svg13"
   xml:space="preserve"
   xmlns="http://www.w3.org/2000/svg"
   xmlns:svg="http://www.w3.org/2000/svg"><defs
     id="defs11" /><g
     style="fill:#e5e5e5;fill-opacity:1"
     id="g1368"
     transform="matrix(0.08536696,0,0,0.08527874,-3.7147583,-1.6121476)"><g
       id="_x31_81_x2C__Api_x2C__Application_x2C__coading_x2C__Development_x2C__Mobile"
       style="fill:#e5e5e5;fill-opacity:1">

<g
   id="g1354"
   style="fill:#e5e5e5;fill-opacity:1">

<path
   d="m 366.16,156.877 v -44.65 h 5.921 v 44.65 z m -36.689,-23.434 h 11.555 c 3.829,0 6.512,-0.717 8.123,-2.147 1.609,-1.431 2.414,-3.435 2.414,-6.011 0,-1.859 -0.482,-3.471 -1.412,-4.794 -0.949,-1.324 -2.201,-2.218 -3.722,-2.647 -1.003,-0.25 -2.862,-0.394 -5.528,-0.394 h -11.43 z m -5.905,23.434 v -44.65 h 16.852 c 2.97,0 5.223,0.143 6.799,0.429 2.181,0.358 4.043,1.073 5.51,2.075 1.502,1.037 2.683,2.469 3.596,4.294 0.912,1.86 1.34,3.864 1.34,6.081 0,3.793 -1.198,7.014 -3.613,9.625 -2.414,2.611 -6.797,3.936 -13.113,3.936 h -11.465 v 18.211 h -5.906 z m -33.667,-18.318 h 15.224 l -4.669,-12.379 c -1.396,-3.793 -2.47,-6.905 -3.186,-9.338 -0.626,2.897 -1.43,5.76 -2.469,8.586 z m -12.845,18.318 17.121,-44.65 h 6.493 l 18.193,44.65 h -6.727 l -5.169,-13.523 h -18.803 l -4.848,13.523 z m 110.734,105.115 c -2.755,1.719 -5.135,3.9 -7.049,6.477 -3.076,4.15 -4.956,9.23 -5.045,14.776 -0.09,5.724 1.7,11.021 4.776,15.313 1.951,2.754 4.455,5.079 7.317,6.833 v -43.399 z m 0,115.313 H 133.442 v 51.735 c 0,4.222 1.718,8.05 4.508,10.841 2.772,2.79 6.619,4.508 10.823,4.508 h 223.666 c 4.204,0 8.051,-1.718 10.822,-4.508 2.773,-2.791 4.526,-6.619 4.526,-10.841 V 377.305 Z M 267.789,403.53 c -1.843,-1.824 -4.384,-2.934 -7.192,-2.934 -2.79,0 -5.331,1.109 -7.154,2.934 -1.825,1.824 -2.971,4.365 -2.971,7.191 0,2.791 1.146,5.331 2.971,7.155 1.823,1.825 4.364,2.971 7.154,2.971 2.72,0 5.151,-1.038 6.977,-2.755 l 0.196,-0.216 c 1.825,-1.824 2.971,-4.364 2.971,-7.155 -10e-4,-2.825 -1.129,-5.367 -2.952,-7.191 z m -7.192,-11.735 c 5.224,0 9.947,2.111 13.382,5.546 3.434,3.435 5.545,8.158 5.545,13.381 0,5.224 -2.111,9.946 -5.545,13.381 l -0.304,0.287 c -3.399,3.255 -7.997,5.259 -13.078,5.259 -5.222,0 -9.946,-2.111 -13.38,-5.546 -3.417,-3.435 -5.547,-8.157 -5.547,-13.381 0,-5.223 2.13,-9.946 5.547,-13.381 3.434,-3.435 8.158,-5.546 13.38,-5.546 z M 223.854,142.529 c -1.002,0.466 -1.897,1.109 -2.685,1.897 -0.679,0.679 -1.251,1.431 -1.698,2.289 l -0.018,0.036 c -0.233,0.429 -0.43,0.859 -0.572,1.324 l -0.019,0.035 -0.125,0.43 v 0 l -0.035,0.107 v 0 c -0.126,0.465 -0.216,0.965 -0.288,1.502 v 0.037 0.07 0.036 0.071 0.037 l -0.035,0.213 v 0.037 0.5 0.107 0 0.107 0.035 0.108 0 0.106 0 l 0.018,0.107 v 0.036 l 0.018,0.106 v 0 0.108 0.036 0.071 0.036 l 0.02,0.106 h 0.018 v 0.108 0.035 l 0.018,0.072 v 0.035 l 0.018,0.071 v 0.036 l 0.017,0.107 v 0.035 l 0.02,0.072 v 0.035 l 0.018,0.072 0.018,0.035 v 0.071 0.036 l 0.035,0.107 v 0.035 l 0.019,0.072 0.018,0.036 v 0.071 l 0.018,0.035 0.018,0.072 v 0.035 l 0.037,0.072 v 0.035 l 0.035,0.072 v 0.071 l 0.018,0.071 0.018,0.035 0.02,0.072 0.018,0.035 0.018,0.072 0.018,0.036 0.018,0.071 0.019,0.035 0.018,0.072 0.018,0.035 0.018,0.072 0.018,0.035 0.037,0.072 v 0.035 l 0.035,0.072 v 0.035 l 0.035,0.072 0.02,0.035 0.018,0.071 0.035,0.036 v 0.072 l 0.037,0.035 0.018,0.071 0.018,0.036 0.035,0.071 0.037,0.036 v 0.035 l 0.035,0.071 0.018,0.036 0.037,0.072 0.018,0.035 0.035,0.072 0.02,0.035 0.018,0.071 0.035,0.036 0.037,0.072 v 0.035 l 0.035,0.035 0.035,0.036 0.037,0.071 0.018,0.035 0.035,0.072 0.018,0.036 0.037,0.071 h 0.035 l 0.037,0.072 v 0.035 l 0.053,0.071 0.018,0.036 0.037,0.072 h 0.018 l 0.125,0.178 v 0.036 l 0.054,0.071 h 0.018 l 0.055,0.072 0.018,0.035 0.035,0.072 h 0.037 l 0.035,0.07 0.018,0.037 0.054,0.071 h 0.018 l 0.055,0.071 0.018,0.036 0.052,0.071 h 0.02 l 0.053,0.071 h 0.018 l 0.054,0.107 h 0.018 l 0.054,0.071 h 0.018 l 0.072,0.072 v 0 l 0.089,0.107 v 0 l 0.07,0.07 0.072,0.072 v 0 l 0.072,0.071 0.162,0.179 h 0.018 c 1.681,1.61 4.008,2.612 6.564,2.612 h 0.591 v 0 c 0.43,-0.036 0.841,-0.071 1.251,-0.179 v 0 l 0.216,-0.036 h 0.018 l 0.089,-0.035 h 0.035 l 0.072,-0.036 h 0.037 0.07 l 0.448,-0.143 h 0.018 l 0.196,-0.072 h 0.02 l 0.07,-0.036 h 0.037 l 0.072,-0.035 0.107,-0.036 h 0.035 l 0.072,-0.035 h 0.035 l 0.072,-0.037 h 0.037 l 0.07,-0.035 0.037,-0.035 h 0.07 l 0.037,-0.036 0.072,-0.036 h 0.018 l 0.072,-0.035 h 0.035 l 0.055,-0.035 0.035,-0.037 0.072,-0.035 h 0.035 l 0.072,-0.036 0.035,-0.035 h 0.054 l 0.035,-0.036 0.072,-0.035 0.035,-0.037 h 0.055 l 0.035,-0.035 0.072,-0.035 h 0.037 l 0.035,-0.036 0.055,-0.036 0.053,-0.036 0.037,-0.035 h 0.07 l 0.037,-0.036 0.035,-0.035 0.055,-0.037 0.052,-0.035 0.037,-0.035 h 0.053 l 0.054,-0.036 0.358,-0.251 0.035,-0.035 c 0.323,-0.25 0.609,-0.501 0.895,-0.752 l 0.072,-0.07 0.07,-0.072 v -0.036 c 0.644,-0.608 1.181,-1.358 1.628,-2.146 l 0.018,-0.037 0.305,-0.607 0.018,-0.036 0.072,-0.179 0.018,-0.036 0.018,-0.071 0.035,-0.035 0.02,-0.072 0.018,-0.035 0.035,-0.072 v -0.035 l 0.037,-0.072 v 0 l 0.07,-0.215 v 0 l 0.037,-0.106 0.035,-0.108 v 0 l 0.035,-0.107 v -0.035 l 0.037,-0.071 v -0.036 l 0.035,-0.072 v -0.035 l 0.018,-0.107 0.02,-0.07 0.018,-0.037 0.018,-0.106 v 0 l 0.035,-0.108 v -0.035 l 0.019,-0.071 v -0.036 l 0.018,-0.071 v -0.036 l 0.035,-0.072 v -0.035 -0.071 l 0.018,-0.071 0.019,-0.035 v -0.072 -0.036 l 0.018,-0.071 0.018,-0.072 v -0.07 -0.036 -0.072 l 0.018,-0.036 0.018,-0.07 v -0.036 -0.107 0 -0.108 -0.035 l 0.02,-0.071 v -0.036 l 0.018,-0.107 v 0 -0.106 0 -0.108 -0.035 -0.107 0 -0.107 c 0,-2.647 -1.074,-5.008 -2.772,-6.726 l -0.09,-0.108 -0.072,-0.07 -0.072,-0.072 h -0.018 l -0.09,-0.07 -0.072,-0.072 -0.089,-0.072 v 0 l -0.09,-0.071 -0.072,-0.071 -0.107,-0.071 -0.179,-0.144 -0.089,-0.072 v 0 l -0.089,-0.07 -0.09,-0.072 -0.089,-0.072 v 0 l -0.107,-0.07 v 0 l -0.089,-0.036 v 0 l -0.09,-0.071 -0.107,-0.072 -0.179,-0.106 h -0.018 l -0.09,-0.072 v 0 l -0.107,-0.036 v 0 l -0.216,-0.106 -0.088,-0.072 v 0 l -0.089,-0.035 H 232.1 l -0.197,-0.108 v 0 l -0.107,-0.035 v -0.035 l -0.214,-0.072 v 0 l -0.107,-0.035 v 0 l -0.109,-0.035 v 0 l -0.107,-0.072 -0.107,-0.036 -0.214,-0.071 h -0.02 L 230.83,142.1 h -0.019 l -0.107,-0.037 v 0 l -0.107,-0.035 h -0.018 l -0.323,-0.071 v 0 l -0.107,-0.036 h -0.018 l -0.107,-0.036 h -0.018 l -0.109,-0.036 v 0 l -0.107,-0.035 h -0.107 -0.018 l -0.107,-0.035 h -0.126 v 0 l -0.107,-0.036 H 229.2 l -0.126,-0.036 h -0.107 l -0.125,-0.035 h -0.125 -0.109 -0.125 v 0 l -0.125,-0.036 h -0.107 -0.144 -0.107 -0.126 -0.125 -0.125 -0.126 -0.107 l -0.125,0.036 h -0.018 -0.109 v 0 h -0.125 -0.125 l -0.107,0.035 h -0.126 l -0.107,0.036 h -0.017 -0.107 v 0 l -0.108,0.036 h -0.018 -0.107 v 0 l -0.125,0.035 v 0 h -0.107 v 0 l -0.109,0.035 h -0.018 l -0.107,0.036 h -0.018 l -0.107,0.036 v 0 l -0.107,0.036 v 0 l -0.323,0.071 h -0.035 l -0.197,0.072 h -0.02 l -0.089,0.035 h -0.018 l -0.214,0.071 v 0 l -0.107,0.036 v 0 l -0.109,0.072 v 0 l -0.214,0.07 v 0 z M 60.938,160.634 h 0.02 0.107 0.107 0.018 0.125 v 0 h 0.109 0.107 0.018 0.107 0.018 l 0.109,-0.036 v 0 h 0.107 0.018 0.09 0.035 0.09 0.018 l 0.089,-0.035 h 0.037 0.09 0.018 l 0.089,-0.035 h 0.035 0.072 0.035 l 0.072,-0.037 h 0.055 0.072 l 0.035,-0.035 h 0.089 0.035 l 0.072,-0.036 h 0.037 0.07 0.037 l 0.07,-0.035 h 0.054 l 0.055,-0.036 h 0.053 0.054 l 0.053,-0.036 h 0.054 l 0.072,-0.036 h 0.035 0.072 l 0.035,-0.035 0.072,-0.035 h 0.037 0.07 l 0.037,-0.037 h 0.07 l 0.037,-0.035 h 0.072 l 0.035,-0.036 h 0.072 l 0.035,-0.035 0.072,-0.036 h 0.035 l 0.072,-0.035 h 0.037 l 0.07,-0.037 h 0.037 l 0.07,-0.035 h 0.02 l 0.089,-0.035 h 0.018 l 0.089,-0.072 h 0.018 l 0.09,-0.035 v 0 l 0.107,-0.035 v 0 l 0.107,-0.072 v 0 l 0.089,-0.036 0.09,-0.035 0.107,-0.071 0.109,-0.037 v 0 l 0.089,-0.07 h 0.018 l 0.072,-0.036 0.018,-0.036 0.089,-0.036 v 0 l 0.09,-0.035 0.018,-0.036 0.072,-0.035 h 0.018 l 0.089,-0.072 v 0 l 0.072,-0.035 0.035,-0.036 0.072,-0.036 0.018,-0.035 0.072,-0.035 h 0.018 l 0.072,-0.037 0.035,-0.035 0.035,-0.036 0.037,-0.036 0.072,-0.035 0.035,-0.035 0.035,-0.037 0.037,-0.035 0.072,-0.035 0.035,-0.036 0.035,-0.036 0.037,-0.035 0.052,-0.037 0.037,-0.035 0.053,-0.035 0.037,-0.036 h 0.035 l 0.054,-0.071 h 0.035 l 0.055,-0.072 0.035,-0.035 0.035,-0.037 0.037,-0.034 0.053,-0.036 0.019,-0.036 0.07,-0.036 0.144,-0.179 c 0.393,-0.394 0.769,-0.822 1.091,-1.288 v 0 l 0.053,-0.107 h 0.019 l 0.232,-0.393 v 0 l 0.179,-0.287 v 0 l 0.055,-0.107 0.107,-0.178 h 0.018 l 0.035,-0.107 v 0 l 0.054,-0.108 0.055,-0.106 0.035,-0.107 0.055,-0.107 0.053,-0.107 0.035,-0.107 v 0 l 0.037,-0.107 v 0 l 0.053,-0.107 0.037,-0.107 0.035,-0.107 0.055,-0.107 0.035,-0.106 0.037,-0.108 v 0 l 0.035,-0.143 0.018,-0.107 0.037,-0.107 0.018,-0.107 0.035,-0.107 0.037,-0.106 0.035,-0.144 0.018,-0.107 0.018,-0.107 0.02,-0.107 0.018,-0.143 0.035,-0.107 v -0.107 l 0.018,-0.143 0.02,-0.108 0.018,-0.106 0.018,-0.144 v -0.108 -0.106 l 0.018,-0.144 v -0.106 -0.108 l 0.018,-0.143 v -0.107 -0.143 0 c -0.035,-2.576 -1.109,-4.902 -2.79,-6.583 -3.685,-3.686 -9.75,-3.686 -13.435,0 -1.718,1.718 -2.772,4.078 -2.772,6.726 0,2.612 1.037,5.01 2.755,6.69 1.664,1.698 4.007,2.735 6.583,2.771 z m 9.642,157.423 v 0 -0.107 -0.107 -0.035 -0.107 h -0.018 v -0.107 0 -0.107 -0.035 l -0.018,-0.107 v 0 -0.107 -0.037 -0.07 -0.036 l -0.018,-0.106 v 0 l -0.018,-0.108 v -0.035 -0.072 l -0.02,-0.036 -0.018,-0.07 v -0.036 -0.107 -0.036 l -0.035,-0.072 v -0.035 -0.071 l -0.018,-0.036 -0.02,-0.107 v 0 l -0.018,-0.106 v -0.036 l -0.018,-0.072 v -0.035 l -0.035,-0.071 v -0.036 l -0.019,-0.071 -0.018,-0.036 -0.018,-0.071 -0.018,-0.036 v -0.107 l -0.018,-0.035 -0.019,-0.072 v -0.035 l -0.035,-0.072 v -0.035 l -0.035,-0.072 v -0.035 l -0.037,-0.071 v -0.036 l -0.035,-0.072 v -0.035 l -0.037,-0.071 v -0.036 l -0.035,-0.071 -0.018,-0.036 -0.018,-0.071 -0.019,-0.071 -0.018,-0.036 -0.035,-0.071 v -0.035 l -0.037,-0.072 -0.017,-0.036 -0.018,-0.071 -0.035,-0.035 v -0.072 l -0.037,-0.035 -0.018,-0.036 -0.035,-0.072 -0.017,-0.071 -0.037,-0.035 -0.018,-0.036 -0.018,-0.071 -0.037,-0.036 -0.018,-0.036 -0.018,-0.07 -0.035,-0.036 -0.037,-0.072 v -0.035 l -0.035,-0.071 -0.037,-0.037 -0.035,-0.07 v -0.036 l -0.054,-0.071 h -0.018 l -0.035,-0.072 -0.018,-0.035 -0.037,-0.072 -0.018,-0.035 -0.035,-0.072 -0.037,-0.035 -0.035,-0.035 -0.018,-0.036 -0.055,-0.072 v -0.036 l -0.053,-0.07 h -0.019 l -0.035,-0.072 -0.035,-0.036 -0.037,-0.071 -0.018,-0.035 -0.055,-0.072 v 0 l -0.07,-0.071 v -0.036 l -0.072,-0.07 v 0 l -0.072,-0.072 v -0.036 l -0.072,-0.071 v 0 l -0.07,-0.072 v -0.035 l -0.072,-0.071 v 0 l -0.072,-0.072 v 0 l -0.072,-0.106 v 0 l -0.072,-0.072 v 0 l -0.07,-0.071 -0.09,-0.106 -0.072,-0.072 v 0 l -0.089,-0.072 c -1.718,-1.717 -4.098,-2.79 -6.726,-2.79 h -0.107 -0.02 c -2.557,0.036 -4.883,1.109 -6.582,2.79 -1.718,1.719 -2.772,4.115 -2.772,6.727 0,2.647 1.037,5.01 2.755,6.727 1.716,1.718 4.096,2.755 6.726,2.755 2.521,0 4.829,-0.966 6.512,-2.54 l 0.214,-0.215 c 1.693,-1.745 2.767,-4.071 2.802,-6.647 z m 150.589,-6.834 c -0.465,0.466 -0.875,0.967 -1.233,1.503 v 0 l -0.179,0.286 v 0 l -0.161,0.287 v 0 l -0.053,0.07 -0.018,0.037 -0.037,0.071 -0.018,0.035 -0.035,0.072 -0.02,0.036 -0.035,0.07 -0.018,0.036 -0.018,0.036 -0.037,0.071 -0.018,0.036 -0.018,0.072 -0.037,0.034 -0.018,0.072 -0.018,0.036 -0.035,0.035 -0.02,0.072 -0.018,0.035 -0.018,0.071 -0.035,0.036 -0.02,0.035 -0.018,0.072 -0.018,0.035 -0.035,0.072 v 0.036 l -0.037,0.106 v 0 l -0.035,0.107 v 0 l -0.035,0.107 v 0 l -0.037,0.107 v 0 l -0.035,0.107 v 0 l -0.037,0.107 v 0 l -0.035,0.107 v 0 l -0.035,0.107 v 0 l -0.02,0.107 v 0.035 l -0.018,0.072 -0.018,0.035 -0.018,0.071 v 0.036 l -0.037,0.072 v 0.035 0.072 l -0.035,0.035 v 0.071 0.071 l -0.035,0.072 v 0.035 0.072 l -0.02,0.035 -0.017,0.072 v 0.035 0.071 l -0.018,0.072 -0.018,0.036 v 0.07 0.036 0.072 l -0.018,0.071 -0.02,0.072 v 0.035 0.071 0.036 0.07 0.037 l -0.018,0.107 v 0.035 l -0.018,0.072 v 0.035 0.107 0 0.107 0 0.107 0.035 0.107 0.358 0.106 0.037 l 0.035,0.465 0.02,0.07 0.053,0.43 v 0.037 l 0.072,0.356 v 0.072 l 0.018,0.036 0.018,0.07 v 0.036 l 0.037,0.072 v 0.035 l 0.018,0.071 0.018,0.037 v 0.106 h 0.018 l 0.02,0.106 v 0 l 0.035,0.108 v 0 l 0.035,0.107 v 0 l 0.037,0.106 v 0 l 0.035,0.108 v 0.035 l 0.037,0.071 v 0.037 l 0.035,0.07 v 0 l 0.035,0.143 v 0 l 0.251,0.609 v 0.035 l 0.054,0.072 h 0.018 c 0.465,1.002 1.109,1.932 1.877,2.719 l 0.072,0.072 0.089,0.07 0.035,0.072 h 0.037 l 0.053,0.071 h 0.037 l 0.052,0.071 0.037,0.036 0.035,0.035 0.037,0.036 0.053,0.036 0.035,0.036 0.054,0.035 0.035,0.035 0.037,0.037 0.052,0.035 0.037,0.036 0.053,0.036 0.037,0.035 0.053,0.035 h 0.02 l 0.07,0.072 h 0.037 l 0.072,0.071 v 0 l 0.07,0.036 0.037,0.035 0.07,0.037 v 0.035 l 0.089,0.035 h 0.02 l 0.07,0.072 v 0 l 0.109,0.071 0.089,0.036 v 0 l 0.089,0.071 v 0 l 0.107,0.035 v 0.036 l 0.09,0.036 h 0.017 l 0.072,0.036 0.035,0.035 0.072,0.035 h 0.018 l 0.072,0.037 0.018,0.035 0.072,0.036 h 0.035 l 0.072,0.035 0.035,0.036 0.072,0.035 h 0.035 l 0.054,0.037 0.055,0.035 h 0.053 l 0.054,0.035 h 0.035 l 0.072,0.036 0.035,0.036 0.216,0.07 0.07,0.037 h 0.037 l 0.072,0.035 h 0.018 l 0.089,0.036 h 0.018 l 0.089,0.035 0.018,0.036 h 0.089 l 0.018,0.036 h 0.089 0.02 l 0.088,0.071 h 0.019 0.09 l 0.125,0.035 v 0 l 0.107,0.036 v 0 l 0.107,0.036 h 0.02 l 0.089,0.036 h 0.018 0.089 l 0.018,0.035 h 0.107 0.018 l 0.089,0.036 h 0.037 0.07 l 0.037,0.035 h 0.072 0.035 l 0.072,0.037 h 0.053 0.054 0.072 l 0.053,0.035 h 0.055 0.072 0.053 0.054 l 0.072,0.035 h 0.035 0.072 0.035 0.089 0.035 l 0.089,0.036 h 0.037 0.072 0.035 0.107 0.018 0.089 0.02 0.107 0.018 0.107 v 0 h 0.125 0.126 v 0 h 0.107 v 0 h 0.107 0.037 0.087 0.02 0.107 0.018 0.089 0.035 l 0.09,-0.036 h 0.019 0.089 0.053 0.072 0.035 l 0.072,-0.035 h 0.054 0.053 0.072 0.035 l 0.072,-0.035 h 0.054 0.072 0.035 l 0.072,-0.037 h 0.052 0.072 l 0.035,-0.035 h 0.072 0.037 l 0.09,-0.036 h 0.018 0.107 v -0.035 h 0.107 v 0 l 0.107,-0.036 v 0 l 0.107,-0.036 h 0.02 l 0.107,-0.036 v 0 l 0.214,-0.035 h 0.018 l 0.089,-0.071 h 0.019 0.088 l 0.02,-0.036 h 0.07 l 0.037,-0.036 0.607,-0.214 0.037,-0.036 c 0.572,-0.215 1.109,-0.537 1.591,-0.858 h 0.018 l 0.34,-0.287 h 0.018 l 0.072,-0.035 0.018,-0.035 0.054,-0.036 0.035,-0.036 0.072,-0.035 0.018,-0.037 0.055,-0.035 0.035,-0.035 0.055,-0.036 0.035,-0.036 0.054,-0.036 0.035,-0.035 0.037,-0.036 0.035,-0.035 0.053,-0.036 0.037,-0.035 0.035,-0.036 0.055,-0.036 0.142,-0.179 c 0.43,-0.43 0.823,-0.895 1.164,-1.395 v -0.037 l 0.125,-0.179 v 0 l 0.251,-0.393 0.037,-0.108 v 0 l 0.07,-0.07 v 0 l 0.054,-0.108 v 0 l 0.053,-0.106 0.037,-0.107 v 0 l 0.072,-0.108 v 0 l 0.035,-0.106 0.054,-0.107 0.053,-0.107 v 0 l 0.037,-0.107 0.035,-0.107 v 0 l 0.055,-0.107 v 0 l 0.053,-0.107 0.037,-0.107 0.035,-0.107 0.035,-0.107 v 0 l 0.037,-0.106 0.035,-0.108 0.035,-0.106 0.037,-0.107 v 0 l 0.035,-0.108 0.018,-0.143 0.037,-0.107 0.018,-0.106 0.035,-0.108 0.019,-0.143 0.018,-0.107 0.035,-0.107 0.018,-0.107 0.019,-0.143 0.018,-0.107 0.018,-0.107 v -0.144 l 0.035,-0.106 v -0.108 -0.144 l 0.02,-0.106 0.018,-0.106 v -0.144 -0.108 -0.143 -0.107 c 0,-2.611 -1.074,-5.008 -2.772,-6.727 l -0.09,-0.07 v 0 l -0.072,-0.072 -0.072,-0.107 -0.09,-0.072 h -0.018 l -0.072,-0.07 v 0 l -0.072,-0.072 h -0.018 l -0.09,-0.071 v 0 l -0.072,-0.071 v 0 l -0.089,-0.071 h -0.018 l -0.142,-0.144 h -0.02 -0.018 l -0.072,-0.072 h -0.018 l -0.07,-0.035 -0.019,-0.036 -0.07,-0.035 -0.02,-0.036 -0.07,-0.035 -0.02,-0.037 -0.07,-0.035 h -0.037 l -0.072,-0.071 H 233.1 l -0.072,-0.036 -0.018,-0.035 -0.072,-0.035 -0.035,-0.037 -0.072,-0.035 h -0.018 l -0.072,-0.036 -0.018,-0.035 -0.072,-0.036 -0.035,-0.036 -0.072,-0.036 h -0.035 l -0.216,-0.106 -0.053,-0.036 -0.035,-0.036 -0.161,-0.071 h -0.037 l -0.07,-0.035 -0.037,-0.037 -0.072,-0.035 h -0.035 l -0.072,-0.035 -0.142,-0.072 h -0.055 l -0.162,-0.07 -0.052,-0.037 h -0.055 l -0.053,-0.035 -0.054,-0.036 h -0.054 l -0.053,-0.036 h -0.055 l -0.052,-0.035 h -0.055 l -0.053,-0.035 h -0.054 l -0.072,-0.037 h -0.035 l -0.072,-0.035 h -0.054 l -0.214,-0.071 h -0.072 l -0.035,-0.036 h -0.072 -0.035 l -0.089,-0.036 h -0.037 l -0.089,-0.036 h -0.018 -0.089 -0.035 l -0.072,-0.035 h -0.035 -0.089 l -0.018,-0.035 h -0.109 -0.018 l -0.089,-0.036 h -0.035 -0.09 -0.018 -0.108 v -0.036 h -0.107 -0.018 -0.107 -0.018 l -0.107,-0.035 v 0 h -0.109 -0.018 -0.107 -0.018 -0.107 v 0 h -0.107 -0.02 -0.125 v -0.036 h -0.107 -0.018 -0.109 -0.125 v 0 h -0.107 l -0.018,0.036 h -0.107 -0.02 -0.107 v 0 h -0.107 -0.018 -0.107 -0.019 -0.107 -0.018 l -0.089,0.035 h -0.035 -0.072 -0.035 -0.108 l -0.018,0.036 h -0.09 -0.018 -0.089 -0.035 l -0.089,0.036 h -0.019 -0.107 l -0.018,0.035 H 226.1 226.065 L 226,308.646 h -0.035 -0.072 -0.037 l -0.089,0.036 h -0.035 l -0.072,0.036 h -0.053 -0.072 l -0.035,0.036 h -0.072 l -0.037,0.036 h -0.07 l -0.037,0.035 h -0.072 -0.035 l -0.072,0.035 h -0.053 l -0.054,0.037 h -0.053 l -0.054,0.035 h -0.055 l -0.053,0.035 h -0.072 l -0.054,0.036 h -0.053 l -0.055,0.036 -0.052,0.035 h -0.037 l -0.072,0.037 h -0.053 l -0.054,0.035 -0.035,0.035 h -0.072 l -0.035,0.036 -0.072,0.036 h -0.035 l -0.072,0.035 h -0.037 l -0.07,0.035 -0.037,0.037 -0.072,0.035 h -0.035 l -0.054,0.036 -0.053,0.035 -0.055,0.036 h -0.035 l -0.055,0.036 -0.035,0.036 h -0.072 l -0.035,0.035 -0.072,0.035 -0.035,0.036 -0.072,0.036 h -0.037 l -0.053,0.036 -0.018,0.035 -0.072,0.036 h -0.035 l -0.072,0.072 h -0.037 l -0.07,0.035 -0.02,0.035 -0.053,0.036 h -0.037 l -0.07,0.071 h -0.037 l -0.072,0.072 v 0 l -0.07,0.035 -0.037,0.036 -0.07,0.035 v 0.036 l -0.072,0.035 h -0.037 l -0.07,0.072 h -0.02 l -0.07,0.071 h -0.019 l -0.07,0.072 v 0 l -0.089,0.071 h -0.02 l -0.07,0.071 v 0 l -0.072,0.071 h -0.018 l -0.072,0.072 h -0.018 l -0.072,0.07 v 0 l -0.09,0.072 v 0.036 l -0.089,0.071 v 0 l -0.072,0.072 v 0 z M 60.938,244.033 h 0.02 0.107 0.107 0.035 0.107 v 0 h 0.109 0.018 0.107 0.018 0.107 v 0 h 0.109 0.018 l 0.107,-0.037 h 0.018 0.107 v 0 h 0.107 0.019 l 0.107,-0.035 h 0.018 0.09 0.018 l 0.107,-0.036 h 0.019 0.088 0.037 l 0.089,-0.035 h 0.018 0.089 0.035 l 0.089,-0.036 h 0.037 0.072 l 0.035,-0.036 h 0.072 0.035 l 0.089,-0.036 h 0.035 l 0.072,-0.035 h 0.037 0.07 l 0.054,-0.035 h 0.072 l 0.035,-0.036 h 0.072 l 0.035,-0.036 h 0.072 0.037 l 0.07,-0.036 h 0.055 l 0.052,-0.035 0.055,-0.036 h 0.054 l 0.053,-0.035 h 0.054 l 0.053,-0.037 h 0.055 l 0.054,-0.035 h 0.053 l 0.072,-0.035 0.035,-0.036 h 0.072 l 0.035,-0.036 h 0.072 l 0.037,-0.035 0.07,-0.035 h 0.037 l 0.053,-0.037 0.055,-0.035 h 0.054 l 0.053,-0.036 0.054,-0.036 h 0.053 l 0.054,-0.035 0.035,-0.035 0.055,-0.037 h 0.035 l 0.072,-0.035 0.035,-0.036 0.072,-0.035 h 0.037 l 0.07,-0.036 0.037,-0.036 0.072,-0.036 h 0.018 l 0.07,-0.035 0.019,-0.035 0.07,-0.036 0.037,-0.036 0.072,-0.036 h 0.018 l 0.072,-0.035 0.018,-0.036 0.072,-0.035 0.035,-0.037 0.072,-0.034 h 0.018 l 0.072,-0.072 h 0.018 l 0.072,-0.036 0.035,-0.035 0.072,-0.035 v -0.037 l 0.072,-0.035 0.035,-0.036 0.072,-0.035 v 0 l 0.089,-0.071 h 0.018 l 0.072,-0.072 v 0 l 0.089,-0.071 v 0 l 0.089,-0.072 v 0 l 0.07,-0.071 h 0.019 l 0.07,-0.071 h 0.02 l 0.07,-0.071 v -0.036 l 0.09,-0.071 0.089,-0.072 0.072,-0.071 v 0 l 0.072,-0.071 c 1.681,-1.682 2.755,-4.043 2.79,-6.619 v 0 -0.107 -0.107 -0.035 l -0.018,-0.107 v -0.143 -0.108 l -0.018,-0.106 v -0.107 -0.143 l -0.018,-0.108 -0.018,-0.144 -0.02,-0.106 -0.018,-0.107 v -0.144 l -0.035,-0.107 -0.018,-0.107 -0.02,-0.107 -0.018,-0.143 -0.018,-0.107 -0.035,-0.107 -0.037,-0.107 -0.035,-0.143 -0.018,-0.107 -0.037,-0.107 -0.018,-0.107 -0.035,-0.107 -0.037,-0.107 -0.035,-0.107 -0.055,-0.107 -0.035,-0.106 -0.037,-0.144 -0.053,-0.072 v -0.035 l -0.037,-0.071 -0.035,-0.144 -0.053,-0.071 -0.055,-0.106 -0.035,-0.108 -0.055,-0.106 -0.054,-0.108 -0.035,-0.107 h -0.018 l -0.055,-0.106 -0.052,-0.108 -0.055,-0.071 -0.054,-0.107 v 0 l -0.053,-0.107 v 0 l -0.072,-0.107 v 0 l -0.053,-0.106 v 0 l -0.054,-0.072 v 0 l -0.144,-0.215 -0.053,-0.071 -0.054,-0.107 -0.072,-0.071 v 0 l -0.142,-0.215 -0.144,-0.179 v 0 l -0.07,-0.071 v 0 l -0.072,-0.072 v -0.036 l -0.216,-0.25 v 0 l -0.089,-0.072 v 0 l -0.07,-0.07 v 0 l -0.161,-0.18 -0.072,-0.071 v 0 l -0.089,-0.071 -0.411,-0.394 -0.037,-0.035 -0.142,-0.108 -0.037,-0.035 -0.142,-0.107 -0.037,-0.036 -0.07,-0.035 v 0 l -0.072,-0.071 h -0.037 l -0.07,-0.072 v 0 l -0.179,-0.107 v 0 l -0.107,-0.07 v 0 l -0.072,-0.072 h -0.018 l -0.089,-0.036 v -0.036 l -0.089,-0.035 H 66 l -0.07,-0.072 h -0.037 l -0.07,-0.035 -0.019,-0.035 -0.07,-0.036 h -0.02 l -0.07,-0.036 -0.037,-0.036 -0.072,-0.036 H 65.5 l -0.072,-0.035 -0.035,-0.035 H 65.338 L 65.303,226.065 65.249,226 65.196,225.965 h -0.054 l -0.053,-0.036 -0.054,-0.036 H 64.98 l -0.035,-0.035 h -0.054 l -0.053,-0.037 -0.054,-0.035 h -0.053 l -0.055,-0.035 h -0.035 l -0.072,-0.036 -0.035,-0.036 h -0.089 l -0.019,-0.035 -0.09,-0.035 h -0.018 l -0.089,-0.037 h -0.018 l -0.089,-0.035 h -0.018 l -0.089,-0.036 h -0.018 l -0.107,-0.035 v 0 l -0.108,-0.036 h -0.107 v -0.035 h -0.107 v 0 l -0.107,-0.037 h -0.018 l -0.089,-0.035 h -0.02 l -0.089,-0.035 H 63.21 63.138 l -0.035,-0.036 h -0.072 -0.035 l -0.072,-0.036 H 62.87 62.8 62.746 l -0.072,-0.036 h -0.035 -0.072 l -0.053,-0.035 H 62.46 62.388 62.353 62.28 l -0.054,-0.036 h -0.07 -0.037 -0.09 -0.035 l -0.072,-0.035 H 61.887 61.798 61.78 61.671 61.653 61.564 61.529 61.44 61.422 61.313 v 0 l -0.107,-0.037 h -0.018 -0.125 -0.107 -0.02 c -2.557,0.037 -4.883,1.109 -6.582,2.791 -1.735,1.718 -2.772,4.08 -2.772,6.727 0,2.505 0.965,4.795 2.557,6.512 l 0.216,0.215 c 1.699,1.677 4.026,2.751 6.583,2.751 z M 161.099,143.496 c 0.179,0.43 0.358,0.859 0.537,1.287 l 0.018,0.072 0.125,0.394 h 0.019 l 0.035,0.144 0.232,0.752 0.037,0.143 h 0.018 l 0.035,0.143 0.02,0.072 0.018,0.107 0.052,0.143 h 47.872 l 0.216,-0.823 0.035,-0.106 0.035,-0.107 v -0.036 l 0.144,-0.394 0.018,-0.036 0.055,-0.179 v 0 l 0.035,-0.144 0.035,-0.071 0.072,-0.215 v 0 l 0.072,-0.143 0.035,-0.036 0.019,-0.106 0.053,-0.107 v -0.036 l 0.072,-0.144 v -0.035 l 0.179,-0.358 v -0.036 0 l 0.072,-0.143 0.035,-0.071 0.035,-0.071 0.055,-0.107 v -0.036 l 0.072,-0.144 0.018,-0.035 0.054,-0.071 0.053,-0.144 h 0.018 l 0.055,-0.144 0.035,-0.035 0.055,-0.108 0.142,-0.285 h 0.019 l 0.07,-0.107 0.037,-0.072 0.035,-0.07 0.144,-0.251 0.035,-0.071 0.054,-0.072 0.072,-0.107 0.018,-0.035 0.07,-0.107 0.037,-0.035 0.053,-0.108 0.054,-0.106 0.035,-0.037 0.162,-0.25 0.054,-0.071 0.035,-0.035 0.089,-0.144 v 0 l 0.179,-0.25 0.089,-0.107 v 0 l 0.089,-0.143 0.286,-0.358 h 0.018 l 0.286,-0.358 v 0 l 0.144,-0.143 0.054,-0.072 0.089,-0.107 v 0 l 0.107,-0.143 0.035,-0.036 0.072,-0.071 0.072,-0.071 0.035,-0.036 0.214,-0.214 0.055,-0.072 0.054,-0.036 0.107,-0.107 v 0 l 0.142,-0.178 v 0 l 0.162,-0.144 0.162,-0.144 v 0 l 0.161,-0.143 0.16,-0.143 v -0.037 l 0.179,-0.143 v 0 l 0.162,-0.143 v 0 l 0.161,-0.107 v -0.037 l 0.179,-0.106 v 0 l 0.179,-0.144 v 0 l 0.16,-0.143 h 0.02 l 0.16,-0.143 v 0 h 0.019 l 0.321,-0.252 h 0.035 c 0.465,-0.357 0.949,-0.68 1.467,-0.965 v 0 l 0.179,-0.107 h 0.037 l 0.358,-0.215 h 0.018 l 0.375,-0.18 h 0.018 l 0.179,-0.106 h 0.018 l 0.805,-0.358 h 0.018 l 0.609,-0.25 v -0.035 l 0.214,-0.072 v 0 l 0.196,-0.071 h 0.018 l 0.198,-0.072 h 0.018 l 0.197,-0.071 h 0.018 l 0.179,-0.071 h 0.035 l 0.198,-0.071 h 0.018 l 0.197,-0.036 h 0.018 l 0.196,-0.071 h 0.018 l 0.216,-0.071 v 0 l 0.214,-0.036 v 0 l 0.214,-0.072 v 0 l 0.216,-0.035 h 0.018 l 0.214,-0.035 h 0.02 l 0.196,-0.072 h 0.018 l 0.214,-0.035 v 0 l 0.216,-0.036 h 0.018 l 0.214,-0.036 h 0.018 l 0.216,-0.035 v 0 l 0.214,-0.037 h 0.017 0.233 v 0 l 0.214,-0.035 v 0 l 0.233,-0.035 h 0.018 0.214 v 0 l 0.233,-0.036 h 0.018 0.214 0.25 l 0.214,-0.036 h 0.251 0.231 0.233 0.251 l 0.214,0.036 h 0.251 0.214 v 0 l 0.233,0.036 h 0.018 0.214 v 0 l 0.233,0.035 h 0.018 l 0.214,0.035 v 0 h 0.216 0.018 l 0.232,0.037 v 0 l 0.216,0.035 v 0 l 0.214,0.036 h 0.018 l 0.233,0.036 v 0 l 0.214,0.035 v 0 l 0.214,0.072 h 0.02 l 0.214,0.035 h 0.018 l 0.196,0.035 h 0.018 l 0.216,0.072 v 0 l 0.214,0.036 v 0 l 0.214,0.071 h 0.02 l 0.196,0.071 h 0.018 l 0.197,0.036 h 0.018 l 0.196,0.071 h 0.02 l 0.196,0.071 h 0.018 l 0.197,0.071 h 0.018 l 0.196,0.072 h 0.02 l 1.02,0.394 0.017,0.035 0.394,0.143 0.017,0.037 c 2.021,0.895 3.864,2.183 5.403,3.721 0.985,1.002 1.86,2.074 2.576,3.291 h 0.018 l 0.233,0.357 v 0 l 0.107,0.215 v 0 l 0.107,0.18 v 0 l 0.107,0.179 v 0 l 0.108,0.215 v 0 l 0.107,0.179 v 0 l 0.089,0.215 h 0.018 l 0.072,0.179 0.107,0.215 v 0 l 0.09,0.214 h 0.018 l 0.072,0.18 v 0 l 0.089,0.215 h 0.018 l 0.072,0.215 0.07,0.214 0.109,0.179 0.07,0.215 0.072,0.215 v 0 l 0.072,0.215 v 0 l 0.072,0.215 0.072,0.215 0.07,0.214 0.054,0.216 0.053,0.215 0.072,0.213 0.037,0.216 v 0 l 0.07,0.25 0.037,0.215 0.053,0.215 0.054,0.214 0.035,0.215 0.037,0.25 0.035,0.215 0.037,0.215 0.035,0.25 0.018,0.216 0.018,0.25 0.037,0.215 0.018,0.215 0.018,0.25 v 0.216 l 0.018,0.25 0.018,0.215 v 0.25 0.25 0.215 0 0.215 0.035 l -0.018,0.215 v 0 l -0.018,0.215 v 0.036 0.179 0.036 l -0.018,0.214 v 0.036 l -0.018,0.179 v 0.072 l -0.018,0.143 -0.019,0.071 v 0.144 l -0.018,0.071 -0.018,0.179 v 0.072 L 246,153.621 v 0.072 l -0.037,0.143 v 0.072 l -0.035,0.143 v 0.107 l -0.037,0.107 v 0.107 l -0.035,0.107 v 0.107 l -0.035,0.107 -0.02,0.143 -0.018,0.072 -0.035,0.143 -0.018,0.071 -0.019,0.143 -0.035,0.072 -0.035,0.144 v 0.071 l -0.037,0.144 -0.035,0.07 -0.037,0.143 -0.018,0.072 -0.035,0.18 -0.017,0.035 -0.037,0.18 -0.035,0.035 -0.035,0.179 -0.019,0.036 -0.053,0.179 -0.018,0.036 -0.054,0.179 h -0.018 l -0.055,0.214 v 0 h -0.018 l -0.125,0.395 h -0.019 l -0.09,0.214 v 0 l -0.07,0.215 v 0 l -0.251,0.573 -0.018,0.035 c -0.913,2.004 -2.166,3.828 -3.685,5.367 l -0.055,0.035 c -2.29,2.325 -5.241,4.008 -8.516,4.83 h -0.018 v 47.871 l 0.144,0.035 0.018,0.036 0.125,0.036 h 0.089 l 0.055,0.036 0.144,0.035 h 0.018 l 0.142,0.036 0.072,0.035 h 0.072 l 0.125,0.037 0.018,0.034 0.144,0.036 h 0.072 l 0.053,0.036 0.162,0.036 v 0 l 0.125,0.07 h 0.089 l 0.054,0.037 0.144,0.035 0.018,0.036 0.125,0.035 0.09,0.036 h 0.035 l 0.144,0.072 h 0.018 l 0.126,0.07 h 0.07 l 0.072,0.036 0.144,0.071 v 0 l 0.125,0.035 0.072,0.037 0.072,0.035 0.125,0.072 h 0.018 l 0.126,0.035 0.07,0.036 0.072,0.036 0.107,0.072 h 0.017 l 0.126,0.07 0.072,0.036 0.07,0.036 0.126,0.035 0.018,0.035 0.107,0.037 0.072,0.035 0.072,0.036 0.125,0.071 h 0.018 l 0.107,0.072 0.072,0.035 0.072,0.035 0.107,0.072 h 0.018 l 0.126,0.07 0.07,0.037 0.037,0.035 0.142,0.107 v 0 l 0.109,0.072 0.089,0.035 0.053,0.035 0.107,0.072 h 0.018 l 0.198,0.107 0.035,0.072 0.144,0.07 0.107,0.072 0.07,0.035 0.054,0.072 0.125,0.071 v 0 l 0.109,0.071 0.07,0.035 0.054,0.072 0.125,0.071 v 0 l 0.107,0.108 0.072,0.035 0.037,0.035 0.125,0.107 h 0.018 l 0.107,0.072 0.054,0.035 0.055,0.072 0.107,0.071 0.107,0.106 0.072,0.037 0.053,0.071 0.107,0.071 v 0 l 0.126,0.107 0.035,0.035 0.072,0.072 0.107,0.071 v 0 l 0.107,0.107 0.037,0.071 0.07,0.036 0.109,0.106 v 0 l 0.142,0.144 0.179,0.144 c 0.877,0.895 1.664,1.86 2.362,2.898 v 0 l 0.107,0.179 v 0 l 0.107,0.179 h 0.018 l 0.107,0.215 h 0.02 l 0.107,0.179 v 0 l 0.107,0.179 v 0 l 0.107,0.215 v 0 l 0.107,0.178 v 0 l 0.108,0.215 v 0 l 0.107,0.18 v 0 l 0.089,0.215 v 0 l 0.089,0.18 v 0 l 0.107,0.213 0.09,0.18 0.089,0.215 v 0 l 0.089,0.214 h 0.018 l 0.072,0.216 0.07,0.178 0.09,0.216 h 0.019 l 0.07,0.214 v 0 l 0.072,0.215 0.072,0.215 0.072,0.215 0.072,0.215 0.07,0.215 0.054,0.214 0.053,0.215 v 0 l 0.072,0.215 0.037,0.214 0.07,0.215 0.037,0.252 0.053,0.213 0.054,0.215 0.035,0.216 0.037,0.25 0.035,0.215 0.037,0.214 0.035,0.251 0.018,0.214 0.018,0.252 0.037,0.215 0.018,0.25 0.018,0.215 v 0.25 l 0.018,0.215 0.018,0.25 v 0.215 0.25 0.215 0 0.25 0 l -0.018,0.215 v 0.036 l -0.018,0.179 v 0.036 0.214 0 l -0.018,0.215 v 0.037 l -0.018,0.178 v 0.072 l -0.018,0.143 -0.019,0.072 v 0.179 l -0.018,0.035 -0.018,0.179 v 0.072 L 246,237.02 v 0.072 l -0.037,0.143 v 0.071 l -0.035,0.144 v 0.107 l -0.037,0.107 v 0.107 l -0.035,0.107 v 0.107 l -0.035,0.143 -0.02,0.107 -0.018,0.107 -0.035,0.107 -0.018,0.107 -0.019,0.107 -0.035,0.107 -0.035,0.107 v 0.07 l -0.037,0.144 -0.035,0.071 -0.037,0.144 -0.018,0.071 -0.035,0.144 -0.017,0.071 -0.037,0.143 -0.035,0.072 -0.035,0.143 -0.019,0.072 -0.053,0.143 -0.018,0.072 -0.054,0.143 -0.018,0.035 -0.055,0.18 v 0.036 l -0.072,0.179 -0.018,0.035 -0.053,0.18 -0.019,0.035 -0.09,0.18 v 0 l -0.07,0.215 v 0 l -0.072,0.178 -0.107,0.215 v 0 l -0.072,0.18 v 0.035 l -0.107,0.18 v 0 l -0.072,0.179 -0.035,0.034 -0.072,0.18 v 0 l -0.089,0.179 -0.018,0.036 -0.072,0.143 -0.035,0.072 -0.072,0.143 -0.037,0.037 -0.07,0.143 -0.037,0.035 -0.072,0.144 -0.035,0.071 -0.072,0.107 -0.035,0.071 -0.072,0.107 -0.035,0.071 -0.072,0.144 -0.054,0.071 -0.07,0.107 -0.054,0.071 -0.055,0.108 -0.052,0.07 -0.072,0.108 -0.054,0.071 -0.053,0.107 -0.072,0.071 -0.055,0.106 -0.07,0.072 -0.055,0.072 -0.072,0.107 -0.053,0.07 -0.089,0.107 -0.037,0.072 -0.089,0.107 -0.053,0.071 -0.072,0.108 -0.055,0.034 -0.083,0.151 -0.037,0.035 -0.107,0.144 -0.035,0.036 -0.109,0.107 -0.035,0.035 -0.107,0.143 -0.037,0.037 -0.107,0.143 h -0.018 l -0.125,0.143 -0.018,0.036 -0.126,0.144 h -0.018 l -0.125,0.143 h -0.037 l -0.125,0.18 -0.162,0.178 c -1.825,1.826 -4.078,3.293 -6.582,4.187 l -0.072,0.036 -0.072,0.036 -0.895,0.286 -0.107,0.035 -0.035,0.037 -0.162,0.035 h -0.018 l -0.144,0.035 -0.072,0.036 h -0.07 l -0.144,0.036 v 0 l -0.162,0.035 v 47.871 l 0.162,0.036 v 0.036 l 0.144,0.035 h 0.07 l 0.072,0.035 0.144,0.036 h 0.018 l 0.162,0.036 0.035,0.035 0.554,0.145 0.09,0.035 0.072,0.035 0.142,0.036 v 0 l 0.144,0.071 0.072,0.035 h 0.072 l 1.162,0.466 v 0.036 l 0.126,0.035 c 2.002,0.931 3.792,2.183 5.294,3.686 0.985,1.002 1.86,2.111 2.576,3.292 h 0.018 l 0.233,0.356 v 0 l 0.107,0.215 v 0 l 0.107,0.18 v 0 l 0.107,0.215 v 0 l 0.108,0.179 v 0 l 0.107,0.214 v 0 l 0.089,0.18 h 0.018 l 0.072,0.215 0.107,0.179 v 0 l 0.09,0.214 h 0.018 l 0.072,0.215 v 0 l 0.089,0.18 h 0.018 l 0.072,0.215 0.07,0.214 0.109,0.215 0.07,0.215 0.072,0.179 v 0 l 0.072,0.215 v 0 l 0.072,0.215 0.072,0.214 0.07,0.215 0.054,0.216 0.053,0.215 0.072,0.25 0.037,0.215 v 0 l 0.07,0.214 0.037,0.215 0.053,0.215 0.054,0.214 0.035,0.251 0.037,0.214 0.035,0.215 0.039,0.247 0.035,0.214 0.018,0.215 0.018,0.25 0.037,0.215 0.018,0.25 0.018,0.215 v 0.251 l 0.018,0.215 0.018,0.25 v 0.215 0.25 c 0,5.045 -2.057,9.625 -5.366,12.916 -1.054,1.073 -2.253,2.004 -3.541,2.756 l -0.108,0.07 -0.07,0.036 -0.323,0.215 h -0.053 l -0.126,0.071 -0.072,0.035 -0.018,0.037 -0.162,0.07 -0.142,0.072 -0.054,0.036 -0.145,0.072 -0.054,0.035 -0.142,0.072 h -0.037 l -0.375,0.18 h -0.018 l -0.179,0.106 h -0.018 l -0.196,0.071 v 0 l -0.197,0.072 h -0.019 l -0.179,0.106 h -0.018 l -0.196,0.072 v 0 l -0.197,0.071 h -0.018 l -0.179,0.071 h -0.037 l -0.179,0.072 h -0.035 l -0.162,0.071 h -0.053 l -0.161,0.071 h -0.055 l -0.142,0.071 h -0.072 l -0.144,0.036 -0.07,0.036 -0.144,0.035 -0.072,0.035 -0.142,0.037 h -0.072 l -0.144,0.035 -0.07,0.036 -0.144,0.035 h -0.09 l -0.125,0.036 -0.089,0.035 h -0.126 l -0.107,0.037 -0.107,0.035 h -0.107 l -0.107,0.035 h -0.107 l -0.109,0.036 h -0.142 l -0.072,0.036 h -0.142 l -0.072,0.036 h -0.144 l -0.072,0.034 h -0.177 -0.054 l -0.162,0.037 h -0.072 l -0.16,0.035 h -0.054 -0.179 -0.035 l -0.196,0.036 h -0.037 -0.196 -0.035 l -0.179,0.036 h -0.037 -0.214 -0.017 -0.197 -0.037 -0.214 v 0 h -0.233 -0.231 v 0 h -0.233 v 0 h -0.232 v 0 h -0.216 -0.035 l -0.179,-0.036 h -0.035 -0.196 -0.055 l -0.179,-0.036 H 226.251 226.072 226 l -0.144,-0.035 h -0.07 l -0.161,-0.037 h -0.072 -0.161 l -0.07,-0.034 h -0.144 l -0.072,-0.036 h -0.142 l -0.089,-0.036 h -0.126 l -0.107,-0.036 h -0.107 l -0.107,-0.035 h -0.107 l -0.107,-0.035 -0.126,-0.037 h -0.107 l -0.089,-0.035 -0.125,-0.036 h -0.089 l -0.144,-0.035 -0.072,-0.036 -0.142,-0.035 h -0.072 l -0.144,-0.037 -0.07,-0.035 -0.144,-0.035 -0.072,-0.036 -0.142,-0.036 h -0.072 l -0.144,-0.071 h -0.07 l -0.144,-0.071 h -0.053 l -0.162,-0.071 h -0.037 l -0.179,-0.072 h -0.035 l -0.179,-0.071 h -0.018 l -0.179,-0.071 h -0.018 l -0.196,-0.072 h -0.02 l -0.179,-0.071 -0.018,-0.035 -0.197,-0.072 v 0 l -0.214,-0.071 v 0 l -0.179,-0.106 v 0 l -0.214,-0.072 v 0 l -0.179,-0.107 h -0.037 l -0.162,-0.072 -0.018,-0.035 -0.179,-0.071 -0.035,-0.036 -0.144,-0.072 -0.035,-0.035 -0.161,-0.072 h -0.053 l -0.144,-0.106 h -0.035 l -0.144,-0.108 -0.053,-0.035 -0.126,-0.071 -0.072,-0.036 -0.107,-0.07 -0.072,-0.037 -0.107,-0.071 -0.07,-0.035 -0.126,-0.072 -0.072,-0.036 -0.107,-0.07 -0.089,-0.072 -0.09,-0.036 -0.089,-0.071 -0.07,-0.072 -0.108,-0.07 -0.07,-0.036 -0.109,-0.071 -0.07,-0.072 -0.109,-0.071 -0.07,-0.035 -0.107,-0.071 -0.072,-0.072 -0.107,-0.071 -0.055,-0.036 -0.107,-0.107 -0.054,-0.035 -0.125,-0.107 -0.055,-0.036 -0.107,-0.071 -0.053,-0.035 -0.126,-0.108 -0.035,-0.036 -0.126,-0.107 -0.035,-0.035 -0.125,-0.107 -0.037,-0.035 -0.142,-0.144 h -0.018 l -0.126,-0.144 h -0.035 l -0.144,-0.143 v 0 l -0.321,-0.322 c -2.327,-2.289 -4.025,-5.224 -4.831,-8.515 h -47.872 -0.018 l -0.035,0.144 v 0.035 l -0.09,0.286 -0.037,0.144 v 0 l -0.07,0.285 -0.037,0.144 -0.035,0.036 -0.035,0.143 v 0.036 l -0.055,0.106 -0.018,0.107 -0.037,0.036 -0.035,0.144 v 0.035 l -0.162,0.43 h -0.017 l -0.035,0.144 -0.037,0.035 -0.035,0.108 -0.303,0.715 v 0 l -0.055,0.143 -0.035,0.072 -0.037,0.072 -0.072,0.143 v 0 l -0.07,0.143 -0.02,0.036 -0.053,0.107 -0.037,0.106 h -0.035 l -0.072,0.144 v 0.036 l -0.07,0.107 -0.072,0.143 -0.072,0.144 v 0 l -0.072,0.107 -0.035,0.106 -0.037,0.036 -0.07,0.144 h -0.02 l -0.07,0.143 -0.037,0.036 -0.053,0.071 -0.054,0.107 -0.018,0.036 -0.089,0.144 -0.018,0.035 -0.072,0.071 -0.161,0.251 -0.018,0.035 -0.162,0.251 -0.089,0.106 v 0 l -0.089,0.108 -0.16,0.25 -0.02,0.036 -0.089,0.107 -0.107,0.106 -0.053,0.108 -0.02,0.035 -0.214,0.215 -0.035,0.072 -0.054,0.07 -0.09,0.107 v 0 l -0.107,0.107 -0.035,0.072 -0.072,0.071 -0.072,0.071 -0.018,0.035 -0.107,0.108 -0.019,0.036 -0.088,0.07 -0.054,0.072 -0.144,0.143 -0.018,0.037 -0.196,0.178 -0.107,0.107 v 0 l -0.072,0.071 c -0.93,0.931 -1.984,1.754 -3.113,2.469 l -0.09,0.072 -0.089,0.035 -0.107,0.071 -0.072,0.037 -0.107,0.07 -0.089,0.036 -0.375,0.215 -0.107,0.071 -0.072,0.035 -0.179,0.107 -0.142,0.072 -0.072,0.036 -0.144,0.071 -0.035,0.035 -0.162,0.072 h -0.035 l -0.161,0.107 h -0.035 l -0.179,0.072 v 0 l -0.179,0.106 h -0.037 l -0.179,0.071 v 0 l -0.214,0.072 -0.196,0.106 h -0.018 l -0.179,0.072 h -0.018 l -0.198,0.071 v 0 l -0.196,0.071 h -0.018 l -0.179,0.072 h -0.035 l -0.179,0.071 h -0.037 l -0.177,0.071 H 149.9 l -0.162,0.071 h -0.052 l -0.144,0.036 -0.072,0.036 -0.143,0.035 -0.072,0.035 -0.142,0.037 h -0.072 l -0.144,0.035 -0.089,0.036 -0.125,0.035 h -0.107 l -0.107,0.036 -0.109,0.035 h -0.107 l -0.107,0.037 -0.107,0.035 h -0.107 l -0.107,0.035 h -0.126 l -0.089,0.036 h -0.142 l -0.072,0.036 h -0.144 l -0.089,0.036 h -0.142 l -0.072,0.034 h -0.161 -0.07 l -0.144,0.037 h -0.072 l -0.162,0.035 h -0.052 -0.179 -0.035 l -0.198,0.036 h -0.035 -0.196 -0.037 l -0.196,0.036 h -0.018 -0.214 -0.018 -0.216 -0.018 -0.214 -0.233 -0.018 -0.179 -0.035 -0.162 -0.089 -0.107 -0.107 -0.072 -0.179 -0.037 l -0.177,-0.036 v 0 h -0.179 -0.072 -0.144 l -0.072,-0.036 h -0.107 -0.142 l -0.037,-0.035 h -0.179 -0.018 l -0.197,-0.037 h -0.018 -0.161 l -0.072,-0.034 h -0.107 l -0.107,-0.036 h -0.089 l -0.144,-0.036 h -0.035 l -0.196,-0.036 -0.179,-0.035 h -0.035 l -0.144,-0.035 h -0.072 l -0.107,-0.037 h -0.125 l -0.055,-0.035 -0.179,-0.036 h -0.018 l -0.179,-0.035 h -0.018 l -0.161,-0.036 -0.053,-0.035 -0.126,-0.037 h -0.089 l -0.089,-0.035 -0.125,-0.035 h -0.054 l -0.16,-0.072 h -0.02 l -0.179,-0.071 h -0.018 l -0.142,-0.036 -0.072,-0.035 -0.107,-0.036 -0.107,-0.035 h -0.072 l -0.144,-0.072 h -0.035 l -0.179,-0.071 v 0 l -0.179,-0.071 h -0.035 l -0.126,-0.036 -0.286,-0.143 h -0.055 l -0.142,-0.072 h -0.035 l -0.144,-0.071 h -0.035 l -0.144,-0.071 -0.054,-0.035 -0.125,-0.037 -0.072,-0.035 -0.07,-0.036 -0.144,-0.071 -0.035,-0.036 -0.144,-0.071 h -0.018 l -0.161,-0.071 -0.035,-0.036 -0.126,-0.072 -0.053,-0.035 -0.107,-0.035 -0.109,-0.072 h -0.053 l -0.126,-0.071 -0.035,-0.036 -0.162,-0.072 v -0.035 l -0.16,-0.071 -0.037,-0.036 -0.107,-0.07 -0.072,-0.037 -0.089,-0.035 -0.107,-0.071 -0.053,-0.036 -0.126,-0.072 -0.018,-0.035 -0.162,-0.071 -0.018,-0.036 -0.125,-0.071 -0.054,-0.036 -0.107,-0.072 -0.072,-0.07 -0.072,-0.036 -0.107,-0.071 -0.035,-0.035 -0.144,-0.108 v 0 l -0.142,-0.106 h -0.037 l -0.107,-0.107 v 35.992 h 254.346 v -17.031 l -0.716,-5.295 -3.471,-0.858 -3.417,-1.108 -12.505,15.17 c -1.395,1.682 -3.791,2.074 -5.616,0.965 l -10.019,-6.01 c -1.914,-1.145 -2.647,-3.507 -1.787,-5.475 l 7.477,-18.139 -2.541,-2.505 -2.432,-2.647 -18.427,6.905 c -2.057,0.751 -4.329,-0.106 -5.366,-1.968 l -5.652,-10.232 c -1.074,-1.933 -0.537,-4.293 1.145,-5.617 l 15.563,-11.986 -0.965,-3.47 -0.751,-3.472 -19.392,-3.254 c -2.256,-0.358 -3.794,-2.398 -3.65,-4.616 l 0.215,-11.485 c 0.036,-2.182 1.682,-3.971 3.811,-4.257 l 19.444,-2.575 0.896,-3.472 1.074,-3.435 -15.133,-12.495 c -1.699,-1.396 -2.074,-3.828 -0.984,-5.652 l 6.029,-10.019 c 1.126,-1.896 3.488,-2.612 5.475,-1.788 l 18.139,7.512 2.521,-2.61 2.613,-2.362 -6.889,-18.426 c -0.75,-2.074 0.107,-4.328 1.968,-5.367 l 10.233,-5.688 c 1.913,-1.038 4.293,-0.537 5.58,1.18 l 11.987,15.564 3.362,-0.93 2.183,-0.502 V 41.35 c 0,-4.186 -1.753,-8.049 -4.526,-10.84 -2.771,-2.756 -6.618,-4.508 -10.822,-4.508 H 148.773 c -4.205,0 -8.051,1.752 -10.823,4.508 -2.79,2.791 -4.508,6.654 -4.508,10.84 v 26.227 h 220.859 c 2.432,0 4.4,1.967 4.4,4.399 0,2.432 -1.969,4.401 -4.4,4.401 H 133.442 v 60.178 c 1.432,-1.072 3.023,-1.968 4.759,-2.611 v 0 l 1.037,-0.357 h 0.037 l 0.142,-0.036 h 0.072 l 0.214,-0.071 0.089,-0.035 0.126,-0.036 h 0.035 l 0.375,-0.108 h 0.018 l 0.161,-0.035 h 0.072 l 0.107,-0.035 h 0.125 l 0.216,-0.072 h 0.035 l 0.179,-0.035 v 0 l 0.179,-0.036 h 0.053 l 0.144,-0.036 h 0.089 0.107 l 0.107,-0.035 h 0.072 l 0.161,-0.037 h 0.018 0.197 0.018 l 0.179,-0.035 h 0.037 0.142 l 0.107,-0.035 h 0.072 0.144 0.053 l 0.198,-0.036 v 0 h 0.177 0.037 0.179 0.072 0.107 l 0.107,-0.036 h 0.089 0.162 0.035 0.179 0.018 0.233 v 0 h 0.231 v 0 l 0.233,0.036 v 0 h 0.232 0.018 0.216 v 0 l 0.231,0.036 h 0.02 0.214 v 0 l 0.231,0.035 h 0.02 l 0.214,0.035 v 0 h 0.232 v 0 l 0.233,0.037 v 0 l 0.214,0.035 v 0 l 0.233,0.036 v 0 l 0.231,0.036 v 0 l 0.216,0.035 v 0 l 0.214,0.072 h 0.018 l 0.216,0.035 h 0.018 l 0.214,0.035 v 0 l 0.214,0.072 v 0 l 0.216,0.036 v 0 l 0.214,0.071 v 0 l 0.214,0.071 v 0 l 0.216,0.036 h 0.018 l 0.214,0.071 v 0 l 0.196,0.071 h 0.02 l 0.197,0.071 h 0.017 l 0.197,0.072 h 0.018 l 0.196,0.071 v 0 l 0.216,0.072 v 0 l 0.214,0.106 v 0 l 0.196,0.071 h 0.018 l 0.198,0.107 v 0 l 0.197,0.072 v 0 l 0.214,0.107 v 0 l 0.197,0.071 v 0 l 0.196,0.107 v 0 l 0.198,0.106 h 0.018 l 0.179,0.072 v 0 l 0.196,0.107 h 0.018 l 0.179,0.107 v 0 l 0.196,0.107 v 0 l 0.197,0.107 v 0 l 0.179,0.107 v 0 l 0.197,0.107 v 0 l 0.196,0.143 v 0 l 0.179,0.107 v 0 l 0.179,0.107 v 0 l 0.179,0.143 v 0 l 0.179,0.107 h 0.018 l 0.161,0.143 h 0.018 l 0.162,0.108 h 0.018 l 0.161,0.144 h 0.018 l 0.162,0.143 v 0 l 0.179,0.107 v 0 l 0.179,0.143 v 0 l 0.162,0.143 h 0.018 l 0.142,0.145 h 0.019 l 0.16,0.143 v 0 l 0.162,0.143 v 0 l 0.161,0.144 v 0 l 0.162,0.144 h 0.018 l 0.142,0.143 v 0 l 0.162,0.18 v 0 l 0.161,0.143 v 0 l 0.107,0.107 0.107,0.107 c 0.323,0.357 0.609,0.68 0.913,1.037 l 0.017,0.035 0.144,0.18 0.035,0.036 0.179,0.25 0.037,0.036 0.07,0.072 0.072,0.106 h 0.018 l 0.089,0.144 v 0 l 0.09,0.106 0.054,0.071 0.035,0.072 0.072,0.107 h 0.018 l 0.089,0.143 0.018,0.036 0.072,0.107 0.054,0.071 0.035,0.035 0.072,0.144 v 0 l 0.09,0.108 0.035,0.07 0.054,0.072 0.072,0.107 v 0.035 l 0.16,0.25 0.055,0.072 0.035,0.072 0.072,0.107 v 0.035 l 0.216,0.393 0.07,0.144 h 0.018 l 0.377,0.788 z m -16.995,17.138 h 0.393 0.375 0.072 0.018 0.109 0.018 l 0.089,-0.036 h 0.035 0.089 0.037 0.088 0.037 0.072 l 0.035,-0.035 h 0.072 0.052 0.072 0.054 l 0.053,-0.035 h 0.054 0.072 l 0.035,-0.037 h 0.072 0.053 0.037 0.018 l 0.072,-0.035 h 0.035 0.072 l 0.054,-0.036 h 0.053 0.054 l 0.09,-0.035 h 0.035 0.072 l 0.035,-0.036 h 0.072 0.035 l 0.072,-0.036 h 0.037 l 0.07,-0.036 h 0.037 l 0.089,-0.035 h 0.018 l 0.107,-0.035 v 0 l 0.107,-0.037 v 0 l 0.107,-0.035 v 0 l 0.109,-0.036 0.107,-0.035 v 0 l 0.107,-0.036 v 0 l 0.107,-0.035 v 0 l 0.107,-0.037 v 0 l 0.089,-0.035 0.018,-0.035 0.089,-0.036 h 0.02 l 0.07,-0.036 h 0.037 l 0.072,-0.035 0.035,-0.035 0.072,-0.037 h 0.035 l 0.072,-0.035 h 0.035 l 0.055,-0.036 0.035,-0.035 0.054,-0.036 h 0.053 l 0.054,-0.035 0.035,-0.037 0.072,-0.035 h 0.037 l 0.053,-0.035 0.054,-0.036 0.035,-0.036 h 0.055 l 0.052,-0.036 0.037,-0.035 0.053,-0.036 0.054,-0.035 h 0.035 l 0.072,-0.037 0.035,-0.035 0.055,-0.035 0.017,-0.036 0.072,-0.036 h 0.035 l 0.072,-0.07 v 0 l 0.072,-0.037 0.035,-0.035 0.072,-0.036 v -0.036 l 0.089,-0.035 0.018,-0.035 0.072,-0.037 v 0 l 0.089,-0.07 v 0 l 0.09,-0.072 0.089,-0.072 0.089,-0.07 v 0 l 0.072,-0.072 v 0 l 0.07,-0.071 h 0.02 l 0.07,-0.071 h 0.019 l 0.07,-0.071 v -0.036 l 0.072,-0.036 0.018,-0.036 0.162,-0.179 c 0.644,-0.608 1.181,-1.323 1.611,-2.11 l 0.035,-0.072 0.144,-0.285 0.035,-0.036 0.018,-0.072 0.018,-0.035 0.037,-0.071 0.018,-0.036 0.035,-0.071 0.02,-0.036 0.035,-0.071 v -0.035 l 0.035,-0.072 v -0.036 l 0.089,-0.179 0.02,-0.035 0.018,-0.072 0.017,-0.035 0.035,-0.072 v 0 l 0.037,-0.107 v 0 l 0.035,-0.107 v -0.035 l 0.035,-0.071 v -0.036 l 0.037,-0.072 v -0.035 l 0.035,-0.107 v 0 l 0.037,-0.107 v 0 l 0.018,-0.107 h 0.018 l 0.018,-0.107 0.018,-0.107 v 0 l 0.037,-0.106 v 0 l 0.035,-0.108 v -0.035 l 0.018,-0.071 v -0.036 l 0.02,-0.107 v 0 l 0.035,-0.107 v 0 -0.107 -0.035 l 0.035,-0.072 v -0.035 -0.072 -0.035 l 0.037,-0.107 v -0.035 -0.072 -0.036 l 0.018,-0.071 v -0.035 l 0.018,-0.107 v -0.036 -0.071 -0.037 -0.07 -0.036 l 0.018,-0.071 v -0.072 l 0.019,-0.071 v -0.035 -0.071 -0.037 -0.07 -0.072 -0.107 0 -0.143 -0.107 -0.107 h -0.019 v -0.107 -0.035 -0.107 h -0.018 v -0.107 0 -0.107 -0.036 l -0.018,-0.071 v -0.035 l -0.018,-0.107 v 0 -0.108 -0.036 l -0.037,-0.214 -0.018,-0.071 -0.09,-0.465 v -0.037 l -0.018,-0.07 -0.017,-0.036 v -0.072 l -0.018,-0.071 -0.055,-0.215 -0.018,-0.035 -0.018,-0.072 v -0.035 l -0.037,-0.072 v -0.035 l -0.072,-0.179 v -0.036 l -0.035,-0.072 -0.035,-0.143 -0.037,-0.071 v -0.036 l -0.035,-0.072 v -0.034 l -0.035,-0.072 v -0.036 l -0.037,-0.07 -0.018,-0.037 -0.035,-0.071 v -0.035 l -0.233,-0.501 v 0 l -0.035,-0.107 h -0.019 l -0.053,-0.107 v 0 l -0.037,-0.071 v 0 l -0.053,-0.108 H 152.8 l -0.037,-0.106 h -0.018 l -0.107,-0.179 -0.054,-0.107 v 0 l -0.035,-0.072 -0.035,-0.035 -0.288,-0.43 -0.018,-0.035 -0.035,-0.037 -0.037,-0.035 -0.017,-0.071 -0.035,-0.036 -0.286,-0.357 -0.037,-0.035 -0.035,-0.036 -0.035,-0.036 -0.037,-0.071 -0.035,-0.036 -0.037,-0.035 -0.249,-0.25 -0.144,-0.144 -0.251,-0.251 v 0 c -0.179,-0.179 -0.393,-0.357 -0.607,-0.501 v 0 l -0.072,-0.071 v 0 l -0.107,-0.072 v 0 l -0.072,-0.07 v 0 l -0.107,-0.072 v 0 l -0.089,-0.072 -0.089,-0.07 v 0 l -0.107,-0.036 v 0 l -0.09,-0.071 v 0 l -0.089,-0.072 v 0 l -0.107,-0.035 -0.107,-0.071 v 0 l -0.09,-0.072 v 0 l -0.089,-0.036 -0.109,-0.07 v 0 l -0.107,-0.036 v 0 l -0.107,-0.072 v 0 l -0.09,-0.035 h -0.017 l -0.09,-0.071 h -0.018 l -0.089,-0.037 v 0 l -0.089,-0.035 h -0.018 l -0.089,-0.071 h -0.02 l -0.089,-0.036 h -0.018 l -0.089,-0.035 h -0.018 l -0.09,-0.035 -0.107,-0.072 h -0.018 l -0.089,-0.036 h -0.018 l -0.089,-0.036 h -0.02 l -0.107,-0.035 h -0.018 l -0.089,-0.035 h -0.018 l -0.107,-0.037 v 0 l -0.107,-0.035 v 0 l -0.108,-0.035 v 0 l -0.107,-0.036 v 0 h -0.107 -0.018 l -0.107,-0.036 v 0 l -0.107,-0.036 h -0.02 l -0.107,-0.036 v 0 l -0.107,-0.035 v 0 h -0.125 v 0 l -0.126,-0.035 v 0 h -0.107 v 0 l -0.107,-0.036 v 0 h -0.125 -0.019 l -0.107,-0.036 v 0 h -0.107 v 0 l -0.125,-0.035 v 0 h -0.126 v 0 h -0.107 -0.018 -0.107 -0.018 l -0.109,-0.036 v 0 h -0.107 -0.018 -0.125 v 0 h -0.107 v 0 h -0.126 -0.018 -0.107 v 0 h -0.126 v 0 h -0.125 v 0 h -0.107 -0.018 l -0.126,0.036 h -0.107 -0.107 -0.018 -0.126 v 0 l -0.107,0.035 v 0 h -0.125 v 0 l -0.125,0.036 h -0.108 l -0.125,0.036 h -0.107 l -0.125,0.035 h -0.109 l -0.125,0.035 -0.125,0.036 -0.109,0.036 -0.107,0.036 h -0.107 v 0 l -0.232,0.071 v 0 l -0.126,0.035 v 0 l -0.107,0.037 v 0 l -0.107,0.035 v 0 l -0.107,0.035 v 0 l -0.107,0.036 -0.109,0.036 -0.107,0.072 v 0 l -0.214,0.07 v 0 l -0.214,0.072 v 0.035 l -0.109,0.035 v 0 c -1.002,0.466 -1.895,1.109 -2.701,1.897 l -0.161,0.144 -0.053,0.07 h -0.02 l -0.053,0.072 -0.017,0.036 -0.055,0.034 -0.035,0.037 -0.037,0.035 -0.035,0.071 -0.035,0.036 -0.037,0.036 -0.018,0.036 -0.072,0.035 v 0.035 l -0.072,0.072 v 0.036 l -0.07,0.035 v 0.036 l -0.054,0.072 h -0.018 l -0.055,0.07 v 0.036 l -0.07,0.071 -0.055,0.107 v 0 l -0.072,0.072 v 0 l -0.053,0.107 h -0.019 l -0.035,0.07 -0.035,0.036 -0.037,0.072 h -0.018 l -0.035,0.071 -0.02,0.035 -0.035,0.072 -0.035,0.035 -0.037,0.036 -0.018,0.036 -0.018,0.072 -0.037,0.035 -0.035,0.035 -0.018,0.072 -0.018,0.035 -0.037,0.072 -0.035,0.035 -0.035,0.071 v 0 l -0.037,0.108 H 136 l -0.035,0.07 -0.019,0.036 -0.035,0.072 v 0.035 l -0.035,0.071 h -0.02 l -0.052,0.107 v 0 l -0.037,0.107 v 0 l -0.035,0.107 v 0 l -0.035,0.107 h -0.019 l -0.035,0.072 -0.018,0.035 -0.018,0.071 -0.019,0.036 -0.018,0.07 -0.018,0.037 -0.035,0.071 -0.037,0.107 v 0.036 l -0.035,0.07 v 0.036 l -0.035,0.072 v 0.071 l -0.02,0.035 -0.018,0.072 -0.018,0.035 -0.018,0.072 v 0.035 l -0.037,0.072 v 0.035 l -0.035,0.072 v 0.036 l -0.035,0.071 v 0.035 l -0.019,0.107 v 0 l -0.018,0.107 -0.018,0.107 h -0.018 v 0.107 0 l -0.037,0.107 v 0.035 l -0.018,0.072 v 0.035 l -0.018,0.072 v 0.035 l -0.018,0.072 v 0.07 l -0.018,0.037 v 0.07 0.072 l -0.019,0.036 v 0.071 l -0.018,0.072 v 0.035 0.071 0.036 l -0.018,0.072 v 0.035 0.107 h -0.018 v 0.107 0.035 0.071 0.036 0.107 0 0.107 0 0 0.143 0.107 0 0.107 0.035 0.108 0 0.106 0 0.107 l 0.018,0.036 v 0.106 0 l 0.018,0.108 v 0 0.107 0.036 l 0.018,0.07 v 0.036 l 0.019,0.108 v 0 0.107 l 0.018,0.035 0.018,0.071 v 0.036 0.107 h 0.018 l 0.018,0.107 v 0.035 l 0.02,0.072 0.018,0.035 v 0.071 0.036 l 0.035,0.072 v 0.035 l 0.018,0.107 v 0.036 l 0.019,0.071 v 0.035 l 0.035,0.072 v 0.035 l 0.035,0.072 v 0.035 l 0.019,0.072 0.018,0.035 0.018,0.071 0.018,0.036 0.018,0.072 0.02,0.07 0.018,0.036 0.018,0.072 v 0.034 l 0.035,0.072 0.018,0.036 0.02,0.071 0.018,0.072 0.018,0.035 0.035,0.072 v 0.035 l 0.037,0.036 v 0.071 l 0.035,0.072 0.018,0.035 0.019,0.035 0.035,0.072 v 0.035 l 0.035,0.072 0.02,0.035 0.018,0.072 0.035,0.036 0.037,0.071 v 0.035 l 0.035,0.071 0.035,0.036 0.019,0.072 0.018,0.035 0.035,0.072 0.018,0.035 0.037,0.036 0.018,0.035 0.035,0.071 0.018,0.037 0.037,0.07 0.018,0.036 0.035,0.071 0.037,0.035 0.035,0.072 v 0 l 0.037,0.072 0.035,0.035 0.035,0.072 0.02,0.035 0.052,0.071 v 0.036 l 0.055,0.036 0.018,0.036 0.035,0.07 0.037,0.037 0.035,0.07 h 0.018 l 0.054,0.072 v 0.035 l 0.072,0.072 v 0 l 0.07,0.071 v 0.036 l 0.055,0.07 h 0.018 l 0.054,0.108 h 0.018 l 0.054,0.071 h 0.018 l 0.053,0.072 0.02,0.035 0.053,0.071 h 0.018 l 0.072,0.072 v 0.035 l 0.072,0.071 v 0 l 0.072,0.072 v 0 l 0.07,0.107 v 0 l 0.072,0.07 v 0 l 0.089,0.072 v 0 l 0.072,0.071 c 0.448,0.466 0.948,0.896 1.485,1.253 h 0.017 l 0.269,0.179 h 0.018 l 0.269,0.144 h 0.037 l 0.072,0.07 h 0.035 l 0.054,0.037 0.035,0.035 0.054,0.036 h 0.053 l 0.055,0.035 0.035,0.036 h 0.072 l 0.035,0.035 0.054,0.037 h 0.053 l 0.054,0.035 0.055,0.035 h 0.035 l 0.072,0.036 0.035,0.036 h 0.072 l 0.035,0.035 0.072,0.035 h 0.035 l 0.072,0.037 h 0.037 l 0.07,0.035 h 0.037 l 0.072,0.036 h 0.018 l 0.089,0.035 h 0.018 l 0.089,0.036 h 0.018 l 0.089,0.035 h 0.018 l 0.09,0.037 h 0.017 l 0.109,0.035 v 0 l 0.107,0.035 v 0 l 0.107,0.036 h 0.018 l 0.089,0.036 h 0.018 0.089 l 0.018,0.036 h 0.089 0.02 l 0.107,0.035 h 0.018 0.089 l 0.035,0.036 h 0.072 0.037 l 0.07,0.035 h 0.054 0.053 0.054 l 0.055,0.037 h 0.07 0.054 l 0.054,0.035 h 0.07 0.055 0.054 0.07 l 0.037,0.035 h 0.07 0.037 0.107 0.018 0.089 0.037 l 0.07,0.036 h 0.037 0.107 v 0 h 0.097 z m 74.292,73.381 0.018,0.536 -0.018,0.537 v 0.035 0.037 l 0.018,0.07 v 0.036 0.107 0.036 0.071 0.035 l 0.02,0.072 0.018,0.036 v 0.07 0.072 0.071 l 0.018,0.036 0.018,0.072 v 0.035 0.071 l 0.017,0.071 0.02,0.035 v 0.072 0.036 l 0.035,0.071 v 0.036 0.071 l 0.035,0.035 v 0.108 0 l 0.037,0.106 v 0.037 l 0.018,0.07 0.018,0.036 0.018,0.071 v 0.037 l 0.02,0.07 v 0.036 l 0.035,0.106 v 0 l 0.035,0.108 0.037,0.107 v 0 l 0.035,0.106 v 0 l 0.037,0.108 v 0 l 0.035,0.106 v 0 l 0.035,0.107 v 0 l 0.037,0.107 v 0 l 0.035,0.107 h 0.018 l 0.018,0.071 0.02,0.036 0.035,0.072 0.018,0.035 0.018,0.071 0.02,0.036 0.035,0.07 v 0.037 l 0.035,0.071 0.037,0.036 0.018,0.071 0.018,0.036 0.037,0.07 0.018,0.037 0.018,0.035 0.035,0.072 0.02,0.035 0.035,0.072 0.018,0.035 0.054,0.071 0.035,0.071 0.018,0.037 0.037,0.07 0.018,0.036 0.053,0.071 v 0.035 l 0.037,0.072 h 0.018 l 0.055,0.071 v 0.036 l 0.07,0.072 v 0 l 0.054,0.107 0.054,0.071 v 0.035 l 0.07,0.071 v 0 l 0.054,0.107 h 0.018 l 0.037,0.072 h 0.035 l 0.035,0.07 0.037,0.037 0.035,0.071 h 0.018 l 0.054,0.071 0.018,0.035 0.055,0.072 0.018,0.035 0.035,0.036 0.037,0.036 0.053,0.036 0.018,0.071 0.037,0.035 0.035,0.037 0.037,0.035 0.035,0.035 0.035,0.036 0.055,0.071 0.035,0.035 0.037,0.037 0.035,0.035 0.035,0.036 0.179,0.179 c 0.502,0.502 1.057,0.93 1.646,1.323 h 0.037 l 0.107,0.072 0.053,0.036 0.037,0.035 0.053,0.035 h 0.037 l 0.072,0.036 0.035,0.036 0.072,0.036 h 0.035 l 0.054,0.035 0.142,0.071 0.055,0.037 0.053,0.035 0.054,0.035 h 0.035 l 0.072,0.036 0.037,0.036 h 0.07 l 0.037,0.035 0.072,0.037 h 0.035 l 0.055,0.035 0.052,0.035 h 0.055 l 0.053,0.036 0.107,0.036 0.054,0.035 h 0.055 l 0.052,0.035 h 0.055 l 0.053,0.037 h 0.054 l 0.054,0.035 h 0.07 l 0.037,0.036 0.072,0.035 h 0.035 0.072 l 0.035,0.036 h 0.089 l 0.144,0.072 h 0.07 l 0.109,0.035 h 0.035 l 0.072,0.035 h 0.035 l 0.089,0.036 h 0.018 0.107 0.02 l 0.089,0.036 H 226 l 0.072,0.036 h 0.035 0.089 0.018 l 0.107,0.035 v 0 h 0.108 0.035 l 0.089,0.036 h 0.018 0.09 0.018 l 0.108,0.035 h 0.018 0.09 0.035 0.089 0.018 l 0.107,0.037 v 0 h 0.126 v 0 h 0.125 v 0 h 0.107 v 0 h 0.126 v 0 h 0.125 v 0 h 0.125 0.109 0.018 0.107 v 0 h 0.107 0.037 0.107 v 0 h 0.107 0.018 0.089 0.035 l 0.09,-0.037 h 0.019 0.107 0.018 0.09 0.035 l 0.09,-0.035 h 0.018 0.108 0.018 l 0.09,-0.036 h 0.035 0.089 0.018 l 0.089,-0.035 h 0.037 0.089 0.035 l 0.072,-0.036 h 0.035 l 0.072,-0.036 h 0.035 0.089 0.037 l 0.072,-0.036 h 0.053 l 0.072,-0.035 h 0.035 l 0.179,-0.035 0.037,-0.036 0.125,-0.036 h 0.055 0.053 l 0.126,-0.036 0.035,-0.035 0.072,-0.036 0.16,-0.035 0.054,-0.037 0.107,-0.035 h 0.037 l 0.07,-0.035 0.037,-0.036 0.179,-0.036 0.035,-0.035 0.286,-0.107 0.037,-0.036 c 1,-0.465 1.877,-1.108 2.646,-1.86 l 0.179,-0.179 0.037,-0.036 0.035,-0.035 0.037,-0.037 0.035,-0.035 0.053,-0.071 0.037,-0.036 0.035,-0.035 0.037,-0.035 0.035,-0.037 0.035,-0.035 0.019,-0.071 0.053,-0.036 0.037,-0.036 0.035,-0.036 0.018,-0.035 0.055,-0.072 0.018,-0.035 0.054,-0.071 h 0.018 l 0.035,-0.071 0.037,-0.037 0.035,-0.07 h 0.018 l 0.054,-0.072 h 0.018 l 0.053,-0.107 v 0 l 0.072,-0.071 v -0.035 l 0.054,-0.071 0.053,-0.107 v 0 l 0.072,-0.072 v -0.036 l 0.054,-0.071 h 0.018 l 0.035,-0.072 v -0.035 l 0.055,-0.071 0.018,-0.036 0.037,-0.07 0.018,-0.037 0.035,-0.071 0.054,-0.071 0.018,-0.035 0.035,-0.072 0.018,-0.035 0.037,-0.072 0.018,-0.035 0.017,-0.037 0.037,-0.07 0.018,-0.036 0.018,-0.071 0.035,-0.036 0.037,-0.071 v -0.037 l 0.035,-0.07 0.018,-0.036 0.019,-0.071 0.018,-0.035 0.035,-0.072 0.018,-0.036 0.02,-0.071 h 0.018 l 0.035,-0.107 v 0 l 0.037,-0.107 v 0 l 0.035,-0.107 v 0 l 0.035,-0.106 v 0 l 0.037,-0.108 v 0 l 0.035,-0.106 v 0 l 0.035,-0.107 0.037,-0.108 v 0 l 0.035,-0.106 v -0.036 l 0.018,-0.07 v -0.037 l 0.02,-0.071 0.018,-0.036 0.018,-0.07 v -0.037 l 0.035,-0.106 v 0 l 0.019,-0.108 v -0.035 l 0.018,-0.071 v -0.036 l 0.035,-0.071 v -0.036 -0.072 l 0.018,-0.035 0.019,-0.071 v -0.071 -0.035 l 0.018,-0.072 0.018,-0.036 v -0.071 -0.072 -0.07 l 0.018,-0.036 0.018,-0.072 v -0.035 -0.071 -0.036 -0.107 -0.036 l 0.02,-0.07 v -0.037 l 0.018,-0.107 v 0 -0.107 0 -0.106 -0.036 -0.107 0 -0.107 -0.143 -0.107 -0.143 -0.108 l -0.018,-0.106 -0.02,-0.107 v -0.143 -0.108 l -0.035,-0.144 v -0.106 l -0.018,-0.107 -0.018,-0.144 -0.019,-0.107 -0.018,-0.107 -0.035,-0.107 -0.018,-0.143 -0.019,-0.107 -0.035,-0.107 -0.018,-0.107 -0.037,-0.143 -0.018,-0.107 -0.035,-0.107 -0.037,-0.107 -0.035,-0.107 -0.035,-0.107 -0.037,-0.107 -0.035,-0.107 -0.035,-0.106 -0.037,-0.144 -0.053,-0.072 v -0.035 l -0.055,-0.071 -0.035,-0.144 -0.037,-0.071 -0.053,-0.106 -0.054,-0.108 -0.035,-0.106 -0.072,-0.108 -0.037,-0.107 v 0 l -0.053,-0.106 -0.054,-0.108 -0.07,-0.071 -0.037,-0.107 v 0 l -0.072,-0.107 v 0 L 236,229.613 v 0 l -0.054,-0.106 v 0 l -0.072,-0.072 v 0 l -0.125,-0.215 -0.055,-0.071 -0.07,-0.107 -0.072,-0.071 v 0 l -0.144,-0.215 -0.125,-0.179 v 0 l -0.089,-0.071 v 0 l -0.072,-0.072 v -0.036 l -0.214,-0.25 v 0 l -0.072,-0.072 v 0 l -0.072,-0.07 v 0 l -0.179,-0.18 -0.07,-0.071 v 0 l -0.072,-0.071 -0.037,-0.035 -0.052,-0.072 c -0.555,-0.5 -1.181,-0.965 -1.843,-1.323 v 0 l -0.393,-0.216 v 0 L 232.01,226 v -0.035 l -0.089,-0.036 h -0.018 l -0.321,-0.144 -0.072,-0.035 h -0.035 l -0.054,-0.036 h -0.055 l -0.249,-0.106 -0.072,-0.037 h -0.037 l -0.07,-0.035 h -0.037 l -0.07,-0.036 h -0.037 l -0.089,-0.035 h -0.018 l -0.107,-0.036 -0.107,-0.035 v 0 h -0.109 v 0 l -0.017,-0.037 -0.197,-0.035 v 0 l -0.107,-0.035 h -0.018 l -0.089,-0.036 h -0.037 -0.07 -0.037 l -0.231,-0.036 -0.072,-0.036 h -0.054 -0.07 l -0.037,-0.035 h -0.072 -0.053 -0.054 -0.072 l -0.035,-0.036 h -0.072 -0.052 -0.072 -0.035 l -0.089,-0.035 h -0.037 -0.072 -0.035 -0.089 -0.018 -0.107 -0.02 -0.087 -0.037 -0.107 v -0.037 h -0.107 v 0 h -0.018 -0.109 -0.125 v 0 h -0.107 l -0.018,0.037 h -0.107 -0.02 -0.107 v 0 h -0.107 -0.018 -0.107 -0.019 -0.107 -0.018 l -0.089,0.035 h -0.035 -0.072 -0.035 -0.108 l -0.018,0.036 h -0.09 -0.018 -0.089 -0.035 l -0.089,0.035 h -0.019 -0.107 l -0.018,0.036 h -0.089 -0.035 L 226,225.249 h -0.035 -0.072 -0.037 l -0.089,0.036 h -0.035 l -0.072,0.035 h -0.053 l -0.072,0.035 h -0.035 -0.072 l -0.037,0.037 h -0.07 l -0.037,0.035 h -0.072 -0.035 l -0.072,0.036 h -0.053 l -0.054,0.035 h -0.053 l -0.054,0.036 h -0.055 l -0.053,0.035 h -0.072 l -0.054,0.037 h -0.053 l -0.055,0.035 -0.052,0.035 h -0.037 l -0.072,0.036 h -0.053 l -0.054,0.036 -0.035,0.035 h -0.072 l -0.035,0.035 -0.072,0.037 h -0.035 l -0.072,0.035 h -0.037 l -0.07,0.036 -0.037,0.036 -0.071,0.038 h -0.035 l -0.054,0.035 -0.053,0.037 -0.055,0.035 h -0.035 l -0.055,0.035 -0.035,0.036 h -0.072 l -0.035,0.036 -0.072,0.036 -0.035,0.036 -0.072,0.035 H 223.1 l -0.053,0.035 -0.018,0.037 -0.072,0.035 h -0.035 l -0.072,0.071 h -0.037 l -0.07,0.036 -0.02,0.035 -0.053,0.037 h -0.037 l -0.07,0.07 h -0.037 l -0.072,0.072 v 0 l -0.07,0.035 -0.037,0.035 -0.07,0.037 v 0.035 l -0.072,0.036 -0.037,0.035 -0.07,0.036 h -0.02 l -0.07,0.072 h -0.019 l -0.07,0.07 v 0 l -0.089,0.072 h -0.02 l -0.07,0.071 v 0 l -0.072,0.071 h -0.018 l -0.072,0.071 h -0.018 l -0.072,0.072 v 0 l -0.09,0.071 v 0.035 l -0.089,0.072 v 0 l -0.072,0.071 v 0 l -0.072,0.071 c -0.393,0.358 -0.733,0.752 -1.037,1.217 v 0 l -0.43,0.645 v 0.035 l -0.214,0.322 -0.018,0.072 -0.107,0.214 -0.018,0.036 -0.037,0.035 v 0.037 l -0.035,0.07 -0.037,0.036 -0.035,0.071 v 0.037 l -0.035,0.07 v 0.036 l -0.037,0.071 -0.018,0.035 -0.035,0.072 v 0.036 l -0.037,0.071 h -0.018 l -0.035,0.107 v 0 l -0.037,0.107 v 0 l -0.035,0.107 -0.035,0.106 v 0 l -0.037,0.108 v 0.035 l -0.035,0.072 v 0.035 0 l -0.072,0.18 v 0.035 l -0.035,0.071 v 0.036 l -0.02,0.07 -0.018,0.037 v 0.107 h -0.018 l -0.018,0.107 v 0.035 l -0.037,0.071 v 0.036 0.072 l -0.035,0.035 v 0.072 0.035 l -0.035,0.071 v 0.036 0.035 0.037 l -0.02,0.07 -0.017,0.036 v 0.071 0.072 l -0.018,0.071 -0.018,0.035 v 0.072 0.036 0.07 l -0.018,0.036 -0.02,0.107 v 0.036 0.072 0.035 0.071 0.036 l -0.018,0.107 v 0 0.092 z m -74.31,10.018 h 0.411 0.395 c 2.164,-0.108 4.15,-0.932 5.706,-2.22 0.16,-0.25 0.375,-0.501 0.59,-0.751 0.214,-0.215 0.43,-0.357 0.681,-0.537 1.269,-1.574 2.057,-3.576 2.111,-5.76 v -0.107 0 -0.107 -0.107 -0.035 c -0.037,-2.541 -1.11,-4.901 -2.792,-6.584 v 0 c -1.628,-1.609 -3.864,-2.683 -6.315,-2.754 h -0.375 -0.393 c -2.362,0.071 -4.525,1.037 -6.154,2.539 l -0.035,0.037 -0.072,0.106 -0.089,0.071 v 0 c -1.591,1.61 -2.63,3.793 -2.772,6.19 l 0.035,0.536 -0.035,0.501 c 0.107,2.075 0.895,3.972 2.074,5.474 0.251,0.144 0.502,0.322 0.698,0.537 0.233,0.25 0.448,0.501 0.626,0.787 1.556,1.289 3.54,2.112 5.705,2.184 z m 0.841,64.436 h -0.43 -0.428 c -2.469,0.071 -4.687,1.145 -6.333,2.754 l -0.072,0.072 v 0 l -0.072,0.072 -0.072,0.106 -0.07,0.071 v 0 l -0.09,0.072 v 0 l -0.072,0.106 v 0 l -0.072,0.072 v 0 l -0.072,0.071 -0.018,0.035 -0.053,0.072 h -0.019 l -0.053,0.071 -0.018,0.036 -0.037,0.072 h -0.018 l -0.055,0.07 -0.018,0.036 -0.052,0.071 h -0.018 l -0.055,0.072 v 0.035 l -0.072,0.071 v 0.036 l -0.053,0.072 h -0.019 l -0.035,0.07 -0.035,0.036 -0.037,0.072 -0.018,0.036 -0.054,0.035 v 0.035 l -0.035,0.072 -0.035,0.035 -0.037,0.072 -0.018,0.035 -0.035,0.072 h -0.019 l -0.035,0.071 -0.018,0.036 -0.055,0.07 v 0.037 l -0.035,0.071 -0.035,0.035 -0.019,0.072 -0.018,0.036 -0.035,0.07 -0.018,0.036 -0.037,0.036 -0.018,0.071 -0.035,0.036 v 0.035 l -0.037,0.071 -0.035,0.072 -0.018,0.036 -0.02,0.035 -0.035,0.072 v 0.035 l -0.035,0.071 -0.019,0.036 -0.018,0.072 -0.035,0.035 v 0.071 l -0.037,0.036 -0.018,0.071 -0.018,0.071 -0.035,0.036 v 0.071 l -0.037,0.036 v 0.071 l -0.035,0.035 v 0.072 l -0.035,0.036 v 0.071 l -0.02,0.035 -0.018,0.072 -0.018,0.035 -0.018,0.072 -0.018,0.035 -0.019,0.072 v 0.035 l -0.035,0.107 v 0 l -0.035,0.107 v 0.036 l -0.019,0.071 v 0.036 l -0.018,0.071 -0.018,0.035 -0.018,0.072 v 0.036 0.106 h -0.018 l -0.02,0.107 v 0.036 l -0.018,0.071 -0.018,0.035 v 0.072 0.036 l -0.018,0.107 h -0.018 v 0.106 0.036 l -0.019,0.072 v 0.035 l -0.018,0.108 v 0 0.106 0 l -0.018,0.106 v 0.037 0.107 h -0.018 v 0.107 0 0.143 0 0.107 0 0.107 0.035 0.107 0.107 0 0.107 0.035 0.108 0 0.106 0.037 0.106 h 0.018 v 0.106 0 l 0.018,0.108 v 0.035 0.108 0 l 0.018,0.106 v 0 l 0.019,0.108 v 0.035 0.107 h 0.018 l 0.018,0.107 v 0 0.107 l 0.018,0.035 0.055,0.215 v 0.107 0 l 0.018,0.107 0.018,0.035 0.018,0.072 v 0.036 l 0.019,0.071 v 0.035 l 0.179,0.645 0.035,0.036 v 0.071 l 0.035,0.035 0.072,0.215 0.018,0.072 c 0.484,1.287 1.235,2.432 2.183,3.398 0.877,0.859 1.95,1.574 3.113,2.074 h 0.018 l 0.09,0.037 h 0.018 l 0.089,0.035 h 0.018 l 0.109,0.036 v 0 l 0.214,0.071 v 0 l 0.107,0.036 v 0 l 0.107,0.071 v 0 h 0.107 0.019 l 0.09,0.035 h 0.018 l 0.107,0.036 h 0.018 l 0.214,0.072 v 0 l 0.109,0.035 v 0 h 0.125 v 0 l 0.107,0.036 h 0.018 l 0.109,0.035 v 0 l 0.231,0.037 v 0 h 0.125 v 0 l 0.108,0.035 v 0 h 0.107 0.018 l 0.107,0.035 h 0.018 0.107 v 0 h 0.109 0.035 l 0.107,0.036 v 0 h 0.107 v 0 h 0.126 0.018 0.107 v 0 h 0.125 v 0 h 0.126 v 0 h 0.107 0.018 0.126 0.107 0.107 0.018 0.107 0.018 0.109 0.018 0.089 0.035 l 0.089,-0.036 h 0.018 0.107 0.019 0.089 0.035 l 0.072,-0.035 h 0.035 0.09 0.037 0.07 l 0.054,-0.035 h 0.072 0.035 0.072 l 0.053,-0.037 h 0.019 l 0.142,-0.035 h 0.072 0.054 l 0.053,-0.036 h 0.054 0.072 l 0.053,-0.035 h 0.072 0.035 l 0.072,-0.036 h 0.035 l 0.072,-0.036 h 0.037 l 0.07,-0.036 h 0.037 0.072 l 0.035,-0.035 h 0.09 l 0.017,-0.035 0.09,-0.036 h 0.018 l 0.107,-0.036 v 0 l 0.109,-0.036 v 0 l 0.107,-0.035 0.107,-0.036 0.107,-0.035 v 0 l 0.107,-0.037 v 0 l 0.089,-0.035 h 0.018 l 0.109,-0.071 0.07,-0.036 h 0.037 l 0.072,-0.035 h 0.035 l 0.072,-0.035 0.035,-0.037 0.072,-0.035 h 0.017 l 0.072,-0.036 h 0.035 l 0.054,-0.035 0.035,-0.036 0.072,-0.035 0.035,-0.037 h 0.072 l 0.037,-0.035 0.107,-0.071 h 0.035 l 0.055,-0.036 0.052,-0.036 0.037,-0.035 h 0.053 l 0.054,-0.036 0.035,-0.035 0.072,-0.036 0.035,-0.036 0.037,-0.035 h 0.035 l 0.072,-0.072 h 0.035 l 0.054,-0.035 0.018,-0.035 0.072,-0.037 0.035,-0.035 0.072,-0.036 v 0 l 0.072,-0.071 h 0.035 l 0.072,-0.072 v 0 l 0.179,-0.143 v 0 l 0.072,-0.072 h 0.018 l 0.089,-0.07 v 0 l 0.072,-0.072 v 0 l 0.07,-0.071 h 0.02 l 0.07,-0.071 h 0.019 l 0.07,-0.071 v 0 l 0.072,-0.072 h 0.018 l 0.02,-0.036 0.142,-0.143 c 0.286,-0.322 0.572,-0.608 0.823,-0.93 v -0.037 l 0.072,-0.07 v 0 l 0.072,-0.072 v -0.035 l 0.07,-0.072 v 0 l 0.054,-0.107 h 0.018 l 0.037,-0.07 0.017,-0.037 0.053,-0.071 v 0 l 0.072,-0.107 v 0 l 0.054,-0.071 0.018,-0.035 0.035,-0.072 h 0.019 l 0.053,-0.107 v 0 l 0.055,-0.106 v 0 l 0.052,-0.108 v 0 l 0.072,-0.07 v 0 l 0.035,-0.108 v 0 l 0.054,-0.106 h 0.018 l 0.037,-0.107 v 0 l 0.053,-0.108 v 0 l 0.055,-0.106 v 0 l 0.035,-0.107 h 0.017 l 0.037,-0.107 h 0.018 l 0.035,-0.107 v 0 l 0.037,-0.107 v 0 l 0.035,-0.107 h 0.018 l 0.037,-0.107 v 0 l 0.035,-0.107 h 0.018 l 0.018,-0.107 h 0.02 l 0.035,-0.107 v 0 l 0.035,-0.106 v 0 l 0.037,-0.108 v 0 l 0.035,-0.106 v 0 l 0.018,-0.107 h 0.019 l 0.018,-0.108 v 0 l 0.018,-0.143 h 0.018 l 0.018,-0.107 v 0 l 0.037,-0.106 v 0 l 0.017,-0.108 h 0.018 v -0.143 h 0.018 l 0.02,-0.107 v 0 l 0.018,-0.107 h 0.018 v -0.107 0 l 0.035,-0.143 v 0 -0.107 0 l 0.019,-0.107 h 0.018 v -0.144 0 l 0.018,-0.106 v 0 l 0.018,-0.108 v 0 -0.144 0 -0.106 0 l 0.018,-0.106 v 0 -0.144 l 0.019,-0.108 v -0.143 -0.107 0 -0.107 0 -0.107 -0.035 0 -0.107 l -0.019,-0.107 v 0 -0.107 l -0.018,-0.25 v 0 l -0.035,-0.215 v -0.036 l -0.018,-0.214 v 0 l -0.019,-0.108 v 0 l -0.018,-0.106 v 0 l -0.018,-0.107 v -0.036 l -0.018,-0.071 v -0.035 l -0.018,-0.108 v 0 l -0.037,-0.106 v 0 l -0.018,-0.107 v 0 l -0.017,-0.108 v 0 l -0.037,-0.106 v 0 l -0.018,-0.107 -0.018,-0.036 -0.018,-0.071 v -0.035 l -0.018,-0.072 -0.019,-0.036 -0.018,-0.071 v -0.035 l -0.035,-0.072 v -0.035 l -0.037,-0.072 v -0.035 l -0.035,-0.072 v -0.035 l -0.035,-0.072 v -0.035 l -0.037,-0.072 -0.018,-0.035 -0.018,-0.071 -0.017,-0.036 -0.018,-0.072 -0.02,-0.035 -0.035,-0.072 -0.018,-0.035 -0.018,-0.036 -0.019,-0.071 -0.035,-0.035 v -0.037 l -0.035,-0.07 -0.02,-0.036 -0.017,-0.072 -0.035,-0.034 -0.018,-0.072 -0.02,-0.036 -0.035,-0.071 -0.018,-0.036 -0.018,-0.036 -0.037,-0.07 -0.035,-0.036 v -0.036 l -0.037,-0.071 -0.035,-0.036 -0.018,-0.072 -0.018,-0.035 -0.037,-0.035 -0.035,-0.072 -0.018,-0.035 -0.018,-0.035 -0.037,-0.072 -0.035,-0.036 -0.037,-0.036 -0.018,-0.07 -0.018,-0.037 -0.035,-0.035 -0.037,-0.071 -0.035,-0.036 -0.037,-0.036 -0.018,-0.036 -0.018,-0.07 -0.035,-0.036 -0.037,-0.036 -0.035,-0.071 -0.037,-0.036 -0.035,-0.035 -0.018,-0.037 -0.037,-0.07 -0.017,-0.036 -0.053,-0.036 -0.02,-0.035 -0.035,-0.072 -0.035,-0.035 -0.037,-0.036 -0.035,-0.035 -0.035,-0.071 h -0.037 l -0.035,-0.072 -0.037,-0.035 -0.035,-0.036 -0.035,-0.036 -0.037,-0.071 h -0.035 l -0.037,-0.071 -0.035,-0.036 -0.035,-0.036 -0.037,-0.035 -0.035,-0.036 -0.037,-0.036 v 0 l -0.214,-0.215 c -0.393,-0.393 -0.841,-0.751 -1.288,-1.072 h -0.018 l -0.089,-0.072 v 0 l -0.393,-0.25 v 0 l -0.286,-0.18 v 0 l -0.109,-0.07 -0.214,-0.072 v -0.036 l -0.09,-0.035 v 0 l -0.107,-0.036 -0.107,-0.072 -0.089,-0.035 -0.107,-0.035 -0.109,-0.072 -0.107,-0.035 v 0 l -0.107,-0.035 v 0 l -0.107,-0.037 -0.107,-0.071 -0.107,-0.036 -0.126,-0.035 -0.107,-0.035 -0.125,-0.037 v 0 l -0.107,-0.035 h -0.108 l -0.107,-0.035 -0.107,-0.036 -0.125,-0.036 -0.107,-0.036 -0.126,-0.036 h -0.107 l -0.125,-0.035 h -0.126 l -0.107,-0.035 -0.107,-0.036 h -0.125 -0.126 l -0.107,-0.036 h -0.125 l -0.126,-0.035 h -0.107 -0.125 -0.126 -0.025 z M 193.997,186 c -1.181,-1.181 -2.809,-1.896 -4.615,-1.896 -1.808,0 -3.436,0.715 -4.617,1.896 -1.179,1.182 -1.913,2.827 -1.913,4.615 0,1.646 0.607,3.148 1.591,4.294 v 0 l 0.321,0.322 c 1.181,1.181 2.809,1.932 4.617,1.932 1.806,0 3.434,-0.751 4.615,-1.932 1.181,-1.146 1.915,-2.791 1.915,-4.616 0,-1.717 -0.681,-3.291 -1.753,-4.436 z m 8.496,-3.291 c 1.395,2.325 2.218,5.045 2.218,7.906 0,4.223 -1.734,8.051 -4.489,10.841 -2.774,2.791 -6.602,4.509 -10.841,4.509 -2.881,0 -5.6,-0.824 -7.889,-2.219 l -21.361,21.359 c 0.949,1.539 1.646,3.256 2.111,5.045 h 47.872 v -0.035 l 0.037,-0.144 0.035,-0.071 0.035,-0.144 0.02,-0.036 0.035,-0.179 0.018,-0.035 0.037,-0.179 0.035,-0.036 0.035,-0.179 0.018,-0.037 0.054,-0.178 v -0.035 l 0.035,-0.037 0.109,-0.321 v -0.036 0 l 0.07,-0.215 h 0.02 l 0.053,-0.18 0.018,-0.034 0.089,-0.179 0.072,-0.215 v 0 l 0.072,-0.18 v -0.036 l 0.107,-0.178 v -0.036 l 0.072,-0.143 0.018,-0.037 0.072,-0.178 0.018,-0.037 0.072,-0.143 0.018,-0.035 0.089,-0.18 0.018,-0.035 0.072,-0.143 0.09,-0.18 0.035,-0.072 0.072,-0.143 0.035,-0.035 0.072,-0.144 0.037,-0.071 0.07,-0.107 0.037,-0.071 0.072,-0.108 0.035,-0.106 0.072,-0.107 0.035,-0.071 0.072,-0.107 0.055,-0.072 0.053,-0.107 0.072,-0.071 0.053,-0.106 0.054,-0.072 0.072,-0.107 0.052,-0.107 0.055,-0.071 0.072,-0.107 0.053,-0.036 0.126,-0.179 0.07,-0.144 0.055,-0.035 0.089,-0.143 0.035,-0.037 0.089,-0.143 0.055,-0.035 0.089,-0.107 0.018,-0.036 0.107,-0.144 0.037,-0.035 0.107,-0.144 0.035,-0.035 0.251,-0.286 0.017,-0.035 0.126,-0.145 h 0.018 l 0.125,-0.178 v 0 l 0.162,-0.145 v 0 l 0.142,-0.143 v -0.035 l 0.162,-0.145 0.144,-0.178 c 0.769,-0.752 1.609,-1.467 2.522,-2.076 l 0.072,-0.07 0.769,-0.501 0.072,-0.036 0.323,-0.215 0.07,-0.035 0.072,-0.036 0.107,-0.071 h 0.037 l 0.125,-0.072 0.055,-0.035 0.07,-0.036 0.108,-0.071 h 0.035 l 0.144,-0.072 h 0.018 l 0.125,-0.07 0.072,-0.036 0.072,-0.036 0.125,-0.07 h 0.018 l 0.126,-0.072 0.052,-0.036 0.09,-0.036 0.125,-0.035 h 0.019 l 0.142,-0.072 0.037,-0.035 0.107,-0.037 0.107,-0.035 0.035,-0.035 0.144,-0.036 0.018,-0.036 0.125,-0.035 0.089,-0.035 0.055,-0.037 0.161,-0.035 v 0 l 0.142,-0.071 h 0.072 l 0.072,-0.036 0.125,-0.035 0.018,-0.037 0.144,-0.035 0.054,-0.035 h 0.09 l 0.125,-0.072 h 0.035 l 0.161,-0.036 v 0 l 0.144,-0.071 h 0.089 l 0.053,-0.035 0.144,-0.036 h 0.018 l 0.142,-0.035 0.072,-0.036 h 0.089 l 0.144,-0.036 v -0.036 l 0.162,-0.035 v -47.871 l -0.162,-0.035 v 0 l -0.144,-0.037 -0.072,-0.035 h -0.07 l -0.144,-0.035 h -0.018 l -0.162,-0.072 h -0.035 l -0.107,-0.035 -0.109,-0.036 h -0.035 l -0.142,-0.071 h -0.037 l -0.125,-0.037 -0.09,-0.034 h -0.054 l -0.162,-0.072 v 0 l -0.142,-0.036 -0.072,-0.035 -0.072,-0.035 -0.125,-0.037 h -0.018 l -0.144,-0.071 h -0.053 l -0.089,-0.071 -0.109,-0.035 h -0.035 l -0.142,-0.072 h -0.037 l -0.107,-0.071 -0.107,-0.036 h -0.037 l -0.142,-0.07 v 0 l -0.144,-0.072 -0.07,-0.036 -0.072,-0.035 -0.144,-0.036 v 0 l -0.142,-0.072 -0.037,-0.035 -0.089,-0.035 -0.125,-0.072 h -0.018 l -0.126,-0.072 -0.035,-0.035 -0.107,-0.035 -0.107,-0.072 h -0.037 l -0.125,-0.107 h -0.018 l -0.126,-0.072 -0.07,-0.035 -0.055,-0.035 -0.144,-0.072 v 0 l -0.125,-0.07 -0.055,-0.037 z m -13.111,-7.406 c 2.379,0 4.632,0.537 6.636,1.503 l 16.207,-16.208 -0.018,-0.035 -0.089,-0.144 v 0 l -0.072,-0.144 -0.035,-0.035 -0.037,-0.072 -0.07,-0.143 v 0 l -0.072,-0.143 -0.037,-0.036 -0.053,-0.106 -0.055,-0.108 h -0.018 l -0.072,-0.144 -0.018,-0.035 -0.053,-0.107 -0.037,-0.107 -0.035,-0.035 -0.054,-0.144 h -0.018 l -0.055,-0.144 -0.035,-0.071 -0.035,-0.071 -0.055,-0.107 -0.018,-0.035 -0.054,-0.145 -0.018,-0.035 -0.055,-0.107 -0.052,-0.107 v -0.035 l -0.072,-0.144 v -0.036 l -0.035,-0.107 -0.037,-0.071 -0.035,-0.071 -0.054,-0.143 h -0.018 l -0.035,-0.143 -0.037,-0.072 -0.018,-0.071 -0.052,-0.144 v 0 l -0.055,-0.144 -0.018,-0.071 -0.037,-0.107 -0.035,-0.107 v -0.035 l -0.054,-0.144 -0.018,-0.036 -0.035,-0.107 -0.035,-0.106 v -0.036 l -0.055,-0.143 v -0.036 l -0.035,-0.144 -0.02,-0.072 -0.035,-0.07 -0.035,-0.143 v 0 l -0.037,-0.144 h -47.872 l -0.035,0.144 h -0.017 l -0.037,0.143 -0.018,0.07 -0.018,0.108 -0.054,0.144 v 0 l -0.035,0.143 -0.018,0.072 -0.018,0.07 -0.037,0.144 h -0.018 l -0.053,0.179 v 0.036 l -0.037,0.106 -0.035,0.108 -0.037,0.035 -0.035,0.144 v 0.035 l -0.054,0.108 -0.018,0.071 -0.035,0.072 -0.055,0.143 -0.052,0.143 -0.037,0.071 -0.035,0.071 -0.037,0.144 -0.018,0.036 -0.053,0.143 -0.019,0.036 -0.053,0.107 -0.035,0.071 -0.02,0.072 -0.052,0.143 h -0.018 l -0.055,0.143 -0.035,0.072 -0.037,0.072 -0.072,0.106 -0.053,0.144 -0.037,0.071 -0.053,0.071 -0.037,0.107 -0.018,0.035 -0.072,0.144 -0.018,0.036 -0.053,0.107 -0.054,0.107 -0.035,0.035 -0.072,0.107 v 0.036 l -0.072,0.106 -0.035,0.072 -0.037,0.071 -0.07,0.144 -0.089,0.107 -0.037,0.071 -0.053,0.071 -0.054,0.107 -0.018,0.036 -0.072,0.106 -0.035,0.037 -0.055,0.106 -0.052,0.108 -0.037,0.035 -0.072,0.107 -0.035,0.036 -0.072,0.106 -0.035,0.071 -0.037,0.036 -0.107,0.143 -0.07,0.108 -0.037,0.071 -0.072,0.072 -0.07,0.106 v 0 l -0.109,0.144 -0.018,0.035 -0.072,0.072 -0.07,0.071 -0.02,0.036 -0.107,0.143 v 0 l -0.089,0.107 -0.053,0.072 -0.037,0.035 -0.107,0.143 -0.107,0.107 -0.035,0.036 -0.072,0.071 -0.072,0.107 h -0.018 l -0.09,0.144 -0.037,0.036 -0.07,0.07 -0.072,0.072 -0.035,0.036 -0.109,0.106 -0.018,0.037 -0.089,0.07 -0.072,0.072 -0.035,0.035 -0.107,0.107 c -1.467,1.467 -3.148,2.647 -5.01,3.578 h -0.053 l -0.161,0.071 -0.035,0.036 -0.358,0.143 h -0.037 l -0.393,0.18 v 0 l -0.196,0.071 -0.197,0.106 v 0 l -0.412,0.144 h -0.018 l -0.358,0.106 -0.035,0.037 h -0.037 l -0.177,0.035 -0.037,0.036 -0.162,0.036 -0.052,0.035 -0.144,0.036 -0.072,0.036 -0.143,0.035 h -0.072 l -0.142,0.035 -0.072,0.037 -0.144,0.035 v 47.906 c 1.79,0.43 3.471,1.146 5.01,2.075 l 21.645,-21.646 c -0.965,-2.003 -1.502,-4.221 -1.502,-6.619 0,-4.221 1.718,-8.05 4.508,-10.805 2.77,-2.776 6.599,-4.494 10.839,-4.494 z M 104.176,186 c -1.163,-1.181 -2.809,-1.896 -4.615,-1.896 -1.79,0 -3.436,0.715 -4.617,1.896 -1.181,1.182 -1.896,2.827 -1.896,4.615 0,1.825 0.714,3.471 1.896,4.616 1.181,1.181 2.827,1.932 4.617,1.932 1.806,0 3.452,-0.751 4.615,-1.932 l 0.179,-0.144 0.053,-0.072 0.018,-0.035 h 0.037 l 0.035,-0.071 c 1.002,-1.146 1.611,-2.647 1.611,-4.294 0,-1.717 -0.681,-3.291 -1.753,-4.436 z m 3.292,17.746 c -2.309,1.395 -5.01,2.219 -7.907,2.219 -4.222,0 -8.051,-1.718 -10.823,-4.509 -2.772,-2.755 -4.491,-6.583 -4.491,-10.841 0,-2.861 0.806,-5.581 2.201,-7.906 l -15.921,-15.922 -0.037,0.037 h -0.018 l -0.107,0.07 -0.089,0.036 -0.054,0.036 -0.125,0.07 H 70.08 l -0.126,0.072 -0.053,0.036 -0.072,0.071 -0.107,0.035 -0.035,0.037 -0.144,0.07 v 0 l -0.144,0.072 -0.07,0.036 -0.072,0.036 -0.107,0.035 h -0.018 l -0.144,0.071 -0.035,0.036 -0.089,0.036 -0.109,0.035 -0.035,0.036 -0.144,0.072 v 0 l -0.142,0.07 h -0.072 l -0.072,0.036 -0.107,0.071 h -0.035 l -0.144,0.072 h -0.035 l -0.107,0.035 -0.089,0.036 -0.055,0.035 -0.142,0.071 v 0 l -0.161,0.037 -0.055,0.035 -0.089,0.035 -0.107,0.036 h -0.035 l -0.162,0.072 v 0 l -0.144,0.034 -0.07,0.037 h -0.072 l -0.144,0.035 v 0.036 l -0.16,0.036 H 66.34 l -0.125,0.035 -0.089,0.036 -0.055,0.036 -0.142,0.035 v 0 l -0.144,0.035 h -0.072 l -0.107,0.037 -0.107,0.035 h -0.035 v 47.871 l 0.142,0.035 0.018,0.036 0.126,0.036 h 0.107 l 0.035,0.036 0.144,0.035 h 0.035 l 0.126,0.036 0.089,0.035 h 0.053 l 0.144,0.037 0.018,0.034 0.125,0.036 h 0.089 l 0.055,0.036 0.142,0.036 h 0.019 l 0.107,0.07 h 0.089 l 0.053,0.037 0.144,0.035 0.018,0.036 0.125,0.035 0.09,0.036 h 0.054 l 0.144,0.072 v 0 l 0.142,0.07 h 0.072 l 0.053,0.036 0.144,0.071 h 0.018 l 0.107,0.035 0.072,0.037 0.072,0.035 0.142,0.072 v 0 l 0.126,0.035 0.09,0.036 0.053,0.036 0.126,0.072 v 0 l 0.142,0.07 0.072,0.036 0.054,0.036 0.125,0.035 0.018,0.035 0.126,0.037 0.07,0.035 0.054,0.036 0.125,0.071 h 0.02 l 0.125,0.072 0.072,0.035 0.053,0.035 0.126,0.072 0.125,0.07 0.072,0.037 0.053,0.035 0.144,0.107 0.107,0.072 0.072,0.035 0.072,0.035 0.107,0.072 0.142,0.071 0.054,0.036 0.055,0.072 0.125,0.07 0.125,0.072 0.055,0.035 0.052,0.072 0.144,0.071 v 0 l 0.107,0.071 0.055,0.035 0.053,0.072 0.126,0.071 v 0 l 0.125,0.108 0.055,0.035 0.053,0.035 0.107,0.107 v 0 l 0.144,0.072 0.035,0.035 0.072,0.072 0.107,0.071 v 0 l 0.107,0.106 0.055,0.037 0.054,0.071 0.107,0.071 h 0.018 l 0.107,0.107 0.055,0.035 0.07,0.072 0.089,0.071 0.019,0.036 0.107,0.071 0.035,0.071 0.055,0.036 0.107,0.106 H 73.7 l 0.144,0.144 0.179,0.144 c 0.858,0.895 1.646,1.86 2.343,2.898 v 0 l 0.126,0.179 v 0 l 0.107,0.179 v 0 l 0.107,0.215 h 0.018 l 0.107,0.179 v 0 l 0.107,0.179 h 0.02 l 0.089,0.215 h 0.018 l 0.089,0.178 h 0.018 l 0.09,0.215 h 0.018 l 0.089,0.18 v 0 l 0.089,0.215 v 0 l 0.107,0.18 v 0 l 0.107,0.213 0.072,0.18 0.107,0.215 v 0 l 0.072,0.214 0.107,0.216 0.072,0.178 0.072,0.216 h 0.018 l 0.072,0.214 v 0 l 0.072,0.215 0.07,0.215 0.072,0.215 0.072,0.215 0.072,0.215 0.053,0.214 0.072,0.215 v 0 l 0.054,0.215 0.053,0.179 h 47.872 c 0.447,-1.789 1.144,-3.506 2.093,-5.045 z m -7.906,-28.443 c 4.239,0 8.084,1.718 10.839,4.508 l 0.306,0.322 c 2.593,2.754 4.185,6.44 4.185,10.482 0,2.361 -0.537,4.616 -1.502,6.619 l 21.645,21.646 c 1.557,-0.93 3.257,-1.646 5.064,-2.11 v -47.871 h -0.037 l -0.142,-0.035 -0.072,-0.037 -0.144,-0.035 h -0.072 l -0.143,-0.035 -0.072,-0.036 -0.142,-0.036 -0.072,-0.035 -0.144,-0.036 -0.072,-0.036 -0.142,-0.035 h -0.055 l -0.16,-0.071 h -0.037 l -0.179,-0.072 h -0.035 l -0.179,-0.071 h -0.018 l -0.197,-0.072 v 0 l -0.198,-0.106 h -0.018 l -0.196,-0.071 v 0 l -0.197,-0.072 -0.196,-0.107 h -0.018 l -0.179,-0.07 h -0.019 l -0.197,-0.108 v 0 l -0.179,-0.071 h -0.035 l -0.162,-0.107 h -0.018 l -0.179,-0.071 -0.035,-0.036 -0.144,-0.072 -0.035,-0.035 -0.161,-0.072 -0.055,-0.035 -0.142,-0.071 -0.037,-0.036 -0.142,-0.072 -0.055,-0.035 -0.125,-0.071 -0.072,-0.036 -0.107,-0.07 -0.072,-0.037 -0.125,-0.071 -0.072,-0.035 -0.107,-0.072 -0.072,-0.071 -0.107,-0.035 -0.09,-0.072 -0.089,-0.071 -0.089,-0.036 -0.089,-0.072 -0.09,-0.07 -0.072,-0.036 -0.107,-0.071 -0.068,-0.084 -0.107,-0.071 -0.072,-0.035 -0.107,-0.108 -0.07,-0.035 -0.109,-0.071 -0.053,-0.072 -0.126,-0.071 -0.035,-0.035 -0.125,-0.107 -0.054,-0.036 -0.125,-0.106 -0.037,-0.037 -0.125,-0.107 -0.035,-0.035 -0.144,-0.107 -0.018,-0.035 -0.126,-0.107 h -0.035 l -0.144,-0.144 h -0.018 l -0.143,-0.144 h -0.017 l -0.144,-0.143 v -0.036 l -0.144,-0.106 -0.179,-0.18 c -0.876,-0.859 -1.645,-1.824 -2.325,-2.826 l -0.035,-0.035 -0.465,-0.752 v 0 l -0.306,-0.537 -0.017,-0.035 -0.072,-0.107 -0.142,-0.287 v -0.035 l -0.054,-0.107 -0.142,-0.286 v 0 l -0.072,-0.106 -0.018,-0.072 -0.037,-0.072 -0.07,-0.143 v 0 l -0.072,-0.143 v -0.072 l -0.055,-0.071 -0.053,-0.107 v -0.036 l -0.072,-0.143 v -0.036 l -0.054,-0.144 -0.035,-0.071 -0.018,-0.071 -0.072,-0.143 v 0 l -0.035,-0.143 -0.037,-0.072 -0.035,-0.071 -0.037,-0.108 v -0.035 l -0.053,-0.144 -0.018,-0.035 -0.037,-0.108 -0.035,-0.106 -0.018,-0.036 -0.055,-0.179 v 0 l -0.035,-0.144 -0.037,-0.07 v -0.072 l -0.053,-0.143 v 0 l -0.054,-0.144 v -0.108 l -0.035,-0.07 -0.037,-0.143 v 0 l -0.035,-0.144 H 78.845 l -0.053,0.144 v 0 l -0.037,0.143 -0.018,0.07 -0.035,0.108 -0.037,0.144 v 0 l -0.035,0.143 -0.018,0.072 -0.02,0.07 -0.053,0.144 h -0.017 l -0.037,0.179 -0.018,0.036 -0.035,0.106 -0.037,0.108 -0.018,0.035 -0.035,0.144 -0.018,0.035 -0.054,0.108 -0.018,0.071 -0.018,0.072 -0.055,0.143 -0.054,0.143 -0.035,0.071 -0.035,0.071 -0.037,0.144 -0.018,0.036 -0.055,0.143 -0.035,0.036 -0.035,0.107 -0.037,0.071 -0.035,0.072 -0.054,0.143 h -0.018 l -0.035,0.143 -0.037,0.072 -0.035,0.072 -0.072,0.106 -0.072,0.144 -0.035,0.071 -0.035,0.071 -0.054,0.107 -0.018,0.035 -0.072,0.144 v 0.036 l -0.072,0.107 -0.035,0.107 -0.035,0.035 -0.072,0.107 v 0.036 l -0.072,0.106 -0.035,0.072 -0.037,0.071 -0.089,0.144 -0.072,0.107 -0.018,0.035 16.208,16.208 c 2.008,-0.968 4.263,-1.505 6.625,-1.505 z M 105,273.656 c -1.146,-1.073 -2.738,-1.717 -4.456,-1.717 -1.716,0 -3.31,0.68 -4.454,1.753 l -0.161,0.144 c -1.164,1.18 -1.915,2.826 -1.915,4.614 0,1.718 0.662,3.256 1.7,4.401 l 0.053,0.071 v 0 l 0.072,0.071 0.072,0.072 h 0.018 c 1.181,1.181 2.827,1.932 4.615,1.932 1.735,0 3.292,-0.645 4.438,-1.717 l 0.177,-0.215 c 1.181,-1.182 1.914,-2.827 1.914,-4.616 0,-1.717 -0.679,-3.291 -1.753,-4.472 v 0 l -0.072,-0.071 -0.07,-0.071 h -0.019 l -0.053,-0.037 -0.037,-0.035 v -0.035 l -0.07,-0.036 v -0.036 z m 8.979,-2.576 c 1.218,2.184 1.897,4.723 1.897,7.37 0,4.258 -1.718,8.086 -4.491,10.841 l -0.303,0.287 c -2.755,2.611 -6.477,4.221 -10.538,4.221 -2.666,0 -5.205,-0.715 -7.387,-1.896 l -16.495,16.493 v 0 l 0.037,0.072 0.035,0.071 0.089,0.106 v 0 l 0.072,0.145 0.054,0.07 0.035,0.072 0.072,0.107 v 0.035 l 0.072,0.107 0.017,0.072 0.053,0.07 0.072,0.108 v 0.035 l 0.072,0.144 0.018,0.035 0.054,0.108 0.035,0.071 0.035,0.072 0.072,0.106 v 0.036 l 0.072,0.107 0.035,0.071 0.037,0.071 0.035,0.143 h 0.018 l 0.054,0.144 0.035,0.071 0.037,0.072 0.035,0.107 0.035,0.035 0.055,0.144 0.018,0.036 0.037,0.107 0.035,0.106 0.018,0.036 0.054,0.143 0.018,0.036 0.055,0.144 0.018,0.071 0.018,0.071 0.054,0.107 0.018,0.035 0.035,0.144 0.018,0.036 0.037,0.107 0.035,0.107 0.018,0.035 0.037,0.144 0.017,0.035 0.035,0.144 0.037,0.071 0.018,0.072 0.035,0.144 v 0 l 0.037,0.143 0.035,0.072 0.018,0.07 0.037,0.18 v 0 l 0.053,0.143 h 47.872 l 0.035,-0.143 v 0 l 0.037,-0.18 0.035,-0.07 v -0.072 l 0.054,-0.143 v 0 l 0.053,-0.144 v -0.072 l 0.037,-0.071 0.035,-0.144 v -0.035 l 0.072,-0.144 v -0.035 l 0.035,-0.107 0.037,-0.107 0.018,-0.036 0.053,-0.144 v -0.035 l 0.037,-0.107 0.035,-0.071 0.037,-0.071 0.035,-0.144 v -0.036 l 0.072,-0.143 0.018,-0.036 0.035,-0.106 0.054,-0.107 v -0.036 l 0.072,-0.144 v -0.035 l 0.053,-0.107 0.055,-0.072 v -0.071 h 0.018 l 0.125,-0.286 0.037,-0.071 0.035,-0.071 0.055,-0.107 v 0 l 0.072,-0.143 0.018,-0.072 0.053,-0.071 0.054,-0.108 0.018,-0.035 0.054,-0.144 0.035,-0.035 0.035,-0.108 0.072,-0.07 0.017,-0.072 0.072,-0.107 0.018,-0.035 0.072,-0.107 0.037,-0.072 0.035,-0.07 0.072,-0.108 v -0.036 l 0.072,-0.106 0.035,-0.071 0.053,-0.072 0.054,-0.106 0.035,-0.036 0.072,-0.107 0.018,-0.035 0.072,-0.108 0.054,-0.071 0.035,-0.035 0.072,-0.144 h 0.018 l 0.072,-0.144 0.054,-0.035 0.035,-0.071 0.072,-0.144 h 0.018 l 0.089,-0.107 0.035,-0.036 0.055,-0.106 0.072,-0.107 h 0.018 l 0.089,-0.107 0.018,-0.035 0.072,-0.108 0.072,-0.071 0.035,-0.035 0.089,-0.144 h 0.018 l 0.072,-0.108 0.072,-0.07 0.035,-0.036 0.107,-0.107 0.089,-0.144 0.037,-0.035 0.07,-0.072 0.089,-0.107 v 0 l 0.107,-0.106 0.109,-0.144 0.07,-0.071 0.037,-0.036 0.107,-0.107 v 0 l 0.107,-0.107 0.055,-0.071 0.052,-0.036 0.107,-0.107 c 2.327,-2.325 5.261,-4.043 8.552,-4.865 v -47.871 c -1.861,-0.43 -3.597,-1.18 -5.188,-2.146 z m -13.435,-7.942 c 2.594,0 5.027,0.644 7.156,1.753 l 21.056,-21.037 c -0.913,-1.503 -1.609,-3.148 -2.039,-4.902 H 78.845 c -0.823,3.256 -2.521,6.19 -4.829,8.516 l -0.109,0.107 -0.052,0.035 -0.072,0.072 -0.089,0.107 h -0.018 l -0.125,0.107 -0.02,0.035 -0.089,0.072 -0.07,0.072 -0.037,0.035 -0.107,0.107 h -0.035 l -0.089,0.107 -0.055,0.035 -0.072,0.036 -0.107,0.106 -0.107,0.107 -0.072,0.036 -0.072,0.072 -0.09,0.071 h -0.018 l -0.107,0.106 -0.035,0.036 -0.107,0.072 -0.072,0.07 h -0.037 l -0.125,0.108 H 72.01 l -0.107,0.106 -0.072,0.037 -0.055,0.035 -0.125,0.107 -0.125,0.072 -0.054,0.035 -0.072,0.071 -0.107,0.071 h -0.035 l -0.107,0.072 -0.037,0.035 -0.107,0.071 -0.089,0.036 -0.035,0.036 -0.126,0.106 h -0.035 l -0.107,0.072 -0.072,0.036 -0.055,0.035 -0.125,0.071 v 0 l -0.144,0.072 -0.07,0.035 -0.072,0.072 -0.107,0.035 -0.019,0.035 -0.125,0.072 h -0.053 l -0.089,0.071 -0.109,0.036 -0.035,0.036 -0.144,0.071 h -0.018 l -0.125,0.071 -0.072,0.036 -0.053,0.036 -0.144,0.071 v 0 l -0.125,0.072 h -0.072 l -0.072,0.035 -0.144,0.071 v 0 l -0.142,0.071 h -0.055 l -0.089,0.072 -0.107,0.035 h -0.035 l -0.144,0.072 h -0.035 l -0.107,0.07 -0.107,0.037 h -0.037 l -0.142,0.07 h -0.019 l -0.142,0.036 -0.072,0.036 -0.072,0.036 -0.142,0.036 v 0 l -0.162,0.07 h -0.035 l -0.108,0.036 -0.107,0.036 -0.035,0.035 -0.144,0.036 h -0.035 l -0.125,0.036 -0.09,0.035 -0.072,0.037 -0.144,0.035 v 0 l -0.142,0.035 -0.072,0.036 h -0.072 l -0.162,0.036 h -0.018 l -0.142,0.035 v 47.871 l 0.142,0.036 0.018,0.036 0.162,0.035 h 0.072 l 0.072,0.035 0.142,0.036 v 0 l 0.144,0.036 0.072,0.035 0.09,0.036 0.125,0.036 h 0.035 l 0.144,0.035 h 0.035 l 0.107,0.037 0.108,0.035 0.035,0.035 0.162,0.036 v 0 l 0.142,0.071 0.072,0.035 h 0.072 l 0.142,0.072 h 0.019 l 0.142,0.071 h 0.037 l 0.107,0.036 0.107,0.035 0.035,0.037 0.144,0.035 0.035,0.035 0.107,0.036 0.072,0.036 0.072,0.036 h 0.018 l 0.25,0.106 0.09,0.036 0.072,0.035 0.107,0.072 h 0.018 l 0.144,0.071 0.053,0.035 0.072,0.037 0.125,0.071 h 0.018 l 0.144,0.071 h 0.035 l 0.109,0.072 0.089,0.035 0.053,0.035 0.125,0.072 h 0.019 l 0.107,0.07 0.072,0.037 0.07,0.035 0.126,0.072 h 0.018 l 0.035,0.035 L 87,285.579 c -1.146,-2.146 -1.79,-4.578 -1.79,-7.155 0,-4.222 1.735,-8.05 4.51,-10.84 l 0.321,-0.287 c 2.758,-2.549 6.442,-4.159 10.503,-4.159 z m 90.071,9.481 c -1.181,-1.181 -2.827,-1.932 -4.615,-1.932 -1.574,0 -3.041,0.572 -4.15,1.502 v 0 l -0.072,0.072 h -0.035 l -0.019,0.035 -0.339,0.322 c -1.181,1.18 -1.914,2.79 -1.914,4.615 0,1.789 0.733,3.435 1.914,4.615 1.179,1.181 2.808,1.896 4.615,1.896 1.718,0 3.292,-0.645 4.473,-1.753 l 0.142,-0.144 c 1.181,-1.181 1.915,-2.826 1.915,-4.615 0,-1.789 -0.734,-3.433 -1.915,-4.613 z m 3.507,17.604 c -2.343,1.465 -5.152,2.324 -8.121,2.324 -4.222,0 -8.068,-1.717 -10.841,-4.472 -2.755,-2.791 -4.491,-6.619 -4.491,-10.841 0,-2.971 0.858,-5.76 2.345,-8.122 L 154.033,250.15 c -1.574,0.967 -3.31,1.682 -5.134,2.146 v 47.907 c 3.274,0.786 6.208,2.504 8.516,4.794 0.644,0.68 1.253,1.359 1.788,2.111 v 0 l 0.251,0.357 0.035,0.036 0.072,0.106 0.144,0.215 0.035,0.035 0.072,0.144 0.09,0.144 0.035,0.035 0.054,0.072 0.072,0.107 v 0.035 l 0.09,0.144 h 0.018 l 0.072,0.106 0.035,0.072 0.035,0.072 0.072,0.143 v 0 l 0.072,0.143 0.035,0.037 0.037,0.07 0.072,0.107 0.018,0.035 0.07,0.144 v 0 l 0.054,0.144 0.035,0.071 0.037,0.072 0.072,0.106 v 0.037 l 0.07,0.106 0.037,0.071 0.035,0.072 0.037,0.106 0.035,0.036 0.055,0.143 h 0.018 l 0.052,0.144 0.02,0.071 0.035,0.072 0.053,0.107 0.019,0.035 0.053,0.144 0.018,0.036 0.037,0.107 0.035,0.106 0.037,0.036 0.035,0.143 v 0 l 0.072,0.18 0.018,0.035 0.035,0.107 0.037,0.107 0.018,0.035 0.035,0.144 h 0.019 l 0.053,0.144 0.018,0.071 0.02,0.071 0.035,0.144 v 0 l 0.072,0.179 v 0.035 l 0.035,0.108 0.035,0.106 v 0.037 l 0.054,0.143 v 0 l 0.035,0.143 0.02,0.072 0.035,0.107 0.018,0.106 0.018,0.036 h 47.872 l 0.037,-0.143 v 0 l 0.035,-0.144 0.035,-0.106 v -0.037 l 0.054,-0.143 v -0.035 l 0.035,-0.107 0.02,-0.108 0.035,-0.036 0.035,-0.143 v -0.036 l 0.037,-0.106 0.035,-0.107 0.018,-0.036 0.054,-0.144 v -0.035 l 0.035,-0.107 0.037,-0.107 0.018,-0.035 0.052,-0.144 v 0 l 0.055,-0.144 0.018,-0.071 0.037,-0.071 0.053,-0.144 h 0.018 l 0.037,-0.144 0.035,-0.07 0.018,-0.072 0.055,-0.107 v -0.035 l 0.072,-0.107 0.035,-0.072 0.018,-0.071 0.054,-0.144 v 0 l 0.072,-0.143 0.035,-0.071 0.035,-0.036 0.055,-0.143 v 0 l 0.072,-0.143 0.018,-0.072 0.035,-0.036 0.072,-0.144 v 0 l 0.072,-0.143 0.035,-0.071 0.037,-0.036 0.07,-0.143 v 0 l 0.072,-0.143 0.037,-0.072 0.035,-0.036 0.072,-0.144 0.072,-0.143 0.035,-0.036 0.035,-0.071 0.072,-0.143 0.072,-0.072 z M 240.705,53.3 c -2.415,0 -4.383,-1.968 -4.383,-4.401 0,-2.432 1.969,-4.4 4.383,-4.4 h 39.786 c 2.432,0 4.4,1.969 4.4,4.4 0,2.434 -1.969,4.401 -4.4,4.401 z m -78.301,74.811 c 1.664,0 3.381,-1.109 3.954,-2.504 1.467,-2.898 -0.769,-6.297 -3.954,-6.297 h -8.783 c -1.683,0 -3.399,1.072 -3.973,2.469 -1.467,2.934 0.788,6.332 3.973,6.332 z m 35.153,0 c 1.681,0 3.399,-1.109 3.971,-2.504 1.449,-2.898 -0.788,-6.297 -3.971,-6.297 h -8.784 c -1.664,0 -3.381,1.072 -3.954,2.469 -1.467,2.934 0.769,6.332 3.954,6.332 z m 35.169,0 c 1.663,0 3.399,-1.109 3.953,-2.504 1.467,-2.898 -0.769,-6.297 -3.953,-6.297 h -8.783 c -1.664,0 -3.399,1.072 -3.954,2.469 -1.467,2.934 0.769,6.332 3.954,6.332 z m 18.748,7.586 c 0,1.681 1.091,3.398 2.486,3.971 2.934,1.467 6.315,-0.787 6.315,-3.971 v -8.766 c 0,-1.683 -1.074,-3.399 -2.469,-3.973 -2.934,-1.466 -6.333,0.788 -6.333,3.973 v 8.766 z m 0,35.17 c 0,1.68 1.091,3.398 2.486,3.971 2.934,1.467 6.315,-0.787 6.315,-3.971 v -8.803 c 0,-1.646 -1.074,-3.363 -2.469,-3.935 -2.934,-1.468 -6.333,0.786 -6.333,3.935 v 8.803 z m 0,35.169 c 0,1.683 1.091,3.399 2.486,3.972 2.934,1.43 6.315,-0.787 6.315,-3.972 v -8.802 c 0,-1.645 -1.074,-3.398 -2.469,-3.936 -2.934,-1.467 -6.333,0.752 -6.333,3.936 v 8.802 z m 0,35.169 c 0,1.646 1.091,3.399 2.486,3.937 2.934,1.467 6.315,-0.752 6.315,-3.937 v -8.801 c 0,-1.646 -1.074,-3.398 -2.469,-3.936 -2.934,-1.467 -6.333,0.751 -6.333,3.936 v 8.801 z M 76.358,469.898 c -2.415,0 -4.383,-1.968 -4.383,-4.4 0,-2.397 1.969,-4.401 4.383,-4.401 h 264.595 c 2.435,0 4.401,2.004 4.401,4.401 0,2.433 -1.967,4.4 -4.401,4.4 z m 379.658,7.299 c 2.435,0 4.401,1.968 4.401,4.4 0,2.432 -1.967,4.401 -4.401,4.401 H 222.529 c -2.432,0 -4.401,-1.969 -4.401,-4.401 0,-2.432 1.969,-4.4 4.401,-4.4 z m -252.235,0 c 2.434,0 4.401,1.968 4.401,4.4 0,2.432 -1.967,4.401 -4.401,4.401 h -22.897 c -2.415,0 -4.401,-1.969 -4.401,-4.401 0,-2.432 1.987,-4.4 4.401,-4.4 z m 155.492,-7.299 c -2.416,0 -4.384,-1.968 -4.384,-4.4 0,-2.397 1.968,-4.401 4.384,-4.401 h 22.897 c 2.433,0 4.401,2.004 4.401,4.401 0,2.433 -1.969,4.4 -4.401,4.4 z M 186,261.922 c 4.222,0 8.068,1.717 10.841,4.472 2.755,2.755 4.471,6.618 4.471,10.841 0,2.29 -0.483,4.437 -1.377,6.369 l 18.605,18.604 h 0.035 v -0.035 l 0.537,-0.287 0.035,-0.035 0.09,-0.035 0.288,-0.144 h 0.018 l 0.125,-0.071 0.269,-0.144 v 0 l 0.144,-0.072 0.052,-0.035 0.09,-0.036 0.125,-0.035 0.019,-0.036 0.142,-0.035 0.037,-0.036 0.107,-0.036 0.107,-0.036 0.035,-0.035 0.144,-0.035 0.018,-0.037 0.125,-0.035 0.089,-0.036 0.055,-0.035 0.161,-0.036 v 0 l 0.142,-0.072 h 0.072 l 0.072,-0.035 0.125,-0.035 0.018,-0.036 0.144,-0.036 h 0.054 l 0.09,-0.07 0.125,-0.037 h 0.035 l 0.161,-0.035 v 0 l 0.144,-0.072 h 0.089 l 0.053,-0.035 0.144,-0.036 h 0.018 l 0.142,-0.036 0.072,-0.035 h 0.089 l 0.144,-0.035 v -0.036 l 0.162,-0.036 v -47.871 l -0.162,-0.035 v 0 l -0.144,-0.036 h -0.089 l -0.072,-0.036 -0.142,-0.035 h -0.018 l -0.144,-0.035 -0.053,-0.037 -0.089,-0.035 -0.144,-0.036 v 0 l -0.161,-0.036 -0.035,-0.035 -0.125,-0.036 -0.09,-0.036 h -0.054 l -0.144,-0.035 -0.018,-0.035 -0.125,-0.036 -0.072,-0.036 -0.072,-0.036 -0.142,-0.036 -0.161,-0.07 h -0.055 l -0.089,-0.037 -0.125,-0.07 h -0.018 l -0.144,-0.072 h -0.035 l -0.107,-0.035 -0.107,-0.037 -0.037,-0.035 -0.142,-0.071 h -0.019 l -0.125,-0.071 -0.09,-0.035 h -0.052 l -0.144,-0.072 -0.125,-0.071 -0.072,-0.036 -0.072,-0.036 -0.125,-0.071 h -0.018 l -0.144,-0.071 -0.035,-0.036 -0.108,-0.036 -0.09,-0.071 h -0.035 l -0.125,-0.072 -0.037,-0.035 -0.107,-0.035 -0.072,-0.072 -0.07,-0.035 -0.126,-0.072 -0.125,-0.071 -0.072,-0.035 -0.072,-0.036 -0.107,-0.072 h -0.018 l -0.125,-0.106 h -0.037 l -0.107,-0.072 -0.089,-0.071 h -0.035 l -0.126,-0.107 h -0.018 l -0.107,-0.071 -0.072,-0.071 -0.053,-0.035 -0.144,-0.072 -0.107,-0.107 -0.055,-0.035 -0.072,-0.037 -0.107,-0.071 -0.018,-0.035 -0.125,-0.071 -0.037,-0.037 -0.089,-0.07 -0.07,-0.072 -0.037,-0.036 -0.125,-0.071 -0.018,-0.035 -0.107,-0.071 -0.072,-0.072 -0.037,-0.036 -0.125,-0.07 -0.125,-0.108 -0.037,-0.071 -0.072,-0.035 -0.107,-0.072 v -0.035 l -0.125,-0.107 -0.035,-0.035 -0.089,-0.072 -0.072,-0.072 -0.037,-0.035 -0.107,-0.107 h -0.018 l -0.089,-0.107 -0.072,-0.036 -0.035,-0.036 -0.107,-0.107 c -1.056,-1.072 -1.986,-2.289 -2.755,-3.577 l -0.072,-0.107 -0.035,-0.071 -0.072,-0.107 -0.037,-0.071 -0.07,-0.108 -0.037,-0.07 -0.072,-0.143 -0.035,-0.037 -0.072,-0.143 -0.035,-0.072 -0.072,-0.143 -0.018,-0.036 -0.089,-0.143 v -0.036 l -0.089,-0.18 -0.018,-0.034 -0.072,-0.179 v 0 l -0.107,-0.18 v -0.035 l -0.072,-0.18 v 0 l -0.107,-0.215 v 0 l -0.072,-0.178 v 0 l -0.072,-0.215 v 0 l -0.089,-0.18 -0.018,-0.035 -0.053,-0.18 -0.02,-0.035 -0.07,-0.179 v -0.036 l -0.055,-0.18 -0.018,-0.035 -0.072,-0.143 v -0.072 l -0.054,-0.143 -0.018,-0.072 -0.035,-0.143 -0.035,-0.035 -0.037,-0.18 -0.018,-0.071 -0.035,-0.144 -0.02,-0.071 -0.035,-0.144 -0.035,-0.071 -0.037,-0.144 v 0 h -47.889 c -0.447,1.754 -1.126,3.399 -2.021,4.902 l 19.429,19.427 c 1.938,-0.916 4.102,-1.381 6.374,-1.381 z"
   style="clip-rule:evenodd;fill:#e5e5e5;fill-opacity:1;fill-rule:evenodd"
   id="path1352" />

</g>

</g><g
       id="Layer_1"
       style="fill:#e5e5e5;fill-opacity:1" /></g></svg>
