<?xml version="1.0" encoding="UTF-8" standalone="no"?>
<svg
   width="40"
   height="40"
   viewBox="0 0 40 40"
   fill="none"
   version="1.1"
   id="svg8"
   sodipodi:docname="ionic.svg"
   inkscape:export-filename="ionic1.svg"
   inkscape:export-xdpi="96"
   inkscape:export-ydpi="96"
   xmlns:inkscape="http://www.inkscape.org/namespaces/inkscape"
   xmlns:sodipodi="http://sodipodi.sourceforge.net/DTD/sodipodi-0.dtd"
   xmlns="http://www.w3.org/2000/svg"
   xmlns:svg="http://www.w3.org/2000/svg">
  <defs
     id="defs12" />
  <sodipodi:namedview
     id="namedview10"
     pagecolor="#ffffff"
     bordercolor="#000000"
     borderopacity="0.25"
     inkscape:showpageshadow="2"
     inkscape:pageopacity="0.0"
     inkscape:pagecheckerboard="0"
     inkscape:deskcolor="#d1d1d1"
     showgrid="false" />
  <path
     d="m 19.7,11.5399 c -1.7305,0 -3.4222,0.5132 -4.8611,1.4746 -1.4389,0.9615 -2.5604,2.328 -3.2227,3.9268 -0.6622,1.5988 -0.8355,3.3581 -0.4979,5.0554 0.3376,1.6973 1.171,3.2564 2.3947,4.4801 1.2236,1.2237 2.7827,2.057 4.48,2.3946 1.6973,0.3377 3.4566,0.1644 5.0554,-0.4979 1.5989,-0.6622 2.9654,-1.7837 3.9268,-3.2226 0.9615,-1.4389 1.4747,-3.1306 1.4747,-4.8612 C 28.4471,17.97 27.5243,15.746 25.884,14.1057 24.2437,12.4654 22.0198,11.5427 19.7,11.5399 Z"
     fill="black"
     id="path2"
     style="fill:#e5e5e5;fill-opacity:1" />
  <path
     d="m 32.2631,12.3156 c 2.2012,0 3.9857,-1.7845 3.9857,-3.98574 0,-2.20127 -1.7845,-3.98574 -3.9857,-3.98574 -2.2013,0 -3.9858,1.78447 -3.9858,3.98574 0,2.20124 1.7845,3.98574 3.9858,3.98574 z"
     fill="black"
     id="path4"
     style="fill:#e5e5e5;fill-opacity:1" />
  <path
     d="m 37.1708,12.3365 -0.1672,-0.3656 -0.2612,0.3029 c -0.6534,0.7415 -1.4797,1.3103 -2.4055,1.656 l -0.2612,0.094 0.1045,0.2612 c 1.4076,3.3851 1.5857,7.1562 0.5035,10.6589 -1.0821,3.5028 -3.3564,6.5162 -6.4281,8.5174 -3.0717,2.0012 -6.7471,2.864 -10.3884,2.4386 C 14.2258,35.4745 10.8483,33.7878 8.32054,31.1324 5.7928,28.4771 4.27438,25.0206 4.02871,21.3628 3.78305,17.7049 4.82564,14.0764 6.97561,11.1069 9.12558,8.1374 12.2472,6.01422 15.799,5.10574 19.3508,4.19725 23.1085,4.5608 26.4202,6.1333 l 0.2456,0.11753 0.107,-0.26119 C 27.1632,5.08178 27.7714,4.28423 28.5437,3.66768 L 28.8571,3.40649 28.4993,3.22104 C 25.7809,1.80817 22.7609,1.07423 19.6972,1.08191 15.5493,1.0825 11.5131,2.42637 8.19272,4.91238 4.87232,7.39838 2.44628,10.8928 1.2777,14.8727 c -1.168578,3.98 -1.016862,8.2313 0.43245,12.1178 1.44931,3.8865 4.11826,7.1991 7.60742,9.4421 3.48913,2.243 7.61093,3.2957 11.74833,3.0006 4.1374,-0.295 8.068,-1.9221 11.2035,-4.6375 3.1355,-2.7155 5.3074,-6.3734 6.1904,-10.4262 0.8831,-4.0529 0.4299,-8.2827 -1.2916,-12.0565 z"
     fill="black"
     id="path6"
     style="fill:#e5e5e5;fill-opacity:1" />
</svg>
