<?xml version="1.0" encoding="UTF-8" standalone="no"?>
<svg
   width="40"
   height="40"
   viewBox="0 0 40 40"
   fill="none"
   version="1.1"
   id="svg888"
   xmlns="http://www.w3.org/2000/svg"
   xmlns:svg="http://www.w3.org/2000/svg">
  <g
     clip-path="url(#clip0_6576_21117)"
     id="g881"
     style="fill:#999999;fill-opacity:1">
    <path
       d="M 28.5856,32.9724 C 24.059,35.576 17.8351,35.8436 11.5733,33.1713 6.5032,31.0235 2.29637,27.2638 -0.400391,22.9681 0.894063,24.042 2.40423,24.9016 4.02225,25.6529 10.4889,28.6709 16.9542,28.4642 21.5041,25.6606 15.0318,20.7198 9.52362,14.2676 5.42475,9.00521 4.56142,8.14589 3.9142,7.07177 3.26697,6.10515 8.22898,10.6162 16.1038,16.3084 18.9079,17.9202 12.9759,11.6901 7.6898,3.95731 7.90512,4.17171 17.2901,13.6236 26.0281,18.9941 26.0281,18.9941 c 0.289,0.1623 0.5121,0.2975 0.6915,0.4182 0.1891,-0.479 0.355,-0.9764 0.4947,-1.4921 1.5101,-5.4778 -0.2154,-11.70785 -3.9912,-16.86306 8.737,5.26289 13.9154,15.14406 11.7573,23.41476 -0.0562,0.2231 -0.1174,0.4433 -0.1833,0.6596 4.3142,5.3706 3.2036,11.1554 2.6644,10.0815 -2.3405,-4.5603 -6.6732,-3.1658 -8.8759,-2.2406 z"
       fill="#000000"
       id="path879"
       style="fill:#999999;fill-opacity:1" />
  </g>
  <defs
     id="defs886">
    <clipPath
       id="clip0_6576_21117">
      <rect
         width="38.400002"
         height="38.400002"
         fill="#ffffff"
         transform="translate(0.799805,0.800003)"
         id="rect883"
         x="0"
         y="0" />
    </clipPath>
  </defs>
</svg>
