<?xml version="1.0" encoding="UTF-8" standalone="no"?>
<svg
   width="40"
   height="40"
   viewBox="0 0 40 39.999999"
   fill="none"
   version="1.1"
   id="svg13"
   xml:space="preserve"
   xmlns="http://www.w3.org/2000/svg"
   xmlns:svg="http://www.w3.org/2000/svg"><defs
     id="defs11" /><g
     style="fill:#999999;fill-opacity:1"
     id="g1564"
     transform="matrix(0.63087747,0,0,0.6484387,1.0736759,0.546839)"><g
       id="g1524"
       style="fill:#999999;fill-opacity:1">
	<g
   id="g1522"
   style="fill:#999999;fill-opacity:1">
		<path
   d="M 59,0 H 1 C 0.4,0 0,0.4 0,1 v 58 c 0,0.6 0.4,1 1,1 h 58 c 0.6,0 1,-0.4 1,-1 V 1 C 60,0.4 59.6,0 59,0 Z M 58,58 H 2 V 2 h 56 z"
   id="path1460"
   style="fill:#999999;fill-opacity:1" />
		<path
   d="m 5,22 h 50 c 0.6,0 1,-0.4 1,-1 V 5 C 56,4.4 55.6,4 55,4 H 5 C 4.4,4 4,4.4 4,5 v 16 c 0,0.6 0.4,1 1,1 z M 6,6 H 54 V 20 H 6 Z"
   id="path1462"
   style="fill:#999999;fill-opacity:1" />
		<path
   d="m 5,38 h 20 c 0.6,0 1,-0.4 1,-1 V 25 c 0,-0.6 -0.4,-1 -1,-1 H 5 c -0.6,0 -1,0.4 -1,1 v 12 c 0,0.6 0.4,1 1,1 z M 6,26 H 24 V 36 H 6 Z"
   id="path1464"
   style="fill:#999999;fill-opacity:1" />
		<rect
   x="28"
   y="24"
   width="6"
   height="2"
   id="rect1466"
   style="fill:#999999;fill-opacity:1" />
		<rect
   x="28"
   y="28"
   width="28"
   height="2"
   id="rect1468"
   style="fill:#999999;fill-opacity:1" />
		<rect
   x="28"
   y="32"
   width="28"
   height="2"
   id="rect1470"
   style="fill:#999999;fill-opacity:1" />
		<rect
   x="28"
   y="36"
   width="28"
   height="2"
   id="rect1472"
   style="fill:#999999;fill-opacity:1" />
		<rect
   x="36"
   y="24"
   width="6"
   height="2"
   id="rect1474"
   style="fill:#999999;fill-opacity:1" />
		<path
   d="m 5,48 h 6 c 0.6,0 1,-0.4 1,-1 v -6 c 0,-0.6 -0.4,-1 -1,-1 H 5 c -0.6,0 -1,0.4 -1,1 v 6 c 0,0.6 0.4,1 1,1 z m 1,-6 h 4 v 4 H 6 Z"
   id="path1476"
   style="fill:#999999;fill-opacity:1" />
		<rect
   x="14"
   y="41"
   width="2"
   height="2"
   id="rect1478"
   style="fill:#999999;fill-opacity:1" />
		<rect
   x="14"
   y="45"
   width="12"
   height="2"
   id="rect1480"
   style="fill:#999999;fill-opacity:1" />
		<rect
   x="18"
   y="41"
   width="2"
   height="2"
   id="rect1482"
   style="fill:#999999;fill-opacity:1" />
		<path
   d="m 42,47 v -6 c 0,-0.6 -0.4,-1 -1,-1 h -6 c -0.6,0 -1,0.4 -1,1 v 6 c 0,0.6 0.4,1 1,1 h 6 c 0.6,0 1,-0.4 1,-1 z m -2,-1 h -4 v -4 h 4 z"
   id="path1484"
   style="fill:#999999;fill-opacity:1" />
		<rect
   x="44"
   y="41"
   width="2"
   height="2"
   id="rect1486"
   style="fill:#999999;fill-opacity:1" />
		<rect
   x="44"
   y="45"
   width="12"
   height="2"
   id="rect1488"
   style="fill:#999999;fill-opacity:1" />
		<rect
   x="48"
   y="41"
   width="2"
   height="2"
   id="rect1490"
   style="fill:#999999;fill-opacity:1" />
		<rect
   x="52"
   y="41"
   width="2"
   height="2"
   id="rect1492"
   style="fill:#999999;fill-opacity:1" />
		<rect
   x="22"
   y="41"
   width="2"
   height="2"
   id="rect1494"
   style="fill:#999999;fill-opacity:1" />
		<rect
   x="5"
   y="52"
   width="2"
   height="2"
   id="rect1496"
   style="fill:#999999;fill-opacity:1" />
		<rect
   x="9"
   y="52"
   width="2"
   height="2"
   id="rect1498"
   style="fill:#999999;fill-opacity:1" />
		<rect
   x="13"
   y="52"
   width="2"
   height="2"
   id="rect1500"
   style="fill:#999999;fill-opacity:1" />
		<rect
   x="17"
   y="52"
   width="2"
   height="2"
   id="rect1502"
   style="fill:#999999;fill-opacity:1" />
		<rect
   x="21"
   y="52"
   width="2"
   height="2"
   id="rect1504"
   style="fill:#999999;fill-opacity:1" />
		<rect
   x="25"
   y="52"
   width="2"
   height="2"
   id="rect1506"
   style="fill:#999999;fill-opacity:1" />
		<rect
   x="29"
   y="52"
   width="2"
   height="2"
   id="rect1508"
   style="fill:#999999;fill-opacity:1" />
		<rect
   x="33"
   y="52"
   width="2"
   height="2"
   id="rect1510"
   style="fill:#999999;fill-opacity:1" />
		<rect
   x="37"
   y="52"
   width="2"
   height="2"
   id="rect1512"
   style="fill:#999999;fill-opacity:1" />
		<rect
   x="41"
   y="52"
   width="2"
   height="2"
   id="rect1514"
   style="fill:#999999;fill-opacity:1" />
		<rect
   x="45"
   y="52"
   width="2"
   height="2"
   id="rect1516"
   style="fill:#999999;fill-opacity:1" />
		<rect
   x="49"
   y="52"
   width="2"
   height="2"
   id="rect1518"
   style="fill:#999999;fill-opacity:1" />
		<rect
   x="53"
   y="52"
   width="2"
   height="2"
   id="rect1520"
   style="fill:#999999;fill-opacity:1" />
	</g>
</g></g></svg>
