<?xml version="1.0" encoding="UTF-8" standalone="no"?>
<svg
   width="40"
   height="40"
   viewBox="0 0 40 40"
   fill="none"
   version="1.1"
   id="svg13"
   xmlns="http://www.w3.org/2000/svg"
   xmlns:svg="http://www.w3.org/2000/svg">
  <g
     clip-path="url(#clip0_6576_21158)"
     id="g6"
     style="fill:#999999;fill-opacity:1">
    <path
       d="m 23.4288,19.9692 c 0,-1.8361 -1.5351,-3.3247 -3.429,-3.3247 -1.8937,0 -3.429,1.4886 -3.429,3.3247 0,1.8362 1.5353,3.3248 3.429,3.3248 1.8939,0 3.429,-1.4886 3.429,-3.3248 z"
       fill="black"
       id="path2"
       style="fill:#999999;fill-opacity:1" />
    <path
       fill-rule="evenodd"
       clip-rule="evenodd"
       d="M 31.1363,13.7967 C 31.8604,10.9437 32.7707,5.6531 29.5619,3.85941 26.3682,2.07353 22.2122,5.49558 20.0177,7.54968 17.8295,5.51606 13.5567,2.10863 10.3507,3.90801 7.15821,5.69987 8.14271,10.9028 8.88288,13.7737 c -2.97804,0.8201 -8.083075,2.5865 -8.083075,6.1955 0,3.5987 5.099725,5.5205 8.060135,6.3398 -0.74292,2.8868 -1.67811,8.0154 1.51846,9.8032 3.2179,1.7991 7.4774,-1.5272 9.6923,-3.6038 2.2086,2.0662 6.3248,5.4142 9.5191,3.6214 3.2044,-1.7985 2.3698,-7.0183 1.6296,-9.9058 2.8697,-0.8211 7.9804,-2.701 7.9804,-6.2548 0,-3.5744 -5.1324,-5.3551 -8.0635,-6.1725 z m -0.3637,10.897 c -0.486,-1.4917 -1.142,-3.078 -1.9445,-4.7166 0.7659,-1.6 1.3964,-3.1658 1.8689,-4.648 2.1487,0.604 6.8625,1.9846 6.8625,4.6401 0,2.6804 -4.5234,4.0739 -6.7869,4.7245 z m -2.0048,10.0596 c -2.3833,1.3376 -5.9237,-1.8642 -7.5548,-3.3858 1.0821,-1.1474 2.1634,-2.4815 3.2188,-3.9628 1.8565,-0.1596 3.6103,-0.4208 5.2008,-0.7772 0.521,2.0425 1.5291,6.7821 -0.8648,8.1258 z M 11.198,34.7342 c -2.38357,-1.3326 -1.29409,-5.9091 -0.7476,-8.0355 1.5729,0.3373 3.314,0.58 5.1749,0.7263 1.0623,1.4495 2.1749,2.7819 3.2962,3.9486 -1.3854,1.2994 -5.3287,4.6994 -7.7235,3.3606 z M 2.44011,19.9692 c 0,-2.6905 4.68554,-4.0609 6.88327,-4.6635 0.4806,1.5155 1.11092,3.0999 1.87162,4.7022 -0.7706,1.6261 -1.40988,3.2358 -1.89491,4.769 C 7.20453,24.1954 2.44011,22.6613 2.44011,19.9692 Z M 11.1725,5.28453 c 2.3934,-1.3432 6.1069,1.92805 7.6956,3.40044 -1.1155,1.16149 -2.2179,2.48383 -3.271,3.92493 -1.806,0.1623 -3.5349,0.4229 -5.1242,0.7721 C 9.87661,11.0665 8.78178,6.62629 11.1725,5.28453 Z m 14.4328,9.05417 c 1.2253,0.1499 2.3991,0.3493 3.5013,0.5933 -0.3309,1.0284 -0.7433,2.1037 -1.229,3.206 -0.7042,-1.2954 -1.46,-2.5647 -2.2723,-3.7993 z M 20.0182,9.82157 c 0.7566,0.79473 1.5143,1.68213 2.2597,2.64493 -1.512,-0.0693 -3.0265,-0.0696 -4.5385,-10e-4 0.746,-0.9538 1.5103,-1.84 2.2788,-2.64393 z m -7.8821,8.31533 c -0.4777,-1.0986 -0.8864,-2.1787 -1.2202,-3.2217 1.0957,-0.2377 2.264,-0.432 3.4813,-0.5795 -0.8145,1.2319 -1.5691,2.5007 -2.2611,3.8012 z m 2.2962,7.5792 c -1.2576,-0.1361 -2.4437,-0.3205 -3.539,-0.5516 0.3391,-1.0615 0.7568,-2.1648 1.2447,-3.2869 0.7015,1.3138 1.4675,2.595 2.2943,3.8385 z m 5.6312,4.513 c -0.7775,-0.8135 -1.5529,-1.7131 -2.3104,-2.6809 1.5207,0.058 3.0443,0.0581 4.5647,-0.0077 -0.7477,0.9854 -1.5028,1.8863 -2.2543,2.6886 z m 7.8297,-8.4087 c 0.5133,1.1343 0.9459,2.2317 1.2896,3.2752 -1.1135,0.2463 -2.3155,0.4447 -3.5821,0.592 0.8183,-1.2579 1.5861,-2.547 2.2925,-3.8672 z m -4.3769,4.06 c -2.3259,0.1611 -4.6665,0.1594 -6.9932,0.0132 -1.3222,-1.8725 -2.499,-3.8418 -3.515,-5.8862 1.011,-2.0402 2.1794,-4.0056 3.4953,-5.8752 2.3285,-0.1707 4.6712,-0.1711 6.9996,0.001 1.3046,1.8695 2.4712,3.8298 3.5057,5.8516 -1.0222,2.0392 -2.1967,4.0085 -3.4924,5.8956 z M 28.7426,5.23724 c 2.394,1.33881 1.3284,6.09366 0.8054,8.16126 -1.5931,-0.3564 -3.3231,-0.6217 -5.1344,-0.7865 -1.0552,-1.4567 -2.1484,-2.78136 -3.2459,-3.92786 1.6091,-1.5041 5.2041,-4.7726 7.5749,-3.4469 z"
       fill="black"
       id="path4"
       style="fill:#999999;fill-opacity:1" />
  </g>
  <defs
     id="defs11">
    <clipPath
       id="clip0_6576_21158">
      <rect
         width="38.400002"
         height="38.400002"
         fill="#ffffff"
         transform="translate(0.799805,0.800003)"
         id="rect8"
         x="0"
         y="0" />
    </clipPath>
  </defs>
</svg>
