<?xml version="1.0" encoding="UTF-8" standalone="no"?>
<svg
   width="29.200987"
   height="40.182156"
   viewBox="0 0 29.200987 40.182155"
   fill="none"
   version="1.1"
   id="svg13"
   xml:space="preserve"
   xmlns="http://www.w3.org/2000/svg"
   xmlns:svg="http://www.w3.org/2000/svg"><defs
     id="defs11" /><g
     style="fill:#999999;fill-opacity:1"
     id="g358"
     transform="matrix(0.08018878,0,0,0.07743369,-5.6218909,0.49252811)"><g
       id="g294"
       style="fill:#999999;fill-opacity:1">
	<g
   id="g292"
   style="fill:#999999;fill-opacity:1">
		<path
   d="M 407.742,210.065 H 382.968 V 150.71 c 0,-21.629 -17.597,-39.226 -39.226,-39.226 H 314.839 V 86.71 c 0,-5.7 -4.621,-10.323 -10.323,-10.323 h -6.443 V 10.323 C 298.073,4.623 293.452,0 287.75,0 H 189.153 C 183.452,0 178.83,4.622 178.83,10.323 v 66.065 h -6.443 c -5.701,0 -10.323,4.622 -10.323,10.323 v 24.774 h -28.903 c -21.629,0 -39.226,17.597 -39.226,39.226 V 361.29 c 0,21.629 17.597,39.226 39.226,39.226 h 28.903 v 24.774 c 0,5.7 4.621,10.323 10.323,10.323 h 6.443 v 66.065 c 0,5.7 4.621,10.323 10.323,10.323 h 98.597 c 5.701,0 10.323,-4.622 10.323,-10.323 v -66.065 h 6.443 c 5.701,0 10.323,-4.622 10.323,-10.323 v -24.774 h 28.903 c 21.629,0 39.226,-17.597 39.226,-39.226 v -59.355 h 24.774 c 5.701,0 10.323,-4.622 10.323,-10.323 v -71.226 c 0,-5.699 -4.622,-10.321 -10.323,-10.321 z M 199.476,20.645 h 77.952 V 76.387 H 199.476 Z M 182.71,97.032 h 111.484 v 14.452 H 182.71 Z m 94.718,394.323 h -77.952 v -55.742 h 77.952 z m 16.766,-76.387 H 182.71 v -14.452 h 111.484 z m 68.129,-53.678 c 0,10.245 -8.336,18.581 -18.581,18.581 H 133.161 c -10.245,0 -18.581,-8.336 -18.581,-18.581 V 150.71 c 0,-10.245 8.336,-18.581 18.581,-18.581 h 210.581 c 10.245,0 18.581,8.336 18.581,18.581 z m 35.096,-80 h -14.452 v -50.58 h 14.452 z"
   id="path290"
   style="fill:#999999;fill-opacity:1" />
	</g>
</g><g
       id="g300"
       style="fill:#999999;fill-opacity:1">
	<g
   id="g298"
   style="fill:#999999;fill-opacity:1">
		<path
   d="m 249.29,346.839 h -21.677 c -5.701,0 -10.323,4.622 -10.323,10.323 0,5.701 4.621,10.323 10.323,10.323 h 21.677 c 5.701,0 10.323,-4.622 10.323,-10.323 0,-5.701 -4.622,-10.323 -10.323,-10.323 z"
   id="path296"
   style="fill:#999999;fill-opacity:1" />
	</g>
</g><g
       id="g306"
       style="fill:#999999;fill-opacity:1">
	<g
   id="g304"
   style="fill:#999999;fill-opacity:1">
		<path
   d="m 162.065,346.839 h -21.677 c -5.701,0 -10.323,4.622 -10.323,10.323 0,5.701 4.621,10.323 10.323,10.323 h 21.677 c 5.701,0 10.323,-4.622 10.323,-10.323 0,-5.701 -4.622,-10.323 -10.323,-10.323 z"
   id="path302"
   style="fill:#999999;fill-opacity:1" />
	</g>
</g><g
       id="g312"
       style="fill:#999999;fill-opacity:1">
	<g
   id="g310"
   style="fill:#999999;fill-opacity:1">
		<path
   d="m 336.516,346.839 h -21.677 c -5.701,0 -10.323,4.622 -10.323,10.323 0,5.701 4.621,10.323 10.323,10.323 h 21.677 c 5.701,0 10.323,-4.622 10.323,-10.323 0,-5.701 -4.622,-10.323 -10.323,-10.323 z"
   id="path308"
   style="fill:#999999;fill-opacity:1" />
	</g>
</g><g
       id="g318"
       style="fill:#999999;fill-opacity:1">
	<g
   id="g316"
   style="fill:#999999;fill-opacity:1">
		<path
   d="m 249.29,146.581 h -21.677 c -5.701,0 -10.323,4.622 -10.323,10.323 0,5.701 4.621,10.323 10.323,10.323 h 21.677 c 5.701,0 10.323,-4.622 10.323,-10.323 0,-5.701 -4.622,-10.323 -10.323,-10.323 z"
   id="path314"
   style="fill:#999999;fill-opacity:1" />
	</g>
</g><g
       id="g324"
       style="fill:#999999;fill-opacity:1">
	<g
   id="g322"
   style="fill:#999999;fill-opacity:1">
		<path
   d="m 297.865,283.737 c -4.74,-3.167 -11.15,-1.892 -14.318,2.847 -10.096,15.107 -26.954,24.126 -45.095,24.126 -29.883,0 -54.194,-24.312 -54.194,-54.194 0,-29.882 24.311,-54.194 54.194,-54.194 5.701,0 10.323,-4.622 10.323,-10.323 0,-5.701 -4.621,-10.323 -10.323,-10.323 -41.267,0 -74.839,33.572 -74.839,74.839 0,41.267 33.572,74.839 74.839,74.839 25.05,0 48.324,-12.449 62.26,-33.3 3.167,-4.739 1.893,-11.149 -2.847,-14.317 z"
   id="path320"
   style="fill:#999999;fill-opacity:1" />
	</g>
</g><g
       id="g330"
       style="fill:#999999;fill-opacity:1">
	<g
   id="g328"
   style="fill:#999999;fill-opacity:1">
		<path
   d="m 302.968,246.194 c -5.701,0 -10.323,4.622 -10.323,10.323 0,1.305 -0.046,2.62 -0.138,3.911 -0.406,5.687 3.876,10.625 9.563,11.031 0.25,0.019 0.497,0.026 0.744,0.026 5.367,0 9.897,-4.152 10.285,-9.589 0.127,-1.778 0.191,-3.587 0.191,-5.379 0,-5.701 -4.621,-10.323 -10.322,-10.323 z"
   id="path326"
   style="fill:#999999;fill-opacity:1" />
	</g>
</g></g></svg>
